M48
;DRILL file {KiCad (2018-01-19 revision 673f03e59)-master} date Sun Jan 28 17:11:38 2018
;FORMAT={-:-/ absolute / inch / decimal}
FMAT,2
INCH,TZ
T1C0.0197
T2C0.0315
T3C0.0315
T4C0.1260
T5C0.3307
%
G90
G05
M72
T1
X10.624Y-3.248
X10.6517Y-3.1812
X10.6517Y-3.3148
X10.7185Y-3.1535
X10.7185Y-3.3425
X10.7853Y-3.1812
X10.7853Y-3.3148
X10.813Y-3.248
X10.2402Y-4.8031
X10.2678Y-4.7363
X10.2678Y-4.87
X10.3346Y-4.7087
X10.3346Y-4.8976
X10.4015Y-4.7363
X10.4015Y-4.87
X10.4291Y-4.8031
X10.624Y-5.0197
X10.6517Y-4.9529
X10.6517Y-5.0865
X10.7185Y-4.9252
X10.7185Y-5.1142
X10.7853Y-4.9529
X10.7853Y-5.0865
X10.813Y-5.0197
X5.1417Y-3.5236
X5.1694Y-3.4568
X5.1694Y-3.5904
X5.2362Y-3.4291
X5.2362Y-3.6181
X5.303Y-3.4568
X5.303Y-3.5904
X5.3307Y-3.5236
X6.3622Y-4.7539
X6.3899Y-4.6871
X6.3899Y-4.8208
X6.4567Y-4.6594
X6.4567Y-4.8484
X6.5235Y-4.6871
X6.5235Y-4.8208
X6.5512Y-4.7539
X10.2402Y-3.4744
X10.2678Y-3.4076
X10.2678Y-3.5412
X10.3346Y-3.3799
X10.3346Y-3.5689
X10.4015Y-3.4076
X10.4015Y-3.5412
X10.4291Y-3.4744
X6.3622Y-3.5236
X6.3899Y-3.4568
X6.3899Y-3.5904
X6.4567Y-3.4291
X6.4567Y-3.6181
X6.5235Y-3.4568
X6.5235Y-3.5904
X6.5512Y-3.5236
X5.1417Y-4.7441
X5.1694Y-4.6773
X5.1694Y-4.8109
X5.2362Y-4.6496
X5.2362Y-4.8386
X5.303Y-4.6773
X5.303Y-4.8109
X5.3307Y-4.7441
X11.3917Y-4.1339
X11.4194Y-4.067
X11.4194Y-4.2007
X11.4862Y-4.0394
X11.4862Y-4.2283
X11.553Y-4.067
X11.553Y-4.2007
X11.5807Y-4.1339
T2
X8.0591Y-4.685
X8.1317Y-4.5097
X8.1317Y-4.8604
X8.3071Y-4.437
X8.3071Y-4.9331
X8.4825Y-4.5097
X8.4825Y-4.8604
X8.5551Y-4.685
T3
X6.4567Y-5.2953
X6.8464Y-3.9134
X5.2362Y-2.9724
X5.626Y-3.1339
X6.0669Y-4.3544
X5.9449Y-3.5236
X4.8465Y-3.1339
X4.685Y-4.7441
X5.626Y-3.9134
X6.8464Y-4.3544
X6.0669Y-3.1339
X4.8465Y-4.3544
X11.4173Y-4.3307
X6.0669Y-5.1338
X5.2362Y-4.2224
X4.8465Y-5.1338
X6.8464Y-3.1339
X11.4173Y-3.937
X6.8464Y-5.1338
X6.9685Y-4.7441
X5.2362Y-4.0354
X5.626Y-4.3544
X6.4567Y-2.9724
X5.9449Y-4.7441
X6.0669Y-3.9134
X4.685Y-3.5236
X5.748Y-4.7441
X6.4567Y-4.0354
X6.4567Y-4.2224
X6.9685Y-3.5236
X4.8465Y-3.9134
X5.626Y-5.1338
X5.748Y-3.5236
X5.2362Y-5.2953
T4
X11.4862Y-4.1339
X10.7185Y-3.248
X10.3346Y-4.8031
X10.7185Y-5.0197
X5.2362Y-3.5236
X6.4567Y-4.7539
X10.3346Y-3.4744
X6.4567Y-3.5236
X5.2362Y-4.7441
T5
X8.3071Y-4.685
T0
M30
