M48
;DRILL file {KiCad (2018-01-19 revision 673f03e59)-master} date Sun Jan 28 17:11:38 2018
;FORMAT={-:-/ absolute / inch / decimal}
FMAT,2
INCH,TZ
T1C0.0197
%
G90
G05
M72
T1
X7.3622Y-4.1732
X7.4016Y-4.1732
X7.4409Y-4.1732
X7.4803Y-4.1732
X7.5197Y-4.1732
X7.0276Y-3.4449
X7.0276Y-3.4843
X7.0276Y-3.5236
X7.0276Y-3.563
X7.0276Y-3.6024
X6.378Y-4.1634
X6.4173Y-4.1634
X6.4567Y-4.1634
X6.4961Y-4.1634
X6.5354Y-4.1634
X10.1772Y-4.5079
X10.1772Y-4.5472
X10.1772Y-4.5866
X10.1772Y-4.626
X10.1772Y-4.6654
X7.1063Y-4.6654
X7.1063Y-4.7047
X7.1063Y-4.7441
X7.1063Y-4.7835
X7.1063Y-4.8228
X7.3622Y-4.0945
X7.4016Y-4.0945
X7.4409Y-4.0945
X7.4803Y-4.0945
X7.5197Y-4.0945
X5.8071Y-4.6654
X5.8071Y-4.7047
X5.8071Y-4.7441
X5.8071Y-4.7835
X5.8071Y-4.8228
X6.378Y-4.0945
X6.4173Y-4.0945
X6.4567Y-4.0945
X6.4961Y-4.0945
X6.5354Y-4.0945
X10.0984Y-4.5079
X10.0984Y-4.5472
X10.0984Y-4.5866
X10.0984Y-4.626
X10.0984Y-4.6654
X5.8071Y-3.4449
X5.8071Y-3.4843
X5.8071Y-3.5236
X5.8071Y-3.563
X5.8071Y-3.6024
X7.0276Y-4.6654
X7.0276Y-4.7047
X7.0276Y-4.7441
X7.0276Y-4.7835
X7.0276Y-4.8228
X9.685Y-4.0945
X9.7244Y-4.0945
X9.7638Y-4.0945
X9.8031Y-4.0945
X9.8425Y-4.0945
X9.685Y-4.1732
X9.7244Y-4.1732
X9.7638Y-4.1732
X9.8031Y-4.1732
X9.8425Y-4.1732
X5.1575Y-4.0945
X5.1969Y-4.0945
X5.2362Y-4.0945
X5.2756Y-4.0945
X5.315Y-4.0945
X5.8858Y-4.6654
X5.8858Y-4.7047
X5.8858Y-4.7441
X5.8858Y-4.7835
X5.8858Y-4.8228
X5.8858Y-3.4449
X5.8858Y-3.4843
X5.8858Y-3.5236
X5.8858Y-3.563
X5.8858Y-3.6024
X10.0984Y-3.6024
X10.0984Y-3.6417
X10.0984Y-3.6811
X10.0984Y-3.7205
X10.0984Y-3.7598
X10.1772Y-3.6024
X10.1772Y-3.6417
X10.1772Y-3.6811
X10.1772Y-3.7205
X10.1772Y-3.7598
X7.1063Y-3.4449
X7.1063Y-3.4843
X7.1063Y-3.5236
X7.1063Y-3.563
X7.1063Y-3.6024
X5.1575Y-4.1634
X5.1969Y-4.1634
X5.2362Y-4.1634
X5.2756Y-4.1634
X5.315Y-4.1634
T0
M30
