G04 #@! TF.GenerationSoftware,KiCad,Pcbnew,(2018-01-19 revision 673f03e59)-master*
G04 #@! TF.CreationDate,2018-01-28T17:11:35+01:00*
G04 #@! TF.ProjectId,microman-mech,6D6963726F6D616E2D6D6563682E6B69,rev?*
G04 #@! TF.SameCoordinates,Original*
G04 #@! TF.FileFunction,Legend,Top*
G04 #@! TF.FilePolarity,Positive*
%FSLAX46Y46*%
G04 Gerber Fmt 4.6, Leading zero omitted, Abs format (unit mm)*
G04 Created by KiCad (PCBNEW (2018-01-19 revision 673f03e59)-master) date Sun Jan 28 17:11:35 2018*
%MOMM*%
%LPD*%
G01*
G04 APERTURE LIST*
%ADD10C,0.150000*%
%ADD11C,0.200000*%
%ADD12C,2.148980*%
%ADD13C,0.650000*%
%ADD14C,0.750000*%
%ADD15C,6.550000*%
%ADD16C,1.050000*%
%ADD17C,16.950000*%
G04 APERTURE END LIST*
D10*
X200500000Y-129500000D02*
X221500000Y-129500000D01*
X200500000Y-108500000D02*
X200500000Y-129500000D01*
X221500000Y-108500000D02*
X200500000Y-108500000D01*
X221500000Y-129500000D02*
X221500000Y-108500000D01*
X221500000Y-80500000D02*
X200500000Y-80500000D01*
X221500000Y-101500000D02*
X221500000Y-80500000D01*
X200500000Y-101500000D02*
X221500000Y-101500000D01*
X200500000Y-80500000D02*
X200500000Y-101500000D01*
D11*
X273546428Y-101996071D02*
X275046428Y-102183571D01*
X275046428Y-102755000D01*
X274975000Y-102888928D01*
X274903571Y-102951428D01*
X274760714Y-103005000D01*
X274546428Y-102978214D01*
X274403571Y-102888928D01*
X274332142Y-102808571D01*
X274260714Y-102656785D01*
X274260714Y-102085357D01*
X273546428Y-103496071D02*
X274546428Y-103621071D01*
X275046428Y-103683571D02*
X274975000Y-103603214D01*
X274903571Y-103665714D01*
X274975000Y-103746071D01*
X275046428Y-103683571D01*
X274903571Y-103665714D01*
X273617857Y-104790714D02*
X273546428Y-104638928D01*
X273546428Y-104353214D01*
X273617857Y-104219285D01*
X273760714Y-104165714D01*
X274332142Y-104237142D01*
X274475000Y-104326428D01*
X274546428Y-104478214D01*
X274546428Y-104763928D01*
X274475000Y-104897857D01*
X274332142Y-104951428D01*
X274189285Y-104933571D01*
X274046428Y-104201428D01*
X274546428Y-105478214D02*
X274546428Y-106263928D01*
X273546428Y-105353214D01*
X273546428Y-106138928D01*
X273546428Y-106924642D02*
X273617857Y-106790714D01*
X273689285Y-106728214D01*
X273832142Y-106674642D01*
X274260714Y-106728214D01*
X274403571Y-106817500D01*
X274475000Y-106897857D01*
X274546428Y-107049642D01*
X274546428Y-107263928D01*
X274475000Y-107397857D01*
X274403571Y-107460357D01*
X274260714Y-107513928D01*
X273832142Y-107460357D01*
X273689285Y-107371071D01*
X273617857Y-107290714D01*
X273546428Y-107138928D01*
X273546428Y-106924642D01*
X271096428Y-101996071D02*
X272596428Y-102183571D01*
X272596428Y-102755000D01*
X272525000Y-102888928D01*
X272453571Y-102951428D01*
X272310714Y-103005000D01*
X272096428Y-102978214D01*
X271953571Y-102888928D01*
X271882142Y-102808571D01*
X271810714Y-102656785D01*
X271810714Y-102085357D01*
X271096428Y-103496071D02*
X272096428Y-103621071D01*
X271810714Y-103585357D02*
X271953571Y-103674642D01*
X272025000Y-103755000D01*
X272096428Y-103906785D01*
X272096428Y-104049642D01*
X271096428Y-104638928D02*
X271167857Y-104505000D01*
X271239285Y-104442500D01*
X271382142Y-104388928D01*
X271810714Y-104442500D01*
X271953571Y-104531785D01*
X272025000Y-104612142D01*
X272096428Y-104763928D01*
X272096428Y-104978214D01*
X272025000Y-105112142D01*
X271953571Y-105174642D01*
X271810714Y-105228214D01*
X271382142Y-105174642D01*
X271239285Y-105085357D01*
X271167857Y-105005000D01*
X271096428Y-104853214D01*
X271096428Y-104638928D01*
X271096428Y-105781785D02*
X272596428Y-105969285D01*
X272025000Y-105897857D02*
X272096428Y-106049642D01*
X272096428Y-106335357D01*
X272025000Y-106469285D01*
X271953571Y-106531785D01*
X271810714Y-106585357D01*
X271382142Y-106531785D01*
X271239285Y-106442500D01*
X271167857Y-106362142D01*
X271096428Y-106210357D01*
X271096428Y-105924642D01*
X271167857Y-105790714D01*
X271167857Y-107719285D02*
X271096428Y-107567500D01*
X271096428Y-107281785D01*
X271167857Y-107147857D01*
X271310714Y-107094285D01*
X271882142Y-107165714D01*
X272025000Y-107255000D01*
X272096428Y-107406785D01*
X272096428Y-107692500D01*
X272025000Y-107826428D01*
X271882142Y-107880000D01*
X271739285Y-107862142D01*
X271596428Y-107130000D01*
X228996071Y-119953571D02*
X229183571Y-118453571D01*
X229549642Y-119525000D01*
X230183571Y-118453571D01*
X229996071Y-119953571D01*
X230710357Y-119953571D02*
X230835357Y-118953571D01*
X230897857Y-118453571D02*
X230817500Y-118525000D01*
X230880000Y-118596428D01*
X230960357Y-118525000D01*
X230897857Y-118453571D01*
X230880000Y-118596428D01*
X232076428Y-119882142D02*
X231924642Y-119953571D01*
X231638928Y-119953571D01*
X231505000Y-119882142D01*
X231442500Y-119810714D01*
X231388928Y-119667857D01*
X231442500Y-119239285D01*
X231531785Y-119096428D01*
X231612142Y-119025000D01*
X231763928Y-118953571D01*
X232049642Y-118953571D01*
X232183571Y-119025000D01*
X232710357Y-119953571D02*
X232835357Y-118953571D01*
X232799642Y-119239285D02*
X232888928Y-119096428D01*
X232969285Y-119025000D01*
X233121071Y-118953571D01*
X233263928Y-118953571D01*
X233853214Y-119953571D02*
X233719285Y-119882142D01*
X233656785Y-119810714D01*
X233603214Y-119667857D01*
X233656785Y-119239285D01*
X233746071Y-119096428D01*
X233826428Y-119025000D01*
X233978214Y-118953571D01*
X234192500Y-118953571D01*
X234326428Y-119025000D01*
X234388928Y-119096428D01*
X234442500Y-119239285D01*
X234388928Y-119667857D01*
X234299642Y-119810714D01*
X234219285Y-119882142D01*
X234067500Y-119953571D01*
X233853214Y-119953571D01*
X228996071Y-122403571D02*
X229183571Y-120903571D01*
X229549642Y-121975000D01*
X230183571Y-120903571D01*
X229996071Y-122403571D01*
X231353214Y-122403571D02*
X231451428Y-121617857D01*
X231397857Y-121475000D01*
X231263928Y-121403571D01*
X230978214Y-121403571D01*
X230826428Y-121475000D01*
X231362142Y-122332142D02*
X231210357Y-122403571D01*
X230853214Y-122403571D01*
X230719285Y-122332142D01*
X230665714Y-122189285D01*
X230683571Y-122046428D01*
X230772857Y-121903571D01*
X230924642Y-121832142D01*
X231281785Y-121832142D01*
X231433571Y-121760714D01*
X232192500Y-121403571D02*
X232067500Y-122403571D01*
X232174642Y-121546428D02*
X232255000Y-121475000D01*
X232406785Y-121403571D01*
X232621071Y-121403571D01*
X232755000Y-121475000D01*
X232808571Y-121617857D01*
X232710357Y-122403571D01*
X233424642Y-122403571D02*
X233549642Y-121403571D01*
X233612142Y-120903571D02*
X233531785Y-120975000D01*
X233594285Y-121046428D01*
X233674642Y-120975000D01*
X233612142Y-120903571D01*
X233594285Y-121046428D01*
X234263928Y-121403571D02*
X234076428Y-122903571D01*
X234255000Y-121475000D02*
X234406785Y-121403571D01*
X234692500Y-121403571D01*
X234826428Y-121475000D01*
X234888928Y-121546428D01*
X234942500Y-121689285D01*
X234888928Y-122117857D01*
X234799642Y-122260714D01*
X234719285Y-122332142D01*
X234567500Y-122403571D01*
X234281785Y-122403571D01*
X234147857Y-122332142D01*
X236263928Y-121403571D02*
X236138928Y-122403571D01*
X235621071Y-121403571D02*
X235522857Y-122189285D01*
X235576428Y-122332142D01*
X235710357Y-122403571D01*
X235924642Y-122403571D01*
X236076428Y-122332142D01*
X236156785Y-122260714D01*
X237067500Y-122403571D02*
X236933571Y-122332142D01*
X236880000Y-122189285D01*
X237040714Y-120903571D01*
X238281785Y-122403571D02*
X238380000Y-121617857D01*
X238326428Y-121475000D01*
X238192500Y-121403571D01*
X237906785Y-121403571D01*
X237755000Y-121475000D01*
X238290714Y-122332142D02*
X238138928Y-122403571D01*
X237781785Y-122403571D01*
X237647857Y-122332142D01*
X237594285Y-122189285D01*
X237612142Y-122046428D01*
X237701428Y-121903571D01*
X237853214Y-121832142D01*
X238210357Y-121832142D01*
X238362142Y-121760714D01*
X238906785Y-121403571D02*
X239478214Y-121403571D01*
X239183571Y-120903571D02*
X239022857Y-122189285D01*
X239076428Y-122332142D01*
X239210357Y-122403571D01*
X239353214Y-122403571D01*
X239853214Y-122403571D02*
X239978214Y-121403571D01*
X240040714Y-120903571D02*
X239960357Y-120975000D01*
X240022857Y-121046428D01*
X240103214Y-120975000D01*
X240040714Y-120903571D01*
X240022857Y-121046428D01*
X240781785Y-122403571D02*
X240647857Y-122332142D01*
X240585357Y-122260714D01*
X240531785Y-122117857D01*
X240585357Y-121689285D01*
X240674642Y-121546428D01*
X240755000Y-121475000D01*
X240906785Y-121403571D01*
X241121071Y-121403571D01*
X241255000Y-121475000D01*
X241317500Y-121546428D01*
X241371071Y-121689285D01*
X241317500Y-122117857D01*
X241228214Y-122260714D01*
X241147857Y-122332142D01*
X240996071Y-122403571D01*
X240781785Y-122403571D01*
X242049642Y-121403571D02*
X241924642Y-122403571D01*
X242031785Y-121546428D02*
X242112142Y-121475000D01*
X242263928Y-121403571D01*
X242478214Y-121403571D01*
X242612142Y-121475000D01*
X242665714Y-121617857D01*
X242567500Y-122403571D01*
X228746071Y-91703571D02*
X228933571Y-90203571D01*
X229299642Y-91275000D01*
X229933571Y-90203571D01*
X229746071Y-91703571D01*
X230460357Y-91703571D02*
X230585357Y-90703571D01*
X230647857Y-90203571D02*
X230567500Y-90275000D01*
X230630000Y-90346428D01*
X230710357Y-90275000D01*
X230647857Y-90203571D01*
X230630000Y-90346428D01*
X231826428Y-91632142D02*
X231674642Y-91703571D01*
X231388928Y-91703571D01*
X231255000Y-91632142D01*
X231192500Y-91560714D01*
X231138928Y-91417857D01*
X231192500Y-90989285D01*
X231281785Y-90846428D01*
X231362142Y-90775000D01*
X231513928Y-90703571D01*
X231799642Y-90703571D01*
X231933571Y-90775000D01*
X232460357Y-91703571D02*
X232585357Y-90703571D01*
X232549642Y-90989285D02*
X232638928Y-90846428D01*
X232719285Y-90775000D01*
X232871071Y-90703571D01*
X233013928Y-90703571D01*
X233603214Y-91703571D02*
X233469285Y-91632142D01*
X233406785Y-91560714D01*
X233353214Y-91417857D01*
X233406785Y-90989285D01*
X233496071Y-90846428D01*
X233576428Y-90775000D01*
X233728214Y-90703571D01*
X233942500Y-90703571D01*
X234076428Y-90775000D01*
X234138928Y-90846428D01*
X234192500Y-90989285D01*
X234138928Y-91417857D01*
X234049642Y-91560714D01*
X233969285Y-91632142D01*
X233817500Y-91703571D01*
X233603214Y-91703571D01*
X228746071Y-94153571D02*
X228933571Y-92653571D01*
X229299642Y-93725000D01*
X229933571Y-92653571D01*
X229746071Y-94153571D01*
X231103214Y-94153571D02*
X231201428Y-93367857D01*
X231147857Y-93225000D01*
X231013928Y-93153571D01*
X230728214Y-93153571D01*
X230576428Y-93225000D01*
X231112142Y-94082142D02*
X230960357Y-94153571D01*
X230603214Y-94153571D01*
X230469285Y-94082142D01*
X230415714Y-93939285D01*
X230433571Y-93796428D01*
X230522857Y-93653571D01*
X230674642Y-93582142D01*
X231031785Y-93582142D01*
X231183571Y-93510714D01*
X231942500Y-93153571D02*
X231817500Y-94153571D01*
X231924642Y-93296428D02*
X232005000Y-93225000D01*
X232156785Y-93153571D01*
X232371071Y-93153571D01*
X232505000Y-93225000D01*
X232558571Y-93367857D01*
X232460357Y-94153571D01*
X233174642Y-94153571D02*
X233299642Y-93153571D01*
X233362142Y-92653571D02*
X233281785Y-92725000D01*
X233344285Y-92796428D01*
X233424642Y-92725000D01*
X233362142Y-92653571D01*
X233344285Y-92796428D01*
X234013928Y-93153571D02*
X233826428Y-94653571D01*
X234005000Y-93225000D02*
X234156785Y-93153571D01*
X234442500Y-93153571D01*
X234576428Y-93225000D01*
X234638928Y-93296428D01*
X234692500Y-93439285D01*
X234638928Y-93867857D01*
X234549642Y-94010714D01*
X234469285Y-94082142D01*
X234317500Y-94153571D01*
X234031785Y-94153571D01*
X233897857Y-94082142D01*
X236013928Y-93153571D02*
X235888928Y-94153571D01*
X235371071Y-93153571D02*
X235272857Y-93939285D01*
X235326428Y-94082142D01*
X235460357Y-94153571D01*
X235674642Y-94153571D01*
X235826428Y-94082142D01*
X235906785Y-94010714D01*
X236817500Y-94153571D02*
X236683571Y-94082142D01*
X236630000Y-93939285D01*
X236790714Y-92653571D01*
X238031785Y-94153571D02*
X238130000Y-93367857D01*
X238076428Y-93225000D01*
X237942500Y-93153571D01*
X237656785Y-93153571D01*
X237505000Y-93225000D01*
X238040714Y-94082142D02*
X237888928Y-94153571D01*
X237531785Y-94153571D01*
X237397857Y-94082142D01*
X237344285Y-93939285D01*
X237362142Y-93796428D01*
X237451428Y-93653571D01*
X237603214Y-93582142D01*
X237960357Y-93582142D01*
X238112142Y-93510714D01*
X238656785Y-93153571D02*
X239228214Y-93153571D01*
X238933571Y-92653571D02*
X238772857Y-93939285D01*
X238826428Y-94082142D01*
X238960357Y-94153571D01*
X239103214Y-94153571D01*
X239603214Y-94153571D02*
X239728214Y-93153571D01*
X239790714Y-92653571D02*
X239710357Y-92725000D01*
X239772857Y-92796428D01*
X239853214Y-92725000D01*
X239790714Y-92653571D01*
X239772857Y-92796428D01*
X240531785Y-94153571D02*
X240397857Y-94082142D01*
X240335357Y-94010714D01*
X240281785Y-93867857D01*
X240335357Y-93439285D01*
X240424642Y-93296428D01*
X240505000Y-93225000D01*
X240656785Y-93153571D01*
X240871071Y-93153571D01*
X241005000Y-93225000D01*
X241067500Y-93296428D01*
X241121071Y-93439285D01*
X241067500Y-93867857D01*
X240978214Y-94010714D01*
X240897857Y-94082142D01*
X240746071Y-94153571D01*
X240531785Y-94153571D01*
X241799642Y-93153571D02*
X241674642Y-94153571D01*
X241781785Y-93296428D02*
X241862142Y-93225000D01*
X242013928Y-93153571D01*
X242228214Y-93153571D01*
X242362142Y-93225000D01*
X242415714Y-93367857D01*
X242317500Y-94153571D01*
%LPC*%
D10*
G36*
X193500000Y-96000000D02*
X188500000Y-96000000D01*
X188500000Y-101000000D01*
X193500000Y-101000000D01*
X193500000Y-96000000D01*
G37*
X193500000Y-96000000D02*
X188500000Y-96000000D01*
X188500000Y-101000000D01*
X193500000Y-101000000D01*
X193500000Y-96000000D01*
G36*
X179500000Y-73000000D02*
X179500000Y-139000000D01*
X109750000Y-142750000D01*
X110750000Y-71750000D01*
X179500000Y-73000000D01*
G37*
X179500000Y-73000000D02*
X179500000Y-139000000D01*
X109750000Y-142750000D01*
X110750000Y-71750000D01*
X179500000Y-73000000D01*
G36*
X248500000Y-109000000D02*
X248500000Y-129000000D01*
X253500000Y-129000000D01*
X253500000Y-109000000D01*
X248500000Y-109000000D01*
G37*
X248500000Y-109000000D02*
X248500000Y-129000000D01*
X253500000Y-129000000D01*
X253500000Y-109000000D01*
X248500000Y-109000000D01*
G36*
X248500000Y-81000000D02*
X253500000Y-81000000D01*
X253500000Y-101000000D01*
X248500000Y-101000000D01*
X248500000Y-81000000D01*
G37*
X248500000Y-81000000D02*
X253500000Y-81000000D01*
X253500000Y-101000000D01*
X248500000Y-101000000D01*
X248500000Y-81000000D01*
G36*
X188500000Y-124000000D02*
X188500000Y-129000000D01*
X193500000Y-129000000D01*
X193500000Y-124000000D01*
X188500000Y-124000000D01*
G37*
X188500000Y-124000000D02*
X188500000Y-129000000D01*
X193500000Y-129000000D01*
X193500000Y-124000000D01*
X188500000Y-124000000D01*
G36*
X188500000Y-109000000D02*
X188500000Y-114000000D01*
X193500000Y-114000000D01*
X193500000Y-109000000D01*
X188500000Y-109000000D01*
G37*
X188500000Y-109000000D02*
X188500000Y-114000000D01*
X193500000Y-114000000D01*
X193500000Y-109000000D01*
X188500000Y-109000000D01*
G36*
X233500000Y-81000000D02*
X228500000Y-81000000D01*
X228500000Y-86000000D01*
X233500000Y-86000000D01*
X233500000Y-81000000D01*
G37*
X233500000Y-81000000D02*
X228500000Y-81000000D01*
X228500000Y-86000000D01*
X233500000Y-86000000D01*
X233500000Y-81000000D01*
G36*
X228500000Y-124000000D02*
X228500000Y-129000000D01*
X233500000Y-129000000D01*
X233500000Y-124000000D01*
X228500000Y-124000000D01*
G37*
X228500000Y-124000000D02*
X228500000Y-129000000D01*
X233500000Y-129000000D01*
X233500000Y-124000000D01*
X228500000Y-124000000D01*
G36*
X228500000Y-109000000D02*
X228500000Y-114000000D01*
X233500000Y-114000000D01*
X233500000Y-109000000D01*
X228500000Y-109000000D01*
G37*
X228500000Y-109000000D02*
X228500000Y-114000000D01*
X233500000Y-114000000D01*
X233500000Y-109000000D01*
X228500000Y-109000000D01*
G36*
X228500000Y-96000000D02*
X228500000Y-101000000D01*
X233500000Y-101000000D01*
X233500000Y-96000000D01*
X228500000Y-96000000D01*
G37*
X228500000Y-96000000D02*
X228500000Y-101000000D01*
X233500000Y-101000000D01*
X233500000Y-96000000D01*
X228500000Y-96000000D01*
G36*
X188500000Y-81000000D02*
X188500000Y-86000000D01*
X193500000Y-86000000D01*
X193500000Y-81000000D01*
X188500000Y-81000000D01*
G37*
X188500000Y-81000000D02*
X188500000Y-86000000D01*
X193500000Y-86000000D01*
X193500000Y-81000000D01*
X188500000Y-81000000D01*
D12*
X290000000Y-110000000D03*
X290000000Y-100000000D03*
D13*
X250000000Y-106000000D03*
X249000000Y-106000000D03*
X246000000Y-106000000D03*
X247000000Y-106000000D03*
X248000000Y-106000000D03*
X248000000Y-104000000D03*
X247000000Y-104000000D03*
X246000000Y-104000000D03*
X249000000Y-104000000D03*
X250000000Y-104000000D03*
X189000000Y-106000000D03*
X188000000Y-106000000D03*
X187000000Y-106000000D03*
X190000000Y-106000000D03*
X191000000Y-106000000D03*
X191000000Y-104000000D03*
X190000000Y-104000000D03*
X187000000Y-104000000D03*
X188000000Y-104000000D03*
X189000000Y-104000000D03*
X164000000Y-104000000D03*
X163000000Y-104000000D03*
X162000000Y-104000000D03*
X165000000Y-104000000D03*
X166000000Y-104000000D03*
X166000000Y-105750000D03*
X165000000Y-105750000D03*
X162000000Y-105750000D03*
X163000000Y-105750000D03*
X164000000Y-105750000D03*
X133000000Y-105750000D03*
X132000000Y-105750000D03*
X131000000Y-105750000D03*
X134000000Y-105750000D03*
X135000000Y-105750000D03*
X135000000Y-104000000D03*
X134000000Y-104000000D03*
X131000000Y-104000000D03*
X132000000Y-104000000D03*
X133000000Y-104000000D03*
X147500000Y-120500000D03*
X147500000Y-119500000D03*
X147500000Y-118500000D03*
X147500000Y-121500000D03*
X147500000Y-122500000D03*
X149500000Y-122500000D03*
X149500000Y-121500000D03*
X149500000Y-118500000D03*
X149500000Y-119500000D03*
X149500000Y-120500000D03*
X147500000Y-91500000D03*
X147500000Y-90500000D03*
X147500000Y-87500000D03*
X147500000Y-88500000D03*
X147500000Y-89500000D03*
X149500000Y-89500000D03*
X149500000Y-88500000D03*
X149500000Y-87500000D03*
X149500000Y-90500000D03*
X149500000Y-91500000D03*
X178500000Y-122500000D03*
X178500000Y-121500000D03*
X178500000Y-118500000D03*
X178500000Y-119500000D03*
X178500000Y-120500000D03*
X180500000Y-120500000D03*
X180500000Y-119500000D03*
X180500000Y-118500000D03*
X180500000Y-121500000D03*
X180500000Y-122500000D03*
X178500000Y-89500000D03*
X178500000Y-88500000D03*
X178500000Y-87500000D03*
X178500000Y-90500000D03*
X178500000Y-91500000D03*
X180500000Y-91500000D03*
X180500000Y-90500000D03*
X180500000Y-87500000D03*
X180500000Y-88500000D03*
X180500000Y-89500000D03*
X256500000Y-116500000D03*
X256500000Y-115500000D03*
X256500000Y-114500000D03*
X256500000Y-117500000D03*
X256500000Y-118500000D03*
X258500000Y-118500000D03*
X258500000Y-117500000D03*
X258500000Y-114500000D03*
X258500000Y-115500000D03*
X258500000Y-116500000D03*
X258500000Y-95500000D03*
X258500000Y-94500000D03*
X258500000Y-91500000D03*
X258500000Y-92500000D03*
X258500000Y-93500000D03*
D12*
X119000000Y-120500000D03*
X123100505Y-130399495D03*
X133000000Y-134500000D03*
X142899495Y-130399495D03*
X146000000Y-120500000D03*
X142899495Y-110600505D03*
X133000000Y-107250000D03*
X123100505Y-110600505D03*
X123100505Y-79600505D03*
X133000000Y-75500000D03*
X123100505Y-99399495D03*
X119000000Y-89500000D03*
X133000000Y-102500000D03*
X142899495Y-99399495D03*
X142899495Y-79600505D03*
X146000000Y-89500000D03*
X164000000Y-102500000D03*
X164000000Y-75500000D03*
X173899495Y-79600505D03*
X154100505Y-79600505D03*
X151000000Y-89500000D03*
X173899495Y-99399495D03*
X177000000Y-89500000D03*
X154100505Y-99399495D03*
X177000000Y-120500000D03*
X154100505Y-130399495D03*
X173899495Y-110600505D03*
X154100505Y-110600505D03*
X164000000Y-134500000D03*
X164000000Y-107250000D03*
X151000000Y-120500000D03*
X173899495Y-130399495D03*
D14*
X134697056Y-118802944D03*
X133000000Y-118100000D03*
X131302944Y-118802944D03*
X130600000Y-120500000D03*
X131302944Y-122197056D03*
X133000000Y-122900000D03*
X134697056Y-122197056D03*
X135400000Y-120500000D03*
D15*
X133000000Y-120500000D03*
X133000000Y-89500000D03*
D14*
X135400000Y-89500000D03*
X134697056Y-91197056D03*
X133000000Y-91900000D03*
X131302944Y-91197056D03*
X130600000Y-89500000D03*
X131302944Y-87802944D03*
X133000000Y-87100000D03*
X134697056Y-87802944D03*
D15*
X291750000Y-105000000D03*
D14*
X294150000Y-105000000D03*
X293447056Y-106697056D03*
X291750000Y-107400000D03*
X290052944Y-106697056D03*
X289350000Y-105000000D03*
X290052944Y-103302944D03*
X291750000Y-102600000D03*
X293447056Y-103302944D03*
X264197056Y-86552944D03*
X262500000Y-85850000D03*
X260802944Y-86552944D03*
X260100000Y-88250000D03*
X260802944Y-89947056D03*
X262500000Y-90650000D03*
X264197056Y-89947056D03*
X264900000Y-88250000D03*
D15*
X262500000Y-88250000D03*
X262500000Y-122000000D03*
D14*
X264900000Y-122000000D03*
X264197056Y-123697056D03*
X262500000Y-124400000D03*
X260802944Y-123697056D03*
X260100000Y-122000000D03*
X260802944Y-120302944D03*
X262500000Y-119600000D03*
X264197056Y-120302944D03*
X273947056Y-125802944D03*
X272250000Y-125100000D03*
X270552944Y-125802944D03*
X269850000Y-127500000D03*
X270552944Y-129197056D03*
X272250000Y-129900000D03*
X273947056Y-129197056D03*
X274650000Y-127500000D03*
D15*
X272250000Y-127500000D03*
X272250000Y-82500000D03*
D14*
X274650000Y-82500000D03*
X273947056Y-84197056D03*
X272250000Y-84900000D03*
X270552944Y-84197056D03*
X269850000Y-82500000D03*
X270552944Y-80802944D03*
X272250000Y-80100000D03*
X273947056Y-80802944D03*
X165697056Y-119052944D03*
X164000000Y-118350000D03*
X162302944Y-119052944D03*
X161600000Y-120750000D03*
X162302944Y-122447056D03*
X164000000Y-123150000D03*
X165697056Y-122447056D03*
X166400000Y-120750000D03*
D15*
X164000000Y-120750000D03*
X164000000Y-89500000D03*
D14*
X166400000Y-89500000D03*
X165697056Y-91197056D03*
X164000000Y-91900000D03*
X162302944Y-91197056D03*
X161600000Y-89500000D03*
X162302944Y-87802944D03*
X164000000Y-87100000D03*
X165697056Y-87802944D03*
D13*
X256500000Y-93500000D03*
X256500000Y-92500000D03*
X256500000Y-91500000D03*
X256500000Y-94500000D03*
X256500000Y-95500000D03*
D16*
X215454773Y-114545227D03*
X211000000Y-112700000D03*
X206545227Y-114545227D03*
X204700000Y-119000000D03*
X206545227Y-123454773D03*
X211000000Y-125300000D03*
X215454773Y-123454773D03*
X217300000Y-119000000D03*
D17*
X211000000Y-119000000D03*
M02*
