G04 #@! TF.GenerationSoftware,KiCad,Pcbnew,(2018-01-19 revision 673f03e59)-master*
G04 #@! TF.CreationDate,2018-01-28T16:50:16+01:00*
G04 #@! TF.ProjectId,microman-kit,6D6963726F6D616E2D6B69742E6B6963,r1*
G04 #@! TF.SameCoordinates,Original*
G04 #@! TF.FileFunction,Paste,Top*
G04 #@! TF.FilePolarity,Positive*
%FSLAX46Y46*%
G04 Gerber Fmt 4.6, Leading zero omitted, Abs format (unit mm)*
G04 Created by KiCad (PCBNEW (2018-01-19 revision 673f03e59)-master) date Sun Jan 28 16:50:16 2018*
%MOMM*%
%LPD*%
G01*
G04 APERTURE LIST*
%ADD10R,1.008000X1.008000*%
%ADD11R,0.588000X1.092000*%
%ADD12R,0.504000X1.302000*%
%ADD13R,1.008000X0.756000*%
%ADD14R,1.050000X0.840000*%
%ADD15R,0.840000X1.050000*%
%ADD16R,1.344000X0.840000*%
%ADD17R,0.814800X1.066800*%
%ADD18R,0.840000X2.100000*%
%ADD19R,1.512000X2.100000*%
%ADD20R,2.100000X1.512000*%
%ADD21R,3.192000X1.680000*%
%ADD22R,1.260000X1.680000*%
%ADD23R,0.750000X0.750000*%
%ADD24R,0.252000X0.613200*%
%ADD25R,0.613200X0.252000*%
%ADD26R,1.344000X2.940000*%
%ADD27R,1.092000X0.588000*%
%ADD28R,1.680000X1.344000*%
%ADD29R,3.192000X0.756000*%
%ADD30R,0.252000X1.176000*%
%ADD31R,0.840000X1.344000*%
G04 APERTURE END LIST*
D10*
X159682000Y-80010000D03*
X161882000Y-80010000D03*
X161882000Y-77470000D03*
X159682000Y-77470000D03*
D11*
X163642000Y-80010000D03*
X165542000Y-80010000D03*
X165542000Y-77470000D03*
X163642000Y-77470000D03*
D12*
X108585000Y-68420000D03*
X107315000Y-68420000D03*
X106045000Y-68420000D03*
X104775000Y-68420000D03*
X104775000Y-73820000D03*
X106045000Y-73820000D03*
X107315000Y-73820000D03*
X108585000Y-73820000D03*
D13*
X143002000Y-90296000D03*
X143002000Y-86996000D03*
D14*
X119888000Y-85852000D03*
X119888000Y-83852000D03*
D15*
X116062000Y-88138000D03*
X114062000Y-88138000D03*
X114062000Y-106426000D03*
X116062000Y-106426000D03*
X114078000Y-104648000D03*
X116078000Y-104648000D03*
X113808000Y-97790000D03*
X115808000Y-97790000D03*
X114062000Y-108204000D03*
X116062000Y-108204000D03*
X113808000Y-79502000D03*
X115808000Y-79502000D03*
X114062000Y-86360000D03*
X116062000Y-86360000D03*
X116062000Y-89916000D03*
X114062000Y-89916000D03*
D16*
X106680000Y-103354000D03*
X106680000Y-100354000D03*
X106680000Y-82066000D03*
X106680000Y-85066000D03*
D14*
X108204000Y-92694000D03*
X108204000Y-90694000D03*
X109982000Y-108982000D03*
X109982000Y-110982000D03*
X108204000Y-110982000D03*
X108204000Y-108982000D03*
X109982000Y-90694000D03*
X109982000Y-92694000D03*
D16*
X140462000Y-86892000D03*
X140462000Y-89892000D03*
D17*
X162560000Y-111760000D03*
X161290000Y-111760000D03*
X160020000Y-111760000D03*
X160020000Y-114300000D03*
X161290000Y-114300000D03*
X162560000Y-114300000D03*
X162560000Y-88900000D03*
X161290000Y-88900000D03*
X160020000Y-88900000D03*
X160020000Y-91440000D03*
X161290000Y-91440000D03*
X162560000Y-91440000D03*
X162560000Y-109220000D03*
X161290000Y-109220000D03*
X160020000Y-109220000D03*
X160020000Y-86360000D03*
X161290000Y-86360000D03*
X162560000Y-86360000D03*
D18*
X180110000Y-85090000D03*
X183110000Y-85090000D03*
D19*
X172720000Y-84360000D03*
X172720000Y-88360000D03*
X168910000Y-88360000D03*
X168910000Y-84360000D03*
X168910000Y-103600000D03*
X168910000Y-99600000D03*
X172720000Y-99600000D03*
X172720000Y-103600000D03*
X172720000Y-89440000D03*
X172720000Y-93440000D03*
X168910000Y-93440000D03*
X168910000Y-89440000D03*
X168910000Y-98520000D03*
X168910000Y-94520000D03*
X172720000Y-94520000D03*
X172720000Y-98520000D03*
D11*
X182560000Y-100330000D03*
X180660000Y-100330000D03*
D19*
X172720000Y-121380000D03*
X172720000Y-117380000D03*
X172720000Y-126460000D03*
X172720000Y-122460000D03*
X168910000Y-121380000D03*
X168910000Y-117380000D03*
X172720000Y-107220000D03*
X172720000Y-111220000D03*
X168910000Y-107220000D03*
X168910000Y-111220000D03*
X168910000Y-126460000D03*
X168910000Y-122460000D03*
X172720000Y-112300000D03*
X172720000Y-116300000D03*
X168910000Y-112300000D03*
X168910000Y-116300000D03*
D20*
X174720000Y-77470000D03*
X170720000Y-77470000D03*
D11*
X180660000Y-123190000D03*
X182560000Y-123190000D03*
D21*
X139192000Y-84684000D03*
D22*
X139192000Y-78384000D03*
X136892000Y-78384000D03*
X141492000Y-78384000D03*
D23*
X111115000Y-86731000D03*
X111115000Y-85481000D03*
X109865000Y-86731000D03*
X109865000Y-85481000D03*
D24*
X111490000Y-88071000D03*
X110990000Y-88071000D03*
X110490000Y-88071000D03*
X109990000Y-88071000D03*
X109490000Y-88071000D03*
D25*
X108525000Y-87106000D03*
X108525000Y-86606000D03*
X108525000Y-86106000D03*
X108525000Y-85606000D03*
X108525000Y-85106000D03*
D24*
X109490000Y-84141000D03*
X109990000Y-84141000D03*
X110490000Y-84141000D03*
X110990000Y-84141000D03*
X111490000Y-84141000D03*
D25*
X112455000Y-85106000D03*
X112455000Y-85606000D03*
X112455000Y-86106000D03*
X112455000Y-86606000D03*
X112455000Y-87106000D03*
D11*
X115758000Y-84328000D03*
X113858000Y-84328000D03*
D26*
X182780000Y-77470000D03*
X177900000Y-77470000D03*
D27*
X137160000Y-119954000D03*
X137160000Y-121854000D03*
D10*
X142240000Y-128100000D03*
X142240000Y-125900000D03*
X139700000Y-126830000D03*
X139700000Y-124630000D03*
X137160000Y-128100000D03*
X137160000Y-125900000D03*
D11*
X113858000Y-102616000D03*
X115758000Y-102616000D03*
X105288000Y-87884000D03*
X107188000Y-87884000D03*
X107188000Y-106172000D03*
X105288000Y-106172000D03*
X115758000Y-82550000D03*
X113858000Y-82550000D03*
X113858000Y-100838000D03*
X115758000Y-100838000D03*
D27*
X139700000Y-120330000D03*
X139700000Y-118430000D03*
X142240000Y-119954000D03*
X142240000Y-121854000D03*
D15*
X136922000Y-75946000D03*
X138922000Y-75946000D03*
D14*
X138176000Y-88884000D03*
X138176000Y-86884000D03*
D11*
X134432000Y-94996000D03*
X136332000Y-94996000D03*
X136332000Y-92964000D03*
X134432000Y-92964000D03*
D28*
X122080000Y-128270000D03*
X116680000Y-128270000D03*
X162720000Y-128270000D03*
X157320000Y-128270000D03*
D25*
X112455000Y-105394000D03*
X112455000Y-104894000D03*
X112455000Y-104394000D03*
X112455000Y-103894000D03*
X112455000Y-103394000D03*
D24*
X111490000Y-102429000D03*
X110990000Y-102429000D03*
X110490000Y-102429000D03*
X109990000Y-102429000D03*
X109490000Y-102429000D03*
D25*
X108525000Y-103394000D03*
X108525000Y-103894000D03*
X108525000Y-104394000D03*
X108525000Y-104894000D03*
X108525000Y-105394000D03*
D24*
X109490000Y-106359000D03*
X109990000Y-106359000D03*
X110490000Y-106359000D03*
X110990000Y-106359000D03*
X111490000Y-106359000D03*
D23*
X109865000Y-103769000D03*
X109865000Y-105019000D03*
X111115000Y-103769000D03*
X111115000Y-105019000D03*
D29*
X110490000Y-79226000D03*
X110490000Y-82826000D03*
D14*
X121666000Y-85836000D03*
X121666000Y-83836000D03*
D30*
X121650000Y-92116000D03*
X121150000Y-92116000D03*
X120650000Y-92116000D03*
X120150000Y-92116000D03*
X119650000Y-92116000D03*
X119650000Y-87716000D03*
X120150000Y-87716000D03*
X120650000Y-87716000D03*
X121150000Y-87716000D03*
X121650000Y-87716000D03*
D29*
X110490000Y-97536000D03*
X110490000Y-101136000D03*
D31*
X139930000Y-73660000D03*
X136930000Y-73660000D03*
D27*
X102616000Y-75626000D03*
X102616000Y-73726000D03*
D18*
X183110000Y-107950000D03*
X180110000Y-107950000D03*
M02*
