M48
;DRILL file {KiCad (2018-01-19 revision 673f03e59)-master} date Sun Jan 28 16:50:20 2018
;FORMAT={-:-/ absolute / inch / decimal}
FMAT,2
INCH,TZ
T1C0.0157
T2C0.0236
T3C0.0295
T4C0.0315
T5C0.0335
T6C0.0394
T7C0.0433
T8C0.0472
T9C0.1260
%
G90
G05
M72
T1
X4.04Y-3.015
X4.17Y-2.63
X4.2Y-3.19
X4.2Y-3.91
X4.22Y-2.63
X4.26Y-3.31
X4.26Y-4.03
X4.27Y-2.63
X4.3254Y-3.3654
X4.3254Y-3.4146
X4.3254Y-4.0854
X4.3254Y-4.1346
X4.3746Y-3.3654
X4.3746Y-3.4146
X4.3746Y-4.0854
X4.3746Y-4.1346
X4.39Y-3.67
X4.42Y-3.64
X4.42Y-3.77
X4.46Y-3.77
X4.4906Y-3.6094
X4.58Y-3.79
X4.59Y-3.25
X4.59Y-3.32
X4.59Y-3.97
X4.59Y-4.04
X4.6Y-3.85
X4.61Y-3.13
X4.61Y-3.4
X4.61Y-4.12
X4.61Y-4.19
X4.61Y-4.26
X4.6282Y-3.6555
X4.64Y-4.94
X4.66Y-3.36
X4.66Y-3.57
X4.66Y-3.62
X4.8Y-3.88
X4.82Y-3.69
X4.85Y-3.72
X4.93Y-3.88
X5.1Y-4.49
X5.43Y-4.51
X5.64Y-4.61
X5.7Y-4.51
X6.23Y-3.1
X6.23Y-4.5
X6.26Y-4.73
X6.38Y-3.86
X6.44Y-3.4
X6.44Y-3.5
X6.44Y-3.6
X6.44Y-4.3
X6.44Y-4.4
X6.44Y-4.5
X6.47Y-5.05
T2
X4.11Y-3.53
X4.65Y-4.
X4.89Y-4.
X5.Y-2.8
X5.31Y-4.63
X5.45Y-5.0433
X5.49Y-2.8
X5.53Y-4.38
X5.55Y-5.0433
X5.72Y-3.52
X5.72Y-3.66
X6.15Y-3.85
X6.16Y-4.24
X6.19Y-3.7
X6.21Y-4.
X6.3Y-3.77
X6.3Y-4.02
X6.89Y-3.32
X6.89Y-4.08
X6.89Y-4.22
X6.89Y-4.98
T3
X5.52Y-2.99
X5.57Y-2.9
X5.57Y-2.99
X7.17Y-3.23
T4
X6.4Y-2.8
X6.4984Y-2.8
X6.5Y-3.3
X6.5Y-3.4
X6.5Y-3.5
X6.5Y-3.6
X6.5Y-3.7
X6.5Y-3.8
X6.5Y-3.9
X6.5Y-4.
X7.Y-3.3
X7.Y-3.4
X7.Y-3.5
X7.Y-3.6
X7.Y-3.7
X7.Y-3.8
X7.Y-3.9
X7.Y-4.
X5.2Y-2.9
X5.2Y-3.
X5.2Y-3.1
X5.2Y-3.2
X5.2Y-3.3
X5.2Y-3.4
X5.2Y-3.5
X5.2Y-3.6
X5.2Y-3.7
X5.2Y-3.8
X5.2Y-3.9
X5.2Y-4.
X5.2Y-4.1
X5.2Y-4.2
X5.2Y-4.3
X5.8Y-2.9
X5.8Y-3.
X5.8Y-3.1
X5.8Y-3.2
X5.8Y-3.3
X5.8Y-3.4
X5.8Y-3.5
X5.8Y-3.6
X5.8Y-3.7
X5.8Y-3.8
X5.8Y-3.9
X5.8Y-4.
X5.8Y-4.1
X5.8Y-4.2
X5.8Y-4.3
X6.5Y-4.2
X6.5Y-4.3
X6.5Y-4.4
X6.5Y-4.5
X6.5Y-4.6
X6.5Y-4.7
X6.5Y-4.8
X6.5Y-4.9
X7.Y-4.2
X7.Y-4.3
X7.Y-4.4
X7.Y-4.5
X7.Y-4.6
X7.Y-4.7
X7.Y-4.8
X7.Y-4.9
T5
X3.95Y-4.0016
X3.95Y-4.1
X3.95Y-4.1984
X3.95Y-3.2516
X3.95Y-3.35
X3.95Y-3.4484
T6
X6.Y-2.9
X6.Y-3.
X6.Y-3.1
X6.Y-3.2
X6.Y-3.3
X6.Y-3.4
X6.Y-3.5
X6.Y-3.6
X6.Y-3.7
X6.Y-3.8
X6.Y-3.9
X6.Y-4.
X6.Y-4.1
X6.Y-4.2
X6.Y-4.3
X5.Y-2.9
X5.Y-3.
X5.Y-3.1
X5.Y-3.2
X5.Y-3.3
X5.Y-3.4
X5.Y-3.5
X5.Y-3.6
X5.Y-3.7
X5.Y-3.8
X5.Y-3.9
X5.Y-4.
X5.Y-4.1
X5.Y-4.2
X5.Y-4.3
X5.0031Y-4.6
X5.1016Y-4.6
X5.2Y-4.6
X5.8Y-4.6
X5.8984Y-4.6
X5.9969Y-4.6
T7
X6.9Y-2.75
X6.9Y-2.8681
T8
X4.08Y-4.55
X4.08Y-4.65
X4.08Y-4.75
X4.4Y-2.82
X4.5Y-2.82
X4.6Y-2.82
X4.7Y-2.82
X7.2Y-4.4
X7.2Y-4.5
X7.2Y-4.6
X7.2Y-4.7
X7.2Y-3.5
X7.2Y-3.6
X7.2Y-3.7
X7.2Y-3.8
X4.48Y-4.55
X4.48Y-4.65
X4.48Y-4.75
T9
X7.2244Y-5.0197
X7.2244Y-2.7362
X3.9567Y-2.7362
X3.9567Y-5.0197
T0
M30
