G04 #@! TF.GenerationSoftware,KiCad,Pcbnew,(2018-01-19 revision 673f03e59)-master*
G04 #@! TF.CreationDate,2018-01-28T16:50:16+01:00*
G04 #@! TF.ProjectId,microman-kit,6D6963726F6D616E2D6B69742E6B6963,r1*
G04 #@! TF.SameCoordinates,Original*
G04 #@! TF.FileFunction,Soldermask,Bot*
G04 #@! TF.FilePolarity,Negative*
%FSLAX46Y46*%
G04 Gerber Fmt 4.6, Leading zero omitted, Abs format (unit mm)*
G04 Created by KiCad (PCBNEW (2018-01-19 revision 673f03e59)-master) date Sun Jan 28 16:50:16 2018*
%MOMM*%
%LPD*%
G01*
G04 APERTURE LIST*
%ADD10C,0.100000*%
G04 APERTURE END LIST*
D10*
G36*
X184353191Y-124687406D02*
X184353193Y-124687407D01*
X184353194Y-124687407D01*
X184833959Y-124886546D01*
X184885507Y-124907898D01*
X185364579Y-125228004D01*
X185771996Y-125635421D01*
X186092102Y-126114493D01*
X186312594Y-126646809D01*
X186425000Y-127211913D01*
X186425000Y-127788087D01*
X186312594Y-128353191D01*
X186092102Y-128885507D01*
X185771996Y-129364579D01*
X185364579Y-129771996D01*
X184885507Y-130092102D01*
X184353194Y-130312593D01*
X184353193Y-130312593D01*
X184353191Y-130312594D01*
X183788087Y-130425000D01*
X183211913Y-130425000D01*
X182646809Y-130312594D01*
X182646807Y-130312593D01*
X182646806Y-130312593D01*
X182114493Y-130092102D01*
X181635421Y-129771996D01*
X181228004Y-129364579D01*
X180907898Y-128885507D01*
X180687406Y-128353191D01*
X180575000Y-127788087D01*
X180575000Y-127211913D01*
X180687406Y-126646809D01*
X180907898Y-126114493D01*
X181228004Y-125635421D01*
X181635421Y-125228004D01*
X182114493Y-124907898D01*
X182166041Y-124886546D01*
X182646806Y-124687407D01*
X182646807Y-124687407D01*
X182646809Y-124687406D01*
X183211913Y-124575000D01*
X183788087Y-124575000D01*
X184353191Y-124687406D01*
X184353191Y-124687406D01*
G37*
G36*
X101353191Y-124687406D02*
X101353193Y-124687407D01*
X101353194Y-124687407D01*
X101833959Y-124886546D01*
X101885507Y-124907898D01*
X102364579Y-125228004D01*
X102771996Y-125635421D01*
X103092102Y-126114493D01*
X103312594Y-126646809D01*
X103425000Y-127211913D01*
X103425000Y-127788087D01*
X103312594Y-128353191D01*
X103092102Y-128885507D01*
X102771996Y-129364579D01*
X102364579Y-129771996D01*
X101885507Y-130092102D01*
X101353194Y-130312593D01*
X101353193Y-130312593D01*
X101353191Y-130312594D01*
X100788087Y-130425000D01*
X100211913Y-130425000D01*
X99646809Y-130312594D01*
X99646807Y-130312593D01*
X99646806Y-130312593D01*
X99114493Y-130092102D01*
X98635421Y-129771996D01*
X98228004Y-129364579D01*
X97907898Y-128885507D01*
X97687406Y-128353191D01*
X97575000Y-127788087D01*
X97575000Y-127211913D01*
X97687406Y-126646809D01*
X97907898Y-126114493D01*
X98228004Y-125635421D01*
X98635421Y-125228004D01*
X99114493Y-124907898D01*
X99166041Y-124886546D01*
X99646806Y-124687407D01*
X99646807Y-124687407D01*
X99646809Y-124687406D01*
X100211913Y-124575000D01*
X100788087Y-124575000D01*
X101353191Y-124687406D01*
X101353191Y-124687406D01*
G37*
G36*
X154825255Y-121844741D02*
X154825257Y-121844742D01*
X154825258Y-121844742D01*
X155202881Y-122001159D01*
X155542734Y-122228241D01*
X155831759Y-122517266D01*
X156011250Y-122785894D01*
X156058841Y-122857119D01*
X156215259Y-123234745D01*
X156295000Y-123635630D01*
X156295000Y-124044370D01*
X156229968Y-124371309D01*
X156215258Y-124445258D01*
X156058841Y-124822881D01*
X155831759Y-125162734D01*
X155542734Y-125451759D01*
X155202881Y-125678841D01*
X154825258Y-125835258D01*
X154825257Y-125835258D01*
X154825255Y-125835259D01*
X154424370Y-125915000D01*
X154015630Y-125915000D01*
X153614745Y-125835259D01*
X153614743Y-125835258D01*
X153614742Y-125835258D01*
X153237119Y-125678841D01*
X152897266Y-125451759D01*
X152608241Y-125162734D01*
X152381159Y-124822881D01*
X152224742Y-124445258D01*
X152210033Y-124371309D01*
X152145000Y-124044370D01*
X152145000Y-123635630D01*
X152224741Y-123234745D01*
X152381159Y-122857119D01*
X152428750Y-122785894D01*
X152608241Y-122517266D01*
X152897266Y-122228241D01*
X153237119Y-122001159D01*
X153614742Y-121844742D01*
X153614743Y-121844742D01*
X153614745Y-121844741D01*
X154015630Y-121765000D01*
X154424370Y-121765000D01*
X154825255Y-121844741D01*
X154825255Y-121844741D01*
G37*
G36*
X134585255Y-121844741D02*
X134585257Y-121844742D01*
X134585258Y-121844742D01*
X134962881Y-122001159D01*
X135302734Y-122228241D01*
X135591759Y-122517266D01*
X135771250Y-122785894D01*
X135818841Y-122857119D01*
X135975259Y-123234745D01*
X136055000Y-123635630D01*
X136055000Y-124044370D01*
X135989968Y-124371309D01*
X135975258Y-124445258D01*
X135818841Y-124822881D01*
X135591759Y-125162734D01*
X135302734Y-125451759D01*
X134962881Y-125678841D01*
X134585258Y-125835258D01*
X134585257Y-125835258D01*
X134585255Y-125835259D01*
X134184370Y-125915000D01*
X133775630Y-125915000D01*
X133374745Y-125835259D01*
X133374743Y-125835258D01*
X133374742Y-125835258D01*
X132997119Y-125678841D01*
X132657266Y-125451759D01*
X132368241Y-125162734D01*
X132141159Y-124822881D01*
X131984742Y-124445258D01*
X131970033Y-124371309D01*
X131905000Y-124044370D01*
X131905000Y-123635630D01*
X131984741Y-123234745D01*
X132141159Y-122857119D01*
X132188750Y-122785894D01*
X132368241Y-122517266D01*
X132657266Y-122228241D01*
X132997119Y-122001159D01*
X133374742Y-121844742D01*
X133374743Y-121844742D01*
X133374745Y-121844741D01*
X133775630Y-121765000D01*
X134184370Y-121765000D01*
X134585255Y-121844741D01*
X134585255Y-121844741D01*
G37*
G36*
X125785255Y-121844741D02*
X125785257Y-121844742D01*
X125785258Y-121844742D01*
X126162881Y-122001159D01*
X126502734Y-122228241D01*
X126791759Y-122517266D01*
X126971250Y-122785894D01*
X127018841Y-122857119D01*
X127175259Y-123234745D01*
X127255000Y-123635630D01*
X127255000Y-124044370D01*
X127189968Y-124371309D01*
X127175258Y-124445258D01*
X127018841Y-124822881D01*
X126791759Y-125162734D01*
X126502734Y-125451759D01*
X126162881Y-125678841D01*
X125785258Y-125835258D01*
X125785257Y-125835258D01*
X125785255Y-125835259D01*
X125384370Y-125915000D01*
X124975630Y-125915000D01*
X124574745Y-125835259D01*
X124574743Y-125835258D01*
X124574742Y-125835258D01*
X124197119Y-125678841D01*
X123857266Y-125451759D01*
X123568241Y-125162734D01*
X123341159Y-124822881D01*
X123184742Y-124445258D01*
X123170033Y-124371309D01*
X123105000Y-124044370D01*
X123105000Y-123635630D01*
X123184741Y-123234745D01*
X123341159Y-122857119D01*
X123388750Y-122785894D01*
X123568241Y-122517266D01*
X123857266Y-122228241D01*
X124197119Y-122001159D01*
X124574742Y-121844742D01*
X124574743Y-121844742D01*
X124574745Y-121844741D01*
X124975630Y-121765000D01*
X125384370Y-121765000D01*
X125785255Y-121844741D01*
X125785255Y-121844741D01*
G37*
G36*
X146025255Y-121844741D02*
X146025257Y-121844742D01*
X146025258Y-121844742D01*
X146402881Y-122001159D01*
X146742734Y-122228241D01*
X147031759Y-122517266D01*
X147211250Y-122785894D01*
X147258841Y-122857119D01*
X147415259Y-123234745D01*
X147495000Y-123635630D01*
X147495000Y-124044370D01*
X147429968Y-124371309D01*
X147415258Y-124445258D01*
X147258841Y-124822881D01*
X147031759Y-125162734D01*
X146742734Y-125451759D01*
X146402881Y-125678841D01*
X146025258Y-125835258D01*
X146025257Y-125835258D01*
X146025255Y-125835259D01*
X145624370Y-125915000D01*
X145215630Y-125915000D01*
X144814745Y-125835259D01*
X144814743Y-125835258D01*
X144814742Y-125835258D01*
X144437119Y-125678841D01*
X144097266Y-125451759D01*
X143808241Y-125162734D01*
X143581159Y-124822881D01*
X143424742Y-124445258D01*
X143410033Y-124371309D01*
X143345000Y-124044370D01*
X143345000Y-123635630D01*
X143424741Y-123234745D01*
X143581159Y-122857119D01*
X143628750Y-122785894D01*
X143808241Y-122517266D01*
X144097266Y-122228241D01*
X144437119Y-122001159D01*
X144814742Y-121844742D01*
X144814743Y-121844742D01*
X144814745Y-121844741D01*
X145215630Y-121765000D01*
X145624370Y-121765000D01*
X146025255Y-121844741D01*
X146025255Y-121844741D01*
G37*
G36*
X165362664Y-123594105D02*
X165362667Y-123594106D01*
X165362666Y-123594106D01*
X165526547Y-123661987D01*
X165674035Y-123760536D01*
X165799464Y-123885965D01*
X165898013Y-124033453D01*
X165898013Y-124033454D01*
X165965895Y-124197336D01*
X166000500Y-124371306D01*
X166000500Y-124548694D01*
X165965895Y-124722664D01*
X165965894Y-124722666D01*
X165898013Y-124886547D01*
X165832165Y-124985095D01*
X165799465Y-125034034D01*
X165674034Y-125159465D01*
X165669140Y-125162735D01*
X165526547Y-125258013D01*
X165410666Y-125306012D01*
X165362664Y-125325895D01*
X165188694Y-125360500D01*
X165011306Y-125360500D01*
X164837336Y-125325895D01*
X164789334Y-125306012D01*
X164673453Y-125258013D01*
X164530860Y-125162735D01*
X164525966Y-125159465D01*
X164400535Y-125034034D01*
X164367835Y-124985095D01*
X164301987Y-124886547D01*
X164234106Y-124722666D01*
X164234105Y-124722664D01*
X164199500Y-124548694D01*
X164199500Y-124371306D01*
X164234105Y-124197336D01*
X164301987Y-124033454D01*
X164301987Y-124033453D01*
X164400536Y-123885965D01*
X164525965Y-123760536D01*
X164673453Y-123661987D01*
X164837334Y-123594106D01*
X164837333Y-123594106D01*
X164837336Y-123594105D01*
X165011306Y-123559500D01*
X165188694Y-123559500D01*
X165362664Y-123594105D01*
X165362664Y-123594105D01*
G37*
G36*
X178625000Y-125285000D02*
X176975000Y-125285000D01*
X176975000Y-123635000D01*
X178625000Y-123635000D01*
X178625000Y-125285000D01*
X178625000Y-125285000D01*
G37*
G36*
X178062664Y-121054105D02*
X178062667Y-121054106D01*
X178062666Y-121054106D01*
X178226547Y-121121987D01*
X178374035Y-121220536D01*
X178499464Y-121345965D01*
X178598013Y-121493453D01*
X178598013Y-121493454D01*
X178665895Y-121657336D01*
X178700500Y-121831306D01*
X178700500Y-122008694D01*
X178665895Y-122182664D01*
X178665894Y-122182666D01*
X178598013Y-122346547D01*
X178499464Y-122494035D01*
X178374035Y-122619464D01*
X178226547Y-122718013D01*
X178110666Y-122766012D01*
X178062664Y-122785895D01*
X177888694Y-122820500D01*
X177711306Y-122820500D01*
X177537336Y-122785895D01*
X177489334Y-122766012D01*
X177373453Y-122718013D01*
X177225965Y-122619464D01*
X177100536Y-122494035D01*
X177001987Y-122346547D01*
X176934106Y-122182666D01*
X176934105Y-122182664D01*
X176899500Y-122008694D01*
X176899500Y-121831306D01*
X176934105Y-121657336D01*
X177001987Y-121493454D01*
X177001987Y-121493453D01*
X177100536Y-121345965D01*
X177225965Y-121220536D01*
X177373453Y-121121987D01*
X177537334Y-121054106D01*
X177537333Y-121054106D01*
X177537336Y-121054105D01*
X177711306Y-121019500D01*
X177888694Y-121019500D01*
X178062664Y-121054105D01*
X178062664Y-121054105D01*
G37*
G36*
X165362664Y-121054105D02*
X165362667Y-121054106D01*
X165362666Y-121054106D01*
X165526547Y-121121987D01*
X165674035Y-121220536D01*
X165799464Y-121345965D01*
X165898013Y-121493453D01*
X165898013Y-121493454D01*
X165965895Y-121657336D01*
X166000500Y-121831306D01*
X166000500Y-122008694D01*
X165965895Y-122182664D01*
X165965894Y-122182666D01*
X165898013Y-122346547D01*
X165799464Y-122494035D01*
X165674035Y-122619464D01*
X165526547Y-122718013D01*
X165410666Y-122766012D01*
X165362664Y-122785895D01*
X165188694Y-122820500D01*
X165011306Y-122820500D01*
X164837336Y-122785895D01*
X164789334Y-122766012D01*
X164673453Y-122718013D01*
X164525965Y-122619464D01*
X164400536Y-122494035D01*
X164301987Y-122346547D01*
X164234106Y-122182666D01*
X164234105Y-122182664D01*
X164199500Y-122008694D01*
X164199500Y-121831306D01*
X164234105Y-121657336D01*
X164301987Y-121493454D01*
X164301987Y-121493453D01*
X164400536Y-121345965D01*
X164525965Y-121220536D01*
X164673453Y-121121987D01*
X164837334Y-121054106D01*
X164837333Y-121054106D01*
X164837336Y-121054105D01*
X165011306Y-121019500D01*
X165188694Y-121019500D01*
X165362664Y-121054105D01*
X165362664Y-121054105D01*
G37*
G36*
X115167000Y-121725000D02*
X112417000Y-121725000D01*
X112417000Y-119575000D01*
X115167000Y-119575000D01*
X115167000Y-121725000D01*
X115167000Y-121725000D01*
G37*
G36*
X105007000Y-121725000D02*
X102257000Y-121725000D01*
X102257000Y-119575000D01*
X105007000Y-119575000D01*
X105007000Y-121725000D01*
X105007000Y-121725000D01*
G37*
G36*
X183197605Y-118305076D02*
X183197611Y-118305077D01*
X183201662Y-118305105D01*
X183410158Y-118328491D01*
X183610141Y-118391930D01*
X183793993Y-118493003D01*
X183954711Y-118627862D01*
X184086175Y-118791370D01*
X184183376Y-118977298D01*
X184242612Y-119178565D01*
X184242618Y-119178626D01*
X184242626Y-119178655D01*
X184261631Y-119387500D01*
X184239711Y-119596061D01*
X184239704Y-119596084D01*
X184239696Y-119596159D01*
X184177656Y-119796579D01*
X184077868Y-119981132D01*
X183944135Y-120142789D01*
X183781549Y-120275390D01*
X183596304Y-120373887D01*
X183395455Y-120434527D01*
X183186653Y-120455000D01*
X182573279Y-120455000D01*
X182562395Y-120454924D01*
X182562389Y-120454923D01*
X182558338Y-120454895D01*
X182349842Y-120431509D01*
X182149859Y-120368070D01*
X181966007Y-120266997D01*
X181805289Y-120132138D01*
X181673825Y-119968630D01*
X181576624Y-119782702D01*
X181517388Y-119581435D01*
X181517382Y-119581374D01*
X181517374Y-119581345D01*
X181498369Y-119372500D01*
X181520289Y-119163939D01*
X181520296Y-119163916D01*
X181520304Y-119163841D01*
X181582344Y-118963421D01*
X181682132Y-118778868D01*
X181815865Y-118617211D01*
X181978451Y-118484610D01*
X182163696Y-118386113D01*
X182364545Y-118325473D01*
X182573347Y-118305000D01*
X183186721Y-118305000D01*
X183197605Y-118305076D01*
X183197605Y-118305076D01*
G37*
G36*
X178062664Y-118514105D02*
X178062667Y-118514106D01*
X178062666Y-118514106D01*
X178226547Y-118581987D01*
X178374035Y-118680536D01*
X178499464Y-118805965D01*
X178598013Y-118953453D01*
X178615884Y-118996599D01*
X178665895Y-119117336D01*
X178700500Y-119291306D01*
X178700500Y-119468694D01*
X178665895Y-119642664D01*
X178665894Y-119642666D01*
X178598013Y-119806547D01*
X178499464Y-119954035D01*
X178374035Y-120079464D01*
X178226547Y-120178013D01*
X178110666Y-120226012D01*
X178062664Y-120245895D01*
X177888694Y-120280500D01*
X177711306Y-120280500D01*
X177537336Y-120245895D01*
X177489334Y-120226012D01*
X177373453Y-120178013D01*
X177225965Y-120079464D01*
X177100536Y-119954035D01*
X177001987Y-119806547D01*
X176934106Y-119642666D01*
X176934105Y-119642664D01*
X176899500Y-119468694D01*
X176899500Y-119291306D01*
X176934105Y-119117336D01*
X176984116Y-118996599D01*
X177001987Y-118953453D01*
X177100536Y-118805965D01*
X177225965Y-118680536D01*
X177373453Y-118581987D01*
X177537334Y-118514106D01*
X177537333Y-118514106D01*
X177537336Y-118514105D01*
X177711306Y-118479500D01*
X177888694Y-118479500D01*
X178062664Y-118514105D01*
X178062664Y-118514105D01*
G37*
G36*
X165362664Y-118514105D02*
X165362667Y-118514106D01*
X165362666Y-118514106D01*
X165526547Y-118581987D01*
X165674035Y-118680536D01*
X165799464Y-118805965D01*
X165898013Y-118953453D01*
X165915884Y-118996599D01*
X165965895Y-119117336D01*
X166000500Y-119291306D01*
X166000500Y-119468694D01*
X165965895Y-119642664D01*
X165965894Y-119642666D01*
X165898013Y-119806547D01*
X165799464Y-119954035D01*
X165674035Y-120079464D01*
X165526547Y-120178013D01*
X165410666Y-120226012D01*
X165362664Y-120245895D01*
X165188694Y-120280500D01*
X165011306Y-120280500D01*
X164837336Y-120245895D01*
X164789334Y-120226012D01*
X164673453Y-120178013D01*
X164525965Y-120079464D01*
X164400536Y-119954035D01*
X164301987Y-119806547D01*
X164234106Y-119642666D01*
X164234105Y-119642664D01*
X164199500Y-119468694D01*
X164199500Y-119291306D01*
X164234105Y-119117336D01*
X164284116Y-118996599D01*
X164301987Y-118953453D01*
X164400536Y-118805965D01*
X164525965Y-118680536D01*
X164673453Y-118581987D01*
X164837334Y-118514106D01*
X164837333Y-118514106D01*
X164837336Y-118514105D01*
X165011306Y-118479500D01*
X165188694Y-118479500D01*
X165362664Y-118514105D01*
X165362664Y-118514105D01*
G37*
G36*
X114109605Y-117035076D02*
X114109611Y-117035077D01*
X114113662Y-117035105D01*
X114322158Y-117058491D01*
X114522141Y-117121930D01*
X114705993Y-117223003D01*
X114866711Y-117357862D01*
X114998175Y-117521370D01*
X115095376Y-117707298D01*
X115154612Y-117908565D01*
X115154618Y-117908626D01*
X115154626Y-117908655D01*
X115173631Y-118117500D01*
X115151711Y-118326061D01*
X115151704Y-118326084D01*
X115151696Y-118326159D01*
X115089656Y-118526579D01*
X114989868Y-118711132D01*
X114856135Y-118872789D01*
X114693549Y-119005390D01*
X114508304Y-119103887D01*
X114307455Y-119164527D01*
X114098653Y-119185000D01*
X113485279Y-119185000D01*
X113474395Y-119184924D01*
X113474389Y-119184923D01*
X113470338Y-119184895D01*
X113261842Y-119161509D01*
X113061859Y-119098070D01*
X112878007Y-118996997D01*
X112717289Y-118862138D01*
X112585825Y-118698630D01*
X112488624Y-118512702D01*
X112429388Y-118311435D01*
X112429382Y-118311374D01*
X112429374Y-118311345D01*
X112410369Y-118102500D01*
X112432289Y-117893939D01*
X112432296Y-117893916D01*
X112432304Y-117893841D01*
X112494344Y-117693421D01*
X112594132Y-117508868D01*
X112727865Y-117347211D01*
X112890451Y-117214610D01*
X113075696Y-117116113D01*
X113276545Y-117055473D01*
X113485347Y-117035000D01*
X114098721Y-117035000D01*
X114109605Y-117035076D01*
X114109605Y-117035076D01*
G37*
G36*
X103949605Y-117035076D02*
X103949611Y-117035077D01*
X103953662Y-117035105D01*
X104162158Y-117058491D01*
X104362141Y-117121930D01*
X104545993Y-117223003D01*
X104706711Y-117357862D01*
X104838175Y-117521370D01*
X104935376Y-117707298D01*
X104994612Y-117908565D01*
X104994618Y-117908626D01*
X104994626Y-117908655D01*
X105013631Y-118117500D01*
X104991711Y-118326061D01*
X104991704Y-118326084D01*
X104991696Y-118326159D01*
X104929656Y-118526579D01*
X104829868Y-118711132D01*
X104696135Y-118872789D01*
X104533549Y-119005390D01*
X104348304Y-119103887D01*
X104147455Y-119164527D01*
X103938653Y-119185000D01*
X103325279Y-119185000D01*
X103314395Y-119184924D01*
X103314389Y-119184923D01*
X103310338Y-119184895D01*
X103101842Y-119161509D01*
X102901859Y-119098070D01*
X102718007Y-118996997D01*
X102557289Y-118862138D01*
X102425825Y-118698630D01*
X102328624Y-118512702D01*
X102269388Y-118311435D01*
X102269382Y-118311374D01*
X102269374Y-118311345D01*
X102250369Y-118102500D01*
X102272289Y-117893939D01*
X102272296Y-117893916D01*
X102272304Y-117893841D01*
X102334344Y-117693421D01*
X102434132Y-117508868D01*
X102567865Y-117347211D01*
X102730451Y-117214610D01*
X102915696Y-117116113D01*
X103116545Y-117055473D01*
X103325347Y-117035000D01*
X103938721Y-117035000D01*
X103949605Y-117035076D01*
X103949605Y-117035076D01*
G37*
G36*
X183197605Y-115765076D02*
X183197611Y-115765077D01*
X183201662Y-115765105D01*
X183410158Y-115788491D01*
X183610141Y-115851930D01*
X183793993Y-115953003D01*
X183954711Y-116087862D01*
X184086175Y-116251370D01*
X184183376Y-116437298D01*
X184242612Y-116638565D01*
X184242618Y-116638626D01*
X184242626Y-116638655D01*
X184261631Y-116847500D01*
X184239711Y-117056061D01*
X184239704Y-117056084D01*
X184239696Y-117056159D01*
X184177656Y-117256579D01*
X184077868Y-117441132D01*
X183944135Y-117602789D01*
X183781549Y-117735390D01*
X183596304Y-117833887D01*
X183395455Y-117894527D01*
X183186653Y-117915000D01*
X182573279Y-117915000D01*
X182562395Y-117914924D01*
X182562389Y-117914923D01*
X182558338Y-117914895D01*
X182349842Y-117891509D01*
X182149859Y-117828070D01*
X181966007Y-117726997D01*
X181805289Y-117592138D01*
X181673825Y-117428630D01*
X181576624Y-117242702D01*
X181517388Y-117041435D01*
X181517382Y-117041374D01*
X181517374Y-117041345D01*
X181498369Y-116832500D01*
X181520289Y-116623939D01*
X181520296Y-116623916D01*
X181520304Y-116623841D01*
X181582344Y-116423421D01*
X181682132Y-116238868D01*
X181815865Y-116077211D01*
X181978451Y-115944610D01*
X182163696Y-115846113D01*
X182364545Y-115785473D01*
X182573347Y-115765000D01*
X183186721Y-115765000D01*
X183197605Y-115765076D01*
X183197605Y-115765076D01*
G37*
G36*
X147604397Y-115902468D02*
X147781836Y-115975966D01*
X147941527Y-116082668D01*
X148077332Y-116218473D01*
X148184034Y-116378164D01*
X148257532Y-116555603D01*
X148295000Y-116743971D01*
X148295000Y-116936029D01*
X148257532Y-117124397D01*
X148184034Y-117301836D01*
X148077332Y-117461527D01*
X147941527Y-117597332D01*
X147781836Y-117704034D01*
X147604397Y-117777532D01*
X147416029Y-117815000D01*
X147223971Y-117815000D01*
X147035603Y-117777532D01*
X146858164Y-117704034D01*
X146698473Y-117597332D01*
X146562668Y-117461527D01*
X146455966Y-117301836D01*
X146382468Y-117124397D01*
X146345000Y-116936029D01*
X146345000Y-116743971D01*
X146382468Y-116555603D01*
X146455966Y-116378164D01*
X146562668Y-116218473D01*
X146698473Y-116082668D01*
X146858164Y-115975966D01*
X147035603Y-115902468D01*
X147223971Y-115865000D01*
X147416029Y-115865000D01*
X147604397Y-115902468D01*
X147604397Y-115902468D01*
G37*
G36*
X129864397Y-115902468D02*
X130041836Y-115975966D01*
X130201527Y-116082668D01*
X130337332Y-116218473D01*
X130444034Y-116378164D01*
X130517532Y-116555603D01*
X130555000Y-116743971D01*
X130555000Y-116936029D01*
X130517532Y-117124397D01*
X130444034Y-117301836D01*
X130337332Y-117461527D01*
X130201527Y-117597332D01*
X130041836Y-117704034D01*
X129864397Y-117777532D01*
X129676029Y-117815000D01*
X129483971Y-117815000D01*
X129295603Y-117777532D01*
X129118164Y-117704034D01*
X128958473Y-117597332D01*
X128822668Y-117461527D01*
X128715966Y-117301836D01*
X128642468Y-117124397D01*
X128605000Y-116936029D01*
X128605000Y-116743971D01*
X128642468Y-116555603D01*
X128715966Y-116378164D01*
X128822668Y-116218473D01*
X128958473Y-116082668D01*
X129118164Y-115975966D01*
X129295603Y-115902468D01*
X129483971Y-115865000D01*
X129676029Y-115865000D01*
X129864397Y-115902468D01*
X129864397Y-115902468D01*
G37*
G36*
X127364397Y-115902468D02*
X127541836Y-115975966D01*
X127701527Y-116082668D01*
X127837332Y-116218473D01*
X127944034Y-116378164D01*
X128017532Y-116555603D01*
X128055000Y-116743971D01*
X128055000Y-116936029D01*
X128017532Y-117124397D01*
X127944034Y-117301836D01*
X127837332Y-117461527D01*
X127701527Y-117597332D01*
X127541836Y-117704034D01*
X127364397Y-117777532D01*
X127176029Y-117815000D01*
X126983971Y-117815000D01*
X126795603Y-117777532D01*
X126618164Y-117704034D01*
X126458473Y-117597332D01*
X126322668Y-117461527D01*
X126215966Y-117301836D01*
X126142468Y-117124397D01*
X126105000Y-116936029D01*
X126105000Y-116743971D01*
X126142468Y-116555603D01*
X126215966Y-116378164D01*
X126322668Y-116218473D01*
X126458473Y-116082668D01*
X126618164Y-115975966D01*
X126795603Y-115902468D01*
X126983971Y-115865000D01*
X127176029Y-115865000D01*
X127364397Y-115902468D01*
X127364397Y-115902468D01*
G37*
G36*
X132364397Y-115902468D02*
X132541836Y-115975966D01*
X132701527Y-116082668D01*
X132837332Y-116218473D01*
X132944034Y-116378164D01*
X133017532Y-116555603D01*
X133055000Y-116743971D01*
X133055000Y-116936029D01*
X133017532Y-117124397D01*
X132944034Y-117301836D01*
X132837332Y-117461527D01*
X132701527Y-117597332D01*
X132541836Y-117704034D01*
X132364397Y-117777532D01*
X132176029Y-117815000D01*
X131983971Y-117815000D01*
X131795603Y-117777532D01*
X131618164Y-117704034D01*
X131458473Y-117597332D01*
X131322668Y-117461527D01*
X131215966Y-117301836D01*
X131142468Y-117124397D01*
X131105000Y-116936029D01*
X131105000Y-116743971D01*
X131142468Y-116555603D01*
X131215966Y-116378164D01*
X131322668Y-116218473D01*
X131458473Y-116082668D01*
X131618164Y-115975966D01*
X131795603Y-115902468D01*
X131983971Y-115865000D01*
X132176029Y-115865000D01*
X132364397Y-115902468D01*
X132364397Y-115902468D01*
G37*
G36*
X150104397Y-115902468D02*
X150281836Y-115975966D01*
X150441527Y-116082668D01*
X150577332Y-116218473D01*
X150684034Y-116378164D01*
X150757532Y-116555603D01*
X150795000Y-116743971D01*
X150795000Y-116936029D01*
X150757532Y-117124397D01*
X150684034Y-117301836D01*
X150577332Y-117461527D01*
X150441527Y-117597332D01*
X150281836Y-117704034D01*
X150104397Y-117777532D01*
X149916029Y-117815000D01*
X149723971Y-117815000D01*
X149535603Y-117777532D01*
X149358164Y-117704034D01*
X149198473Y-117597332D01*
X149062668Y-117461527D01*
X148955966Y-117301836D01*
X148882468Y-117124397D01*
X148845000Y-116936029D01*
X148845000Y-116743971D01*
X148882468Y-116555603D01*
X148955966Y-116378164D01*
X149062668Y-116218473D01*
X149198473Y-116082668D01*
X149358164Y-115975966D01*
X149535603Y-115902468D01*
X149723971Y-115865000D01*
X149916029Y-115865000D01*
X150104397Y-115902468D01*
X150104397Y-115902468D01*
G37*
G36*
X152604397Y-115902468D02*
X152781836Y-115975966D01*
X152941527Y-116082668D01*
X153077332Y-116218473D01*
X153184034Y-116378164D01*
X153257532Y-116555603D01*
X153295000Y-116743971D01*
X153295000Y-116936029D01*
X153257532Y-117124397D01*
X153184034Y-117301836D01*
X153077332Y-117461527D01*
X152941527Y-117597332D01*
X152781836Y-117704034D01*
X152604397Y-117777532D01*
X152416029Y-117815000D01*
X152223971Y-117815000D01*
X152035603Y-117777532D01*
X151858164Y-117704034D01*
X151698473Y-117597332D01*
X151562668Y-117461527D01*
X151455966Y-117301836D01*
X151382468Y-117124397D01*
X151345000Y-116936029D01*
X151345000Y-116743971D01*
X151382468Y-116555603D01*
X151455966Y-116378164D01*
X151562668Y-116218473D01*
X151698473Y-116082668D01*
X151858164Y-115975966D01*
X152035603Y-115902468D01*
X152223971Y-115865000D01*
X152416029Y-115865000D01*
X152604397Y-115902468D01*
X152604397Y-115902468D01*
G37*
G36*
X165362664Y-115974105D02*
X165392335Y-115986395D01*
X165526547Y-116041987D01*
X165674035Y-116140536D01*
X165799464Y-116265965D01*
X165898013Y-116413453D01*
X165915884Y-116456599D01*
X165965895Y-116577336D01*
X166000500Y-116751306D01*
X166000500Y-116928694D01*
X165965895Y-117102664D01*
X165946012Y-117150666D01*
X165898013Y-117266547D01*
X165799464Y-117414035D01*
X165674035Y-117539464D01*
X165526547Y-117638013D01*
X165410666Y-117686012D01*
X165362664Y-117705895D01*
X165188694Y-117740500D01*
X165011306Y-117740500D01*
X164837336Y-117705895D01*
X164789334Y-117686012D01*
X164673453Y-117638013D01*
X164525965Y-117539464D01*
X164400536Y-117414035D01*
X164301987Y-117266547D01*
X164253988Y-117150666D01*
X164234105Y-117102664D01*
X164199500Y-116928694D01*
X164199500Y-116751306D01*
X164234105Y-116577336D01*
X164284116Y-116456599D01*
X164301987Y-116413453D01*
X164400536Y-116265965D01*
X164525965Y-116140536D01*
X164673453Y-116041987D01*
X164807665Y-115986395D01*
X164837336Y-115974105D01*
X165011306Y-115939500D01*
X165188694Y-115939500D01*
X165362664Y-115974105D01*
X165362664Y-115974105D01*
G37*
G36*
X178062664Y-115974105D02*
X178092335Y-115986395D01*
X178226547Y-116041987D01*
X178374035Y-116140536D01*
X178499464Y-116265965D01*
X178598013Y-116413453D01*
X178615884Y-116456599D01*
X178665895Y-116577336D01*
X178700500Y-116751306D01*
X178700500Y-116928694D01*
X178665895Y-117102664D01*
X178646012Y-117150666D01*
X178598013Y-117266547D01*
X178499464Y-117414035D01*
X178374035Y-117539464D01*
X178226547Y-117638013D01*
X178110666Y-117686012D01*
X178062664Y-117705895D01*
X177888694Y-117740500D01*
X177711306Y-117740500D01*
X177537336Y-117705895D01*
X177489334Y-117686012D01*
X177373453Y-117638013D01*
X177225965Y-117539464D01*
X177100536Y-117414035D01*
X177001987Y-117266547D01*
X176953988Y-117150666D01*
X176934105Y-117102664D01*
X176899500Y-116928694D01*
X176899500Y-116751306D01*
X176934105Y-116577336D01*
X176984116Y-116456599D01*
X177001987Y-116413453D01*
X177100536Y-116265965D01*
X177225965Y-116140536D01*
X177373453Y-116041987D01*
X177507665Y-115986395D01*
X177537336Y-115974105D01*
X177711306Y-115939500D01*
X177888694Y-115939500D01*
X178062664Y-115974105D01*
X178062664Y-115974105D01*
G37*
G36*
X103949605Y-114495076D02*
X103949611Y-114495077D01*
X103953662Y-114495105D01*
X104162158Y-114518491D01*
X104362141Y-114581930D01*
X104545993Y-114683003D01*
X104706711Y-114817862D01*
X104838175Y-114981370D01*
X104935376Y-115167298D01*
X104994612Y-115368565D01*
X104994618Y-115368626D01*
X104994626Y-115368655D01*
X105013631Y-115577500D01*
X104991711Y-115786061D01*
X104991704Y-115786084D01*
X104991696Y-115786159D01*
X104929656Y-115986579D01*
X104829868Y-116171132D01*
X104696135Y-116332789D01*
X104533549Y-116465390D01*
X104348304Y-116563887D01*
X104147455Y-116624527D01*
X103938653Y-116645000D01*
X103325279Y-116645000D01*
X103314395Y-116644924D01*
X103314389Y-116644923D01*
X103310338Y-116644895D01*
X103101842Y-116621509D01*
X102901859Y-116558070D01*
X102718007Y-116456997D01*
X102557289Y-116322138D01*
X102425825Y-116158630D01*
X102328624Y-115972702D01*
X102269388Y-115771435D01*
X102269382Y-115771374D01*
X102269374Y-115771345D01*
X102250369Y-115562500D01*
X102272289Y-115353939D01*
X102272296Y-115353916D01*
X102272304Y-115353841D01*
X102334344Y-115153421D01*
X102434132Y-114968868D01*
X102567865Y-114807211D01*
X102730451Y-114674610D01*
X102915696Y-114576113D01*
X103116545Y-114515473D01*
X103325347Y-114495000D01*
X103938721Y-114495000D01*
X103949605Y-114495076D01*
X103949605Y-114495076D01*
G37*
G36*
X114109605Y-114495076D02*
X114109611Y-114495077D01*
X114113662Y-114495105D01*
X114322158Y-114518491D01*
X114522141Y-114581930D01*
X114705993Y-114683003D01*
X114866711Y-114817862D01*
X114998175Y-114981370D01*
X115095376Y-115167298D01*
X115154612Y-115368565D01*
X115154618Y-115368626D01*
X115154626Y-115368655D01*
X115173631Y-115577500D01*
X115151711Y-115786061D01*
X115151704Y-115786084D01*
X115151696Y-115786159D01*
X115089656Y-115986579D01*
X114989868Y-116171132D01*
X114856135Y-116332789D01*
X114693549Y-116465390D01*
X114508304Y-116563887D01*
X114307455Y-116624527D01*
X114098653Y-116645000D01*
X113485279Y-116645000D01*
X113474395Y-116644924D01*
X113474389Y-116644923D01*
X113470338Y-116644895D01*
X113261842Y-116621509D01*
X113061859Y-116558070D01*
X112878007Y-116456997D01*
X112717289Y-116322138D01*
X112585825Y-116158630D01*
X112488624Y-115972702D01*
X112429388Y-115771435D01*
X112429382Y-115771374D01*
X112429374Y-115771345D01*
X112410369Y-115562500D01*
X112432289Y-115353939D01*
X112432296Y-115353916D01*
X112432304Y-115353841D01*
X112494344Y-115153421D01*
X112594132Y-114968868D01*
X112727865Y-114807211D01*
X112890451Y-114674610D01*
X113075696Y-114576113D01*
X113276545Y-114515473D01*
X113485347Y-114495000D01*
X114098721Y-114495000D01*
X114109605Y-114495076D01*
X114109605Y-114495076D01*
G37*
G36*
X183197605Y-113225076D02*
X183197611Y-113225077D01*
X183201662Y-113225105D01*
X183410158Y-113248491D01*
X183610141Y-113311930D01*
X183793993Y-113413003D01*
X183954711Y-113547862D01*
X184086175Y-113711370D01*
X184183376Y-113897298D01*
X184242612Y-114098565D01*
X184242618Y-114098626D01*
X184242626Y-114098655D01*
X184261631Y-114307500D01*
X184239711Y-114516061D01*
X184239704Y-114516084D01*
X184239696Y-114516159D01*
X184177656Y-114716579D01*
X184077868Y-114901132D01*
X183944135Y-115062789D01*
X183781549Y-115195390D01*
X183596304Y-115293887D01*
X183395455Y-115354527D01*
X183186653Y-115375000D01*
X182573279Y-115375000D01*
X182562395Y-115374924D01*
X182562389Y-115374923D01*
X182558338Y-115374895D01*
X182349842Y-115351509D01*
X182149859Y-115288070D01*
X181966007Y-115186997D01*
X181805289Y-115052138D01*
X181673825Y-114888630D01*
X181576624Y-114702702D01*
X181517388Y-114501435D01*
X181517382Y-114501374D01*
X181517374Y-114501345D01*
X181498369Y-114292500D01*
X181520289Y-114083939D01*
X181520296Y-114083916D01*
X181520304Y-114083841D01*
X181582344Y-113883421D01*
X181682132Y-113698868D01*
X181815865Y-113537211D01*
X181978451Y-113404610D01*
X182163696Y-113306113D01*
X182364545Y-113245473D01*
X182573347Y-113225000D01*
X183186721Y-113225000D01*
X183197605Y-113225076D01*
X183197605Y-113225076D01*
G37*
G36*
X165362664Y-113434105D02*
X165362667Y-113434106D01*
X165362666Y-113434106D01*
X165526547Y-113501987D01*
X165674035Y-113600536D01*
X165799464Y-113725965D01*
X165898013Y-113873453D01*
X165946012Y-113989334D01*
X165965895Y-114037336D01*
X166000500Y-114211306D01*
X166000500Y-114388694D01*
X165965895Y-114562664D01*
X165965894Y-114562666D01*
X165898013Y-114726547D01*
X165799464Y-114874035D01*
X165674035Y-114999464D01*
X165526547Y-115098013D01*
X165410666Y-115146012D01*
X165362664Y-115165895D01*
X165188694Y-115200500D01*
X165011306Y-115200500D01*
X164837336Y-115165895D01*
X164789334Y-115146012D01*
X164673453Y-115098013D01*
X164525965Y-114999464D01*
X164400536Y-114874035D01*
X164301987Y-114726547D01*
X164234106Y-114562666D01*
X164234105Y-114562664D01*
X164199500Y-114388694D01*
X164199500Y-114211306D01*
X164234105Y-114037336D01*
X164253988Y-113989334D01*
X164301987Y-113873453D01*
X164400536Y-113725965D01*
X164525965Y-113600536D01*
X164673453Y-113501987D01*
X164837334Y-113434106D01*
X164837333Y-113434106D01*
X164837336Y-113434105D01*
X165011306Y-113399500D01*
X165188694Y-113399500D01*
X165362664Y-113434105D01*
X165362664Y-113434105D01*
G37*
G36*
X178062664Y-113434105D02*
X178062667Y-113434106D01*
X178062666Y-113434106D01*
X178226547Y-113501987D01*
X178374035Y-113600536D01*
X178499464Y-113725965D01*
X178598013Y-113873453D01*
X178646012Y-113989334D01*
X178665895Y-114037336D01*
X178700500Y-114211306D01*
X178700500Y-114388694D01*
X178665895Y-114562664D01*
X178665894Y-114562666D01*
X178598013Y-114726547D01*
X178499464Y-114874035D01*
X178374035Y-114999464D01*
X178226547Y-115098013D01*
X178110666Y-115146012D01*
X178062664Y-115165895D01*
X177888694Y-115200500D01*
X177711306Y-115200500D01*
X177537336Y-115165895D01*
X177489334Y-115146012D01*
X177373453Y-115098013D01*
X177225965Y-114999464D01*
X177100536Y-114874035D01*
X177001987Y-114726547D01*
X176934106Y-114562666D01*
X176934105Y-114562664D01*
X176899500Y-114388694D01*
X176899500Y-114211306D01*
X176934105Y-114037336D01*
X176953988Y-113989334D01*
X177001987Y-113873453D01*
X177100536Y-113725965D01*
X177225965Y-113600536D01*
X177373453Y-113501987D01*
X177537334Y-113434106D01*
X177537333Y-113434106D01*
X177537336Y-113434105D01*
X177711306Y-113399500D01*
X177888694Y-113399500D01*
X178062664Y-113434105D01*
X178062664Y-113434105D01*
G37*
G36*
X184255000Y-112835000D02*
X181505000Y-112835000D01*
X181505000Y-110685000D01*
X184255000Y-110685000D01*
X184255000Y-112835000D01*
X184255000Y-112835000D01*
G37*
G36*
X178062664Y-110894105D02*
X178062667Y-110894106D01*
X178062666Y-110894106D01*
X178226547Y-110961987D01*
X178374035Y-111060536D01*
X178499464Y-111185965D01*
X178598013Y-111333453D01*
X178598013Y-111333454D01*
X178665895Y-111497336D01*
X178700500Y-111671306D01*
X178700500Y-111848694D01*
X178665895Y-112022664D01*
X178665894Y-112022666D01*
X178598013Y-112186547D01*
X178499464Y-112334035D01*
X178374035Y-112459464D01*
X178226547Y-112558013D01*
X178110666Y-112606012D01*
X178062664Y-112625895D01*
X177888694Y-112660500D01*
X177711306Y-112660500D01*
X177537336Y-112625895D01*
X177489334Y-112606012D01*
X177373453Y-112558013D01*
X177225965Y-112459464D01*
X177100536Y-112334035D01*
X177001987Y-112186547D01*
X176934106Y-112022666D01*
X176934105Y-112022664D01*
X176899500Y-111848694D01*
X176899500Y-111671306D01*
X176934105Y-111497336D01*
X177001987Y-111333454D01*
X177001987Y-111333453D01*
X177100536Y-111185965D01*
X177225965Y-111060536D01*
X177373453Y-110961987D01*
X177537334Y-110894106D01*
X177537333Y-110894106D01*
X177537336Y-110894105D01*
X177711306Y-110859500D01*
X177888694Y-110859500D01*
X178062664Y-110894105D01*
X178062664Y-110894105D01*
G37*
G36*
X165362664Y-110894105D02*
X165362667Y-110894106D01*
X165362666Y-110894106D01*
X165526547Y-110961987D01*
X165674035Y-111060536D01*
X165799464Y-111185965D01*
X165898013Y-111333453D01*
X165898013Y-111333454D01*
X165965895Y-111497336D01*
X166000500Y-111671306D01*
X166000500Y-111848694D01*
X165965895Y-112022664D01*
X165965894Y-112022666D01*
X165898013Y-112186547D01*
X165799464Y-112334035D01*
X165674035Y-112459464D01*
X165526547Y-112558013D01*
X165410666Y-112606012D01*
X165362664Y-112625895D01*
X165188694Y-112660500D01*
X165011306Y-112660500D01*
X164837336Y-112625895D01*
X164789334Y-112606012D01*
X164673453Y-112558013D01*
X164525965Y-112459464D01*
X164400536Y-112334035D01*
X164301987Y-112186547D01*
X164234106Y-112022666D01*
X164234105Y-112022664D01*
X164199500Y-111848694D01*
X164199500Y-111671306D01*
X164234105Y-111497336D01*
X164301987Y-111333454D01*
X164301987Y-111333453D01*
X164400536Y-111185965D01*
X164525965Y-111060536D01*
X164673453Y-110961987D01*
X164837334Y-110894106D01*
X164837333Y-110894106D01*
X164837336Y-110894105D01*
X165011306Y-110859500D01*
X165188694Y-110859500D01*
X165362664Y-110894105D01*
X165362664Y-110894105D01*
G37*
G36*
X153325000Y-110145000D02*
X151475000Y-110145000D01*
X151475000Y-108295000D01*
X153325000Y-108295000D01*
X153325000Y-110145000D01*
X153325000Y-110145000D01*
G37*
G36*
X127925000Y-110145000D02*
X126075000Y-110145000D01*
X126075000Y-108295000D01*
X127925000Y-108295000D01*
X127925000Y-110145000D01*
X127925000Y-110145000D01*
G37*
G36*
X178062664Y-108354105D02*
X178062667Y-108354106D01*
X178062666Y-108354106D01*
X178226547Y-108421987D01*
X178374035Y-108520536D01*
X178499464Y-108645965D01*
X178598013Y-108793453D01*
X178598013Y-108793454D01*
X178665895Y-108957336D01*
X178700500Y-109131306D01*
X178700500Y-109308694D01*
X178665895Y-109482664D01*
X178665894Y-109482666D01*
X178598013Y-109646547D01*
X178499464Y-109794035D01*
X178374035Y-109919464D01*
X178226547Y-110018013D01*
X178110666Y-110066012D01*
X178062664Y-110085895D01*
X177888694Y-110120500D01*
X177711306Y-110120500D01*
X177537336Y-110085895D01*
X177489334Y-110066012D01*
X177373453Y-110018013D01*
X177225965Y-109919464D01*
X177100536Y-109794035D01*
X177001987Y-109646547D01*
X176934106Y-109482666D01*
X176934105Y-109482664D01*
X176899500Y-109308694D01*
X176899500Y-109131306D01*
X176934105Y-108957336D01*
X177001987Y-108793454D01*
X177001987Y-108793453D01*
X177100536Y-108645965D01*
X177225965Y-108520536D01*
X177373453Y-108421987D01*
X177537334Y-108354106D01*
X177537333Y-108354106D01*
X177537336Y-108354105D01*
X177711306Y-108319500D01*
X177888694Y-108319500D01*
X178062664Y-108354105D01*
X178062664Y-108354105D01*
G37*
G36*
X165362664Y-108354105D02*
X165362667Y-108354106D01*
X165362666Y-108354106D01*
X165526547Y-108421987D01*
X165674035Y-108520536D01*
X165799464Y-108645965D01*
X165898013Y-108793453D01*
X165898013Y-108793454D01*
X165965895Y-108957336D01*
X166000500Y-109131306D01*
X166000500Y-109308694D01*
X165965895Y-109482664D01*
X165965894Y-109482666D01*
X165898013Y-109646547D01*
X165799464Y-109794035D01*
X165674035Y-109919464D01*
X165526547Y-110018013D01*
X165410666Y-110066012D01*
X165362664Y-110085895D01*
X165188694Y-110120500D01*
X165011306Y-110120500D01*
X164837336Y-110085895D01*
X164789334Y-110066012D01*
X164673453Y-110018013D01*
X164525965Y-109919464D01*
X164400536Y-109794035D01*
X164301987Y-109646547D01*
X164234106Y-109482666D01*
X164234105Y-109482664D01*
X164199500Y-109308694D01*
X164199500Y-109131306D01*
X164234105Y-108957336D01*
X164301987Y-108793454D01*
X164301987Y-108793453D01*
X164400536Y-108645965D01*
X164525965Y-108520536D01*
X164673453Y-108421987D01*
X164837334Y-108354106D01*
X164837333Y-108354106D01*
X164837336Y-108354105D01*
X165011306Y-108319500D01*
X165188694Y-108319500D01*
X165362664Y-108354105D01*
X165362664Y-108354105D01*
G37*
G36*
X148195000Y-110095000D02*
X146445000Y-110095000D01*
X146445000Y-108345000D01*
X148195000Y-108345000D01*
X148195000Y-110095000D01*
X148195000Y-110095000D01*
G37*
G36*
X132092394Y-108345056D02*
X132092401Y-108345057D01*
X132096451Y-108345085D01*
X132266157Y-108364121D01*
X132428933Y-108415757D01*
X132578580Y-108498026D01*
X132709398Y-108607795D01*
X132816403Y-108740882D01*
X132895520Y-108892219D01*
X132943735Y-109056041D01*
X132943741Y-109056102D01*
X132943749Y-109056131D01*
X132959217Y-109226104D01*
X132941377Y-109395845D01*
X132941370Y-109395868D01*
X132941362Y-109395943D01*
X132890864Y-109559076D01*
X132809642Y-109709294D01*
X132700789Y-109840874D01*
X132568452Y-109948806D01*
X132417671Y-110028978D01*
X132254189Y-110078336D01*
X132084234Y-110095000D01*
X132075693Y-110095000D01*
X132067606Y-110094944D01*
X132067599Y-110094943D01*
X132063549Y-110094915D01*
X131893843Y-110075879D01*
X131731067Y-110024243D01*
X131581420Y-109941974D01*
X131450602Y-109832205D01*
X131343597Y-109699118D01*
X131264480Y-109547781D01*
X131216265Y-109383959D01*
X131216259Y-109383898D01*
X131216251Y-109383869D01*
X131200783Y-109213896D01*
X131218623Y-109044155D01*
X131218630Y-109044132D01*
X131218638Y-109044057D01*
X131269136Y-108880924D01*
X131350358Y-108730706D01*
X131459211Y-108599126D01*
X131591548Y-108491194D01*
X131742329Y-108411022D01*
X131905811Y-108361664D01*
X132075766Y-108345000D01*
X132084307Y-108345000D01*
X132092394Y-108345056D01*
X132092394Y-108345056D01*
G37*
G36*
X152413334Y-105755061D02*
X152413341Y-105755062D01*
X152417391Y-105755090D01*
X152596794Y-105775213D01*
X152768872Y-105829800D01*
X152927070Y-105916770D01*
X153065363Y-106032811D01*
X153178483Y-106173504D01*
X153262121Y-106333489D01*
X153313092Y-106506672D01*
X153313098Y-106506738D01*
X153313105Y-106506762D01*
X153329458Y-106686453D01*
X153310598Y-106865899D01*
X153310591Y-106865922D01*
X153310583Y-106865997D01*
X153257199Y-107038452D01*
X153171336Y-107197253D01*
X153056263Y-107336353D01*
X152916363Y-107450452D01*
X152756966Y-107535205D01*
X152584143Y-107587384D01*
X152404476Y-107605000D01*
X152395453Y-107605000D01*
X152386666Y-107604939D01*
X152386659Y-107604938D01*
X152382609Y-107604910D01*
X152203206Y-107584787D01*
X152031128Y-107530200D01*
X151872930Y-107443230D01*
X151734637Y-107327189D01*
X151621517Y-107186496D01*
X151537879Y-107026511D01*
X151486908Y-106853328D01*
X151486902Y-106853262D01*
X151486895Y-106853238D01*
X151470542Y-106673547D01*
X151489402Y-106494101D01*
X151489409Y-106494078D01*
X151489417Y-106494003D01*
X151542801Y-106321548D01*
X151628664Y-106162747D01*
X151743737Y-106023647D01*
X151883637Y-105909548D01*
X152043034Y-105824795D01*
X152215857Y-105772616D01*
X152395524Y-105755000D01*
X152404547Y-105755000D01*
X152413334Y-105755061D01*
X152413334Y-105755061D01*
G37*
G36*
X127013334Y-105755061D02*
X127013341Y-105755062D01*
X127017391Y-105755090D01*
X127196794Y-105775213D01*
X127368872Y-105829800D01*
X127527070Y-105916770D01*
X127665363Y-106032811D01*
X127778483Y-106173504D01*
X127862121Y-106333489D01*
X127913092Y-106506672D01*
X127913098Y-106506738D01*
X127913105Y-106506762D01*
X127929458Y-106686453D01*
X127910598Y-106865899D01*
X127910591Y-106865922D01*
X127910583Y-106865997D01*
X127857199Y-107038452D01*
X127771336Y-107197253D01*
X127656263Y-107336353D01*
X127516363Y-107450452D01*
X127356966Y-107535205D01*
X127184143Y-107587384D01*
X127004476Y-107605000D01*
X126995453Y-107605000D01*
X126986666Y-107604939D01*
X126986659Y-107604938D01*
X126982609Y-107604910D01*
X126803206Y-107584787D01*
X126631128Y-107530200D01*
X126472930Y-107443230D01*
X126334637Y-107327189D01*
X126221517Y-107186496D01*
X126137879Y-107026511D01*
X126086908Y-106853328D01*
X126086902Y-106853262D01*
X126086895Y-106853238D01*
X126070542Y-106673547D01*
X126089402Y-106494101D01*
X126089409Y-106494078D01*
X126089417Y-106494003D01*
X126142801Y-106321548D01*
X126228664Y-106162747D01*
X126343737Y-106023647D01*
X126483637Y-105909548D01*
X126643034Y-105824795D01*
X126815857Y-105772616D01*
X126995524Y-105755000D01*
X127004547Y-105755000D01*
X127013334Y-105755061D01*
X127013334Y-105755061D01*
G37*
G36*
X165362664Y-105814105D02*
X165362667Y-105814106D01*
X165362666Y-105814106D01*
X165526547Y-105881987D01*
X165674035Y-105980536D01*
X165799464Y-106105965D01*
X165898013Y-106253453D01*
X165934244Y-106340924D01*
X165965895Y-106417336D01*
X166000500Y-106591306D01*
X166000500Y-106768694D01*
X165965895Y-106942664D01*
X165965894Y-106942666D01*
X165898013Y-107106547D01*
X165799464Y-107254035D01*
X165674035Y-107379464D01*
X165526547Y-107478013D01*
X165410666Y-107526012D01*
X165362664Y-107545895D01*
X165188694Y-107580500D01*
X165011306Y-107580500D01*
X164837336Y-107545895D01*
X164789334Y-107526012D01*
X164673453Y-107478013D01*
X164525965Y-107379464D01*
X164400536Y-107254035D01*
X164301987Y-107106547D01*
X164234106Y-106942666D01*
X164234105Y-106942664D01*
X164199500Y-106768694D01*
X164199500Y-106591306D01*
X164234105Y-106417336D01*
X164265756Y-106340924D01*
X164301987Y-106253453D01*
X164400536Y-106105965D01*
X164525965Y-105980536D01*
X164673453Y-105881987D01*
X164837334Y-105814106D01*
X164837333Y-105814106D01*
X164837336Y-105814105D01*
X165011306Y-105779500D01*
X165188694Y-105779500D01*
X165362664Y-105814105D01*
X165362664Y-105814105D01*
G37*
G36*
X178062664Y-105814105D02*
X178062667Y-105814106D01*
X178062666Y-105814106D01*
X178226547Y-105881987D01*
X178374035Y-105980536D01*
X178499464Y-106105965D01*
X178598013Y-106253453D01*
X178634244Y-106340924D01*
X178665895Y-106417336D01*
X178700500Y-106591306D01*
X178700500Y-106768694D01*
X178665895Y-106942664D01*
X178665894Y-106942666D01*
X178598013Y-107106547D01*
X178499464Y-107254035D01*
X178374035Y-107379464D01*
X178226547Y-107478013D01*
X178110666Y-107526012D01*
X178062664Y-107545895D01*
X177888694Y-107580500D01*
X177711306Y-107580500D01*
X177537336Y-107545895D01*
X177489334Y-107526012D01*
X177373453Y-107478013D01*
X177225965Y-107379464D01*
X177100536Y-107254035D01*
X177001987Y-107106547D01*
X176934106Y-106942666D01*
X176934105Y-106942664D01*
X176899500Y-106768694D01*
X176899500Y-106591306D01*
X176934105Y-106417336D01*
X176965756Y-106340924D01*
X177001987Y-106253453D01*
X177100536Y-106105965D01*
X177225965Y-105980536D01*
X177373453Y-105881987D01*
X177537334Y-105814106D01*
X177537333Y-105814106D01*
X177537336Y-105814105D01*
X177711306Y-105779500D01*
X177888694Y-105779500D01*
X178062664Y-105814105D01*
X178062664Y-105814105D01*
G37*
G36*
X100599705Y-105750262D02*
X100599707Y-105750263D01*
X100599708Y-105750263D01*
X100611144Y-105755000D01*
X100767977Y-105819962D01*
X100919417Y-105921152D01*
X101048207Y-106049942D01*
X101149397Y-106201382D01*
X101219097Y-106369654D01*
X101254630Y-106548291D01*
X101254630Y-106730427D01*
X101219097Y-106909064D01*
X101149397Y-107077336D01*
X101048207Y-107228776D01*
X100919417Y-107357566D01*
X100767977Y-107458756D01*
X100706445Y-107484243D01*
X100599708Y-107528455D01*
X100599707Y-107528455D01*
X100599705Y-107528456D01*
X100421068Y-107563989D01*
X100238932Y-107563989D01*
X100060295Y-107528456D01*
X100060293Y-107528455D01*
X100060292Y-107528455D01*
X99953555Y-107484243D01*
X99892023Y-107458756D01*
X99740583Y-107357566D01*
X99611793Y-107228776D01*
X99510603Y-107077336D01*
X99440903Y-106909064D01*
X99405370Y-106730427D01*
X99405370Y-106548291D01*
X99440903Y-106369654D01*
X99510603Y-106201382D01*
X99611793Y-106049942D01*
X99740583Y-105921152D01*
X99892023Y-105819962D01*
X100048856Y-105755000D01*
X100060292Y-105750263D01*
X100060293Y-105750263D01*
X100060295Y-105750262D01*
X100238932Y-105714729D01*
X100421068Y-105714729D01*
X100599705Y-105750262D01*
X100599705Y-105750262D01*
G37*
G36*
X147332394Y-105805056D02*
X147332401Y-105805057D01*
X147336451Y-105805085D01*
X147506157Y-105824121D01*
X147668933Y-105875757D01*
X147818580Y-105958026D01*
X147949398Y-106067795D01*
X148056403Y-106200882D01*
X148135520Y-106352219D01*
X148183735Y-106516041D01*
X148183741Y-106516102D01*
X148183749Y-106516131D01*
X148199217Y-106686104D01*
X148181377Y-106855845D01*
X148181370Y-106855868D01*
X148181362Y-106855943D01*
X148130864Y-107019076D01*
X148049642Y-107169294D01*
X147940789Y-107300874D01*
X147808452Y-107408806D01*
X147657671Y-107488978D01*
X147494189Y-107538336D01*
X147324234Y-107555000D01*
X147315693Y-107555000D01*
X147307606Y-107554944D01*
X147307599Y-107554943D01*
X147303549Y-107554915D01*
X147133843Y-107535879D01*
X146971067Y-107484243D01*
X146821420Y-107401974D01*
X146690602Y-107292205D01*
X146583597Y-107159118D01*
X146504480Y-107007781D01*
X146456265Y-106843959D01*
X146456259Y-106843898D01*
X146456251Y-106843869D01*
X146440783Y-106673896D01*
X146458623Y-106504155D01*
X146458630Y-106504132D01*
X146458638Y-106504057D01*
X146509136Y-106340924D01*
X146590358Y-106190706D01*
X146699211Y-106059126D01*
X146831548Y-105951194D01*
X146982329Y-105871022D01*
X147145811Y-105821664D01*
X147315766Y-105805000D01*
X147324307Y-105805000D01*
X147332394Y-105805056D01*
X147332394Y-105805056D01*
G37*
G36*
X132092394Y-105805056D02*
X132092401Y-105805057D01*
X132096451Y-105805085D01*
X132266157Y-105824121D01*
X132428933Y-105875757D01*
X132578580Y-105958026D01*
X132709398Y-106067795D01*
X132816403Y-106200882D01*
X132895520Y-106352219D01*
X132943735Y-106516041D01*
X132943741Y-106516102D01*
X132943749Y-106516131D01*
X132959217Y-106686104D01*
X132941377Y-106855845D01*
X132941370Y-106855868D01*
X132941362Y-106855943D01*
X132890864Y-107019076D01*
X132809642Y-107169294D01*
X132700789Y-107300874D01*
X132568452Y-107408806D01*
X132417671Y-107488978D01*
X132254189Y-107538336D01*
X132084234Y-107555000D01*
X132075693Y-107555000D01*
X132067606Y-107554944D01*
X132067599Y-107554943D01*
X132063549Y-107554915D01*
X131893843Y-107535879D01*
X131731067Y-107484243D01*
X131581420Y-107401974D01*
X131450602Y-107292205D01*
X131343597Y-107159118D01*
X131264480Y-107007781D01*
X131216265Y-106843959D01*
X131216259Y-106843898D01*
X131216251Y-106843869D01*
X131200783Y-106673896D01*
X131218623Y-106504155D01*
X131218630Y-106504132D01*
X131218638Y-106504057D01*
X131269136Y-106340924D01*
X131350358Y-106190706D01*
X131459211Y-106059126D01*
X131591548Y-105951194D01*
X131742329Y-105871022D01*
X131905811Y-105821664D01*
X132075766Y-105805000D01*
X132084307Y-105805000D01*
X132092394Y-105805056D01*
X132092394Y-105805056D01*
G37*
G36*
X152413334Y-103215061D02*
X152413341Y-103215062D01*
X152417391Y-103215090D01*
X152596794Y-103235213D01*
X152768872Y-103289800D01*
X152927070Y-103376770D01*
X153065363Y-103492811D01*
X153178483Y-103633504D01*
X153262121Y-103793489D01*
X153313092Y-103966672D01*
X153313098Y-103966738D01*
X153313105Y-103966762D01*
X153329458Y-104146453D01*
X153310598Y-104325899D01*
X153310591Y-104325922D01*
X153310583Y-104325997D01*
X153257199Y-104498452D01*
X153171336Y-104657253D01*
X153056263Y-104796353D01*
X152916363Y-104910452D01*
X152756966Y-104995205D01*
X152584143Y-105047384D01*
X152404476Y-105065000D01*
X152395453Y-105065000D01*
X152386666Y-105064939D01*
X152386659Y-105064938D01*
X152382609Y-105064910D01*
X152203206Y-105044787D01*
X152031128Y-104990200D01*
X151872930Y-104903230D01*
X151734637Y-104787189D01*
X151621517Y-104646496D01*
X151537879Y-104486511D01*
X151486908Y-104313328D01*
X151486902Y-104313262D01*
X151486895Y-104313238D01*
X151470542Y-104133547D01*
X151489402Y-103954101D01*
X151489409Y-103954078D01*
X151489417Y-103954003D01*
X151542801Y-103781548D01*
X151628664Y-103622747D01*
X151743737Y-103483647D01*
X151883637Y-103369548D01*
X152043034Y-103284795D01*
X152215857Y-103232616D01*
X152395524Y-103215000D01*
X152404547Y-103215000D01*
X152413334Y-103215061D01*
X152413334Y-103215061D01*
G37*
G36*
X127013334Y-103215061D02*
X127013341Y-103215062D01*
X127017391Y-103215090D01*
X127196794Y-103235213D01*
X127368872Y-103289800D01*
X127527070Y-103376770D01*
X127665363Y-103492811D01*
X127778483Y-103633504D01*
X127862121Y-103793489D01*
X127913092Y-103966672D01*
X127913098Y-103966738D01*
X127913105Y-103966762D01*
X127929458Y-104146453D01*
X127910598Y-104325899D01*
X127910591Y-104325922D01*
X127910583Y-104325997D01*
X127857199Y-104498452D01*
X127771336Y-104657253D01*
X127656263Y-104796353D01*
X127516363Y-104910452D01*
X127356966Y-104995205D01*
X127184143Y-105047384D01*
X127004476Y-105065000D01*
X126995453Y-105065000D01*
X126986666Y-105064939D01*
X126986659Y-105064938D01*
X126982609Y-105064910D01*
X126803206Y-105044787D01*
X126631128Y-104990200D01*
X126472930Y-104903230D01*
X126334637Y-104787189D01*
X126221517Y-104646496D01*
X126137879Y-104486511D01*
X126086908Y-104313328D01*
X126086902Y-104313262D01*
X126086895Y-104313238D01*
X126070542Y-104133547D01*
X126089402Y-103954101D01*
X126089409Y-103954078D01*
X126089417Y-103954003D01*
X126142801Y-103781548D01*
X126228664Y-103622747D01*
X126343737Y-103483647D01*
X126483637Y-103369548D01*
X126643034Y-103284795D01*
X126815857Y-103232616D01*
X126995524Y-103215000D01*
X127004547Y-103215000D01*
X127013334Y-103215061D01*
X127013334Y-103215061D01*
G37*
G36*
X100599705Y-103250903D02*
X100599707Y-103250904D01*
X100599708Y-103250904D01*
X100633874Y-103265056D01*
X100767977Y-103320603D01*
X100869166Y-103388216D01*
X100913780Y-103418026D01*
X100919417Y-103421793D01*
X101048207Y-103550583D01*
X101149397Y-103702023D01*
X101219097Y-103870295D01*
X101254630Y-104048932D01*
X101254630Y-104231068D01*
X101219097Y-104409705D01*
X101149397Y-104577977D01*
X101096605Y-104656985D01*
X101048208Y-104729416D01*
X100919416Y-104858208D01*
X100904155Y-104868405D01*
X100767977Y-104959397D01*
X100681528Y-104995205D01*
X100599708Y-105029096D01*
X100599707Y-105029096D01*
X100599705Y-105029097D01*
X100421068Y-105064630D01*
X100238932Y-105064630D01*
X100060295Y-105029097D01*
X100060293Y-105029096D01*
X100060292Y-105029096D01*
X99978472Y-104995205D01*
X99892023Y-104959397D01*
X99755845Y-104868405D01*
X99740584Y-104858208D01*
X99611792Y-104729416D01*
X99563395Y-104656985D01*
X99510603Y-104577977D01*
X99440903Y-104409705D01*
X99405370Y-104231068D01*
X99405370Y-104048932D01*
X99440903Y-103870295D01*
X99510603Y-103702023D01*
X99611793Y-103550583D01*
X99740583Y-103421793D01*
X99746221Y-103418026D01*
X99790834Y-103388216D01*
X99892023Y-103320603D01*
X100026126Y-103265056D01*
X100060292Y-103250904D01*
X100060293Y-103250904D01*
X100060295Y-103250903D01*
X100238932Y-103215370D01*
X100421068Y-103215370D01*
X100599705Y-103250903D01*
X100599705Y-103250903D01*
G37*
G36*
X132092394Y-103265056D02*
X132092401Y-103265057D01*
X132096451Y-103265085D01*
X132266157Y-103284121D01*
X132428933Y-103335757D01*
X132578580Y-103418026D01*
X132709398Y-103527795D01*
X132816403Y-103660882D01*
X132895520Y-103812219D01*
X132943735Y-103976041D01*
X132943741Y-103976102D01*
X132943749Y-103976131D01*
X132959217Y-104146104D01*
X132941377Y-104315845D01*
X132941370Y-104315868D01*
X132941362Y-104315943D01*
X132890864Y-104479076D01*
X132809642Y-104629294D01*
X132700789Y-104760874D01*
X132568452Y-104868806D01*
X132417671Y-104948978D01*
X132254189Y-104998336D01*
X132084234Y-105015000D01*
X132075693Y-105015000D01*
X132067606Y-105014944D01*
X132067599Y-105014943D01*
X132063549Y-105014915D01*
X131893843Y-104995879D01*
X131731067Y-104944243D01*
X131581420Y-104861974D01*
X131450602Y-104752205D01*
X131343597Y-104619118D01*
X131264480Y-104467781D01*
X131216265Y-104303959D01*
X131216259Y-104303898D01*
X131216251Y-104303869D01*
X131200783Y-104133896D01*
X131218623Y-103964155D01*
X131218630Y-103964132D01*
X131218638Y-103964057D01*
X131269136Y-103800924D01*
X131350358Y-103650706D01*
X131459211Y-103519126D01*
X131591548Y-103411194D01*
X131742329Y-103331022D01*
X131905811Y-103281664D01*
X132075766Y-103265000D01*
X132084307Y-103265000D01*
X132092394Y-103265056D01*
X132092394Y-103265056D01*
G37*
G36*
X147332394Y-103265056D02*
X147332401Y-103265057D01*
X147336451Y-103265085D01*
X147506157Y-103284121D01*
X147668933Y-103335757D01*
X147818580Y-103418026D01*
X147949398Y-103527795D01*
X148056403Y-103660882D01*
X148135520Y-103812219D01*
X148183735Y-103976041D01*
X148183741Y-103976102D01*
X148183749Y-103976131D01*
X148199217Y-104146104D01*
X148181377Y-104315845D01*
X148181370Y-104315868D01*
X148181362Y-104315943D01*
X148130864Y-104479076D01*
X148049642Y-104629294D01*
X147940789Y-104760874D01*
X147808452Y-104868806D01*
X147657671Y-104948978D01*
X147494189Y-104998336D01*
X147324234Y-105015000D01*
X147315693Y-105015000D01*
X147307606Y-105014944D01*
X147307599Y-105014943D01*
X147303549Y-105014915D01*
X147133843Y-104995879D01*
X146971067Y-104944243D01*
X146821420Y-104861974D01*
X146690602Y-104752205D01*
X146583597Y-104619118D01*
X146504480Y-104467781D01*
X146456265Y-104303959D01*
X146456259Y-104303898D01*
X146456251Y-104303869D01*
X146440783Y-104133896D01*
X146458623Y-103964155D01*
X146458630Y-103964132D01*
X146458638Y-103964057D01*
X146509136Y-103800924D01*
X146590358Y-103650706D01*
X146699211Y-103519126D01*
X146831548Y-103411194D01*
X146982329Y-103331022D01*
X147145811Y-103281664D01*
X147315766Y-103265000D01*
X147324307Y-103265000D01*
X147332394Y-103265056D01*
X147332394Y-103265056D01*
G37*
G36*
X100599705Y-100751544D02*
X100599707Y-100751545D01*
X100599708Y-100751545D01*
X100656333Y-100775000D01*
X100767977Y-100821244D01*
X100919417Y-100922434D01*
X101048207Y-101051224D01*
X101149397Y-101202664D01*
X101219097Y-101370936D01*
X101254630Y-101549573D01*
X101254630Y-101731709D01*
X101219097Y-101910346D01*
X101149397Y-102078618D01*
X101048207Y-102230058D01*
X100919417Y-102358848D01*
X100767977Y-102460038D01*
X100732060Y-102474915D01*
X100599708Y-102529737D01*
X100599707Y-102529737D01*
X100599705Y-102529738D01*
X100421068Y-102565271D01*
X100238932Y-102565271D01*
X100060295Y-102529738D01*
X100060293Y-102529737D01*
X100060292Y-102529737D01*
X99927940Y-102474915D01*
X99892023Y-102460038D01*
X99740583Y-102358848D01*
X99611793Y-102230058D01*
X99510603Y-102078618D01*
X99440903Y-101910346D01*
X99405370Y-101731709D01*
X99405370Y-101549573D01*
X99440903Y-101370936D01*
X99510603Y-101202664D01*
X99611793Y-101051224D01*
X99740583Y-100922434D01*
X99892023Y-100821244D01*
X100003667Y-100775000D01*
X100060292Y-100751545D01*
X100060293Y-100751545D01*
X100060295Y-100751544D01*
X100238932Y-100716011D01*
X100421068Y-100716011D01*
X100599705Y-100751544D01*
X100599705Y-100751544D01*
G37*
G36*
X152413334Y-100675061D02*
X152413341Y-100675062D01*
X152417391Y-100675090D01*
X152596794Y-100695213D01*
X152768872Y-100749800D01*
X152927070Y-100836770D01*
X153065363Y-100952811D01*
X153178483Y-101093504D01*
X153262121Y-101253489D01*
X153313092Y-101426672D01*
X153313098Y-101426738D01*
X153313105Y-101426762D01*
X153329458Y-101606453D01*
X153310598Y-101785899D01*
X153310591Y-101785922D01*
X153310583Y-101785997D01*
X153257199Y-101958452D01*
X153171336Y-102117253D01*
X153056263Y-102256353D01*
X152916363Y-102370452D01*
X152756966Y-102455205D01*
X152584143Y-102507384D01*
X152404476Y-102525000D01*
X152395453Y-102525000D01*
X152386666Y-102524939D01*
X152386659Y-102524938D01*
X152382609Y-102524910D01*
X152203206Y-102504787D01*
X152031128Y-102450200D01*
X151872930Y-102363230D01*
X151734637Y-102247189D01*
X151621517Y-102106496D01*
X151537879Y-101946511D01*
X151486908Y-101773328D01*
X151486902Y-101773262D01*
X151486895Y-101773238D01*
X151470542Y-101593547D01*
X151489402Y-101414101D01*
X151489409Y-101414078D01*
X151489417Y-101414003D01*
X151542801Y-101241548D01*
X151628664Y-101082747D01*
X151743737Y-100943647D01*
X151883637Y-100829548D01*
X152043034Y-100744795D01*
X152215857Y-100692616D01*
X152395524Y-100675000D01*
X152404547Y-100675000D01*
X152413334Y-100675061D01*
X152413334Y-100675061D01*
G37*
G36*
X127013334Y-100675061D02*
X127013341Y-100675062D01*
X127017391Y-100675090D01*
X127196794Y-100695213D01*
X127368872Y-100749800D01*
X127527070Y-100836770D01*
X127665363Y-100952811D01*
X127778483Y-101093504D01*
X127862121Y-101253489D01*
X127913092Y-101426672D01*
X127913098Y-101426738D01*
X127913105Y-101426762D01*
X127929458Y-101606453D01*
X127910598Y-101785899D01*
X127910591Y-101785922D01*
X127910583Y-101785997D01*
X127857199Y-101958452D01*
X127771336Y-102117253D01*
X127656263Y-102256353D01*
X127516363Y-102370452D01*
X127356966Y-102455205D01*
X127184143Y-102507384D01*
X127004476Y-102525000D01*
X126995453Y-102525000D01*
X126986666Y-102524939D01*
X126986659Y-102524938D01*
X126982609Y-102524910D01*
X126803206Y-102504787D01*
X126631128Y-102450200D01*
X126472930Y-102363230D01*
X126334637Y-102247189D01*
X126221517Y-102106496D01*
X126137879Y-101946511D01*
X126086908Y-101773328D01*
X126086902Y-101773262D01*
X126086895Y-101773238D01*
X126070542Y-101593547D01*
X126089402Y-101414101D01*
X126089409Y-101414078D01*
X126089417Y-101414003D01*
X126142801Y-101241548D01*
X126228664Y-101082747D01*
X126343737Y-100943647D01*
X126483637Y-100829548D01*
X126643034Y-100744795D01*
X126815857Y-100692616D01*
X126995524Y-100675000D01*
X127004547Y-100675000D01*
X127013334Y-100675061D01*
X127013334Y-100675061D01*
G37*
G36*
X165362664Y-100734105D02*
X165362667Y-100734106D01*
X165362666Y-100734106D01*
X165526547Y-100801987D01*
X165674035Y-100900536D01*
X165799464Y-101025965D01*
X165898013Y-101173453D01*
X165934244Y-101260924D01*
X165965895Y-101337336D01*
X166000500Y-101511306D01*
X166000500Y-101688694D01*
X165965895Y-101862664D01*
X165965894Y-101862666D01*
X165898013Y-102026547D01*
X165799464Y-102174035D01*
X165674035Y-102299464D01*
X165526547Y-102398013D01*
X165410666Y-102446012D01*
X165362664Y-102465895D01*
X165188694Y-102500500D01*
X165011306Y-102500500D01*
X164837336Y-102465895D01*
X164789334Y-102446012D01*
X164673453Y-102398013D01*
X164525965Y-102299464D01*
X164400536Y-102174035D01*
X164301987Y-102026547D01*
X164234106Y-101862666D01*
X164234105Y-101862664D01*
X164199500Y-101688694D01*
X164199500Y-101511306D01*
X164234105Y-101337336D01*
X164265756Y-101260924D01*
X164301987Y-101173453D01*
X164400536Y-101025965D01*
X164525965Y-100900536D01*
X164673453Y-100801987D01*
X164837334Y-100734106D01*
X164837333Y-100734106D01*
X164837336Y-100734105D01*
X165011306Y-100699500D01*
X165188694Y-100699500D01*
X165362664Y-100734105D01*
X165362664Y-100734105D01*
G37*
G36*
X132092394Y-100725056D02*
X132092401Y-100725057D01*
X132096451Y-100725085D01*
X132266157Y-100744121D01*
X132428933Y-100795757D01*
X132578580Y-100878026D01*
X132709398Y-100987795D01*
X132816403Y-101120882D01*
X132895520Y-101272219D01*
X132943735Y-101436041D01*
X132943741Y-101436102D01*
X132943749Y-101436131D01*
X132959217Y-101606104D01*
X132941377Y-101775845D01*
X132941370Y-101775868D01*
X132941362Y-101775943D01*
X132890864Y-101939076D01*
X132809642Y-102089294D01*
X132700789Y-102220874D01*
X132568452Y-102328806D01*
X132417671Y-102408978D01*
X132254189Y-102458336D01*
X132084234Y-102475000D01*
X132075693Y-102475000D01*
X132067606Y-102474944D01*
X132067599Y-102474943D01*
X132063549Y-102474915D01*
X131893843Y-102455879D01*
X131731067Y-102404243D01*
X131581420Y-102321974D01*
X131450602Y-102212205D01*
X131343597Y-102079118D01*
X131264480Y-101927781D01*
X131216265Y-101763959D01*
X131216259Y-101763898D01*
X131216251Y-101763869D01*
X131200783Y-101593896D01*
X131218623Y-101424155D01*
X131218630Y-101424132D01*
X131218638Y-101424057D01*
X131269136Y-101260924D01*
X131350358Y-101110706D01*
X131459211Y-100979126D01*
X131591548Y-100871194D01*
X131742329Y-100791022D01*
X131905811Y-100741664D01*
X132075766Y-100725000D01*
X132084307Y-100725000D01*
X132092394Y-100725056D01*
X132092394Y-100725056D01*
G37*
G36*
X147332394Y-100725056D02*
X147332401Y-100725057D01*
X147336451Y-100725085D01*
X147506157Y-100744121D01*
X147668933Y-100795757D01*
X147818580Y-100878026D01*
X147949398Y-100987795D01*
X148056403Y-101120882D01*
X148135520Y-101272219D01*
X148183735Y-101436041D01*
X148183741Y-101436102D01*
X148183749Y-101436131D01*
X148199217Y-101606104D01*
X148181377Y-101775845D01*
X148181370Y-101775868D01*
X148181362Y-101775943D01*
X148130864Y-101939076D01*
X148049642Y-102089294D01*
X147940789Y-102220874D01*
X147808452Y-102328806D01*
X147657671Y-102408978D01*
X147494189Y-102458336D01*
X147324234Y-102475000D01*
X147315693Y-102475000D01*
X147307606Y-102474944D01*
X147307599Y-102474943D01*
X147303549Y-102474915D01*
X147133843Y-102455879D01*
X146971067Y-102404243D01*
X146821420Y-102321974D01*
X146690602Y-102212205D01*
X146583597Y-102079118D01*
X146504480Y-101927781D01*
X146456265Y-101763959D01*
X146456259Y-101763898D01*
X146456251Y-101763869D01*
X146440783Y-101593896D01*
X146458623Y-101424155D01*
X146458630Y-101424132D01*
X146458638Y-101424057D01*
X146509136Y-101260924D01*
X146590358Y-101110706D01*
X146699211Y-100979126D01*
X146831548Y-100871194D01*
X146982329Y-100791022D01*
X147145811Y-100741664D01*
X147315766Y-100725000D01*
X147324307Y-100725000D01*
X147332394Y-100725056D01*
X147332394Y-100725056D01*
G37*
G36*
X178625000Y-102425000D02*
X176975000Y-102425000D01*
X176975000Y-100775000D01*
X178625000Y-100775000D01*
X178625000Y-102425000D01*
X178625000Y-102425000D01*
G37*
G36*
X127013334Y-98135061D02*
X127013341Y-98135062D01*
X127017391Y-98135090D01*
X127196794Y-98155213D01*
X127368872Y-98209800D01*
X127527070Y-98296770D01*
X127665363Y-98412811D01*
X127778483Y-98553504D01*
X127862121Y-98713489D01*
X127913092Y-98886672D01*
X127913098Y-98886738D01*
X127913105Y-98886762D01*
X127929458Y-99066453D01*
X127910598Y-99245899D01*
X127910591Y-99245922D01*
X127910583Y-99245997D01*
X127857199Y-99418452D01*
X127771336Y-99577253D01*
X127656263Y-99716353D01*
X127516363Y-99830452D01*
X127356966Y-99915205D01*
X127184143Y-99967384D01*
X127004476Y-99985000D01*
X126995453Y-99985000D01*
X126986666Y-99984939D01*
X126986659Y-99984938D01*
X126982609Y-99984910D01*
X126803206Y-99964787D01*
X126631128Y-99910200D01*
X126472930Y-99823230D01*
X126334637Y-99707189D01*
X126221517Y-99566496D01*
X126137879Y-99406511D01*
X126086908Y-99233328D01*
X126086902Y-99233262D01*
X126086895Y-99233238D01*
X126070542Y-99053547D01*
X126089402Y-98874101D01*
X126089409Y-98874078D01*
X126089417Y-98874003D01*
X126142801Y-98701548D01*
X126228664Y-98542747D01*
X126343737Y-98403647D01*
X126483637Y-98289548D01*
X126643034Y-98204795D01*
X126815857Y-98152616D01*
X126995524Y-98135000D01*
X127004547Y-98135000D01*
X127013334Y-98135061D01*
X127013334Y-98135061D01*
G37*
G36*
X152413334Y-98135061D02*
X152413341Y-98135062D01*
X152417391Y-98135090D01*
X152596794Y-98155213D01*
X152768872Y-98209800D01*
X152927070Y-98296770D01*
X153065363Y-98412811D01*
X153178483Y-98553504D01*
X153262121Y-98713489D01*
X153313092Y-98886672D01*
X153313098Y-98886738D01*
X153313105Y-98886762D01*
X153329458Y-99066453D01*
X153310598Y-99245899D01*
X153310591Y-99245922D01*
X153310583Y-99245997D01*
X153257199Y-99418452D01*
X153171336Y-99577253D01*
X153056263Y-99716353D01*
X152916363Y-99830452D01*
X152756966Y-99915205D01*
X152584143Y-99967384D01*
X152404476Y-99985000D01*
X152395453Y-99985000D01*
X152386666Y-99984939D01*
X152386659Y-99984938D01*
X152382609Y-99984910D01*
X152203206Y-99964787D01*
X152031128Y-99910200D01*
X151872930Y-99823230D01*
X151734637Y-99707189D01*
X151621517Y-99566496D01*
X151537879Y-99406511D01*
X151486908Y-99233328D01*
X151486902Y-99233262D01*
X151486895Y-99233238D01*
X151470542Y-99053547D01*
X151489402Y-98874101D01*
X151489409Y-98874078D01*
X151489417Y-98874003D01*
X151542801Y-98701548D01*
X151628664Y-98542747D01*
X151743737Y-98403647D01*
X151883637Y-98289548D01*
X152043034Y-98204795D01*
X152215857Y-98152616D01*
X152395524Y-98135000D01*
X152404547Y-98135000D01*
X152413334Y-98135061D01*
X152413334Y-98135061D01*
G37*
G36*
X165362664Y-98194105D02*
X165362667Y-98194106D01*
X165362666Y-98194106D01*
X165526547Y-98261987D01*
X165674035Y-98360536D01*
X165799464Y-98485965D01*
X165898013Y-98633453D01*
X165934244Y-98720924D01*
X165965895Y-98797336D01*
X166000500Y-98971306D01*
X166000500Y-99148694D01*
X165965895Y-99322664D01*
X165965894Y-99322666D01*
X165898013Y-99486547D01*
X165799464Y-99634035D01*
X165674035Y-99759464D01*
X165526547Y-99858013D01*
X165410666Y-99906012D01*
X165362664Y-99925895D01*
X165188694Y-99960500D01*
X165011306Y-99960500D01*
X164837336Y-99925895D01*
X164789334Y-99906012D01*
X164673453Y-99858013D01*
X164525965Y-99759464D01*
X164400536Y-99634035D01*
X164301987Y-99486547D01*
X164234106Y-99322666D01*
X164234105Y-99322664D01*
X164199500Y-99148694D01*
X164199500Y-98971306D01*
X164234105Y-98797336D01*
X164265756Y-98720924D01*
X164301987Y-98633453D01*
X164400536Y-98485965D01*
X164525965Y-98360536D01*
X164673453Y-98261987D01*
X164837334Y-98194106D01*
X164837333Y-98194106D01*
X164837336Y-98194105D01*
X165011306Y-98159500D01*
X165188694Y-98159500D01*
X165362664Y-98194105D01*
X165362664Y-98194105D01*
G37*
G36*
X178062664Y-98194105D02*
X178062667Y-98194106D01*
X178062666Y-98194106D01*
X178226547Y-98261987D01*
X178374035Y-98360536D01*
X178499464Y-98485965D01*
X178598013Y-98633453D01*
X178634244Y-98720924D01*
X178665895Y-98797336D01*
X178700500Y-98971306D01*
X178700500Y-99148694D01*
X178665895Y-99322664D01*
X178665894Y-99322666D01*
X178598013Y-99486547D01*
X178499464Y-99634035D01*
X178374035Y-99759464D01*
X178226547Y-99858013D01*
X178110666Y-99906012D01*
X178062664Y-99925895D01*
X177888694Y-99960500D01*
X177711306Y-99960500D01*
X177537336Y-99925895D01*
X177489334Y-99906012D01*
X177373453Y-99858013D01*
X177225965Y-99759464D01*
X177100536Y-99634035D01*
X177001987Y-99486547D01*
X176934106Y-99322666D01*
X176934105Y-99322664D01*
X176899500Y-99148694D01*
X176899500Y-98971306D01*
X176934105Y-98797336D01*
X176965756Y-98720924D01*
X177001987Y-98633453D01*
X177100536Y-98485965D01*
X177225965Y-98360536D01*
X177373453Y-98261987D01*
X177537334Y-98194106D01*
X177537333Y-98194106D01*
X177537336Y-98194105D01*
X177711306Y-98159500D01*
X177888694Y-98159500D01*
X178062664Y-98194105D01*
X178062664Y-98194105D01*
G37*
G36*
X147332394Y-98185056D02*
X147332401Y-98185057D01*
X147336451Y-98185085D01*
X147506157Y-98204121D01*
X147668933Y-98255757D01*
X147818580Y-98338026D01*
X147949398Y-98447795D01*
X148056403Y-98580882D01*
X148135520Y-98732219D01*
X148183735Y-98896041D01*
X148183741Y-98896102D01*
X148183749Y-98896131D01*
X148199217Y-99066104D01*
X148181377Y-99235845D01*
X148181370Y-99235868D01*
X148181362Y-99235943D01*
X148130864Y-99399076D01*
X148049642Y-99549294D01*
X147940789Y-99680874D01*
X147808452Y-99788806D01*
X147657671Y-99868978D01*
X147494189Y-99918336D01*
X147324234Y-99935000D01*
X147315693Y-99935000D01*
X147307606Y-99934944D01*
X147307599Y-99934943D01*
X147303549Y-99934915D01*
X147133843Y-99915879D01*
X146971067Y-99864243D01*
X146821420Y-99781974D01*
X146690602Y-99672205D01*
X146583597Y-99539118D01*
X146504480Y-99387781D01*
X146456265Y-99223959D01*
X146456259Y-99223898D01*
X146456251Y-99223869D01*
X146440783Y-99053896D01*
X146458623Y-98884155D01*
X146458630Y-98884132D01*
X146458638Y-98884057D01*
X146509136Y-98720924D01*
X146590358Y-98570706D01*
X146699211Y-98439126D01*
X146831548Y-98331194D01*
X146982329Y-98251022D01*
X147145811Y-98201664D01*
X147315766Y-98185000D01*
X147324307Y-98185000D01*
X147332394Y-98185056D01*
X147332394Y-98185056D01*
G37*
G36*
X132092394Y-98185056D02*
X132092401Y-98185057D01*
X132096451Y-98185085D01*
X132266157Y-98204121D01*
X132428933Y-98255757D01*
X132578580Y-98338026D01*
X132709398Y-98447795D01*
X132816403Y-98580882D01*
X132895520Y-98732219D01*
X132943735Y-98896041D01*
X132943741Y-98896102D01*
X132943749Y-98896131D01*
X132959217Y-99066104D01*
X132941377Y-99235845D01*
X132941370Y-99235868D01*
X132941362Y-99235943D01*
X132890864Y-99399076D01*
X132809642Y-99549294D01*
X132700789Y-99680874D01*
X132568452Y-99788806D01*
X132417671Y-99868978D01*
X132254189Y-99918336D01*
X132084234Y-99935000D01*
X132075693Y-99935000D01*
X132067606Y-99934944D01*
X132067599Y-99934943D01*
X132063549Y-99934915D01*
X131893843Y-99915879D01*
X131731067Y-99864243D01*
X131581420Y-99781974D01*
X131450602Y-99672205D01*
X131343597Y-99539118D01*
X131264480Y-99387781D01*
X131216265Y-99223959D01*
X131216259Y-99223898D01*
X131216251Y-99223869D01*
X131200783Y-99053896D01*
X131218623Y-98884155D01*
X131218630Y-98884132D01*
X131218638Y-98884057D01*
X131269136Y-98720924D01*
X131350358Y-98570706D01*
X131459211Y-98439126D01*
X131591548Y-98331194D01*
X131742329Y-98251022D01*
X131905811Y-98201664D01*
X132075766Y-98185000D01*
X132084307Y-98185000D01*
X132092394Y-98185056D01*
X132092394Y-98185056D01*
G37*
G36*
X183197605Y-95445076D02*
X183197611Y-95445077D01*
X183201662Y-95445105D01*
X183410158Y-95468491D01*
X183610141Y-95531930D01*
X183793993Y-95633003D01*
X183954711Y-95767862D01*
X184086175Y-95931370D01*
X184183376Y-96117298D01*
X184242612Y-96318565D01*
X184242618Y-96318626D01*
X184242626Y-96318655D01*
X184261631Y-96527500D01*
X184239711Y-96736061D01*
X184239704Y-96736084D01*
X184239696Y-96736159D01*
X184177656Y-96936579D01*
X184077868Y-97121132D01*
X183944135Y-97282789D01*
X183781549Y-97415390D01*
X183596304Y-97513887D01*
X183395455Y-97574527D01*
X183186653Y-97595000D01*
X182573279Y-97595000D01*
X182562395Y-97594924D01*
X182562389Y-97594923D01*
X182558338Y-97594895D01*
X182349842Y-97571509D01*
X182149859Y-97508070D01*
X181966007Y-97406997D01*
X181805289Y-97272138D01*
X181673825Y-97108630D01*
X181576624Y-96922702D01*
X181517388Y-96721435D01*
X181517382Y-96721374D01*
X181517374Y-96721345D01*
X181498369Y-96512500D01*
X181520289Y-96303939D01*
X181520296Y-96303916D01*
X181520304Y-96303841D01*
X181582344Y-96103421D01*
X181682132Y-95918868D01*
X181815865Y-95757211D01*
X181978451Y-95624610D01*
X182163696Y-95526113D01*
X182364545Y-95465473D01*
X182573347Y-95445000D01*
X183186721Y-95445000D01*
X183197605Y-95445076D01*
X183197605Y-95445076D01*
G37*
G36*
X152413334Y-95595061D02*
X152413341Y-95595062D01*
X152417391Y-95595090D01*
X152596794Y-95615213D01*
X152768872Y-95669800D01*
X152927070Y-95756770D01*
X153065363Y-95872811D01*
X153178483Y-96013504D01*
X153262121Y-96173489D01*
X153313092Y-96346672D01*
X153313098Y-96346738D01*
X153313105Y-96346762D01*
X153329458Y-96526453D01*
X153310598Y-96705899D01*
X153310591Y-96705922D01*
X153310583Y-96705997D01*
X153257199Y-96878452D01*
X153171336Y-97037253D01*
X153056263Y-97176353D01*
X152916363Y-97290452D01*
X152756966Y-97375205D01*
X152584143Y-97427384D01*
X152404476Y-97445000D01*
X152395453Y-97445000D01*
X152386666Y-97444939D01*
X152386659Y-97444938D01*
X152382609Y-97444910D01*
X152203206Y-97424787D01*
X152031128Y-97370200D01*
X151872930Y-97283230D01*
X151734637Y-97167189D01*
X151621517Y-97026496D01*
X151537879Y-96866511D01*
X151486908Y-96693328D01*
X151486902Y-96693262D01*
X151486895Y-96693238D01*
X151470542Y-96513547D01*
X151489402Y-96334101D01*
X151489409Y-96334078D01*
X151489417Y-96334003D01*
X151542801Y-96161548D01*
X151628664Y-96002747D01*
X151743737Y-95863647D01*
X151883637Y-95749548D01*
X152043034Y-95664795D01*
X152215857Y-95612616D01*
X152395524Y-95595000D01*
X152404547Y-95595000D01*
X152413334Y-95595061D01*
X152413334Y-95595061D01*
G37*
G36*
X127013334Y-95595061D02*
X127013341Y-95595062D01*
X127017391Y-95595090D01*
X127196794Y-95615213D01*
X127368872Y-95669800D01*
X127527070Y-95756770D01*
X127665363Y-95872811D01*
X127778483Y-96013504D01*
X127862121Y-96173489D01*
X127913092Y-96346672D01*
X127913098Y-96346738D01*
X127913105Y-96346762D01*
X127929458Y-96526453D01*
X127910598Y-96705899D01*
X127910591Y-96705922D01*
X127910583Y-96705997D01*
X127857199Y-96878452D01*
X127771336Y-97037253D01*
X127656263Y-97176353D01*
X127516363Y-97290452D01*
X127356966Y-97375205D01*
X127184143Y-97427384D01*
X127004476Y-97445000D01*
X126995453Y-97445000D01*
X126986666Y-97444939D01*
X126986659Y-97444938D01*
X126982609Y-97444910D01*
X126803206Y-97424787D01*
X126631128Y-97370200D01*
X126472930Y-97283230D01*
X126334637Y-97167189D01*
X126221517Y-97026496D01*
X126137879Y-96866511D01*
X126086908Y-96693328D01*
X126086902Y-96693262D01*
X126086895Y-96693238D01*
X126070542Y-96513547D01*
X126089402Y-96334101D01*
X126089409Y-96334078D01*
X126089417Y-96334003D01*
X126142801Y-96161548D01*
X126228664Y-96002747D01*
X126343737Y-95863647D01*
X126483637Y-95749548D01*
X126643034Y-95664795D01*
X126815857Y-95612616D01*
X126995524Y-95595000D01*
X127004547Y-95595000D01*
X127013334Y-95595061D01*
X127013334Y-95595061D01*
G37*
G36*
X165362664Y-95654105D02*
X165362667Y-95654106D01*
X165362666Y-95654106D01*
X165526547Y-95721987D01*
X165674035Y-95820536D01*
X165799464Y-95945965D01*
X165898013Y-96093453D01*
X165934244Y-96180924D01*
X165965895Y-96257336D01*
X166000500Y-96431306D01*
X166000500Y-96608694D01*
X165965895Y-96782664D01*
X165965894Y-96782666D01*
X165898013Y-96946547D01*
X165799464Y-97094035D01*
X165674035Y-97219464D01*
X165526547Y-97318013D01*
X165410666Y-97366012D01*
X165362664Y-97385895D01*
X165188694Y-97420500D01*
X165011306Y-97420500D01*
X164837336Y-97385895D01*
X164789334Y-97366012D01*
X164673453Y-97318013D01*
X164525965Y-97219464D01*
X164400536Y-97094035D01*
X164301987Y-96946547D01*
X164234106Y-96782666D01*
X164234105Y-96782664D01*
X164199500Y-96608694D01*
X164199500Y-96431306D01*
X164234105Y-96257336D01*
X164265756Y-96180924D01*
X164301987Y-96093453D01*
X164400536Y-95945965D01*
X164525965Y-95820536D01*
X164673453Y-95721987D01*
X164837334Y-95654106D01*
X164837333Y-95654106D01*
X164837336Y-95654105D01*
X165011306Y-95619500D01*
X165188694Y-95619500D01*
X165362664Y-95654105D01*
X165362664Y-95654105D01*
G37*
G36*
X178062664Y-95654105D02*
X178062667Y-95654106D01*
X178062666Y-95654106D01*
X178226547Y-95721987D01*
X178374035Y-95820536D01*
X178499464Y-95945965D01*
X178598013Y-96093453D01*
X178634244Y-96180924D01*
X178665895Y-96257336D01*
X178700500Y-96431306D01*
X178700500Y-96608694D01*
X178665895Y-96782664D01*
X178665894Y-96782666D01*
X178598013Y-96946547D01*
X178499464Y-97094035D01*
X178374035Y-97219464D01*
X178226547Y-97318013D01*
X178110666Y-97366012D01*
X178062664Y-97385895D01*
X177888694Y-97420500D01*
X177711306Y-97420500D01*
X177537336Y-97385895D01*
X177489334Y-97366012D01*
X177373453Y-97318013D01*
X177225965Y-97219464D01*
X177100536Y-97094035D01*
X177001987Y-96946547D01*
X176934106Y-96782666D01*
X176934105Y-96782664D01*
X176899500Y-96608694D01*
X176899500Y-96431306D01*
X176934105Y-96257336D01*
X176965756Y-96180924D01*
X177001987Y-96093453D01*
X177100536Y-95945965D01*
X177225965Y-95820536D01*
X177373453Y-95721987D01*
X177537334Y-95654106D01*
X177537333Y-95654106D01*
X177537336Y-95654105D01*
X177711306Y-95619500D01*
X177888694Y-95619500D01*
X178062664Y-95654105D01*
X178062664Y-95654105D01*
G37*
G36*
X147332394Y-95645056D02*
X147332401Y-95645057D01*
X147336451Y-95645085D01*
X147506157Y-95664121D01*
X147668933Y-95715757D01*
X147818580Y-95798026D01*
X147949398Y-95907795D01*
X148056403Y-96040882D01*
X148135520Y-96192219D01*
X148183735Y-96356041D01*
X148183741Y-96356102D01*
X148183749Y-96356131D01*
X148199217Y-96526104D01*
X148181377Y-96695845D01*
X148181370Y-96695868D01*
X148181362Y-96695943D01*
X148130864Y-96859076D01*
X148049642Y-97009294D01*
X147940789Y-97140874D01*
X147808452Y-97248806D01*
X147657671Y-97328978D01*
X147494189Y-97378336D01*
X147324234Y-97395000D01*
X147315693Y-97395000D01*
X147307606Y-97394944D01*
X147307599Y-97394943D01*
X147303549Y-97394915D01*
X147133843Y-97375879D01*
X146971067Y-97324243D01*
X146821420Y-97241974D01*
X146690602Y-97132205D01*
X146583597Y-96999118D01*
X146504480Y-96847781D01*
X146456265Y-96683959D01*
X146456259Y-96683898D01*
X146456251Y-96683869D01*
X146440783Y-96513896D01*
X146458623Y-96344155D01*
X146458630Y-96344132D01*
X146458638Y-96344057D01*
X146509136Y-96180924D01*
X146590358Y-96030706D01*
X146699211Y-95899126D01*
X146831548Y-95791194D01*
X146982329Y-95711022D01*
X147145811Y-95661664D01*
X147315766Y-95645000D01*
X147324307Y-95645000D01*
X147332394Y-95645056D01*
X147332394Y-95645056D01*
G37*
G36*
X132092394Y-95645056D02*
X132092401Y-95645057D01*
X132096451Y-95645085D01*
X132266157Y-95664121D01*
X132428933Y-95715757D01*
X132578580Y-95798026D01*
X132709398Y-95907795D01*
X132816403Y-96040882D01*
X132895520Y-96192219D01*
X132943735Y-96356041D01*
X132943741Y-96356102D01*
X132943749Y-96356131D01*
X132959217Y-96526104D01*
X132941377Y-96695845D01*
X132941370Y-96695868D01*
X132941362Y-96695943D01*
X132890864Y-96859076D01*
X132809642Y-97009294D01*
X132700789Y-97140874D01*
X132568452Y-97248806D01*
X132417671Y-97328978D01*
X132254189Y-97378336D01*
X132084234Y-97395000D01*
X132075693Y-97395000D01*
X132067606Y-97394944D01*
X132067599Y-97394943D01*
X132063549Y-97394915D01*
X131893843Y-97375879D01*
X131731067Y-97324243D01*
X131581420Y-97241974D01*
X131450602Y-97132205D01*
X131343597Y-96999118D01*
X131264480Y-96847781D01*
X131216265Y-96683959D01*
X131216259Y-96683898D01*
X131216251Y-96683869D01*
X131200783Y-96513896D01*
X131218623Y-96344155D01*
X131218630Y-96344132D01*
X131218638Y-96344057D01*
X131269136Y-96180924D01*
X131350358Y-96030706D01*
X131459211Y-95899126D01*
X131591548Y-95791194D01*
X131742329Y-95711022D01*
X131905811Y-95661664D01*
X132075766Y-95645000D01*
X132084307Y-95645000D01*
X132092394Y-95645056D01*
X132092394Y-95645056D01*
G37*
G36*
X183197605Y-92905076D02*
X183197611Y-92905077D01*
X183201662Y-92905105D01*
X183410158Y-92928491D01*
X183610141Y-92991930D01*
X183793993Y-93093003D01*
X183954711Y-93227862D01*
X184086175Y-93391370D01*
X184183376Y-93577298D01*
X184242612Y-93778565D01*
X184242618Y-93778626D01*
X184242626Y-93778655D01*
X184261631Y-93987500D01*
X184239711Y-94196061D01*
X184239704Y-94196084D01*
X184239696Y-94196159D01*
X184177656Y-94396579D01*
X184077868Y-94581132D01*
X183944135Y-94742789D01*
X183781549Y-94875390D01*
X183596304Y-94973887D01*
X183395455Y-95034527D01*
X183186653Y-95055000D01*
X182573279Y-95055000D01*
X182562395Y-95054924D01*
X182562389Y-95054923D01*
X182558338Y-95054895D01*
X182349842Y-95031509D01*
X182149859Y-94968070D01*
X181966007Y-94866997D01*
X181805289Y-94732138D01*
X181673825Y-94568630D01*
X181576624Y-94382702D01*
X181517388Y-94181435D01*
X181517382Y-94181374D01*
X181517374Y-94181345D01*
X181498369Y-93972500D01*
X181520289Y-93763939D01*
X181520296Y-93763916D01*
X181520304Y-93763841D01*
X181582344Y-93563421D01*
X181682132Y-93378868D01*
X181815865Y-93217211D01*
X181978451Y-93084610D01*
X182163696Y-92986113D01*
X182364545Y-92925473D01*
X182573347Y-92905000D01*
X183186721Y-92905000D01*
X183197605Y-92905076D01*
X183197605Y-92905076D01*
G37*
G36*
X127013334Y-93055061D02*
X127013341Y-93055062D01*
X127017391Y-93055090D01*
X127196794Y-93075213D01*
X127368872Y-93129800D01*
X127527070Y-93216770D01*
X127665363Y-93332811D01*
X127778483Y-93473504D01*
X127862121Y-93633489D01*
X127913092Y-93806672D01*
X127913098Y-93806738D01*
X127913105Y-93806762D01*
X127929458Y-93986453D01*
X127910598Y-94165899D01*
X127910591Y-94165922D01*
X127910583Y-94165997D01*
X127857199Y-94338452D01*
X127771336Y-94497253D01*
X127656263Y-94636353D01*
X127516363Y-94750452D01*
X127356966Y-94835205D01*
X127184143Y-94887384D01*
X127004476Y-94905000D01*
X126995453Y-94905000D01*
X126986666Y-94904939D01*
X126986659Y-94904938D01*
X126982609Y-94904910D01*
X126803206Y-94884787D01*
X126631128Y-94830200D01*
X126472930Y-94743230D01*
X126334637Y-94627189D01*
X126221517Y-94486496D01*
X126137879Y-94326511D01*
X126086908Y-94153328D01*
X126086902Y-94153262D01*
X126086895Y-94153238D01*
X126070542Y-93973547D01*
X126089402Y-93794101D01*
X126089409Y-93794078D01*
X126089417Y-93794003D01*
X126142801Y-93621548D01*
X126228664Y-93462747D01*
X126343737Y-93323647D01*
X126483637Y-93209548D01*
X126643034Y-93124795D01*
X126815857Y-93072616D01*
X126995524Y-93055000D01*
X127004547Y-93055000D01*
X127013334Y-93055061D01*
X127013334Y-93055061D01*
G37*
G36*
X152413334Y-93055061D02*
X152413341Y-93055062D01*
X152417391Y-93055090D01*
X152596794Y-93075213D01*
X152768872Y-93129800D01*
X152927070Y-93216770D01*
X153065363Y-93332811D01*
X153178483Y-93473504D01*
X153262121Y-93633489D01*
X153313092Y-93806672D01*
X153313098Y-93806738D01*
X153313105Y-93806762D01*
X153329458Y-93986453D01*
X153310598Y-94165899D01*
X153310591Y-94165922D01*
X153310583Y-94165997D01*
X153257199Y-94338452D01*
X153171336Y-94497253D01*
X153056263Y-94636353D01*
X152916363Y-94750452D01*
X152756966Y-94835205D01*
X152584143Y-94887384D01*
X152404476Y-94905000D01*
X152395453Y-94905000D01*
X152386666Y-94904939D01*
X152386659Y-94904938D01*
X152382609Y-94904910D01*
X152203206Y-94884787D01*
X152031128Y-94830200D01*
X151872930Y-94743230D01*
X151734637Y-94627189D01*
X151621517Y-94486496D01*
X151537879Y-94326511D01*
X151486908Y-94153328D01*
X151486902Y-94153262D01*
X151486895Y-94153238D01*
X151470542Y-93973547D01*
X151489402Y-93794101D01*
X151489409Y-93794078D01*
X151489417Y-93794003D01*
X151542801Y-93621548D01*
X151628664Y-93462747D01*
X151743737Y-93323647D01*
X151883637Y-93209548D01*
X152043034Y-93124795D01*
X152215857Y-93072616D01*
X152395524Y-93055000D01*
X152404547Y-93055000D01*
X152413334Y-93055061D01*
X152413334Y-93055061D01*
G37*
G36*
X165362664Y-93114105D02*
X165362667Y-93114106D01*
X165362666Y-93114106D01*
X165526547Y-93181987D01*
X165674035Y-93280536D01*
X165799464Y-93405965D01*
X165898013Y-93553453D01*
X165934244Y-93640924D01*
X165965895Y-93717336D01*
X166000500Y-93891306D01*
X166000500Y-94068694D01*
X165965895Y-94242664D01*
X165965894Y-94242666D01*
X165898013Y-94406547D01*
X165799464Y-94554035D01*
X165674035Y-94679464D01*
X165526547Y-94778013D01*
X165410666Y-94826012D01*
X165362664Y-94845895D01*
X165188694Y-94880500D01*
X165011306Y-94880500D01*
X164837336Y-94845895D01*
X164789334Y-94826012D01*
X164673453Y-94778013D01*
X164525965Y-94679464D01*
X164400536Y-94554035D01*
X164301987Y-94406547D01*
X164234106Y-94242666D01*
X164234105Y-94242664D01*
X164199500Y-94068694D01*
X164199500Y-93891306D01*
X164234105Y-93717336D01*
X164265756Y-93640924D01*
X164301987Y-93553453D01*
X164400536Y-93405965D01*
X164525965Y-93280536D01*
X164673453Y-93181987D01*
X164837334Y-93114106D01*
X164837333Y-93114106D01*
X164837336Y-93114105D01*
X165011306Y-93079500D01*
X165188694Y-93079500D01*
X165362664Y-93114105D01*
X165362664Y-93114105D01*
G37*
G36*
X178062664Y-93114105D02*
X178062667Y-93114106D01*
X178062666Y-93114106D01*
X178226547Y-93181987D01*
X178374035Y-93280536D01*
X178499464Y-93405965D01*
X178598013Y-93553453D01*
X178634244Y-93640924D01*
X178665895Y-93717336D01*
X178700500Y-93891306D01*
X178700500Y-94068694D01*
X178665895Y-94242664D01*
X178665894Y-94242666D01*
X178598013Y-94406547D01*
X178499464Y-94554035D01*
X178374035Y-94679464D01*
X178226547Y-94778013D01*
X178110666Y-94826012D01*
X178062664Y-94845895D01*
X177888694Y-94880500D01*
X177711306Y-94880500D01*
X177537336Y-94845895D01*
X177489334Y-94826012D01*
X177373453Y-94778013D01*
X177225965Y-94679464D01*
X177100536Y-94554035D01*
X177001987Y-94406547D01*
X176934106Y-94242666D01*
X176934105Y-94242664D01*
X176899500Y-94068694D01*
X176899500Y-93891306D01*
X176934105Y-93717336D01*
X176965756Y-93640924D01*
X177001987Y-93553453D01*
X177100536Y-93405965D01*
X177225965Y-93280536D01*
X177373453Y-93181987D01*
X177537334Y-93114106D01*
X177537333Y-93114106D01*
X177537336Y-93114105D01*
X177711306Y-93079500D01*
X177888694Y-93079500D01*
X178062664Y-93114105D01*
X178062664Y-93114105D01*
G37*
G36*
X147332394Y-93105056D02*
X147332401Y-93105057D01*
X147336451Y-93105085D01*
X147506157Y-93124121D01*
X147668933Y-93175757D01*
X147818580Y-93258026D01*
X147949398Y-93367795D01*
X148056403Y-93500882D01*
X148135520Y-93652219D01*
X148183735Y-93816041D01*
X148183741Y-93816102D01*
X148183749Y-93816131D01*
X148199217Y-93986104D01*
X148181377Y-94155845D01*
X148181370Y-94155868D01*
X148181362Y-94155943D01*
X148130864Y-94319076D01*
X148049642Y-94469294D01*
X147940789Y-94600874D01*
X147808452Y-94708806D01*
X147657671Y-94788978D01*
X147494189Y-94838336D01*
X147324234Y-94855000D01*
X147315693Y-94855000D01*
X147307606Y-94854944D01*
X147307599Y-94854943D01*
X147303549Y-94854915D01*
X147133843Y-94835879D01*
X146971067Y-94784243D01*
X146821420Y-94701974D01*
X146690602Y-94592205D01*
X146583597Y-94459118D01*
X146504480Y-94307781D01*
X146456265Y-94143959D01*
X146456259Y-94143898D01*
X146456251Y-94143869D01*
X146440783Y-93973896D01*
X146458623Y-93804155D01*
X146458630Y-93804132D01*
X146458638Y-93804057D01*
X146509136Y-93640924D01*
X146590358Y-93490706D01*
X146699211Y-93359126D01*
X146831548Y-93251194D01*
X146982329Y-93171022D01*
X147145811Y-93121664D01*
X147315766Y-93105000D01*
X147324307Y-93105000D01*
X147332394Y-93105056D01*
X147332394Y-93105056D01*
G37*
G36*
X132092394Y-93105056D02*
X132092401Y-93105057D01*
X132096451Y-93105085D01*
X132266157Y-93124121D01*
X132428933Y-93175757D01*
X132578580Y-93258026D01*
X132709398Y-93367795D01*
X132816403Y-93500882D01*
X132895520Y-93652219D01*
X132943735Y-93816041D01*
X132943741Y-93816102D01*
X132943749Y-93816131D01*
X132959217Y-93986104D01*
X132941377Y-94155845D01*
X132941370Y-94155868D01*
X132941362Y-94155943D01*
X132890864Y-94319076D01*
X132809642Y-94469294D01*
X132700789Y-94600874D01*
X132568452Y-94708806D01*
X132417671Y-94788978D01*
X132254189Y-94838336D01*
X132084234Y-94855000D01*
X132075693Y-94855000D01*
X132067606Y-94854944D01*
X132067599Y-94854943D01*
X132063549Y-94854915D01*
X131893843Y-94835879D01*
X131731067Y-94784243D01*
X131581420Y-94701974D01*
X131450602Y-94592205D01*
X131343597Y-94459118D01*
X131264480Y-94307781D01*
X131216265Y-94143959D01*
X131216259Y-94143898D01*
X131216251Y-94143869D01*
X131200783Y-93973896D01*
X131218623Y-93804155D01*
X131218630Y-93804132D01*
X131218638Y-93804057D01*
X131269136Y-93640924D01*
X131350358Y-93490706D01*
X131459211Y-93359126D01*
X131591548Y-93251194D01*
X131742329Y-93171022D01*
X131905811Y-93121664D01*
X132075766Y-93105000D01*
X132084307Y-93105000D01*
X132092394Y-93105056D01*
X132092394Y-93105056D01*
G37*
G36*
X183197605Y-90365076D02*
X183197611Y-90365077D01*
X183201662Y-90365105D01*
X183410158Y-90388491D01*
X183610141Y-90451930D01*
X183793993Y-90553003D01*
X183954711Y-90687862D01*
X184086175Y-90851370D01*
X184183376Y-91037298D01*
X184242612Y-91238565D01*
X184242618Y-91238626D01*
X184242626Y-91238655D01*
X184261631Y-91447500D01*
X184239711Y-91656061D01*
X184239704Y-91656084D01*
X184239696Y-91656159D01*
X184177656Y-91856579D01*
X184077868Y-92041132D01*
X183944135Y-92202789D01*
X183781549Y-92335390D01*
X183596304Y-92433887D01*
X183395455Y-92494527D01*
X183186653Y-92515000D01*
X182573279Y-92515000D01*
X182562395Y-92514924D01*
X182562389Y-92514923D01*
X182558338Y-92514895D01*
X182349842Y-92491509D01*
X182149859Y-92428070D01*
X181966007Y-92326997D01*
X181805289Y-92192138D01*
X181673825Y-92028630D01*
X181576624Y-91842702D01*
X181517388Y-91641435D01*
X181517382Y-91641374D01*
X181517374Y-91641345D01*
X181498369Y-91432500D01*
X181520289Y-91223939D01*
X181520296Y-91223916D01*
X181520304Y-91223841D01*
X181582344Y-91023421D01*
X181682132Y-90838868D01*
X181815865Y-90677211D01*
X181978451Y-90544610D01*
X182163696Y-90446113D01*
X182364545Y-90385473D01*
X182573347Y-90365000D01*
X183186721Y-90365000D01*
X183197605Y-90365076D01*
X183197605Y-90365076D01*
G37*
G36*
X127013334Y-90515061D02*
X127013341Y-90515062D01*
X127017391Y-90515090D01*
X127196794Y-90535213D01*
X127368872Y-90589800D01*
X127527070Y-90676770D01*
X127665363Y-90792811D01*
X127778483Y-90933504D01*
X127862121Y-91093489D01*
X127913092Y-91266672D01*
X127913098Y-91266738D01*
X127913105Y-91266762D01*
X127929458Y-91446453D01*
X127910598Y-91625899D01*
X127910591Y-91625922D01*
X127910583Y-91625997D01*
X127857199Y-91798452D01*
X127771336Y-91957253D01*
X127656263Y-92096353D01*
X127516363Y-92210452D01*
X127356966Y-92295205D01*
X127184143Y-92347384D01*
X127004476Y-92365000D01*
X126995453Y-92365000D01*
X126986666Y-92364939D01*
X126986659Y-92364938D01*
X126982609Y-92364910D01*
X126803206Y-92344787D01*
X126631128Y-92290200D01*
X126472930Y-92203230D01*
X126334637Y-92087189D01*
X126221517Y-91946496D01*
X126137879Y-91786511D01*
X126086908Y-91613328D01*
X126086902Y-91613262D01*
X126086895Y-91613238D01*
X126070542Y-91433547D01*
X126089402Y-91254101D01*
X126089409Y-91254078D01*
X126089417Y-91254003D01*
X126142801Y-91081548D01*
X126228664Y-90922747D01*
X126343737Y-90783647D01*
X126483637Y-90669548D01*
X126643034Y-90584795D01*
X126815857Y-90532616D01*
X126995524Y-90515000D01*
X127004547Y-90515000D01*
X127013334Y-90515061D01*
X127013334Y-90515061D01*
G37*
G36*
X152413334Y-90515061D02*
X152413341Y-90515062D01*
X152417391Y-90515090D01*
X152596794Y-90535213D01*
X152768872Y-90589800D01*
X152927070Y-90676770D01*
X153065363Y-90792811D01*
X153178483Y-90933504D01*
X153262121Y-91093489D01*
X153313092Y-91266672D01*
X153313098Y-91266738D01*
X153313105Y-91266762D01*
X153329458Y-91446453D01*
X153310598Y-91625899D01*
X153310591Y-91625922D01*
X153310583Y-91625997D01*
X153257199Y-91798452D01*
X153171336Y-91957253D01*
X153056263Y-92096353D01*
X152916363Y-92210452D01*
X152756966Y-92295205D01*
X152584143Y-92347384D01*
X152404476Y-92365000D01*
X152395453Y-92365000D01*
X152386666Y-92364939D01*
X152386659Y-92364938D01*
X152382609Y-92364910D01*
X152203206Y-92344787D01*
X152031128Y-92290200D01*
X151872930Y-92203230D01*
X151734637Y-92087189D01*
X151621517Y-91946496D01*
X151537879Y-91786511D01*
X151486908Y-91613328D01*
X151486902Y-91613262D01*
X151486895Y-91613238D01*
X151470542Y-91433547D01*
X151489402Y-91254101D01*
X151489409Y-91254078D01*
X151489417Y-91254003D01*
X151542801Y-91081548D01*
X151628664Y-90922747D01*
X151743737Y-90783647D01*
X151883637Y-90669548D01*
X152043034Y-90584795D01*
X152215857Y-90532616D01*
X152395524Y-90515000D01*
X152404547Y-90515000D01*
X152413334Y-90515061D01*
X152413334Y-90515061D01*
G37*
G36*
X165362664Y-90574105D02*
X165362667Y-90574106D01*
X165362666Y-90574106D01*
X165526547Y-90641987D01*
X165674035Y-90740536D01*
X165799464Y-90865965D01*
X165898013Y-91013453D01*
X165934244Y-91100924D01*
X165965895Y-91177336D01*
X166000500Y-91351306D01*
X166000500Y-91528694D01*
X165965895Y-91702664D01*
X165965894Y-91702666D01*
X165898013Y-91866547D01*
X165799464Y-92014035D01*
X165674035Y-92139464D01*
X165526547Y-92238013D01*
X165410666Y-92286012D01*
X165362664Y-92305895D01*
X165188694Y-92340500D01*
X165011306Y-92340500D01*
X164837336Y-92305895D01*
X164789334Y-92286012D01*
X164673453Y-92238013D01*
X164525965Y-92139464D01*
X164400536Y-92014035D01*
X164301987Y-91866547D01*
X164234106Y-91702666D01*
X164234105Y-91702664D01*
X164199500Y-91528694D01*
X164199500Y-91351306D01*
X164234105Y-91177336D01*
X164265756Y-91100924D01*
X164301987Y-91013453D01*
X164400536Y-90865965D01*
X164525965Y-90740536D01*
X164673453Y-90641987D01*
X164837334Y-90574106D01*
X164837333Y-90574106D01*
X164837336Y-90574105D01*
X165011306Y-90539500D01*
X165188694Y-90539500D01*
X165362664Y-90574105D01*
X165362664Y-90574105D01*
G37*
G36*
X178062664Y-90574105D02*
X178062667Y-90574106D01*
X178062666Y-90574106D01*
X178226547Y-90641987D01*
X178374035Y-90740536D01*
X178499464Y-90865965D01*
X178598013Y-91013453D01*
X178634244Y-91100924D01*
X178665895Y-91177336D01*
X178700500Y-91351306D01*
X178700500Y-91528694D01*
X178665895Y-91702664D01*
X178665894Y-91702666D01*
X178598013Y-91866547D01*
X178499464Y-92014035D01*
X178374035Y-92139464D01*
X178226547Y-92238013D01*
X178110666Y-92286012D01*
X178062664Y-92305895D01*
X177888694Y-92340500D01*
X177711306Y-92340500D01*
X177537336Y-92305895D01*
X177489334Y-92286012D01*
X177373453Y-92238013D01*
X177225965Y-92139464D01*
X177100536Y-92014035D01*
X177001987Y-91866547D01*
X176934106Y-91702666D01*
X176934105Y-91702664D01*
X176899500Y-91528694D01*
X176899500Y-91351306D01*
X176934105Y-91177336D01*
X176965756Y-91100924D01*
X177001987Y-91013453D01*
X177100536Y-90865965D01*
X177225965Y-90740536D01*
X177373453Y-90641987D01*
X177537334Y-90574106D01*
X177537333Y-90574106D01*
X177537336Y-90574105D01*
X177711306Y-90539500D01*
X177888694Y-90539500D01*
X178062664Y-90574105D01*
X178062664Y-90574105D01*
G37*
G36*
X132092394Y-90565056D02*
X132092401Y-90565057D01*
X132096451Y-90565085D01*
X132266157Y-90584121D01*
X132428933Y-90635757D01*
X132578580Y-90718026D01*
X132709398Y-90827795D01*
X132816403Y-90960882D01*
X132895520Y-91112219D01*
X132943735Y-91276041D01*
X132943741Y-91276102D01*
X132943749Y-91276131D01*
X132959217Y-91446104D01*
X132941377Y-91615845D01*
X132941370Y-91615868D01*
X132941362Y-91615943D01*
X132890864Y-91779076D01*
X132809642Y-91929294D01*
X132700789Y-92060874D01*
X132568452Y-92168806D01*
X132417671Y-92248978D01*
X132254189Y-92298336D01*
X132084234Y-92315000D01*
X132075693Y-92315000D01*
X132067606Y-92314944D01*
X132067599Y-92314943D01*
X132063549Y-92314915D01*
X131893843Y-92295879D01*
X131731067Y-92244243D01*
X131581420Y-92161974D01*
X131450602Y-92052205D01*
X131343597Y-91919118D01*
X131264480Y-91767781D01*
X131216265Y-91603959D01*
X131216259Y-91603898D01*
X131216251Y-91603869D01*
X131200783Y-91433896D01*
X131218623Y-91264155D01*
X131218630Y-91264132D01*
X131218638Y-91264057D01*
X131269136Y-91100924D01*
X131350358Y-90950706D01*
X131459211Y-90819126D01*
X131591548Y-90711194D01*
X131742329Y-90631022D01*
X131905811Y-90581664D01*
X132075766Y-90565000D01*
X132084307Y-90565000D01*
X132092394Y-90565056D01*
X132092394Y-90565056D01*
G37*
G36*
X147332394Y-90565056D02*
X147332401Y-90565057D01*
X147336451Y-90565085D01*
X147506157Y-90584121D01*
X147668933Y-90635757D01*
X147818580Y-90718026D01*
X147949398Y-90827795D01*
X148056403Y-90960882D01*
X148135520Y-91112219D01*
X148183735Y-91276041D01*
X148183741Y-91276102D01*
X148183749Y-91276131D01*
X148199217Y-91446104D01*
X148181377Y-91615845D01*
X148181370Y-91615868D01*
X148181362Y-91615943D01*
X148130864Y-91779076D01*
X148049642Y-91929294D01*
X147940789Y-92060874D01*
X147808452Y-92168806D01*
X147657671Y-92248978D01*
X147494189Y-92298336D01*
X147324234Y-92315000D01*
X147315693Y-92315000D01*
X147307606Y-92314944D01*
X147307599Y-92314943D01*
X147303549Y-92314915D01*
X147133843Y-92295879D01*
X146971067Y-92244243D01*
X146821420Y-92161974D01*
X146690602Y-92052205D01*
X146583597Y-91919118D01*
X146504480Y-91767781D01*
X146456265Y-91603959D01*
X146456259Y-91603898D01*
X146456251Y-91603869D01*
X146440783Y-91433896D01*
X146458623Y-91264155D01*
X146458630Y-91264132D01*
X146458638Y-91264057D01*
X146509136Y-91100924D01*
X146590358Y-90950706D01*
X146699211Y-90819126D01*
X146831548Y-90711194D01*
X146982329Y-90631022D01*
X147145811Y-90581664D01*
X147315766Y-90565000D01*
X147324307Y-90565000D01*
X147332394Y-90565056D01*
X147332394Y-90565056D01*
G37*
G36*
X184255000Y-89975000D02*
X181505000Y-89975000D01*
X181505000Y-87825000D01*
X184255000Y-87825000D01*
X184255000Y-89975000D01*
X184255000Y-89975000D01*
G37*
G36*
X152413334Y-87975061D02*
X152413341Y-87975062D01*
X152417391Y-87975090D01*
X152596794Y-87995213D01*
X152768872Y-88049800D01*
X152927070Y-88136770D01*
X153065363Y-88252811D01*
X153178483Y-88393504D01*
X153262121Y-88553489D01*
X153313092Y-88726672D01*
X153313098Y-88726738D01*
X153313105Y-88726762D01*
X153329458Y-88906453D01*
X153310598Y-89085899D01*
X153310591Y-89085922D01*
X153310583Y-89085997D01*
X153257199Y-89258452D01*
X153171336Y-89417253D01*
X153056263Y-89556353D01*
X152916363Y-89670452D01*
X152756966Y-89755205D01*
X152584143Y-89807384D01*
X152404476Y-89825000D01*
X152395453Y-89825000D01*
X152386666Y-89824939D01*
X152386659Y-89824938D01*
X152382609Y-89824910D01*
X152203206Y-89804787D01*
X152031128Y-89750200D01*
X151872930Y-89663230D01*
X151734637Y-89547189D01*
X151621517Y-89406496D01*
X151537879Y-89246511D01*
X151486908Y-89073328D01*
X151486902Y-89073262D01*
X151486895Y-89073238D01*
X151470542Y-88893547D01*
X151489402Y-88714101D01*
X151489409Y-88714078D01*
X151489417Y-88714003D01*
X151542801Y-88541548D01*
X151628664Y-88382747D01*
X151743737Y-88243647D01*
X151883637Y-88129548D01*
X152043034Y-88044795D01*
X152215857Y-87992616D01*
X152395524Y-87975000D01*
X152404547Y-87975000D01*
X152413334Y-87975061D01*
X152413334Y-87975061D01*
G37*
G36*
X127013334Y-87975061D02*
X127013341Y-87975062D01*
X127017391Y-87975090D01*
X127196794Y-87995213D01*
X127368872Y-88049800D01*
X127527070Y-88136770D01*
X127665363Y-88252811D01*
X127778483Y-88393504D01*
X127862121Y-88553489D01*
X127913092Y-88726672D01*
X127913098Y-88726738D01*
X127913105Y-88726762D01*
X127929458Y-88906453D01*
X127910598Y-89085899D01*
X127910591Y-89085922D01*
X127910583Y-89085997D01*
X127857199Y-89258452D01*
X127771336Y-89417253D01*
X127656263Y-89556353D01*
X127516363Y-89670452D01*
X127356966Y-89755205D01*
X127184143Y-89807384D01*
X127004476Y-89825000D01*
X126995453Y-89825000D01*
X126986666Y-89824939D01*
X126986659Y-89824938D01*
X126982609Y-89824910D01*
X126803206Y-89804787D01*
X126631128Y-89750200D01*
X126472930Y-89663230D01*
X126334637Y-89547189D01*
X126221517Y-89406496D01*
X126137879Y-89246511D01*
X126086908Y-89073328D01*
X126086902Y-89073262D01*
X126086895Y-89073238D01*
X126070542Y-88893547D01*
X126089402Y-88714101D01*
X126089409Y-88714078D01*
X126089417Y-88714003D01*
X126142801Y-88541548D01*
X126228664Y-88382747D01*
X126343737Y-88243647D01*
X126483637Y-88129548D01*
X126643034Y-88044795D01*
X126815857Y-87992616D01*
X126995524Y-87975000D01*
X127004547Y-87975000D01*
X127013334Y-87975061D01*
X127013334Y-87975061D01*
G37*
G36*
X165362664Y-88034105D02*
X165362667Y-88034106D01*
X165362666Y-88034106D01*
X165526547Y-88101987D01*
X165674035Y-88200536D01*
X165799464Y-88325965D01*
X165898013Y-88473453D01*
X165934244Y-88560924D01*
X165965895Y-88637336D01*
X166000500Y-88811306D01*
X166000500Y-88988694D01*
X165965895Y-89162664D01*
X165965894Y-89162666D01*
X165898013Y-89326547D01*
X165799464Y-89474035D01*
X165674035Y-89599464D01*
X165526547Y-89698013D01*
X165410666Y-89746012D01*
X165362664Y-89765895D01*
X165188694Y-89800500D01*
X165011306Y-89800500D01*
X164837336Y-89765895D01*
X164789334Y-89746012D01*
X164673453Y-89698013D01*
X164525965Y-89599464D01*
X164400536Y-89474035D01*
X164301987Y-89326547D01*
X164234106Y-89162666D01*
X164234105Y-89162664D01*
X164199500Y-88988694D01*
X164199500Y-88811306D01*
X164234105Y-88637336D01*
X164265756Y-88560924D01*
X164301987Y-88473453D01*
X164400536Y-88325965D01*
X164525965Y-88200536D01*
X164673453Y-88101987D01*
X164837334Y-88034106D01*
X164837333Y-88034106D01*
X164837336Y-88034105D01*
X165011306Y-87999500D01*
X165188694Y-87999500D01*
X165362664Y-88034105D01*
X165362664Y-88034105D01*
G37*
G36*
X178062664Y-88034105D02*
X178062667Y-88034106D01*
X178062666Y-88034106D01*
X178226547Y-88101987D01*
X178374035Y-88200536D01*
X178499464Y-88325965D01*
X178598013Y-88473453D01*
X178634244Y-88560924D01*
X178665895Y-88637336D01*
X178700500Y-88811306D01*
X178700500Y-88988694D01*
X178665895Y-89162664D01*
X178665894Y-89162666D01*
X178598013Y-89326547D01*
X178499464Y-89474035D01*
X178374035Y-89599464D01*
X178226547Y-89698013D01*
X178110666Y-89746012D01*
X178062664Y-89765895D01*
X177888694Y-89800500D01*
X177711306Y-89800500D01*
X177537336Y-89765895D01*
X177489334Y-89746012D01*
X177373453Y-89698013D01*
X177225965Y-89599464D01*
X177100536Y-89474035D01*
X177001987Y-89326547D01*
X176934106Y-89162666D01*
X176934105Y-89162664D01*
X176899500Y-88988694D01*
X176899500Y-88811306D01*
X176934105Y-88637336D01*
X176965756Y-88560924D01*
X177001987Y-88473453D01*
X177100536Y-88325965D01*
X177225965Y-88200536D01*
X177373453Y-88101987D01*
X177537334Y-88034106D01*
X177537333Y-88034106D01*
X177537336Y-88034105D01*
X177711306Y-87999500D01*
X177888694Y-87999500D01*
X178062664Y-88034105D01*
X178062664Y-88034105D01*
G37*
G36*
X147332394Y-88025056D02*
X147332401Y-88025057D01*
X147336451Y-88025085D01*
X147506157Y-88044121D01*
X147668933Y-88095757D01*
X147818580Y-88178026D01*
X147949398Y-88287795D01*
X148056403Y-88420882D01*
X148135520Y-88572219D01*
X148183735Y-88736041D01*
X148183741Y-88736102D01*
X148183749Y-88736131D01*
X148199217Y-88906104D01*
X148181377Y-89075845D01*
X148181370Y-89075868D01*
X148181362Y-89075943D01*
X148130864Y-89239076D01*
X148049642Y-89389294D01*
X147940789Y-89520874D01*
X147808452Y-89628806D01*
X147657671Y-89708978D01*
X147494189Y-89758336D01*
X147324234Y-89775000D01*
X147315693Y-89775000D01*
X147307606Y-89774944D01*
X147307599Y-89774943D01*
X147303549Y-89774915D01*
X147133843Y-89755879D01*
X146971067Y-89704243D01*
X146821420Y-89621974D01*
X146690602Y-89512205D01*
X146583597Y-89379118D01*
X146504480Y-89227781D01*
X146456265Y-89063959D01*
X146456259Y-89063898D01*
X146456251Y-89063869D01*
X146440783Y-88893896D01*
X146458623Y-88724155D01*
X146458630Y-88724132D01*
X146458638Y-88724057D01*
X146509136Y-88560924D01*
X146590358Y-88410706D01*
X146699211Y-88279126D01*
X146831548Y-88171194D01*
X146982329Y-88091022D01*
X147145811Y-88041664D01*
X147315766Y-88025000D01*
X147324307Y-88025000D01*
X147332394Y-88025056D01*
X147332394Y-88025056D01*
G37*
G36*
X132092394Y-88025056D02*
X132092401Y-88025057D01*
X132096451Y-88025085D01*
X132266157Y-88044121D01*
X132428933Y-88095757D01*
X132578580Y-88178026D01*
X132709398Y-88287795D01*
X132816403Y-88420882D01*
X132895520Y-88572219D01*
X132943735Y-88736041D01*
X132943741Y-88736102D01*
X132943749Y-88736131D01*
X132959217Y-88906104D01*
X132941377Y-89075845D01*
X132941370Y-89075868D01*
X132941362Y-89075943D01*
X132890864Y-89239076D01*
X132809642Y-89389294D01*
X132700789Y-89520874D01*
X132568452Y-89628806D01*
X132417671Y-89708978D01*
X132254189Y-89758336D01*
X132084234Y-89775000D01*
X132075693Y-89775000D01*
X132067606Y-89774944D01*
X132067599Y-89774943D01*
X132063549Y-89774915D01*
X131893843Y-89755879D01*
X131731067Y-89704243D01*
X131581420Y-89621974D01*
X131450602Y-89512205D01*
X131343597Y-89379118D01*
X131264480Y-89227781D01*
X131216265Y-89063959D01*
X131216259Y-89063898D01*
X131216251Y-89063869D01*
X131200783Y-88893896D01*
X131218623Y-88724155D01*
X131218630Y-88724132D01*
X131218638Y-88724057D01*
X131269136Y-88560924D01*
X131350358Y-88410706D01*
X131459211Y-88279126D01*
X131591548Y-88171194D01*
X131742329Y-88091022D01*
X131905811Y-88041664D01*
X132075766Y-88025000D01*
X132084307Y-88025000D01*
X132092394Y-88025056D01*
X132092394Y-88025056D01*
G37*
G36*
X100599705Y-86700262D02*
X100599707Y-86700263D01*
X100599708Y-86700263D01*
X100614355Y-86706330D01*
X100767977Y-86769962D01*
X100869166Y-86837575D01*
X100919416Y-86871151D01*
X101048208Y-86999943D01*
X101058944Y-87016011D01*
X101149397Y-87151382D01*
X101219097Y-87319654D01*
X101254630Y-87498291D01*
X101254630Y-87680427D01*
X101219097Y-87859064D01*
X101149397Y-88027336D01*
X101106843Y-88091022D01*
X101053006Y-88171595D01*
X101048207Y-88178776D01*
X100919417Y-88307566D01*
X100767977Y-88408756D01*
X100661865Y-88452709D01*
X100599708Y-88478455D01*
X100599707Y-88478455D01*
X100599705Y-88478456D01*
X100421068Y-88513989D01*
X100238932Y-88513989D01*
X100060295Y-88478456D01*
X100060293Y-88478455D01*
X100060292Y-88478455D01*
X99998135Y-88452709D01*
X99892023Y-88408756D01*
X99740583Y-88307566D01*
X99611793Y-88178776D01*
X99606995Y-88171595D01*
X99553157Y-88091022D01*
X99510603Y-88027336D01*
X99440903Y-87859064D01*
X99405370Y-87680427D01*
X99405370Y-87498291D01*
X99440903Y-87319654D01*
X99510603Y-87151382D01*
X99601056Y-87016011D01*
X99611792Y-86999943D01*
X99740584Y-86871151D01*
X99790834Y-86837575D01*
X99892023Y-86769962D01*
X100045645Y-86706330D01*
X100060292Y-86700263D01*
X100060293Y-86700263D01*
X100060295Y-86700262D01*
X100238932Y-86664729D01*
X100421068Y-86664729D01*
X100599705Y-86700262D01*
X100599705Y-86700262D01*
G37*
G36*
X127013334Y-85435061D02*
X127013341Y-85435062D01*
X127017391Y-85435090D01*
X127196794Y-85455213D01*
X127368872Y-85509800D01*
X127527070Y-85596770D01*
X127665363Y-85712811D01*
X127778483Y-85853504D01*
X127862121Y-86013489D01*
X127913092Y-86186672D01*
X127913098Y-86186738D01*
X127913105Y-86186762D01*
X127929458Y-86366453D01*
X127910598Y-86545899D01*
X127910591Y-86545922D01*
X127910583Y-86545997D01*
X127857199Y-86718452D01*
X127771336Y-86877253D01*
X127656263Y-87016353D01*
X127516363Y-87130452D01*
X127356966Y-87215205D01*
X127184143Y-87267384D01*
X127004476Y-87285000D01*
X126995453Y-87285000D01*
X126986666Y-87284939D01*
X126986659Y-87284938D01*
X126982609Y-87284910D01*
X126803206Y-87264787D01*
X126631128Y-87210200D01*
X126472930Y-87123230D01*
X126334637Y-87007189D01*
X126221517Y-86866496D01*
X126137879Y-86706511D01*
X126086908Y-86533328D01*
X126086902Y-86533262D01*
X126086895Y-86533238D01*
X126070542Y-86353547D01*
X126089402Y-86174101D01*
X126089409Y-86174078D01*
X126089417Y-86174003D01*
X126142801Y-86001548D01*
X126228664Y-85842747D01*
X126343737Y-85703647D01*
X126483637Y-85589548D01*
X126643034Y-85504795D01*
X126815857Y-85452616D01*
X126995524Y-85435000D01*
X127004547Y-85435000D01*
X127013334Y-85435061D01*
X127013334Y-85435061D01*
G37*
G36*
X152413334Y-85435061D02*
X152413341Y-85435062D01*
X152417391Y-85435090D01*
X152596794Y-85455213D01*
X152768872Y-85509800D01*
X152927070Y-85596770D01*
X153065363Y-85712811D01*
X153178483Y-85853504D01*
X153262121Y-86013489D01*
X153313092Y-86186672D01*
X153313098Y-86186738D01*
X153313105Y-86186762D01*
X153329458Y-86366453D01*
X153310598Y-86545899D01*
X153310591Y-86545922D01*
X153310583Y-86545997D01*
X153257199Y-86718452D01*
X153171336Y-86877253D01*
X153056263Y-87016353D01*
X152916363Y-87130452D01*
X152756966Y-87215205D01*
X152584143Y-87267384D01*
X152404476Y-87285000D01*
X152395453Y-87285000D01*
X152386666Y-87284939D01*
X152386659Y-87284938D01*
X152382609Y-87284910D01*
X152203206Y-87264787D01*
X152031128Y-87210200D01*
X151872930Y-87123230D01*
X151734637Y-87007189D01*
X151621517Y-86866496D01*
X151537879Y-86706511D01*
X151486908Y-86533328D01*
X151486902Y-86533262D01*
X151486895Y-86533238D01*
X151470542Y-86353547D01*
X151489402Y-86174101D01*
X151489409Y-86174078D01*
X151489417Y-86174003D01*
X151542801Y-86001548D01*
X151628664Y-85842747D01*
X151743737Y-85703647D01*
X151883637Y-85589548D01*
X152043034Y-85504795D01*
X152215857Y-85452616D01*
X152395524Y-85435000D01*
X152404547Y-85435000D01*
X152413334Y-85435061D01*
X152413334Y-85435061D01*
G37*
G36*
X178062664Y-85494105D02*
X178062667Y-85494106D01*
X178062666Y-85494106D01*
X178226547Y-85561987D01*
X178325095Y-85627835D01*
X178374034Y-85660535D01*
X178499465Y-85785966D01*
X178532165Y-85834905D01*
X178598013Y-85933453D01*
X178631637Y-86014630D01*
X178665895Y-86097336D01*
X178700500Y-86271306D01*
X178700500Y-86448694D01*
X178665895Y-86622664D01*
X178665894Y-86622666D01*
X178598013Y-86786547D01*
X178499464Y-86934035D01*
X178374035Y-87059464D01*
X178226547Y-87158013D01*
X178110666Y-87206012D01*
X178062664Y-87225895D01*
X177888694Y-87260500D01*
X177711306Y-87260500D01*
X177537336Y-87225895D01*
X177489334Y-87206012D01*
X177373453Y-87158013D01*
X177225965Y-87059464D01*
X177100536Y-86934035D01*
X177001987Y-86786547D01*
X176934106Y-86622666D01*
X176934105Y-86622664D01*
X176899500Y-86448694D01*
X176899500Y-86271306D01*
X176934105Y-86097336D01*
X176968363Y-86014630D01*
X177001987Y-85933453D01*
X177067835Y-85834905D01*
X177100535Y-85785966D01*
X177225966Y-85660535D01*
X177274905Y-85627835D01*
X177373453Y-85561987D01*
X177537334Y-85494106D01*
X177537333Y-85494106D01*
X177537336Y-85494105D01*
X177711306Y-85459500D01*
X177888694Y-85459500D01*
X178062664Y-85494105D01*
X178062664Y-85494105D01*
G37*
G36*
X165362664Y-85494105D02*
X165362667Y-85494106D01*
X165362666Y-85494106D01*
X165526547Y-85561987D01*
X165625095Y-85627835D01*
X165674034Y-85660535D01*
X165799465Y-85785966D01*
X165832165Y-85834905D01*
X165898013Y-85933453D01*
X165931637Y-86014630D01*
X165965895Y-86097336D01*
X166000500Y-86271306D01*
X166000500Y-86448694D01*
X165965895Y-86622664D01*
X165965894Y-86622666D01*
X165898013Y-86786547D01*
X165799464Y-86934035D01*
X165674035Y-87059464D01*
X165526547Y-87158013D01*
X165410666Y-87206012D01*
X165362664Y-87225895D01*
X165188694Y-87260500D01*
X165011306Y-87260500D01*
X164837336Y-87225895D01*
X164789334Y-87206012D01*
X164673453Y-87158013D01*
X164525965Y-87059464D01*
X164400536Y-86934035D01*
X164301987Y-86786547D01*
X164234106Y-86622666D01*
X164234105Y-86622664D01*
X164199500Y-86448694D01*
X164199500Y-86271306D01*
X164234105Y-86097336D01*
X164268363Y-86014630D01*
X164301987Y-85933453D01*
X164367835Y-85834905D01*
X164400535Y-85785966D01*
X164525966Y-85660535D01*
X164574905Y-85627835D01*
X164673453Y-85561987D01*
X164837334Y-85494106D01*
X164837333Y-85494106D01*
X164837336Y-85494105D01*
X165011306Y-85459500D01*
X165188694Y-85459500D01*
X165362664Y-85494105D01*
X165362664Y-85494105D01*
G37*
G36*
X132092394Y-85485056D02*
X132092401Y-85485057D01*
X132096451Y-85485085D01*
X132266157Y-85504121D01*
X132428933Y-85555757D01*
X132578580Y-85638026D01*
X132709398Y-85747795D01*
X132816403Y-85880882D01*
X132895520Y-86032219D01*
X132943735Y-86196041D01*
X132943741Y-86196102D01*
X132943749Y-86196131D01*
X132959217Y-86366104D01*
X132941377Y-86535845D01*
X132941370Y-86535868D01*
X132941362Y-86535943D01*
X132890864Y-86699076D01*
X132809642Y-86849294D01*
X132700789Y-86980874D01*
X132568452Y-87088806D01*
X132417671Y-87168978D01*
X132254189Y-87218336D01*
X132084234Y-87235000D01*
X132075693Y-87235000D01*
X132067606Y-87234944D01*
X132067599Y-87234943D01*
X132063549Y-87234915D01*
X131893843Y-87215879D01*
X131731067Y-87164243D01*
X131581420Y-87081974D01*
X131450602Y-86972205D01*
X131343597Y-86839118D01*
X131264480Y-86687781D01*
X131216265Y-86523959D01*
X131216259Y-86523898D01*
X131216251Y-86523869D01*
X131200783Y-86353896D01*
X131218623Y-86184155D01*
X131218630Y-86184132D01*
X131218638Y-86184057D01*
X131269136Y-86020924D01*
X131350358Y-85870706D01*
X131459211Y-85739126D01*
X131591548Y-85631194D01*
X131742329Y-85551022D01*
X131905811Y-85501664D01*
X132075766Y-85485000D01*
X132084307Y-85485000D01*
X132092394Y-85485056D01*
X132092394Y-85485056D01*
G37*
G36*
X147332394Y-85485056D02*
X147332401Y-85485057D01*
X147336451Y-85485085D01*
X147506157Y-85504121D01*
X147668933Y-85555757D01*
X147818580Y-85638026D01*
X147949398Y-85747795D01*
X148056403Y-85880882D01*
X148135520Y-86032219D01*
X148183735Y-86196041D01*
X148183741Y-86196102D01*
X148183749Y-86196131D01*
X148199217Y-86366104D01*
X148181377Y-86535845D01*
X148181370Y-86535868D01*
X148181362Y-86535943D01*
X148130864Y-86699076D01*
X148049642Y-86849294D01*
X147940789Y-86980874D01*
X147808452Y-87088806D01*
X147657671Y-87168978D01*
X147494189Y-87218336D01*
X147324234Y-87235000D01*
X147315693Y-87235000D01*
X147307606Y-87234944D01*
X147307599Y-87234943D01*
X147303549Y-87234915D01*
X147133843Y-87215879D01*
X146971067Y-87164243D01*
X146821420Y-87081974D01*
X146690602Y-86972205D01*
X146583597Y-86839118D01*
X146504480Y-86687781D01*
X146456265Y-86523959D01*
X146456259Y-86523898D01*
X146456251Y-86523869D01*
X146440783Y-86353896D01*
X146458623Y-86184155D01*
X146458630Y-86184132D01*
X146458638Y-86184057D01*
X146509136Y-86020924D01*
X146590358Y-85870706D01*
X146699211Y-85739126D01*
X146831548Y-85631194D01*
X146982329Y-85551022D01*
X147145811Y-85501664D01*
X147315766Y-85485000D01*
X147324307Y-85485000D01*
X147332394Y-85485056D01*
X147332394Y-85485056D01*
G37*
G36*
X100599705Y-84200903D02*
X100599707Y-84200904D01*
X100599708Y-84200904D01*
X100661865Y-84226650D01*
X100767977Y-84270603D01*
X100919417Y-84371793D01*
X101048207Y-84500583D01*
X101149397Y-84652023D01*
X101219097Y-84820295D01*
X101254630Y-84998932D01*
X101254630Y-85181068D01*
X101219097Y-85359705D01*
X101149397Y-85527977D01*
X101048207Y-85679417D01*
X100919417Y-85808207D01*
X100767977Y-85909397D01*
X100661865Y-85953350D01*
X100599708Y-85979096D01*
X100599707Y-85979096D01*
X100599705Y-85979097D01*
X100421068Y-86014630D01*
X100238932Y-86014630D01*
X100060295Y-85979097D01*
X100060293Y-85979096D01*
X100060292Y-85979096D01*
X99998135Y-85953350D01*
X99892023Y-85909397D01*
X99740583Y-85808207D01*
X99611793Y-85679417D01*
X99510603Y-85527977D01*
X99440903Y-85359705D01*
X99405370Y-85181068D01*
X99405370Y-84998932D01*
X99440903Y-84820295D01*
X99510603Y-84652023D01*
X99611793Y-84500583D01*
X99740583Y-84371793D01*
X99892023Y-84270603D01*
X99998135Y-84226650D01*
X100060292Y-84200904D01*
X100060293Y-84200904D01*
X100060295Y-84200903D01*
X100238932Y-84165370D01*
X100421068Y-84165370D01*
X100599705Y-84200903D01*
X100599705Y-84200903D01*
G37*
G36*
X152413334Y-82895061D02*
X152413341Y-82895062D01*
X152417391Y-82895090D01*
X152596794Y-82915213D01*
X152768872Y-82969800D01*
X152927070Y-83056770D01*
X153065363Y-83172811D01*
X153178483Y-83313504D01*
X153262121Y-83473489D01*
X153313092Y-83646672D01*
X153313098Y-83646738D01*
X153313105Y-83646762D01*
X153329458Y-83826453D01*
X153310598Y-84005899D01*
X153310591Y-84005922D01*
X153310583Y-84005997D01*
X153257199Y-84178452D01*
X153171336Y-84337253D01*
X153056263Y-84476353D01*
X152916363Y-84590452D01*
X152756966Y-84675205D01*
X152584143Y-84727384D01*
X152404476Y-84745000D01*
X152395453Y-84745000D01*
X152386666Y-84744939D01*
X152386659Y-84744938D01*
X152382609Y-84744910D01*
X152203206Y-84724787D01*
X152031128Y-84670200D01*
X151872930Y-84583230D01*
X151734637Y-84467189D01*
X151621517Y-84326496D01*
X151537879Y-84166511D01*
X151486908Y-83993328D01*
X151486902Y-83993262D01*
X151486895Y-83993238D01*
X151470542Y-83813547D01*
X151489402Y-83634101D01*
X151489409Y-83634078D01*
X151489417Y-83634003D01*
X151542801Y-83461548D01*
X151628664Y-83302747D01*
X151743737Y-83163647D01*
X151883637Y-83049548D01*
X152043034Y-82964795D01*
X152215857Y-82912616D01*
X152395524Y-82895000D01*
X152404547Y-82895000D01*
X152413334Y-82895061D01*
X152413334Y-82895061D01*
G37*
G36*
X127013334Y-82895061D02*
X127013341Y-82895062D01*
X127017391Y-82895090D01*
X127196794Y-82915213D01*
X127368872Y-82969800D01*
X127527070Y-83056770D01*
X127665363Y-83172811D01*
X127778483Y-83313504D01*
X127862121Y-83473489D01*
X127913092Y-83646672D01*
X127913098Y-83646738D01*
X127913105Y-83646762D01*
X127929458Y-83826453D01*
X127910598Y-84005899D01*
X127910591Y-84005922D01*
X127910583Y-84005997D01*
X127857199Y-84178452D01*
X127771336Y-84337253D01*
X127656263Y-84476353D01*
X127516363Y-84590452D01*
X127356966Y-84675205D01*
X127184143Y-84727384D01*
X127004476Y-84745000D01*
X126995453Y-84745000D01*
X126986666Y-84744939D01*
X126986659Y-84744938D01*
X126982609Y-84744910D01*
X126803206Y-84724787D01*
X126631128Y-84670200D01*
X126472930Y-84583230D01*
X126334637Y-84467189D01*
X126221517Y-84326496D01*
X126137879Y-84166511D01*
X126086908Y-83993328D01*
X126086902Y-83993262D01*
X126086895Y-83993238D01*
X126070542Y-83813547D01*
X126089402Y-83634101D01*
X126089409Y-83634078D01*
X126089417Y-83634003D01*
X126142801Y-83461548D01*
X126228664Y-83302747D01*
X126343737Y-83163647D01*
X126483637Y-83049548D01*
X126643034Y-82964795D01*
X126815857Y-82912616D01*
X126995524Y-82895000D01*
X127004547Y-82895000D01*
X127013334Y-82895061D01*
X127013334Y-82895061D01*
G37*
G36*
X178062664Y-82954105D02*
X178062667Y-82954106D01*
X178062666Y-82954106D01*
X178226547Y-83021987D01*
X178374035Y-83120536D01*
X178499464Y-83245965D01*
X178598013Y-83393453D01*
X178633753Y-83479737D01*
X178665895Y-83557336D01*
X178700500Y-83731306D01*
X178700500Y-83908694D01*
X178665895Y-84082664D01*
X178665894Y-84082666D01*
X178598013Y-84246547D01*
X178544768Y-84326233D01*
X178514327Y-84371792D01*
X178499464Y-84394035D01*
X178374035Y-84519464D01*
X178226547Y-84618013D01*
X178144436Y-84652024D01*
X178062664Y-84685895D01*
X177888694Y-84720500D01*
X177711306Y-84720500D01*
X177537336Y-84685895D01*
X177455564Y-84652024D01*
X177373453Y-84618013D01*
X177225965Y-84519464D01*
X177100536Y-84394035D01*
X177085674Y-84371792D01*
X177055232Y-84326233D01*
X177001987Y-84246547D01*
X176934106Y-84082666D01*
X176934105Y-84082664D01*
X176899500Y-83908694D01*
X176899500Y-83731306D01*
X176934105Y-83557336D01*
X176966247Y-83479737D01*
X177001987Y-83393453D01*
X177100536Y-83245965D01*
X177225965Y-83120536D01*
X177373453Y-83021987D01*
X177537334Y-82954106D01*
X177537333Y-82954106D01*
X177537336Y-82954105D01*
X177711306Y-82919500D01*
X177888694Y-82919500D01*
X178062664Y-82954105D01*
X178062664Y-82954105D01*
G37*
G36*
X165362664Y-82954105D02*
X165362667Y-82954106D01*
X165362666Y-82954106D01*
X165526547Y-83021987D01*
X165674035Y-83120536D01*
X165799464Y-83245965D01*
X165898013Y-83393453D01*
X165933753Y-83479737D01*
X165965895Y-83557336D01*
X166000500Y-83731306D01*
X166000500Y-83908694D01*
X165965895Y-84082664D01*
X165965894Y-84082666D01*
X165898013Y-84246547D01*
X165844768Y-84326233D01*
X165814327Y-84371792D01*
X165799464Y-84394035D01*
X165674035Y-84519464D01*
X165526547Y-84618013D01*
X165444436Y-84652024D01*
X165362664Y-84685895D01*
X165188694Y-84720500D01*
X165011306Y-84720500D01*
X164837336Y-84685895D01*
X164755564Y-84652024D01*
X164673453Y-84618013D01*
X164525965Y-84519464D01*
X164400536Y-84394035D01*
X164385674Y-84371792D01*
X164355232Y-84326233D01*
X164301987Y-84246547D01*
X164234106Y-84082666D01*
X164234105Y-84082664D01*
X164199500Y-83908694D01*
X164199500Y-83731306D01*
X164234105Y-83557336D01*
X164266247Y-83479737D01*
X164301987Y-83393453D01*
X164400536Y-83245965D01*
X164525965Y-83120536D01*
X164673453Y-83021987D01*
X164837334Y-82954106D01*
X164837333Y-82954106D01*
X164837336Y-82954105D01*
X165011306Y-82919500D01*
X165188694Y-82919500D01*
X165362664Y-82954105D01*
X165362664Y-82954105D01*
G37*
G36*
X147332394Y-82945056D02*
X147332401Y-82945057D01*
X147336451Y-82945085D01*
X147506157Y-82964121D01*
X147668933Y-83015757D01*
X147818580Y-83098026D01*
X147949398Y-83207795D01*
X148056403Y-83340882D01*
X148135520Y-83492219D01*
X148183735Y-83656041D01*
X148183741Y-83656102D01*
X148183749Y-83656131D01*
X148199217Y-83826104D01*
X148181377Y-83995845D01*
X148181370Y-83995868D01*
X148181362Y-83995943D01*
X148130864Y-84159076D01*
X148049642Y-84309294D01*
X147940789Y-84440874D01*
X147808452Y-84548806D01*
X147657671Y-84628978D01*
X147494189Y-84678336D01*
X147324234Y-84695000D01*
X147315693Y-84695000D01*
X147307606Y-84694944D01*
X147307599Y-84694943D01*
X147303549Y-84694915D01*
X147133843Y-84675879D01*
X146971067Y-84624243D01*
X146821420Y-84541974D01*
X146690602Y-84432205D01*
X146583597Y-84299118D01*
X146504480Y-84147781D01*
X146456265Y-83983959D01*
X146456259Y-83983898D01*
X146456251Y-83983869D01*
X146440783Y-83813896D01*
X146458623Y-83644155D01*
X146458630Y-83644132D01*
X146458638Y-83644057D01*
X146509136Y-83480924D01*
X146590358Y-83330706D01*
X146699211Y-83199126D01*
X146831548Y-83091194D01*
X146982329Y-83011022D01*
X147145811Y-82961664D01*
X147315766Y-82945000D01*
X147324307Y-82945000D01*
X147332394Y-82945056D01*
X147332394Y-82945056D01*
G37*
G36*
X132092394Y-82945056D02*
X132092401Y-82945057D01*
X132096451Y-82945085D01*
X132266157Y-82964121D01*
X132428933Y-83015757D01*
X132578580Y-83098026D01*
X132709398Y-83207795D01*
X132816403Y-83340882D01*
X132895520Y-83492219D01*
X132943735Y-83656041D01*
X132943741Y-83656102D01*
X132943749Y-83656131D01*
X132959217Y-83826104D01*
X132941377Y-83995845D01*
X132941370Y-83995868D01*
X132941362Y-83995943D01*
X132890864Y-84159076D01*
X132809642Y-84309294D01*
X132700789Y-84440874D01*
X132568452Y-84548806D01*
X132417671Y-84628978D01*
X132254189Y-84678336D01*
X132084234Y-84695000D01*
X132075693Y-84695000D01*
X132067606Y-84694944D01*
X132067599Y-84694943D01*
X132063549Y-84694915D01*
X131893843Y-84675879D01*
X131731067Y-84624243D01*
X131581420Y-84541974D01*
X131450602Y-84432205D01*
X131343597Y-84299118D01*
X131264480Y-84147781D01*
X131216265Y-83983959D01*
X131216259Y-83983898D01*
X131216251Y-83983869D01*
X131200783Y-83813896D01*
X131218623Y-83644155D01*
X131218630Y-83644132D01*
X131218638Y-83644057D01*
X131269136Y-83480924D01*
X131350358Y-83330706D01*
X131459211Y-83199126D01*
X131591548Y-83091194D01*
X131742329Y-83011022D01*
X131905811Y-82961664D01*
X132075766Y-82945000D01*
X132084307Y-82945000D01*
X132092394Y-82945056D01*
X132092394Y-82945056D01*
G37*
G36*
X100599705Y-81701544D02*
X100599707Y-81701545D01*
X100599708Y-81701545D01*
X100661865Y-81727291D01*
X100767977Y-81771244D01*
X100869166Y-81838857D01*
X100919416Y-81872433D01*
X101048208Y-82001225D01*
X101053273Y-82008806D01*
X101149397Y-82152664D01*
X101219097Y-82320936D01*
X101254630Y-82499573D01*
X101254630Y-82681709D01*
X101219097Y-82860346D01*
X101149397Y-83028618D01*
X101102755Y-83098422D01*
X101048208Y-83180057D01*
X100919416Y-83308849D01*
X100871475Y-83340882D01*
X100767977Y-83410038D01*
X100661865Y-83453991D01*
X100599708Y-83479737D01*
X100599707Y-83479737D01*
X100599705Y-83479738D01*
X100421068Y-83515271D01*
X100238932Y-83515271D01*
X100060295Y-83479738D01*
X100060293Y-83479737D01*
X100060292Y-83479737D01*
X99998135Y-83453991D01*
X99892023Y-83410038D01*
X99788525Y-83340882D01*
X99740584Y-83308849D01*
X99611792Y-83180057D01*
X99557245Y-83098422D01*
X99510603Y-83028618D01*
X99440903Y-82860346D01*
X99405370Y-82681709D01*
X99405370Y-82499573D01*
X99440903Y-82320936D01*
X99510603Y-82152664D01*
X99606727Y-82008806D01*
X99611792Y-82001225D01*
X99740584Y-81872433D01*
X99790834Y-81838857D01*
X99892023Y-81771244D01*
X99998135Y-81727291D01*
X100060292Y-81701545D01*
X100060293Y-81701545D01*
X100060295Y-81701544D01*
X100238932Y-81666011D01*
X100421068Y-81666011D01*
X100599705Y-81701544D01*
X100599705Y-81701544D01*
G37*
G36*
X127013334Y-80355061D02*
X127013341Y-80355062D01*
X127017391Y-80355090D01*
X127196794Y-80375213D01*
X127368872Y-80429800D01*
X127527070Y-80516770D01*
X127665363Y-80632811D01*
X127778483Y-80773504D01*
X127862121Y-80933489D01*
X127913092Y-81106672D01*
X127913098Y-81106738D01*
X127913105Y-81106762D01*
X127929458Y-81286453D01*
X127910598Y-81465899D01*
X127910591Y-81465922D01*
X127910583Y-81465997D01*
X127857199Y-81638452D01*
X127771336Y-81797253D01*
X127656263Y-81936353D01*
X127516363Y-82050452D01*
X127356966Y-82135205D01*
X127184143Y-82187384D01*
X127004476Y-82205000D01*
X126995453Y-82205000D01*
X126986666Y-82204939D01*
X126986659Y-82204938D01*
X126982609Y-82204910D01*
X126803206Y-82184787D01*
X126631128Y-82130200D01*
X126472930Y-82043230D01*
X126334637Y-81927189D01*
X126221517Y-81786496D01*
X126137879Y-81626511D01*
X126086908Y-81453328D01*
X126086902Y-81453262D01*
X126086895Y-81453238D01*
X126070542Y-81273547D01*
X126089402Y-81094101D01*
X126089409Y-81094078D01*
X126089417Y-81094003D01*
X126142801Y-80921548D01*
X126228664Y-80762747D01*
X126343737Y-80623647D01*
X126483637Y-80509548D01*
X126643034Y-80424795D01*
X126815857Y-80372616D01*
X126995524Y-80355000D01*
X127004547Y-80355000D01*
X127013334Y-80355061D01*
X127013334Y-80355061D01*
G37*
G36*
X152413334Y-80355061D02*
X152413341Y-80355062D01*
X152417391Y-80355090D01*
X152596794Y-80375213D01*
X152768872Y-80429800D01*
X152927070Y-80516770D01*
X153065363Y-80632811D01*
X153178483Y-80773504D01*
X153262121Y-80933489D01*
X153313092Y-81106672D01*
X153313098Y-81106738D01*
X153313105Y-81106762D01*
X153329458Y-81286453D01*
X153310598Y-81465899D01*
X153310591Y-81465922D01*
X153310583Y-81465997D01*
X153257199Y-81638452D01*
X153171336Y-81797253D01*
X153056263Y-81936353D01*
X152916363Y-82050452D01*
X152756966Y-82135205D01*
X152584143Y-82187384D01*
X152404476Y-82205000D01*
X152395453Y-82205000D01*
X152386666Y-82204939D01*
X152386659Y-82204938D01*
X152382609Y-82204910D01*
X152203206Y-82184787D01*
X152031128Y-82130200D01*
X151872930Y-82043230D01*
X151734637Y-81927189D01*
X151621517Y-81786496D01*
X151537879Y-81626511D01*
X151486908Y-81453328D01*
X151486902Y-81453262D01*
X151486895Y-81453238D01*
X151470542Y-81273547D01*
X151489402Y-81094101D01*
X151489409Y-81094078D01*
X151489417Y-81094003D01*
X151542801Y-80921548D01*
X151628664Y-80762747D01*
X151743737Y-80623647D01*
X151883637Y-80509548D01*
X152043034Y-80424795D01*
X152215857Y-80372616D01*
X152395524Y-80355000D01*
X152404547Y-80355000D01*
X152413334Y-80355061D01*
X152413334Y-80355061D01*
G37*
G36*
X147332394Y-80405056D02*
X147332401Y-80405057D01*
X147336451Y-80405085D01*
X147506157Y-80424121D01*
X147668933Y-80475757D01*
X147818580Y-80558026D01*
X147949398Y-80667795D01*
X148056403Y-80800882D01*
X148135520Y-80952219D01*
X148183735Y-81116041D01*
X148183741Y-81116102D01*
X148183749Y-81116131D01*
X148199217Y-81286104D01*
X148181377Y-81455845D01*
X148181370Y-81455868D01*
X148181362Y-81455943D01*
X148130864Y-81619076D01*
X148049642Y-81769294D01*
X147940789Y-81900874D01*
X147808452Y-82008806D01*
X147657671Y-82088978D01*
X147494189Y-82138336D01*
X147324234Y-82155000D01*
X147315693Y-82155000D01*
X147307606Y-82154944D01*
X147307599Y-82154943D01*
X147303549Y-82154915D01*
X147133843Y-82135879D01*
X146971067Y-82084243D01*
X146821420Y-82001974D01*
X146690602Y-81892205D01*
X146583597Y-81759118D01*
X146504480Y-81607781D01*
X146456265Y-81443959D01*
X146456259Y-81443898D01*
X146456251Y-81443869D01*
X146440783Y-81273896D01*
X146458623Y-81104155D01*
X146458630Y-81104132D01*
X146458638Y-81104057D01*
X146509136Y-80940924D01*
X146590358Y-80790706D01*
X146699211Y-80659126D01*
X146831548Y-80551194D01*
X146982329Y-80471022D01*
X147145811Y-80421664D01*
X147315766Y-80405000D01*
X147324307Y-80405000D01*
X147332394Y-80405056D01*
X147332394Y-80405056D01*
G37*
G36*
X132092394Y-80405056D02*
X132092401Y-80405057D01*
X132096451Y-80405085D01*
X132266157Y-80424121D01*
X132428933Y-80475757D01*
X132578580Y-80558026D01*
X132709398Y-80667795D01*
X132816403Y-80800882D01*
X132895520Y-80952219D01*
X132943735Y-81116041D01*
X132943741Y-81116102D01*
X132943749Y-81116131D01*
X132959217Y-81286104D01*
X132941377Y-81455845D01*
X132941370Y-81455868D01*
X132941362Y-81455943D01*
X132890864Y-81619076D01*
X132809642Y-81769294D01*
X132700789Y-81900874D01*
X132568452Y-82008806D01*
X132417671Y-82088978D01*
X132254189Y-82138336D01*
X132084234Y-82155000D01*
X132075693Y-82155000D01*
X132067606Y-82154944D01*
X132067599Y-82154943D01*
X132063549Y-82154915D01*
X131893843Y-82135879D01*
X131731067Y-82084243D01*
X131581420Y-82001974D01*
X131450602Y-81892205D01*
X131343597Y-81759118D01*
X131264480Y-81607781D01*
X131216265Y-81443959D01*
X131216259Y-81443898D01*
X131216251Y-81443869D01*
X131200783Y-81273896D01*
X131218623Y-81104155D01*
X131218630Y-81104132D01*
X131218638Y-81104057D01*
X131269136Y-80940924D01*
X131350358Y-80790706D01*
X131459211Y-80659126D01*
X131591548Y-80551194D01*
X131742329Y-80471022D01*
X131905811Y-80421664D01*
X132075766Y-80405000D01*
X132084307Y-80405000D01*
X132092394Y-80405056D01*
X132092394Y-80405056D01*
G37*
G36*
X152413334Y-77815061D02*
X152413341Y-77815062D01*
X152417391Y-77815090D01*
X152596794Y-77835213D01*
X152768872Y-77889800D01*
X152927070Y-77976770D01*
X153065363Y-78092811D01*
X153178483Y-78233504D01*
X153262121Y-78393489D01*
X153313092Y-78566672D01*
X153313098Y-78566738D01*
X153313105Y-78566762D01*
X153329458Y-78746453D01*
X153310598Y-78925899D01*
X153310591Y-78925922D01*
X153310583Y-78925997D01*
X153257199Y-79098452D01*
X153171336Y-79257253D01*
X153056263Y-79396353D01*
X152916363Y-79510452D01*
X152756966Y-79595205D01*
X152584143Y-79647384D01*
X152404476Y-79665000D01*
X152395453Y-79665000D01*
X152386666Y-79664939D01*
X152386659Y-79664938D01*
X152382609Y-79664910D01*
X152203206Y-79644787D01*
X152031128Y-79590200D01*
X151872930Y-79503230D01*
X151734637Y-79387189D01*
X151621517Y-79246496D01*
X151537879Y-79086511D01*
X151486908Y-78913328D01*
X151486902Y-78913262D01*
X151486895Y-78913238D01*
X151470542Y-78733547D01*
X151489402Y-78554101D01*
X151489409Y-78554078D01*
X151489417Y-78554003D01*
X151542801Y-78381548D01*
X151628664Y-78222747D01*
X151743737Y-78083647D01*
X151883637Y-77969548D01*
X152043034Y-77884795D01*
X152215857Y-77832616D01*
X152395524Y-77815000D01*
X152404547Y-77815000D01*
X152413334Y-77815061D01*
X152413334Y-77815061D01*
G37*
G36*
X127013334Y-77815061D02*
X127013341Y-77815062D01*
X127017391Y-77815090D01*
X127196794Y-77835213D01*
X127368872Y-77889800D01*
X127527070Y-77976770D01*
X127665363Y-78092811D01*
X127778483Y-78233504D01*
X127862121Y-78393489D01*
X127913092Y-78566672D01*
X127913098Y-78566738D01*
X127913105Y-78566762D01*
X127929458Y-78746453D01*
X127910598Y-78925899D01*
X127910591Y-78925922D01*
X127910583Y-78925997D01*
X127857199Y-79098452D01*
X127771336Y-79257253D01*
X127656263Y-79396353D01*
X127516363Y-79510452D01*
X127356966Y-79595205D01*
X127184143Y-79647384D01*
X127004476Y-79665000D01*
X126995453Y-79665000D01*
X126986666Y-79664939D01*
X126986659Y-79664938D01*
X126982609Y-79664910D01*
X126803206Y-79644787D01*
X126631128Y-79590200D01*
X126472930Y-79503230D01*
X126334637Y-79387189D01*
X126221517Y-79246496D01*
X126137879Y-79086511D01*
X126086908Y-78913328D01*
X126086902Y-78913262D01*
X126086895Y-78913238D01*
X126070542Y-78733547D01*
X126089402Y-78554101D01*
X126089409Y-78554078D01*
X126089417Y-78554003D01*
X126142801Y-78381548D01*
X126228664Y-78222747D01*
X126343737Y-78083647D01*
X126483637Y-77969548D01*
X126643034Y-77884795D01*
X126815857Y-77832616D01*
X126995524Y-77815000D01*
X127004547Y-77815000D01*
X127013334Y-77815061D01*
X127013334Y-77815061D01*
G37*
G36*
X147332394Y-77865056D02*
X147332401Y-77865057D01*
X147336451Y-77865085D01*
X147506157Y-77884121D01*
X147668933Y-77935757D01*
X147818580Y-78018026D01*
X147949398Y-78127795D01*
X148056403Y-78260882D01*
X148135520Y-78412219D01*
X148183735Y-78576041D01*
X148183741Y-78576102D01*
X148183749Y-78576131D01*
X148199217Y-78746104D01*
X148181377Y-78915845D01*
X148181370Y-78915868D01*
X148181362Y-78915943D01*
X148130864Y-79079076D01*
X148049642Y-79229294D01*
X147940789Y-79360874D01*
X147808452Y-79468806D01*
X147657671Y-79548978D01*
X147494189Y-79598336D01*
X147324234Y-79615000D01*
X147315693Y-79615000D01*
X147307606Y-79614944D01*
X147307599Y-79614943D01*
X147303549Y-79614915D01*
X147133843Y-79595879D01*
X146971067Y-79544243D01*
X146821420Y-79461974D01*
X146690602Y-79352205D01*
X146583597Y-79219118D01*
X146504480Y-79067781D01*
X146456265Y-78903959D01*
X146456259Y-78903898D01*
X146456251Y-78903869D01*
X146440783Y-78733896D01*
X146458623Y-78564155D01*
X146458630Y-78564132D01*
X146458638Y-78564057D01*
X146509136Y-78400924D01*
X146590358Y-78250706D01*
X146699211Y-78119126D01*
X146831548Y-78011194D01*
X146982329Y-77931022D01*
X147145811Y-77881664D01*
X147315766Y-77865000D01*
X147324307Y-77865000D01*
X147332394Y-77865056D01*
X147332394Y-77865056D01*
G37*
G36*
X132092394Y-77865056D02*
X132092401Y-77865057D01*
X132096451Y-77865085D01*
X132266157Y-77884121D01*
X132428933Y-77935757D01*
X132578580Y-78018026D01*
X132709398Y-78127795D01*
X132816403Y-78260882D01*
X132895520Y-78412219D01*
X132943735Y-78576041D01*
X132943741Y-78576102D01*
X132943749Y-78576131D01*
X132959217Y-78746104D01*
X132941377Y-78915845D01*
X132941370Y-78915868D01*
X132941362Y-78915943D01*
X132890864Y-79079076D01*
X132809642Y-79229294D01*
X132700789Y-79360874D01*
X132568452Y-79468806D01*
X132417671Y-79548978D01*
X132254189Y-79598336D01*
X132084234Y-79615000D01*
X132075693Y-79615000D01*
X132067606Y-79614944D01*
X132067599Y-79614943D01*
X132063549Y-79614915D01*
X131893843Y-79595879D01*
X131731067Y-79544243D01*
X131581420Y-79461974D01*
X131450602Y-79352205D01*
X131343597Y-79219118D01*
X131264480Y-79067781D01*
X131216265Y-78903959D01*
X131216259Y-78903898D01*
X131216251Y-78903869D01*
X131200783Y-78733896D01*
X131218623Y-78564155D01*
X131218630Y-78564132D01*
X131218638Y-78564057D01*
X131269136Y-78400924D01*
X131350358Y-78250706D01*
X131459211Y-78119126D01*
X131591548Y-78011194D01*
X131742329Y-77931022D01*
X131905811Y-77881664D01*
X132075766Y-77865000D01*
X132084307Y-77865000D01*
X132092394Y-77865056D01*
X132092394Y-77865056D01*
G37*
G36*
X152413334Y-75275061D02*
X152413341Y-75275062D01*
X152417391Y-75275090D01*
X152596794Y-75295213D01*
X152768872Y-75349800D01*
X152927070Y-75436770D01*
X153065363Y-75552811D01*
X153178483Y-75693504D01*
X153262121Y-75853489D01*
X153313092Y-76026672D01*
X153313098Y-76026738D01*
X153313105Y-76026762D01*
X153329458Y-76206453D01*
X153310598Y-76385899D01*
X153310591Y-76385922D01*
X153310583Y-76385997D01*
X153257199Y-76558452D01*
X153171336Y-76717253D01*
X153056263Y-76856353D01*
X152916363Y-76970452D01*
X152756966Y-77055205D01*
X152584143Y-77107384D01*
X152404476Y-77125000D01*
X152395453Y-77125000D01*
X152386666Y-77124939D01*
X152386659Y-77124938D01*
X152382609Y-77124910D01*
X152203206Y-77104787D01*
X152031128Y-77050200D01*
X151872930Y-76963230D01*
X151734637Y-76847189D01*
X151621517Y-76706496D01*
X151537879Y-76546511D01*
X151486908Y-76373328D01*
X151486902Y-76373262D01*
X151486895Y-76373238D01*
X151470542Y-76193547D01*
X151489402Y-76014101D01*
X151489409Y-76014078D01*
X151489417Y-76014003D01*
X151542801Y-75841548D01*
X151628664Y-75682747D01*
X151743737Y-75543647D01*
X151883637Y-75429548D01*
X152043034Y-75344795D01*
X152215857Y-75292616D01*
X152395524Y-75275000D01*
X152404547Y-75275000D01*
X152413334Y-75275061D01*
X152413334Y-75275061D01*
G37*
G36*
X127013334Y-75275061D02*
X127013341Y-75275062D01*
X127017391Y-75275090D01*
X127196794Y-75295213D01*
X127368872Y-75349800D01*
X127527070Y-75436770D01*
X127665363Y-75552811D01*
X127778483Y-75693504D01*
X127862121Y-75853489D01*
X127913092Y-76026672D01*
X127913098Y-76026738D01*
X127913105Y-76026762D01*
X127929458Y-76206453D01*
X127910598Y-76385899D01*
X127910591Y-76385922D01*
X127910583Y-76385997D01*
X127857199Y-76558452D01*
X127771336Y-76717253D01*
X127656263Y-76856353D01*
X127516363Y-76970452D01*
X127356966Y-77055205D01*
X127184143Y-77107384D01*
X127004476Y-77125000D01*
X126995453Y-77125000D01*
X126986666Y-77124939D01*
X126986659Y-77124938D01*
X126982609Y-77124910D01*
X126803206Y-77104787D01*
X126631128Y-77050200D01*
X126472930Y-76963230D01*
X126334637Y-76847189D01*
X126221517Y-76706496D01*
X126137879Y-76546511D01*
X126086908Y-76373328D01*
X126086902Y-76373262D01*
X126086895Y-76373238D01*
X126070542Y-76193547D01*
X126089402Y-76014101D01*
X126089409Y-76014078D01*
X126089417Y-76014003D01*
X126142801Y-75841548D01*
X126228664Y-75682747D01*
X126343737Y-75543647D01*
X126483637Y-75429548D01*
X126643034Y-75344795D01*
X126815857Y-75292616D01*
X126995524Y-75275000D01*
X127004547Y-75275000D01*
X127013334Y-75275061D01*
X127013334Y-75275061D01*
G37*
G36*
X147332394Y-75325056D02*
X147332401Y-75325057D01*
X147336451Y-75325085D01*
X147506157Y-75344121D01*
X147668933Y-75395757D01*
X147818580Y-75478026D01*
X147949398Y-75587795D01*
X148056403Y-75720882D01*
X148135520Y-75872219D01*
X148183735Y-76036041D01*
X148183741Y-76036102D01*
X148183749Y-76036131D01*
X148199217Y-76206104D01*
X148181377Y-76375845D01*
X148181370Y-76375868D01*
X148181362Y-76375943D01*
X148130864Y-76539076D01*
X148049642Y-76689294D01*
X147940789Y-76820874D01*
X147808452Y-76928806D01*
X147657671Y-77008978D01*
X147494189Y-77058336D01*
X147324234Y-77075000D01*
X147315693Y-77075000D01*
X147307606Y-77074944D01*
X147307599Y-77074943D01*
X147303549Y-77074915D01*
X147133843Y-77055879D01*
X146971067Y-77004243D01*
X146821420Y-76921974D01*
X146690602Y-76812205D01*
X146583597Y-76679118D01*
X146504480Y-76527781D01*
X146456265Y-76363959D01*
X146456259Y-76363898D01*
X146456251Y-76363869D01*
X146440783Y-76193896D01*
X146458623Y-76024155D01*
X146458630Y-76024132D01*
X146458638Y-76024057D01*
X146509136Y-75860924D01*
X146590358Y-75710706D01*
X146699211Y-75579126D01*
X146831548Y-75471194D01*
X146982329Y-75391022D01*
X147145811Y-75341664D01*
X147315766Y-75325000D01*
X147324307Y-75325000D01*
X147332394Y-75325056D01*
X147332394Y-75325056D01*
G37*
G36*
X132092394Y-75325056D02*
X132092401Y-75325057D01*
X132096451Y-75325085D01*
X132266157Y-75344121D01*
X132428933Y-75395757D01*
X132578580Y-75478026D01*
X132709398Y-75587795D01*
X132816403Y-75720882D01*
X132895520Y-75872219D01*
X132943735Y-76036041D01*
X132943741Y-76036102D01*
X132943749Y-76036131D01*
X132959217Y-76206104D01*
X132941377Y-76375845D01*
X132941370Y-76375868D01*
X132941362Y-76375943D01*
X132890864Y-76539076D01*
X132809642Y-76689294D01*
X132700789Y-76820874D01*
X132568452Y-76928806D01*
X132417671Y-77008978D01*
X132254189Y-77058336D01*
X132084234Y-77075000D01*
X132075693Y-77075000D01*
X132067606Y-77074944D01*
X132067599Y-77074943D01*
X132063549Y-77074915D01*
X131893843Y-77055879D01*
X131731067Y-77004243D01*
X131581420Y-76921974D01*
X131450602Y-76812205D01*
X131343597Y-76679118D01*
X131264480Y-76527781D01*
X131216265Y-76363959D01*
X131216259Y-76363898D01*
X131216251Y-76363869D01*
X131200783Y-76193896D01*
X131218623Y-76024155D01*
X131218630Y-76024132D01*
X131218638Y-76024057D01*
X131269136Y-75860924D01*
X131350358Y-75710706D01*
X131459211Y-75579126D01*
X131591548Y-75471194D01*
X131742329Y-75391022D01*
X131905811Y-75341664D01*
X132075766Y-75325000D01*
X132084307Y-75325000D01*
X132092394Y-75325056D01*
X132092394Y-75325056D01*
G37*
G36*
X152413334Y-72735061D02*
X152413341Y-72735062D01*
X152417391Y-72735090D01*
X152596794Y-72755213D01*
X152768872Y-72809800D01*
X152927070Y-72896770D01*
X153065363Y-73012811D01*
X153178483Y-73153504D01*
X153262121Y-73313489D01*
X153313092Y-73486672D01*
X153313098Y-73486738D01*
X153313105Y-73486762D01*
X153329458Y-73666453D01*
X153310598Y-73845899D01*
X153310591Y-73845922D01*
X153310583Y-73845997D01*
X153257199Y-74018452D01*
X153171336Y-74177253D01*
X153056263Y-74316353D01*
X152916363Y-74430452D01*
X152756966Y-74515205D01*
X152584143Y-74567384D01*
X152404476Y-74585000D01*
X152395453Y-74585000D01*
X152386666Y-74584939D01*
X152386659Y-74584938D01*
X152382609Y-74584910D01*
X152203206Y-74564787D01*
X152031128Y-74510200D01*
X151872930Y-74423230D01*
X151734637Y-74307189D01*
X151621517Y-74166496D01*
X151537879Y-74006511D01*
X151486908Y-73833328D01*
X151486902Y-73833262D01*
X151486895Y-73833238D01*
X151470542Y-73653547D01*
X151489402Y-73474101D01*
X151489409Y-73474078D01*
X151489417Y-73474003D01*
X151542801Y-73301548D01*
X151628664Y-73142747D01*
X151743737Y-73003647D01*
X151883637Y-72889548D01*
X152043034Y-72804795D01*
X152215857Y-72752616D01*
X152395524Y-72735000D01*
X152404547Y-72735000D01*
X152413334Y-72735061D01*
X152413334Y-72735061D01*
G37*
G36*
X127013334Y-72735061D02*
X127013341Y-72735062D01*
X127017391Y-72735090D01*
X127196794Y-72755213D01*
X127368872Y-72809800D01*
X127527070Y-72896770D01*
X127665363Y-73012811D01*
X127778483Y-73153504D01*
X127862121Y-73313489D01*
X127913092Y-73486672D01*
X127913098Y-73486738D01*
X127913105Y-73486762D01*
X127929458Y-73666453D01*
X127910598Y-73845899D01*
X127910591Y-73845922D01*
X127910583Y-73845997D01*
X127857199Y-74018452D01*
X127771336Y-74177253D01*
X127656263Y-74316353D01*
X127516363Y-74430452D01*
X127356966Y-74515205D01*
X127184143Y-74567384D01*
X127004476Y-74585000D01*
X126995453Y-74585000D01*
X126986666Y-74584939D01*
X126986659Y-74584938D01*
X126982609Y-74584910D01*
X126803206Y-74564787D01*
X126631128Y-74510200D01*
X126472930Y-74423230D01*
X126334637Y-74307189D01*
X126221517Y-74166496D01*
X126137879Y-74006511D01*
X126086908Y-73833328D01*
X126086902Y-73833262D01*
X126086895Y-73833238D01*
X126070542Y-73653547D01*
X126089402Y-73474101D01*
X126089409Y-73474078D01*
X126089417Y-73474003D01*
X126142801Y-73301548D01*
X126228664Y-73142747D01*
X126343737Y-73003647D01*
X126483637Y-72889548D01*
X126643034Y-72804795D01*
X126815857Y-72752616D01*
X126995524Y-72735000D01*
X127004547Y-72735000D01*
X127013334Y-72735061D01*
X127013334Y-72735061D01*
G37*
G36*
X132092394Y-72785056D02*
X132092401Y-72785057D01*
X132096451Y-72785085D01*
X132266157Y-72804121D01*
X132428933Y-72855757D01*
X132578580Y-72938026D01*
X132709398Y-73047795D01*
X132816403Y-73180882D01*
X132895520Y-73332219D01*
X132943735Y-73496041D01*
X132943741Y-73496102D01*
X132943749Y-73496131D01*
X132959217Y-73666104D01*
X132941377Y-73835845D01*
X132941370Y-73835868D01*
X132941362Y-73835943D01*
X132890864Y-73999076D01*
X132809642Y-74149294D01*
X132700789Y-74280874D01*
X132568452Y-74388806D01*
X132417671Y-74468978D01*
X132254189Y-74518336D01*
X132084234Y-74535000D01*
X132075693Y-74535000D01*
X132067606Y-74534944D01*
X132067599Y-74534943D01*
X132063549Y-74534915D01*
X131893843Y-74515879D01*
X131731067Y-74464243D01*
X131581420Y-74381974D01*
X131450602Y-74272205D01*
X131343597Y-74139118D01*
X131264480Y-73987781D01*
X131216265Y-73823959D01*
X131216259Y-73823898D01*
X131216251Y-73823869D01*
X131200783Y-73653896D01*
X131218623Y-73484155D01*
X131218630Y-73484132D01*
X131218638Y-73484057D01*
X131269136Y-73320924D01*
X131350358Y-73170706D01*
X131459211Y-73039126D01*
X131591548Y-72931194D01*
X131742329Y-72851022D01*
X131905811Y-72801664D01*
X132075766Y-72785000D01*
X132084307Y-72785000D01*
X132092394Y-72785056D01*
X132092394Y-72785056D01*
G37*
G36*
X147332394Y-72785056D02*
X147332401Y-72785057D01*
X147336451Y-72785085D01*
X147506157Y-72804121D01*
X147668933Y-72855757D01*
X147818580Y-72938026D01*
X147949398Y-73047795D01*
X148056403Y-73180882D01*
X148135520Y-73332219D01*
X148183735Y-73496041D01*
X148183741Y-73496102D01*
X148183749Y-73496131D01*
X148199217Y-73666104D01*
X148181377Y-73835845D01*
X148181370Y-73835868D01*
X148181362Y-73835943D01*
X148130864Y-73999076D01*
X148049642Y-74149294D01*
X147940789Y-74280874D01*
X147808452Y-74388806D01*
X147657671Y-74468978D01*
X147494189Y-74518336D01*
X147324234Y-74535000D01*
X147315693Y-74535000D01*
X147307606Y-74534944D01*
X147307599Y-74534943D01*
X147303549Y-74534915D01*
X147133843Y-74515879D01*
X146971067Y-74464243D01*
X146821420Y-74381974D01*
X146690602Y-74272205D01*
X146583597Y-74139118D01*
X146504480Y-73987781D01*
X146456265Y-73823959D01*
X146456259Y-73823898D01*
X146456251Y-73823869D01*
X146440783Y-73653896D01*
X146458623Y-73484155D01*
X146458630Y-73484132D01*
X146458638Y-73484057D01*
X146509136Y-73320924D01*
X146590358Y-73170706D01*
X146699211Y-73039126D01*
X146831548Y-72931194D01*
X146982329Y-72851022D01*
X147145811Y-72801664D01*
X147315766Y-72785000D01*
X147324307Y-72785000D01*
X147332394Y-72785056D01*
X147332394Y-72785056D01*
G37*
G36*
X178369857Y-73234608D02*
X178442309Y-73249019D01*
X178556048Y-73296132D01*
X178658413Y-73364530D01*
X178745470Y-73451587D01*
X178813868Y-73553952D01*
X178860981Y-73667691D01*
X178885000Y-73788445D01*
X178885000Y-73911555D01*
X178860981Y-74032309D01*
X178813868Y-74146048D01*
X178745470Y-74248413D01*
X178658413Y-74335470D01*
X178556048Y-74403868D01*
X178442309Y-74450981D01*
X178377847Y-74463803D01*
X178321557Y-74475000D01*
X178198443Y-74475000D01*
X178142153Y-74463803D01*
X178077691Y-74450981D01*
X177963952Y-74403868D01*
X177861587Y-74335470D01*
X177774530Y-74248413D01*
X177706132Y-74146048D01*
X177659019Y-74032309D01*
X177635000Y-73911555D01*
X177635000Y-73788445D01*
X177659019Y-73667691D01*
X177706132Y-73553952D01*
X177774530Y-73451587D01*
X177861587Y-73364530D01*
X177963952Y-73296132D01*
X178077691Y-73249019D01*
X178150143Y-73234608D01*
X178198443Y-73225000D01*
X178321557Y-73225000D01*
X178369857Y-73234608D01*
X178369857Y-73234608D01*
G37*
G36*
X172369857Y-73174608D02*
X172442309Y-73189019D01*
X172556048Y-73236132D01*
X172658413Y-73304530D01*
X172745470Y-73391587D01*
X172813868Y-73493952D01*
X172860981Y-73607691D01*
X172885000Y-73728445D01*
X172885000Y-73851555D01*
X172860981Y-73972309D01*
X172813868Y-74086048D01*
X172745470Y-74188413D01*
X172658413Y-74275470D01*
X172556048Y-74343868D01*
X172442309Y-74390981D01*
X172377520Y-74403868D01*
X172321557Y-74415000D01*
X172198443Y-74415000D01*
X172142480Y-74403868D01*
X172077691Y-74390981D01*
X171963952Y-74343868D01*
X171861587Y-74275470D01*
X171774530Y-74188413D01*
X171706132Y-74086048D01*
X171659019Y-73972309D01*
X171635000Y-73851555D01*
X171635000Y-73728445D01*
X171659019Y-73607691D01*
X171706132Y-73493952D01*
X171774530Y-73391587D01*
X171861587Y-73304530D01*
X171963952Y-73236132D01*
X172077691Y-73189019D01*
X172150143Y-73174608D01*
X172198443Y-73165000D01*
X172321557Y-73165000D01*
X172369857Y-73174608D01*
X172369857Y-73174608D01*
G37*
G36*
X175446726Y-71995000D02*
X175515229Y-72008626D01*
X175581188Y-72035947D01*
X175674468Y-72074585D01*
X175674469Y-72074586D01*
X175817779Y-72170342D01*
X175939658Y-72292221D01*
X175974658Y-72344602D01*
X176035415Y-72435532D01*
X176101374Y-72594772D01*
X176135000Y-72763820D01*
X176135000Y-72936180D01*
X176101374Y-73105228D01*
X176035415Y-73264468D01*
X176035414Y-73264469D01*
X175950478Y-73391586D01*
X175939657Y-73407780D01*
X175817780Y-73529657D01*
X175674468Y-73625415D01*
X175606563Y-73653542D01*
X175515229Y-73691374D01*
X175458879Y-73702583D01*
X175346180Y-73725000D01*
X175173820Y-73725000D01*
X175061121Y-73702583D01*
X175004771Y-73691374D01*
X174913437Y-73653542D01*
X174845532Y-73625415D01*
X174702220Y-73529657D01*
X174580343Y-73407780D01*
X174569523Y-73391586D01*
X174484586Y-73264469D01*
X174484585Y-73264468D01*
X174418626Y-73105228D01*
X174385000Y-72936180D01*
X174385000Y-72763820D01*
X174418626Y-72594772D01*
X174484585Y-72435532D01*
X174545342Y-72344602D01*
X174580342Y-72292221D01*
X174702221Y-72170342D01*
X174845531Y-72074586D01*
X174845532Y-72074585D01*
X174938812Y-72035947D01*
X175004771Y-72008626D01*
X175073274Y-71995000D01*
X175173820Y-71975000D01*
X175346180Y-71975000D01*
X175446726Y-71995000D01*
X175446726Y-71995000D01*
G37*
G36*
X114516061Y-70268289D02*
X114516084Y-70268296D01*
X114516159Y-70268304D01*
X114716579Y-70330344D01*
X114901132Y-70430132D01*
X115062789Y-70563865D01*
X115195390Y-70726451D01*
X115293887Y-70911696D01*
X115354527Y-71112545D01*
X115375000Y-71321347D01*
X115375000Y-71934721D01*
X115374924Y-71945605D01*
X115374923Y-71945611D01*
X115374895Y-71949662D01*
X115351509Y-72158158D01*
X115288070Y-72358141D01*
X115186997Y-72541993D01*
X115052138Y-72702711D01*
X114888630Y-72834175D01*
X114702702Y-72931376D01*
X114501435Y-72990612D01*
X114501374Y-72990618D01*
X114501345Y-72990626D01*
X114292500Y-73009631D01*
X114083939Y-72987711D01*
X114083916Y-72987704D01*
X114083841Y-72987696D01*
X113883421Y-72925656D01*
X113698868Y-72825868D01*
X113537211Y-72692135D01*
X113404610Y-72529549D01*
X113306113Y-72344304D01*
X113245473Y-72143455D01*
X113225000Y-71934653D01*
X113225000Y-71321279D01*
X113225076Y-71310395D01*
X113225077Y-71310389D01*
X113225105Y-71306338D01*
X113248491Y-71097842D01*
X113311930Y-70897859D01*
X113413003Y-70714007D01*
X113547862Y-70553289D01*
X113711370Y-70421825D01*
X113897298Y-70324624D01*
X114098565Y-70265388D01*
X114098626Y-70265382D01*
X114098655Y-70265374D01*
X114307500Y-70246369D01*
X114516061Y-70268289D01*
X114516061Y-70268289D01*
G37*
G36*
X119596061Y-70268289D02*
X119596084Y-70268296D01*
X119596159Y-70268304D01*
X119796579Y-70330344D01*
X119981132Y-70430132D01*
X120142789Y-70563865D01*
X120275390Y-70726451D01*
X120373887Y-70911696D01*
X120434527Y-71112545D01*
X120455000Y-71321347D01*
X120455000Y-71934721D01*
X120454924Y-71945605D01*
X120454923Y-71945611D01*
X120454895Y-71949662D01*
X120431509Y-72158158D01*
X120368070Y-72358141D01*
X120266997Y-72541993D01*
X120132138Y-72702711D01*
X119968630Y-72834175D01*
X119782702Y-72931376D01*
X119581435Y-72990612D01*
X119581374Y-72990618D01*
X119581345Y-72990626D01*
X119372500Y-73009631D01*
X119163939Y-72987711D01*
X119163916Y-72987704D01*
X119163841Y-72987696D01*
X118963421Y-72925656D01*
X118778868Y-72825868D01*
X118617211Y-72692135D01*
X118484610Y-72529549D01*
X118386113Y-72344304D01*
X118325473Y-72143455D01*
X118305000Y-71934653D01*
X118305000Y-71321279D01*
X118305076Y-71310395D01*
X118305077Y-71310389D01*
X118305105Y-71306338D01*
X118328491Y-71097842D01*
X118391930Y-70897859D01*
X118493003Y-70714007D01*
X118627862Y-70553289D01*
X118791370Y-70421825D01*
X118977298Y-70324624D01*
X119178565Y-70265388D01*
X119178626Y-70265382D01*
X119178655Y-70265374D01*
X119387500Y-70246369D01*
X119596061Y-70268289D01*
X119596061Y-70268289D01*
G37*
G36*
X117056061Y-70268289D02*
X117056084Y-70268296D01*
X117056159Y-70268304D01*
X117256579Y-70330344D01*
X117441132Y-70430132D01*
X117602789Y-70563865D01*
X117735390Y-70726451D01*
X117833887Y-70911696D01*
X117894527Y-71112545D01*
X117915000Y-71321347D01*
X117915000Y-71934721D01*
X117914924Y-71945605D01*
X117914923Y-71945611D01*
X117914895Y-71949662D01*
X117891509Y-72158158D01*
X117828070Y-72358141D01*
X117726997Y-72541993D01*
X117592138Y-72702711D01*
X117428630Y-72834175D01*
X117242702Y-72931376D01*
X117041435Y-72990612D01*
X117041374Y-72990618D01*
X117041345Y-72990626D01*
X116832500Y-73009631D01*
X116623939Y-72987711D01*
X116623916Y-72987704D01*
X116623841Y-72987696D01*
X116423421Y-72925656D01*
X116238868Y-72825868D01*
X116077211Y-72692135D01*
X115944610Y-72529549D01*
X115846113Y-72344304D01*
X115785473Y-72143455D01*
X115765000Y-71934653D01*
X115765000Y-71321279D01*
X115765076Y-71310395D01*
X115765077Y-71310389D01*
X115765105Y-71306338D01*
X115788491Y-71097842D01*
X115851930Y-70897859D01*
X115953003Y-70714007D01*
X116087862Y-70553289D01*
X116251370Y-70421825D01*
X116437298Y-70324624D01*
X116638565Y-70265388D01*
X116638626Y-70265382D01*
X116638655Y-70265374D01*
X116847500Y-70246369D01*
X117056061Y-70268289D01*
X117056061Y-70268289D01*
G37*
G36*
X112835000Y-73003000D02*
X110685000Y-73003000D01*
X110685000Y-70253000D01*
X112835000Y-70253000D01*
X112835000Y-73003000D01*
X112835000Y-73003000D01*
G37*
G36*
X184353191Y-66687406D02*
X184353193Y-66687407D01*
X184353194Y-66687407D01*
X184885507Y-66907898D01*
X185364579Y-67228004D01*
X185771996Y-67635421D01*
X186092102Y-68114493D01*
X186312594Y-68646809D01*
X186425000Y-69211913D01*
X186425000Y-69788087D01*
X186314306Y-70344586D01*
X186312593Y-70353194D01*
X186158586Y-70725000D01*
X186092102Y-70885507D01*
X185771996Y-71364579D01*
X185364579Y-71771996D01*
X184885507Y-72092102D01*
X184353194Y-72312593D01*
X184353193Y-72312593D01*
X184353191Y-72312594D01*
X183788087Y-72425000D01*
X183211913Y-72425000D01*
X182646809Y-72312594D01*
X182646807Y-72312593D01*
X182646806Y-72312593D01*
X182114493Y-72092102D01*
X181635421Y-71771996D01*
X181228004Y-71364579D01*
X180907898Y-70885507D01*
X180841414Y-70725000D01*
X180687407Y-70353194D01*
X180685695Y-70344586D01*
X180575000Y-69788087D01*
X180575000Y-69211913D01*
X180687406Y-68646809D01*
X180907898Y-68114493D01*
X181228004Y-67635421D01*
X181635421Y-67228004D01*
X182114493Y-66907898D01*
X182646806Y-66687407D01*
X182646807Y-66687407D01*
X182646809Y-66687406D01*
X183211913Y-66575000D01*
X183788087Y-66575000D01*
X184353191Y-66687406D01*
X184353191Y-66687406D01*
G37*
G36*
X101353191Y-66687406D02*
X101353193Y-66687407D01*
X101353194Y-66687407D01*
X101885507Y-66907898D01*
X102364579Y-67228004D01*
X102771996Y-67635421D01*
X103092102Y-68114493D01*
X103312594Y-68646809D01*
X103425000Y-69211913D01*
X103425000Y-69788087D01*
X103314306Y-70344586D01*
X103312593Y-70353194D01*
X103158586Y-70725000D01*
X103092102Y-70885507D01*
X102771996Y-71364579D01*
X102364579Y-71771996D01*
X101885507Y-72092102D01*
X101353194Y-72312593D01*
X101353193Y-72312593D01*
X101353191Y-72312594D01*
X100788087Y-72425000D01*
X100211913Y-72425000D01*
X99646809Y-72312594D01*
X99646807Y-72312593D01*
X99646806Y-72312593D01*
X99114493Y-72092102D01*
X98635421Y-71771996D01*
X98228004Y-71364579D01*
X97907898Y-70885507D01*
X97841414Y-70725000D01*
X97687407Y-70353194D01*
X97685695Y-70344586D01*
X97575000Y-69788087D01*
X97575000Y-69211913D01*
X97687406Y-68646809D01*
X97907898Y-68114493D01*
X98228004Y-67635421D01*
X98635421Y-67228004D01*
X99114493Y-66907898D01*
X99646806Y-66687407D01*
X99646807Y-66687407D01*
X99646809Y-66687406D01*
X100211913Y-66575000D01*
X100788087Y-66575000D01*
X101353191Y-66687406D01*
X101353191Y-66687406D01*
G37*
G36*
X165258879Y-70267417D02*
X165315229Y-70278626D01*
X165381188Y-70305947D01*
X165474468Y-70344585D01*
X165487352Y-70353194D01*
X165602499Y-70430132D01*
X165617780Y-70440343D01*
X165739657Y-70562220D01*
X165835415Y-70705532D01*
X165874053Y-70798812D01*
X165901374Y-70864771D01*
X165910649Y-70911398D01*
X165935000Y-71033820D01*
X165935000Y-71206180D01*
X165901374Y-71375228D01*
X165835415Y-71534468D01*
X165739657Y-71677780D01*
X165617780Y-71799657D01*
X165474468Y-71895415D01*
X165390383Y-71930244D01*
X165315229Y-71961374D01*
X165258879Y-71972583D01*
X165146180Y-71995000D01*
X164973820Y-71995000D01*
X164861121Y-71972583D01*
X164804771Y-71961374D01*
X164729617Y-71930244D01*
X164645532Y-71895415D01*
X164502220Y-71799657D01*
X164380343Y-71677780D01*
X164284585Y-71534468D01*
X164218626Y-71375228D01*
X164185000Y-71206180D01*
X164185000Y-71033820D01*
X164209351Y-70911398D01*
X164218626Y-70864771D01*
X164245947Y-70798812D01*
X164284585Y-70705532D01*
X164380343Y-70562220D01*
X164502220Y-70440343D01*
X164517502Y-70430132D01*
X164632648Y-70353194D01*
X164645532Y-70344585D01*
X164738812Y-70305947D01*
X164804771Y-70278626D01*
X164861121Y-70267417D01*
X164973820Y-70245000D01*
X165146180Y-70245000D01*
X165258879Y-70267417D01*
X165258879Y-70267417D01*
G37*
G36*
X163435000Y-71995000D02*
X161685000Y-71995000D01*
X161685000Y-70245000D01*
X163435000Y-70245000D01*
X163435000Y-71995000D01*
X163435000Y-71995000D01*
G37*
G36*
X175458879Y-68997417D02*
X175515229Y-69008626D01*
X175581188Y-69035947D01*
X175674468Y-69074585D01*
X175817780Y-69170343D01*
X175939657Y-69292220D01*
X176035415Y-69435532D01*
X176101374Y-69594772D01*
X176135000Y-69763820D01*
X176135000Y-69936180D01*
X176101374Y-70105228D01*
X176035415Y-70264468D01*
X175939657Y-70407780D01*
X175817780Y-70529657D01*
X175674468Y-70625415D01*
X175581188Y-70664053D01*
X175515229Y-70691374D01*
X175458879Y-70702583D01*
X175346180Y-70725000D01*
X175173820Y-70725000D01*
X175061121Y-70702583D01*
X175004771Y-70691374D01*
X174938812Y-70664053D01*
X174845532Y-70625415D01*
X174702220Y-70529657D01*
X174580343Y-70407780D01*
X174484585Y-70264468D01*
X174418626Y-70105228D01*
X174385000Y-69936180D01*
X174385000Y-69763820D01*
X174418626Y-69594772D01*
X174484585Y-69435532D01*
X174580343Y-69292220D01*
X174702220Y-69170343D01*
X174845532Y-69074585D01*
X174938812Y-69035947D01*
X175004771Y-69008626D01*
X175061121Y-68997417D01*
X175173820Y-68975000D01*
X175346180Y-68975000D01*
X175458879Y-68997417D01*
X175458879Y-68997417D01*
G37*
M02*
