  0
SECTION
  2
HEADER
  9
$ACADVER
  1
AC1009
  9
$DWGCODEPAGE
  3
ansi_1252
  9
$INSBASE
 10
0.0
 20
0.0
 30
0.0
  9
$EXTMIN
 10
0.0
 20
0.0
 30
0.0
  9
$EXTMAX
 10
182.251007208654
 20
100.0
 30
0.0
  9
$LIMMIN
 10
0.0
 20
0.0
  9
$LIMMAX
 10
12.0
 20
9.0
  9
$ORTHOMODE
 70
     0
  9
$REGENMODE
 70
     1
  9
$FILLMODE
 70
     1
  9
$QTEXTMODE
 70
     0
  9
$MIRRTEXT
 70
     1
  9
$DRAGMODE
 70
     2
  9
$LTSCALE
 40
1.0
  9
$OSMODE
 70
    37
  9
$ATTMODE
 70
     1
  9
$TEXTSIZE
 40
0.2
  9
$TRACEWID
 40
0.05
  9
$TEXTSTYLE
  7
STANDARD
  9
$CLAYER
  8
PIEZOPOCKET-0_25
  9
$CELTYPE
  6
BYLAYER
  9
$CECOLOR
 62
   256
  9
$DIMSCALE
 40
1.0
  9
$DIMASZ
 40
0.18
  9
$DIMEXO
 40
0.0625
  9
$DIMDLI
 40
0.38
  9
$DIMRND
 40
0.0
  9
$DIMDLE
 40
0.0
  9
$DIMEXE
 40
0.18
  9
$DIMTP
 40
0.0
  9
$DIMTM
 40
0.0
  9
$DIMTXT
 40
0.18
  9
$DIMCEN
 40
0.09
  9
$DIMTSZ
 40
0.0
  9
$DIMTOL
 70
     0
  9
$DIMLIM
 70
     0
  9
$DIMTIH
 70
     1
  9
$DIMTOH
 70
     1
  9
$DIMSE1
 70
     0
  9
$DIMSE2
 70
     0
  9
$DIMTAD
 70
     0
  9
$DIMZIN
 70
     0
  9
$DIMBLK
  1

  9
$DIMASO
 70
     1
  9
$DIMSHO
 70
     1
  9
$DIMPOST
  1

  9
$DIMAPOST
  1

  9
$DIMALT
 70
     0
  9
$DIMALTD
 70
     2
  9
$DIMALTF
 40
25.4
  9
$DIMLFAC
 40
1.0
  9
$DIMTOFL
 70
     0
  9
$DIMTVP
 40
0.0
  9
$DIMTIX
 70
     0
  9
$DIMSOXD
 70
     0
  9
$DIMSAH
 70
     0
  9
$DIMBLK1
  1

  9
$DIMBLK2
  1

  9
$DIMSTYLE
  2
STANDARD
  9
$DIMCLRD
 70
     0
  9
$DIMCLRE
 70
     0
  9
$DIMCLRT
 70
     0
  9
$DIMTFAC
 40
1.0
  9
$DIMGAP
 40
0.09
  9
$LUNITS
 70
     2
  9
$LUPREC
 70
     4
  9
$SKETCHINC
 40
0.1
  9
$FILLETRAD
 40
0.5
  9
$AUNITS
 70
     0
  9
$AUPREC
 70
     0
  9
$MENU
  1
.
  9
$ELEVATION
 40
0.0
  9
$PELEVATION
 40
0.0
  9
$THICKNESS
 40
0.0
  9
$LIMCHECK
 70
     0
  9
$CHAMFERA
 40
0.0
  9
$CHAMFERB
 40
0.0
  9
$SKPOLY
 70
     0
  9
$TDCREATE
 40
2458169.852206701
  9
$TDUPDATE
 40
2458169.852224248
  9
$TDINDWG
 40
0.0000000116
  9
$TDUSRTIMER
 40
0.0000000116
  9
$USRTIMER
 70
     1
  9
$ANGBASE
 50
0.0
  9
$ANGDIR
 70
     0
  9
$PDMODE
 70
     0
  9
$PDSIZE
 40
0.0
  9
$PLINEWID
 40
0.0
  9
$COORDS
 70
     1
  9
$SPLFRAME
 70
     0
  9
$SPLINETYPE
 70
     6
  9
$SPLINESEGS
 70
     8
  9
$ATTDIA
 70
     0
  9
$ATTREQ
 70
     1
  9
$HANDLING
 70
     1
  9
$HANDSEED
  5
702
  9
$SURFTAB1
 70
     6
  9
$SURFTAB2
 70
     6
  9
$SURFTYPE
 70
     6
  9
$SURFU
 70
     6
  9
$SURFV
 70
     6
  9
$UCSNAME
  2

  9
$UCSORG
 10
0.0
 20
0.0
 30
0.0
  9
$UCSXDIR
 10
1.0
 20
0.0
 30
0.0
  9
$UCSYDIR
 10
0.0
 20
1.0
 30
0.0
  9
$PUCSNAME
  2

  9
$PUCSORG
 10
0.0
 20
0.0
 30
0.0
  9
$PUCSXDIR
 10
1.0
 20
0.0
 30
0.0
  9
$PUCSYDIR
 10
0.0
 20
1.0
 30
0.0
  9
$USERI1
 70
     0
  9
$USERI2
 70
     0
  9
$USERI3
 70
     0
  9
$USERI4
 70
     0
  9
$USERI5
 70
     0
  9
$USERR1
 40
0.0
  9
$USERR2
 40
0.0
  9
$USERR3
 40
0.0
  9
$USERR4
 40
0.0
  9
$USERR5
 40
0.0
  9
$WORLDVIEW
 70
     1
  9
$SHADEDGE
 70
     3
  9
$SHADEDIF
 70
    70
  9
$TILEMODE
 70
     1
  9
$MAXACTVP
 70
    64
  9
$PLIMCHECK
 70
     0
  9
$PEXTMIN
 10
1.000000000000000E+20
 20
1.000000000000000E+20
 30
1.000000000000000E+20
  9
$PEXTMAX
 10
-1.000000000000000E+20
 20
-1.000000000000000E+20
 30
-1.000000000000000E+20
  9
$PLIMMIN
 10
0.0
 20
0.0
  9
$PLIMMAX
 10
12.0
 20
9.0
  9
$UNITMODE
 70
     0
  9
$VISRETAIN
 70
     1
  9
$PLINEGEN
 70
     0
  9
$PSLTSCALE
 70
     1
  0
ENDSEC
  0
SECTION
  2
TABLES
  0
TABLE
  2
VPORT
 70
     1
  0
VPORT
  2
*ACTIVE
 70
     0
 10
0.0
 20
0.0
 11
1.0
 21
1.0
 12
91.12550360432698
 22
49.99999999999999
 13
0.0
 23
0.0
 14
0.5
 24
0.5
 15
0.5
 25
0.5
 16
0.0
 26
0.0
 36
1.0
 17
0.0
 27
0.0
 37
0.0
 40
102.0
 41
1.82251007208654
 42
50.0
 43
0.0
 44
0.0
 50
0.0
 51
0.0
 71
     0
 72
   100
 73
     1
 74
     3
 75
     0
 76
     0
 77
     0
 78
     0
  0
ENDTAB
  0
TABLE
  2
LTYPE
 70
     1
  0
LTYPE
  2
CONTINUOUS
 70
     0
  3
Solid line
 72
    65
 73
     0
 40
0.0
  0
ENDTAB
  0
TABLE
  2
LAYER
 70
     4
  0
LAYER
  2
0
 70
     0
 62
     7
  6
CONTINUOUS
  0
LAYER
  2
PIEZOPOCKET-0_25
 70
     0
 62
     2
  6
CONTINUOUS
  0
LAYER
  2
PCB
 70
     0
 62
   -96
  6
CONTINUOUS
  0
LAYER
  2
HOLDINGBLOCK
 70
     0
 62
  -254
  6
CONTINUOUS
  0
ENDTAB
  0
TABLE
  2
STYLE
 70
     1
  0
STYLE
  2
STANDARD
 70
     0
 40
0.0
 41
1.0
 50
0.0
 71
     0
 42
0.2
  3
txt
  4

  0
ENDTAB
  0
TABLE
  2
VIEW
 70
     0
  0
ENDTAB
  0
TABLE
  2
UCS
 70
     0
  0
ENDTAB
  0
TABLE
  2
APPID
 70
     1
  0
APPID
  2
ACAD
 70
     0
  0
ENDTAB
  0
TABLE
  2
DIMSTYLE
 70
     1
  0
DIMSTYLE
  2
STANDARD
 70
     0
  3

  4

  5

  6

  7

 40
1.0
 41
0.18
 42
0.0625
 43
0.38
 44
0.18
 45
0.0
 46
0.0
 47
0.0
 48
0.0
140
0.18
141
0.09
142
0.0
143
25.4
144
1.0
145
0.0
146
1.0
147
0.09
 71
     0
 72
     0
 73
     1
 74
     1
 75
     0
 76
     0
 77
     0
 78
     0
170
     0
171
     2
172
     0
173
     0
174
     0
175
     0
176
     0
177
     0
178
     0
  0
ENDTAB
  0
ENDSEC
  0
SECTION
  2
BLOCKS
  0
BLOCK
  8
0
  2
$MODEL_SPACE
 70
     0
 10
0.0
 20
0.0
 30
0.0
  3
$MODEL_SPACE
  1

  0
ENDBLK
  5
21
  8
0
  0
BLOCK
 67
     1
  8
0
  2
$PAPER_SPACE
 70
     0
 10
0.0
 20
0.0
 30
0.0
  3
$PAPER_SPACE
  1

  0
ENDBLK
  5
1D
 67
     1
  8
0
  0
ENDSEC
  0
SECTION
  2
ENTITIES
  0
POLYLINE
  5
6F
  8
PIEZOPOCKET-0_25
 66
     1
 10
0.0
 20
0.0
 30
0.0
 70
     1
  0
VERTEX
  5
70
  8
PIEZOPOCKET-0_25
 10
6.298047709463402
 20
92.8669408212515
 30
0.0
 42
1.863324958071089
  0
VERTEX
  5
71
  8
PIEZOPOCKET-0_25
 10
2.964714376130002
 20
92.86694082125159
 30
0.0
 42
0.7429545911564434
  0
VERTEX
  5
72
  8
PIEZOPOCKET-0_25
 10
3.881381042796718
 20
93.14332622044783
 30
0.0
  0
VERTEX
  5
73
  8
PIEZOPOCKET-0_25
 10
3.881381042796718
 20
93.97248241803659
 30
0.0
 42
-0.9999999999999897
  0
VERTEX
  5
74
  8
PIEZOPOCKET-0_25
 10
5.381381042796713
 20
93.97248241803659
 30
0.0
  0
VERTEX
  5
75
  8
PIEZOPOCKET-0_25
 10
5.381381042796718
 20
93.14332622044778
 30
0.0
 42
0.7429545911564562
  0
SEQEND
  5
76
  8
PIEZOPOCKET-0_25
  0
POLYLINE
  5
77
  8
PIEZOPOCKET-0_25
 66
     1
 10
0.0
 20
0.0
 30
0.0
 70
     1
  0
VERTEX
  5
78
  8
PIEZOPOCKET-0_25
 10
6.298047709463402
 20
86.8669408212515
 30
0.0
 42
1.863324958071076
  0
VERTEX
  5
79
  8
PIEZOPOCKET-0_25
 10
2.964714376130046
 20
86.86694082125162
 30
0.0
 42
0.7429545911564557
  0
VERTEX
  5
7A
  8
PIEZOPOCKET-0_25
 10
3.881381042796718
 20
87.14332622044783
 30
0.0
  0
VERTEX
  5
7B
  8
PIEZOPOCKET-0_25
 10
3.881381042796718
 20
87.97248241803659
 30
0.0
 42
-1.000000000000001
  0
VERTEX
  5
7C
  8
PIEZOPOCKET-0_25
 10
5.381381042796724
 20
87.97248241803659
 30
0.0
  0
VERTEX
  5
7D
  8
PIEZOPOCKET-0_25
 10
5.381381042796718
 20
87.14332622044778
 30
0.0
 42
0.7429545911564562
  0
SEQEND
  5
7E
  8
PIEZOPOCKET-0_25
  0
POLYLINE
  5
7F
  8
PIEZOPOCKET-0_25
 66
     1
 10
0.0
 20
0.0
 30
0.0
 70
     1
  0
VERTEX
  5
80
  8
PIEZOPOCKET-0_25
 10
6.298047709463402
 20
80.86694082125152
 30
0.0
 42
1.863324958071166
  0
VERTEX
  5
81
  8
PIEZOPOCKET-0_25
 10
2.964714376130013
 20
80.8669408212516
 30
0.0
 42
0.7429545911564537
  0
VERTEX
  5
82
  8
PIEZOPOCKET-0_25
 10
3.881381042796718
 20
81.14332622044783
 30
0.0
  0
VERTEX
  5
83
  8
PIEZOPOCKET-0_25
 10
3.881381042796718
 20
81.97248241803659
 30
0.0
 42
-1.000000000000001
  0
VERTEX
  5
84
  8
PIEZOPOCKET-0_25
 10
5.381381042796724
 20
81.97248241803659
 30
0.0
  0
VERTEX
  5
85
  8
PIEZOPOCKET-0_25
 10
5.381381042796718
 20
81.14332622044778
 30
0.0
 42
0.7429545911564562
  0
SEQEND
  5
86
  8
PIEZOPOCKET-0_25
  0
POLYLINE
  5
87
  8
PIEZOPOCKET-0_25
 66
     1
 10
0.0
 20
0.0
 30
0.0
 70
     1
  0
VERTEX
  5
88
  8
PIEZOPOCKET-0_25
 10
6.298047709463402
 20
74.86694082125152
 30
0.0
 42
1.863324958071143
  0
VERTEX
  5
89
  8
PIEZOPOCKET-0_25
 10
2.964714376130046
 20
74.86694082125162
 30
0.0
 42
0.7429545911564557
  0
VERTEX
  5
8A
  8
PIEZOPOCKET-0_25
 10
3.881381042796718
 20
75.14332622044783
 30
0.0
  0
VERTEX
  5
8B
  8
PIEZOPOCKET-0_25
 10
3.881381042796718
 20
75.97248241803659
 30
0.0
 42
-0.9999999999999992
  0
VERTEX
  5
8C
  8
PIEZOPOCKET-0_25
 10
5.381381042796713
 20
75.97248241803659
 30
0.0
  0
VERTEX
  5
8D
  8
PIEZOPOCKET-0_25
 10
5.381381042796718
 20
75.14332622044778
 30
0.0
 42
0.7429545911564562
  0
SEQEND
  5
8E
  8
PIEZOPOCKET-0_25
  0
POLYLINE
  5
8F
  8
PIEZOPOCKET-0_25
 66
     1
 10
0.0
 20
0.0
 30
0.0
 70
     1
  0
VERTEX
  5
90
  8
PIEZOPOCKET-0_25
 10
6.298047709463402
 20
68.86694082125152
 30
0.0
 42
1.863324958071081
  0
VERTEX
  5
91
  8
PIEZOPOCKET-0_25
 10
2.964714376130013
 20
68.8669408212516
 30
0.0
 42
0.7429545911564537
  0
VERTEX
  5
92
  8
PIEZOPOCKET-0_25
 10
3.881381042796718
 20
69.14332622044783
 30
0.0
  0
VERTEX
  5
93
  8
PIEZOPOCKET-0_25
 10
3.881381042796718
 20
69.97248241803659
 30
0.0
 42
-0.9999999999999992
  0
VERTEX
  5
94
  8
PIEZOPOCKET-0_25
 10
5.381381042796713
 20
69.97248241803659
 30
0.0
  0
VERTEX
  5
95
  8
PIEZOPOCKET-0_25
 10
5.381381042796718
 20
69.14332622044778
 30
0.0
 42
0.7429545911564562
  0
SEQEND
  5
96
  8
PIEZOPOCKET-0_25
  0
POLYLINE
  5
97
  8
PIEZOPOCKET-0_25
 66
     1
 10
0.0
 20
0.0
 30
0.0
 70
     1
  0
VERTEX
  5
98
  8
PIEZOPOCKET-0_25
 10
6.298047709463402
 20
62.86694082125151
 30
0.0
 42
1.863324958071085
  0
VERTEX
  5
99
  8
PIEZOPOCKET-0_25
 10
2.964714376130021
 20
62.8669408212516
 30
0.0
 42
0.7429545911564407
  0
VERTEX
  5
9A
  8
PIEZOPOCKET-0_25
 10
3.881381042796718
 20
63.14332622044784
 30
0.0
  0
VERTEX
  5
9B
  8
PIEZOPOCKET-0_25
 10
3.881381042796718
 20
63.97248241803659
 30
0.0
 42
-0.9999999999999999
  0
VERTEX
  5
9C
  8
PIEZOPOCKET-0_25
 10
5.381381042796733
 20
63.97248241803659
 30
0.0
  0
VERTEX
  5
9D
  8
PIEZOPOCKET-0_25
 10
5.38138104279672
 20
63.14332622044778
 30
0.0
 42
0.7429545911564626
  0
SEQEND
  5
9E
  8
PIEZOPOCKET-0_25
  0
POLYLINE
  5
9F
  8
PIEZOPOCKET-0_25
 66
     1
 10
0.0
 20
0.0
 30
0.0
 70
     1
  0
VERTEX
  5
A0
  8
PIEZOPOCKET-0_25
 10
6.298047709463402
 20
56.86694082125151
 30
0.0
 42
1.863324958071087
  0
VERTEX
  5
A1
  8
PIEZOPOCKET-0_25
 10
2.964714376130028
 20
56.86694082125161
 30
0.0
 42
0.7429545911564476
  0
VERTEX
  5
A2
  8
PIEZOPOCKET-0_25
 10
3.881381042796718
 20
57.14332622044784
 30
0.0
  0
VERTEX
  5
A3
  8
PIEZOPOCKET-0_25
 10
3.881381042796718
 20
57.97248241803659
 30
0.0
 42
-1.000000000000001
  0
VERTEX
  5
A4
  8
PIEZOPOCKET-0_25
 10
5.381381042796724
 20
57.97248241803659
 30
0.0
  0
VERTEX
  5
A5
  8
PIEZOPOCKET-0_25
 10
5.38138104279672
 20
57.14332622044778
 30
0.0
 42
0.7429545911564626
  0
SEQEND
  5
A6
  8
PIEZOPOCKET-0_25
  0
POLYLINE
  5
A7
  8
PIEZOPOCKET-0_25
 66
     1
 10
0.0
 20
0.0
 30
0.0
 70
     1
  0
VERTEX
  5
A8
  8
PIEZOPOCKET-0_25
 10
6.298047709463402
 20
50.8669408212515
 30
0.0
 42
1.863324958071038
  0
VERTEX
  5
A9
  8
PIEZOPOCKET-0_25
 10
2.964714376130025
 20
50.86694082125161
 30
0.0
 42
0.7429545911564613
  0
VERTEX
  5
AA
  8
PIEZOPOCKET-0_25
 10
3.881381042796718
 20
51.14332622044784
 30
0.0
  0
VERTEX
  5
AB
  8
PIEZOPOCKET-0_25
 10
3.881381042796718
 20
51.97248241803659
 30
0.0
 42
-1.000000000000001
  0
VERTEX
  5
AC
  8
PIEZOPOCKET-0_25
 10
5.381381042796724
 20
51.97248241803659
 30
0.0
  0
VERTEX
  5
AD
  8
PIEZOPOCKET-0_25
 10
5.38138104279672
 20
51.14332622044778
 30
0.0
 42
0.7429545911564626
  0
SEQEND
  5
AE
  8
PIEZOPOCKET-0_25
  0
POLYLINE
  5
AF
  8
PIEZOPOCKET-0_25
 66
     1
 10
0.0
 20
0.0
 30
0.0
 70
     1
  0
VERTEX
  5
B0
  8
PIEZOPOCKET-0_25
 10
6.298047709463402
 20
44.8669408212515
 30
0.0
 42
1.863324958071088
  0
VERTEX
  5
B1
  8
PIEZOPOCKET-0_25
 10
2.964714376130029
 20
44.8669408212516
 30
0.0
 42
0.7429545911564371
  0
VERTEX
  5
B2
  8
PIEZOPOCKET-0_25
 10
3.881381042796718
 20
45.14332622044784
 30
0.0
  0
VERTEX
  5
B3
  8
PIEZOPOCKET-0_25
 10
3.881381042796718
 20
45.97248241803659
 30
0.0
 42
-1.000000000000001
  0
VERTEX
  5
B4
  8
PIEZOPOCKET-0_25
 10
5.381381042796724
 20
45.97248241803659
 30
0.0
  0
VERTEX
  5
B5
  8
PIEZOPOCKET-0_25
 10
5.381381042796717
 20
45.14332622044778
 30
0.0
 42
0.7429545911564478
  0
SEQEND
  5
B6
  8
PIEZOPOCKET-0_25
  0
POLYLINE
  5
B7
  8
PIEZOPOCKET-0_25
 66
     1
 10
0.0
 20
0.0
 30
0.0
 70
     1
  0
VERTEX
  5
B8
  8
PIEZOPOCKET-0_25
 10
6.298047709463402
 20
38.86694082125151
 30
0.0
 42
1.863324958071102
  0
VERTEX
  5
B9
  8
PIEZOPOCKET-0_25
 10
2.964714376130021
 20
38.86694082125161
 30
0.0
 42
0.742954591156449
  0
VERTEX
  5
BA
  8
PIEZOPOCKET-0_25
 10
3.881381042796718
 20
39.14332622044784
 30
0.0
  0
VERTEX
  5
BB
  8
PIEZOPOCKET-0_25
 10
3.881381042796718
 20
39.97248241803659
 30
0.0
 42
-0.9999999999999999
  0
VERTEX
  5
BC
  8
PIEZOPOCKET-0_25
 10
5.381381042796718
 20
39.97248241803659
 30
0.0
  0
VERTEX
  5
BD
  8
PIEZOPOCKET-0_25
 10
5.38138104279672
 20
39.14332622044778
 30
0.0
 42
0.7429545911564626
  0
SEQEND
  5
BE
  8
PIEZOPOCKET-0_25
  0
POLYLINE
  5
BF
  8
PIEZOPOCKET-0_25
 66
     1
 10
0.0
 20
0.0
 30
0.0
 70
     1
  0
VERTEX
  5
C0
  8
PIEZOPOCKET-0_25
 10
6.298047709463402
 20
32.86694082125151
 30
0.0
 42
1.863324958071088
  0
VERTEX
  5
C1
  8
PIEZOPOCKET-0_25
 10
2.964714376130031
 20
32.8669408212516
 30
0.0
 42
0.7429545911564353
  0
VERTEX
  5
C2
  8
PIEZOPOCKET-0_25
 10
3.881381042796718
 20
33.14332622044784
 30
0.0
  0
VERTEX
  5
C3
  8
PIEZOPOCKET-0_25
 10
3.881381042796718
 20
33.97248241803659
 30
0.0
 42
-0.9999999999999999
  0
VERTEX
  5
C4
  8
PIEZOPOCKET-0_25
 10
5.381381042796718
 20
33.97248241803659
 30
0.0
  0
VERTEX
  5
C5
  8
PIEZOPOCKET-0_25
 10
5.38138104279672
 20
33.14332622044778
 30
0.0
 42
0.7429545911564626
  0
SEQEND
  5
C6
  8
PIEZOPOCKET-0_25
  0
POLYLINE
  5
C7
  8
PIEZOPOCKET-0_25
 66
     1
 10
0.0
 20
0.0
 30
0.0
 70
     1
  0
VERTEX
  5
C8
  8
PIEZOPOCKET-0_25
 10
6.298047709463402
 20
26.86694082125151
 30
0.0
 42
1.86332495807106
  0
VERTEX
  5
C9
  8
PIEZOPOCKET-0_25
 10
2.964714376130026
 20
26.86694082125161
 30
0.0
 42
0.7429545911564549
  0
VERTEX
  5
CA
  8
PIEZOPOCKET-0_25
 10
3.881381042796718
 20
27.14332622044784
 30
0.0
  0
VERTEX
  5
CB
  8
PIEZOPOCKET-0_25
 10
3.881381042796718
 20
27.97248241803659
 30
0.0
 42
-0.9999999999999999
  0
VERTEX
  5
CC
  8
PIEZOPOCKET-0_25
 10
5.381381042796718
 20
27.97248241803659
 30
0.0
  0
VERTEX
  5
CD
  8
PIEZOPOCKET-0_25
 10
5.381381042796717
 20
27.14332622044778
 30
0.0
 42
0.7429545911564497
  0
SEQEND
  5
CE
  8
PIEZOPOCKET-0_25
  0
POLYLINE
  5
CF
  8
PIEZOPOCKET-0_25
 66
     1
 10
0.0
 20
0.0
 30
0.0
 70
     1
  0
VERTEX
  5
D0
  8
PIEZOPOCKET-0_25
 10
6.298047709463402
 20
20.86694082125151
 30
0.0
 42
1.863324958071059
  0
VERTEX
  5
D1
  8
PIEZOPOCKET-0_25
 10
2.964714376130028
 20
20.86694082125161
 30
0.0
 42
0.7429545911564513
  0
VERTEX
  5
D2
  8
PIEZOPOCKET-0_25
 10
3.881381042796718
 20
21.14332622044784
 30
0.0
  0
VERTEX
  5
D3
  8
PIEZOPOCKET-0_25
 10
3.881381042796718
 20
21.97248241803659
 30
0.0
 42
-1.000000000000006
  0
VERTEX
  5
D4
  8
PIEZOPOCKET-0_25
 10
5.38138104279672
 20
21.97248241803659
 30
0.0
  0
VERTEX
  5
D5
  8
PIEZOPOCKET-0_25
 10
5.381381042796717
 20
21.14332622044778
 30
0.0
 42
0.7429545911564497
  0
SEQEND
  5
D6
  8
PIEZOPOCKET-0_25
  0
POLYLINE
  5
D7
  8
PIEZOPOCKET-0_25
 66
     1
 10
0.0
 20
0.0
 30
0.0
 70
     1
  0
VERTEX
  5
D8
  8
PIEZOPOCKET-0_25
 10
6.298047709463402
 20
14.86694082125151
 30
0.0
 42
1.863324958071051
  0
VERTEX
  5
D9
  8
PIEZOPOCKET-0_25
 10
2.964714376130022
 20
14.8669408212516
 30
0.0
 42
0.7429545911564452
  0
VERTEX
  5
DA
  8
PIEZOPOCKET-0_25
 10
3.881381042796718
 20
15.14332622044784
 30
0.0
  0
VERTEX
  5
DB
  8
PIEZOPOCKET-0_25
 10
3.881381042796718
 20
15.97248241803659
 30
0.0
 42
-0.9999999999999992
  0
VERTEX
  5
DC
  8
PIEZOPOCKET-0_25
 10
5.38138104279672
 20
15.97248241803659
 30
0.0
  0
VERTEX
  5
DD
  8
PIEZOPOCKET-0_25
 10
5.381381042796718
 20
15.14332622044778
 30
0.0
 42
0.7429545911564522
  0
SEQEND
  5
DE
  8
PIEZOPOCKET-0_25
  0
POLYLINE
  5
DF
  8
PIEZOPOCKET-0_25
 66
     1
 10
0.0
 20
0.0
 30
0.0
 70
     1
  0
VERTEX
  5
E0
  8
PIEZOPOCKET-0_25
 10
6.298047709463402
 20
8.866940821251507
 30
0.0
 42
1.863324958071057
  0
VERTEX
  5
E1
  8
PIEZOPOCKET-0_25
 10
2.964714376130027
 20
8.866940821251607
 30
0.0
 42
0.7429545911564479
  0
VERTEX
  5
E2
  8
PIEZOPOCKET-0_25
 10
3.881381042796718
 20
9.14332622044784
 30
0.0
  0
VERTEX
  5
E3
  8
PIEZOPOCKET-0_25
 10
3.881381042796718
 20
9.972482418036591
 30
0.0
 42
-0.9999999999999999
  0
VERTEX
  5
E4
  8
PIEZOPOCKET-0_25
 10
5.381381042796718
 20
9.972482418036591
 30
0.0
  0
VERTEX
  5
E5
  8
PIEZOPOCKET-0_25
 10
5.381381042796718
 20
9.143326220447776
 30
0.0
 42
0.7429545911564522
  0
SEQEND
  5
E6
  8
PIEZOPOCKET-0_25
  0
POLYLINE
  5
E7
  8
PIEZOPOCKET-0_25
 66
     1
 10
0.0
 20
0.0
 30
0.0
 70
     1
  0
VERTEX
  5
E8
  8
PIEZOPOCKET-0_25
 10
0.0
 20
0.0
 30
0.0
  0
VERTEX
  5
E9
  8
PIEZOPOCKET-0_25
 10
150.0
 20
0.0
 30
0.0
  0
VERTEX
  5
EA
  8
PIEZOPOCKET-0_25
 10
150.0
 20
100.0
 30
0.0
  0
VERTEX
  5
EB
  8
PIEZOPOCKET-0_25
 10
0.0
 20
100.0
 30
0.0
  0
SEQEND
  5
EC
  8
PIEZOPOCKET-0_25
  0
POLYLINE
  5
ED
  8
PIEZOPOCKET-0_25
 66
     1
 10
0.0
 20
0.0
 30
0.0
 70
     1
  0
VERTEX
  5
EE
  8
PIEZOPOCKET-0_25
 10
6.298047709463402
 20
2.866940821251507
 30
0.0
 42
1.863324958071052
  0
VERTEX
  5
EF
  8
PIEZOPOCKET-0_25
 10
2.964714376130028
 20
2.866940821251607
 30
0.0
 42
0.7429545911564466
  0
VERTEX
  5
F0
  8
PIEZOPOCKET-0_25
 10
3.881381042796718
 20
3.14332622044784
 30
0.0
  0
VERTEX
  5
F1
  8
PIEZOPOCKET-0_25
 10
3.881381042796718
 20
3.972482418036591
 30
0.0
 42
-0.9999999999999999
  0
VERTEX
  5
F2
  8
PIEZOPOCKET-0_25
 10
5.381381042796718
 20
3.972482418036591
 30
0.0
  0
VERTEX
  5
F3
  8
PIEZOPOCKET-0_25
 10
5.381381042796718
 20
3.143326220447776
 30
0.0
 42
0.7429545911564499
  0
SEQEND
  5
F4
  8
PIEZOPOCKET-0_25
  0
POLYLINE
  5
F6
  8
PCB
  6
CONTINUOUS
 66
     1
 10
0.0
 20
0.0
 30
0.0
 70
     1
  0
VERTEX
  5
F7
  8
PCB
  6
CONTINUOUS
 10
52.54644975400129
 20
23.50427890231425
 30
0.0
  0
VERTEX
  5
F8
  8
PCB
  6
CONTINUOUS
 10
52.94988802471673
 20
23.2719873908258
 30
0.0
 42
0.2818596019951047
  0
VERTEX
  5
F9
  8
PCB
  6
CONTINUOUS
 10
53.99399999999999
 20
23.24497459621556
 30
0.0
  0
VERTEX
  5
FA
  8
PCB
  6
CONTINUOUS
 10
58.58300000000001
 20
25.89397459621556
 30
0.0
 42
0.4865607790166153
  0
VERTEX
  5
FB
  8
PCB
  6
CONTINUOUS
 10
58.80495583963068
 20
27.45185587057833
 30
0.0
 42
0.142550920557794
  0
VERTEX
  5
FC
  8
PCB
  6
CONTINUOUS
 10
53.2390902588396
 20
30.66526254634397
 30
0.0
 42
0.486505659988574
  0
VERTEX
  5
FD
  8
PCB
  6
CONTINUOUS
 10
52.001
 20
29.69400000000002
 30
0.0
  0
VERTEX
  5
FE
  8
PCB
  6
CONTINUOUS
 10
52.001
 20
24.395
 30
0.0
 42
0.2818596019950972
  0
SEQEND
  5
FF
  8
PCB
  6
CONTINUOUS
  0
POLYLINE
  5
100
  8
PCB
  6
CONTINUOUS
 66
     1
 10
0.0
 20
0.0
 30
0.0
 70
     1
  0
VERTEX
  5
101
  8
PCB
  6
CONTINUOUS
 10
52.54644975400129
 20
54.50467890231425
 30
0.0
  0
VERTEX
  5
102
  8
PCB
  6
CONTINUOUS
 10
52.94988802471673
 20
54.27198739082579
 30
0.0
 42
0.2818596019950982
  0
VERTEX
  5
103
  8
PCB
  6
CONTINUOUS
 10
53.99399999999999
 20
54.24497459621556
 30
0.0
  0
VERTEX
  5
104
  8
PCB
  6
CONTINUOUS
 10
58.58299999999999
 20
56.89447459621556
 30
0.0
 42
0.4865580075944024
  0
VERTEX
  5
105
  8
PCB
  6
CONTINUOUS
 10
58.80495583963068
 20
58.45230587057831
 30
0.0
 42
0.1425474833415155
  0
VERTEX
  5
106
  8
PCB
  6
CONTINUOUS
 10
53.23909025883961
 20
61.66566254634399
 30
0.0
 42
0.4865056599885799
  0
VERTEX
  5
107
  8
PCB
  6
CONTINUOUS
 10
52.001
 20
60.69440000000002
 30
0.0
  0
VERTEX
  5
108
  8
PCB
  6
CONTINUOUS
 10
52.001
 20
55.3954
 30
0.0
 42
0.2818596019950979
  0
SEQEND
  5
109
  8
PCB
  6
CONTINUOUS
  0
POLYLINE
  5
10A
  8
PCB
  6
CONTINUOUS
 66
     1
 10
0.0
 20
0.0
 30
0.0
 70
     1
  0
VERTEX
  5
10B
  8
PCB
  6
CONTINUOUS
 10
21.54644975400129
 20
54.50467890231425
 30
0.0
  0
VERTEX
  5
10C
  8
PCB
  6
CONTINUOUS
 10
21.94988802471673
 20
54.27198739082579
 30
0.0
 42
0.2818596019950984
  0
VERTEX
  5
10D
  8
PCB
  6
CONTINUOUS
 10
22.99399999999999
 20
54.24497459621556
 30
0.0
  0
VERTEX
  5
10E
  8
PCB
  6
CONTINUOUS
 10
27.583
 20
56.89447459621556
 30
0.0
 42
0.486558007594404
  0
VERTEX
  5
10F
  8
PCB
  6
CONTINUOUS
 10
27.80495583963068
 20
58.45230587057831
 30
0.0
 42
0.1425474833415198
  0
VERTEX
  5
110
  8
PCB
  6
CONTINUOUS
 10
22.23909025883961
 20
61.66566254634397
 30
0.0
 42
0.4865056599885861
  0
VERTEX
  5
111
  8
PCB
  6
CONTINUOUS
 10
21.001
 20
60.69440000000002
 30
0.0
  0
VERTEX
  5
112
  8
PCB
  6
CONTINUOUS
 10
21.00100000000001
 20
55.3954
 30
0.0
 42
0.2818596019951039
  0
SEQEND
  5
113
  8
PCB
  6
CONTINUOUS
  0
POLYLINE
  5
114
  8
PCB
 66
     1
 10
0.0
 20
0.0
 30
0.0
 70
     1
  0
VERTEX
  5
115
  8
PCB
 10
45.50800000000001
 20
49.34597459621557
 30
0.0
 42
0.2818609678858979
  0
VERTEX
  5
116
  8
PCB
 10
46.00666195954902
 20
50.26371354319458
 30
0.0
  0
VERTEX
  5
117
  8
PCB
 10
46.00666193247172
 20
50.72908593390724
 30
0.0
 42
0.2818611091850067
  0
VERTEX
  5
118
  8
PCB
 10
45.50800000000002
 20
51.64682540378443
 30
0.0
  0
VERTEX
  5
119
  8
PCB
 10
40.91900000000001
 20
54.29642540378444
 30
0.0
 42
0.4865338578617702
  0
VERTEX
  5
11A
  8
PCB
 10
39.45895634586997
 20
53.70981777969244
 30
0.0
 42
0.1425329918961104
  0
VERTEX
  5
11B
  8
PCB
 10
39.45895634586998
 20
47.28298222030756
 30
0.0
 42
0.4865338578617697
  0
VERTEX
  5
11C
  8
PCB
 10
40.91900000000001
 20
46.69637459621555
 30
0.0
  0
SEQEND
  5
11D
  8
PCB
  0
POLYLINE
  5
11E
  8
PCB
 66
     1
 10
0.0
 20
0.0
 30
0.0
 70
     1
  0
VERTEX
  5
11F
  8
PCB
 10
42.41900000000001
 20
44.09832540378443
 30
0.0
 42
0.4865543652332341
  0
VERTEX
  5
120
  8
PCB
 10
42.19703601010053
 20
42.54050263615022
 30
0.0
 42
0.1425479866447266
  0
VERTEX
  5
121
  8
PCB
 10
47.76292033576944
 20
39.32713485645777
 30
0.0
 42
0.4865023727645911
  0
VERTEX
  5
122
  8
PCB
 10
49.00099999999995
 20
40.29840027601684
 30
0.0
  0
VERTEX
  5
123
  8
PCB
 10
49.001
 20
45.59739999999999
 30
0.0
 42
0.2818610149856
  0
VERTEX
  5
124
  8
PCB
 10
48.45554558218773
 20
46.48812347769305
 30
0.0
  0
VERTEX
  5
125
  8
PCB
 10
48.052117832683
 20
46.7208088105356
 30
0.0
 42
0.2818614859826696
  0
VERTEX
  5
126
  8
PCB
 10
47.008
 20
46.74782540378443
 30
0.0
  0
SEQEND
  5
127
  8
PCB
  0
POLYLINE
  5
128
  8
PCB
 66
     1
 10
0.0
 20
0.0
 30
0.0
 70
     1
  0
VERTEX
  5
129
  8
PCB
 10
14.50800000000001
 20
49.34597459621557
 30
0.0
 42
0.2818609678859004
  0
VERTEX
  5
12A
  8
PCB
 10
15.006661959549
 20
50.2637135431946
 30
0.0
  0
VERTEX
  5
12B
  8
PCB
 10
15.00666193247172
 20
50.72908593390724
 30
0.0
 42
0.2818611091849999
  0
VERTEX
  5
12C
  8
PCB
 10
14.508
 20
51.64682540378443
 30
0.0
  0
VERTEX
  5
12D
  8
PCB
 10
9.918999999999999
 20
54.29642540378445
 30
0.0
 42
0.4865338578617768
  0
VERTEX
  5
12E
  8
PCB
 10
8.458956345869984
 20
53.70981777969243
 30
0.0
 42
0.1425329918961176
  0
VERTEX
  5
12F
  8
PCB
 10
8.458956345869986
 20
47.28298222030756
 30
0.0
 42
0.4865338578617724
  0
VERTEX
  5
130
  8
PCB
 10
9.918999999999997
 20
46.69637459621555
 30
0.0
  0
SEQEND
  5
131
  8
PCB
  0
POLYLINE
  5
132
  8
PCB
  6
CONTINUOUS
 66
     1
 10
0.0
 20
0.0
 30
0.0
 70
     1
  0
VERTEX
  5
133
  8
PCB
  6
CONTINUOUS
 10
21.54644975400129
 20
23.50427890231425
 30
0.0
  0
VERTEX
  5
134
  8
PCB
  6
CONTINUOUS
 10
21.94988802471673
 20
23.27198739082579
 30
0.0
 42
0.2818596019950982
  0
VERTEX
  5
135
  8
PCB
  6
CONTINUOUS
 10
22.99399999999999
 20
23.24497459621556
 30
0.0
  0
VERTEX
  5
136
  8
PCB
  6
CONTINUOUS
 10
27.583
 20
25.89397459621557
 30
0.0
 42
0.486560779016621
  0
VERTEX
  5
137
  8
PCB
  6
CONTINUOUS
 10
27.80495583963069
 20
27.45185587057833
 30
0.0
 42
0.1425509205577938
  0
VERTEX
  5
138
  8
PCB
  6
CONTINUOUS
 10
22.23909025883961
 20
30.66526254634399
 30
0.0
 42
0.4865056599885701
  0
VERTEX
  5
139
  8
PCB
  6
CONTINUOUS
 10
21.001
 20
29.69400000000002
 30
0.0
  0
VERTEX
  5
13A
  8
PCB
  6
CONTINUOUS
 10
21.001
 20
24.395
 30
0.0
 42
0.2818596019951021
  0
SEQEND
  5
13B
  8
PCB
  6
CONTINUOUS
  0
POLYLINE
  5
13C
  8
PCB
 66
     1
 10
0.0
 20
0.0
 30
0.0
 70
     1
  0
VERTEX
  5
13D
  8
PCB
 10
45.50800000000001
 20
18.34597459621557
 30
0.0
 42
0.2818609678859018
  0
VERTEX
  5
13E
  8
PCB
 10
46.00666195954902
 20
19.26371354319458
 30
0.0
  0
VERTEX
  5
13F
  8
PCB
 10
46.00666193247173
 20
19.72928593390725
 30
0.0
 42
0.2818611091850041
  0
VERTEX
  5
140
  8
PCB
 10
45.50800000000002
 20
20.64702540378444
 30
0.0
  0
VERTEX
  5
141
  8
PCB
 10
40.91900000000001
 20
23.29602540378444
 30
0.0
 42
0.4865338578617719
  0
VERTEX
  5
142
  8
PCB
 10
39.45895634586997
 20
22.70941777969243
 30
0.0
 42
0.1425329918961119
  0
VERTEX
  5
143
  8
PCB
 10
39.45895634586998
 20
16.28258222030758
 30
0.0
 42
0.4865338578617813
  0
VERTEX
  5
144
  8
PCB
 10
40.91900000000001
 20
15.69597459621555
 30
0.0
  0
SEQEND
  5
145
  8
PCB
  0
POLYLINE
  5
146
  8
PCB
 66
     1
 10
0.0
 20
0.0
 30
0.0
 70
     1
  0
VERTEX
  5
147
  8
PCB
 10
11.419
 20
13.09802540378443
 30
0.0
 42
0.4865571367749205
  0
VERTEX
  5
148
  8
PCB
 10
11.19703601010052
 20
11.54015263615021
 30
0.0
 42
0.1425514238419433
  0
VERTEX
  5
149
  8
PCB
 10
16.76292033576945
 20
8.326734856457803
 30
0.0
 42
0.4865023727645842
  0
VERTEX
  5
14A
  8
PCB
 10
18.00099999999995
 20
9.298000276016836
 30
0.0
  0
VERTEX
  5
14B
  8
PCB
 10
18.001
 20
14.59699999999999
 30
0.0
 42
0.2818610149855995
  0
VERTEX
  5
14C
  8
PCB
 10
17.45554558218773
 20
15.48772347769305
 30
0.0
  0
VERTEX
  5
14D
  8
PCB
 10
17.052117832683
 20
15.7210088105356
 30
0.0
 42
0.2818614859826716
  0
VERTEX
  5
14E
  8
PCB
 10
16.008
 20
15.74802540378444
 30
0.0
  0
SEQEND
  5
14F
  8
PCB
  0
POLYLINE
  5
150
  8
PCB
 66
     1
 10
0.0
 20
0.0
 30
0.0
 70
     1
  0
VERTEX
  5
151
  8
PCB
 10
14.50800000000001
 20
18.34597459621557
 30
0.0
 42
0.2818609678859009
  0
VERTEX
  5
152
  8
PCB
 10
15.006661959549
 20
19.2637135431946
 30
0.0
  0
VERTEX
  5
153
  8
PCB
 10
15.00666193247173
 20
19.72928593390725
 30
0.0
 42
0.2818611091849991
  0
VERTEX
  5
154
  8
PCB
 10
14.508
 20
20.64702540378444
 30
0.0
  0
VERTEX
  5
155
  8
PCB
 10
9.918999999999997
 20
23.29602540378444
 30
0.0
 42
0.4865338578617661
  0
VERTEX
  5
156
  8
PCB
 10
8.458956345869979
 20
22.70941777969243
 30
0.0
 42
0.1425329918961105
  0
VERTEX
  5
157
  8
PCB
 10
8.45895634586998
 20
16.28258222030758
 30
0.0
 42
0.4865338578617824
  0
VERTEX
  5
158
  8
PCB
 10
9.918999999999997
 20
15.69597459621555
 30
0.0
  0
SEQEND
  5
159
  8
PCB
  0
POLYLINE
  5
15A
  8
PCB
 66
     1
 10
0.0
 20
0.0
 30
0.0
 70
     1
  0
VERTEX
  5
15B
  8
PCB
 10
30.54304670219494
 20
47.28299269410726
 30
0.0
 42
0.142532488539965
  0
VERTEX
  5
15C
  8
PCB
 10
30.54304694603864
 20
53.70980646798833
 30
0.0
 42
0.4865375004382549
  0
VERTEX
  5
15D
  8
PCB
 10
29.083
 20
54.29642540378444
 30
0.0
  0
VERTEX
  5
15E
  8
PCB
 10
24.494
 20
51.64682540378443
 30
0.0
 42
0.2818596019950977
  0
VERTEX
  5
15F
  8
PCB
 10
23.99533777871802
 20
50.72909151148848
 30
0.0
  0
VERTEX
  5
160
  8
PCB
 10
24.001
 20
50.49639999999999
 30
0.0
  0
VERTEX
  5
161
  8
PCB
 10
23.99533777871801
 20
50.26370848851153
 30
0.0
 42
0.281859601995088
  0
VERTEX
  5
162
  8
PCB
 10
24.494
 20
49.34597459621557
 30
0.0
  0
VERTEX
  5
163
  8
PCB
 10
29.083
 20
46.69637459621557
 30
0.0
 42
0.4865372306182426
  0
SEQEND
  5
164
  8
PCB
  0
POLYLINE
  5
165
  8
PCB
 66
     1
 10
0.0
 20
0.0
 30
0.0
 70
     1
  0
VERTEX
  5
166
  8
PCB
 10
42.41900000000001
 20
13.09802540378443
 30
0.0
 42
0.4865571367749039
  0
VERTEX
  5
167
  8
PCB
 10
42.19703601010053
 20
11.54015263615022
 30
0.0
 42
0.1425514238419423
  0
VERTEX
  5
168
  8
PCB
 10
47.76292033576946
 20
8.3267348564578
 30
0.0
 42
0.4865023727645832
  0
VERTEX
  5
169
  8
PCB
 10
49.00099999999995
 20
9.298000276016836
 30
0.0
  0
VERTEX
  5
16A
  8
PCB
 10
49.001
 20
14.59699999999999
 30
0.0
 42
0.2818610149856003
  0
VERTEX
  5
16B
  8
PCB
 10
48.45554558218773
 20
15.48772347769305
 30
0.0
  0
VERTEX
  5
16C
  8
PCB
 10
48.052117832683
 20
15.72100881053561
 30
0.0
 42
0.2818614859826696
  0
VERTEX
  5
16D
  8
PCB
 10
47.008
 20
15.74802540378444
 30
0.0
  0
SEQEND
  5
16E
  8
PCB
  0
POLYLINE
  5
16F
  8
PCB
 66
     1
 10
0.0
 20
0.0
 30
0.0
 70
     1
  0
VERTEX
  5
170
  8
PCB
 10
61.54304670219494
 20
47.28299269410726
 30
0.0
 42
0.1425324885399646
  0
VERTEX
  5
171
  8
PCB
 10
61.54304694603866
 20
53.70980646798833
 30
0.0
 42
0.4865375004382561
  0
VERTEX
  5
172
  8
PCB
 10
60.083
 20
54.29642540378444
 30
0.0
  0
VERTEX
  5
173
  8
PCB
 10
55.494
 20
51.64682540378443
 30
0.0
 42
0.2818596019950985
  0
VERTEX
  5
174
  8
PCB
 10
54.99533777871802
 20
50.72909151148848
 30
0.0
  0
VERTEX
  5
175
  8
PCB
 10
55.001
 20
50.49639999999999
 30
0.0
  0
VERTEX
  5
176
  8
PCB
 10
54.99533777871802
 20
50.26370848851153
 30
0.0
 42
0.2818596019950859
  0
VERTEX
  5
177
  8
PCB
 10
55.494
 20
49.34597459621557
 30
0.0
  0
VERTEX
  5
178
  8
PCB
 10
60.083
 20
46.69637459621556
 30
0.0
 42
0.4865372306182289
  0
SEQEND
  5
179
  8
PCB
  0
POLYLINE
  5
17A
  8
PCB
 66
     1
 10
0.0
 20
0.0
 30
0.0
 70
     1
  0
VERTEX
  5
17B
  8
PCB
 10
11.419
 20
44.09832540378443
 30
0.0
 42
0.4865543652332549
  0
VERTEX
  5
17C
  8
PCB
 10
11.19703601010052
 20
42.54050263615022
 30
0.0
 42
0.1425479866447319
  0
VERTEX
  5
17D
  8
PCB
 10
16.76292033576944
 20
39.32713485645778
 30
0.0
 42
0.4865023727645872
  0
VERTEX
  5
17E
  8
PCB
 10
18.00099999999995
 20
40.29840027601684
 30
0.0
  0
VERTEX
  5
17F
  8
PCB
 10
18.00100000000001
 20
45.59739999999999
 30
0.0
 42
0.2818610149855985
  0
VERTEX
  5
180
  8
PCB
 10
17.45554558218773
 20
46.48812347769305
 30
0.0
  0
VERTEX
  5
181
  8
PCB
 10
17.052117832683
 20
46.7208088105356
 30
0.0
 42
0.2818614859826707
  0
VERTEX
  5
182
  8
PCB
 10
16.008
 20
46.74782540378443
 30
0.0
  0
SEQEND
  5
183
  8
PCB
  0
POLYLINE
  5
184
  8
PCB
 66
     1
 10
0.0
 20
0.0
 30
0.0
 70
     1
  0
VERTEX
  5
185
  8
PCB
 10
53.994
 20
15.74802540378444
 30
0.0
 42
0.2818596019950952
  0
VERTEX
  5
186
  8
PCB
 10
52.94988802471674
 20
15.72101260917424
 30
0.0
  0
VERTEX
  5
187
  8
PCB
 10
52.54645020855153
 20
15.48772020696464
 30
0.0
 42
0.2818596019950979
  0
VERTEX
  5
188
  8
PCB
 10
52.001001
 20
14.59699999999999
 30
0.0
  0
VERTEX
  5
189
  8
PCB
 10
52.001
 20
9.298000000000002
 30
0.0
 42
0.4865084929293014
  0
VERTEX
  5
18A
  8
PCB
 10
53.23909915830705
 20
8.326739635319544
 30
0.0
 42
0.1425505522219166
  0
VERTEX
  5
18B
  8
PCB
 10
58.80494913948553
 20
11.54013785899593
 30
0.0
 42
0.4865634906259493
  0
VERTEX
  5
18C
  8
PCB
 10
58.58299949999997
 20
13.09802453775904
 30
0.0
  0
SEQEND
  5
18D
  8
PCB
  0
POLYLINE
  5
18E
  8
PCB
 66
     1
 10
0.0
 20
0.0
 30
0.0
 70
     1
  0
VERTEX
  5
18F
  8
PCB
 10
61.54304670219491
 20
16.28259269410725
 30
0.0
 42
0.1425324885399636
  0
VERTEX
  5
190
  8
PCB
 10
61.54304694603865
 20
22.70940646798833
 30
0.0
 42
0.4865375004382467
  0
VERTEX
  5
191
  8
PCB
 10
60.083
 20
23.29602540378444
 30
0.0
  0
VERTEX
  5
192
  8
PCB
 10
55.494
 20
20.64702540378444
 30
0.0
 42
0.2818596019950972
  0
VERTEX
  5
193
  8
PCB
 10
54.99533777871802
 20
19.72929151148849
 30
0.0
  0
VERTEX
  5
194
  8
PCB
 10
55.001
 20
19.496
 30
0.0
  0
VERTEX
  5
195
  8
PCB
 10
54.99533777871802
 20
19.26370848851153
 30
0.0
 42
0.2818596019950861
  0
VERTEX
  5
196
  8
PCB
 10
55.494
 20
18.34597459621557
 30
0.0
  0
VERTEX
  5
197
  8
PCB
 10
60.083
 20
15.69597459621556
 30
0.0
 42
0.4865372306182493
  0
SEQEND
  5
198
  8
PCB
  0
POLYLINE
  5
199
  8
PCB
  6
CONTINUOUS
 66
     1
 10
0.0
 20
0.0
 30
0.0
 70
     1
  0
VERTEX
  5
19A
  8
PCB
  6
CONTINUOUS
 10
47.76290725372311
 20
30.66524242296676
 30
0.0
  0
VERTEX
  5
19B
  8
PCB
  6
CONTINUOUS
 10
47.387
 20
30.56699999999999
 30
0.0
  0
VERTEX
  5
19C
  8
PCB
  6
CONTINUOUS
 10
47.012
 20
30.45399999999999
 30
0.0
  0
VERTEX
  5
19D
  8
PCB
  6
CONTINUOUS
 10
46.637
 20
30.328
 30
0.0
  0
VERTEX
  5
19E
  8
PCB
  6
CONTINUOUS
 10
46.26400000000001
 20
30.187
 30
0.0
  0
VERTEX
  5
19F
  8
PCB
  6
CONTINUOUS
 10
45.89400000000001
 20
30.033
 30
0.0
  0
VERTEX
  5
1A0
  8
PCB
  6
CONTINUOUS
 10
45.709
 20
29.95099999999999
 30
0.0
  0
VERTEX
  5
1A1
  8
PCB
  6
CONTINUOUS
 10
45.52600000000001
 20
29.86499999999999
 30
0.0
  0
VERTEX
  5
1A2
  8
PCB
  6
CONTINUOUS
 10
45.34399999999999
 20
29.77500000000001
 30
0.0
  0
VERTEX
  5
1A3
  8
PCB
  6
CONTINUOUS
 10
45.16300000000001
 20
29.682
 30
0.0
  0
VERTEX
  5
1A4
  8
PCB
  6
CONTINUOUS
 10
44.983
 20
29.586
 30
0.0
  0
VERTEX
  5
1A5
  8
PCB
  6
CONTINUOUS
 10
44.804
 20
29.486
 30
0.0
  0
VERTEX
  5
1A6
  8
PCB
  6
CONTINUOUS
 10
44.62700000000001
 20
29.383
 30
0.0
  0
VERTEX
  5
1A7
  8
PCB
  6
CONTINUOUS
 10
44.45099999999999
 20
29.277
 30
0.0
  0
VERTEX
  5
1A8
  8
PCB
  6
CONTINUOUS
 10
44.27699999999999
 20
29.167
 30
0.0
  0
VERTEX
  5
1A9
  8
PCB
  6
CONTINUOUS
 10
44.10499999999999
 20
29.053
 30
0.0
  0
VERTEX
  5
1AA
  8
PCB
  6
CONTINUOUS
 10
43.934
 20
28.937
 30
0.0
  0
VERTEX
  5
1AB
  8
PCB
  6
CONTINUOUS
 10
43.76499999999999
 20
28.81699999999999
 30
0.0
  0
VERTEX
  5
1AC
  8
PCB
  6
CONTINUOUS
 10
43.59800000000001
 20
28.694
 30
0.0
  0
VERTEX
  5
1AD
  8
PCB
  6
CONTINUOUS
 10
43.43299999999999
 20
28.568
 30
0.0
  0
VERTEX
  5
1AE
  8
PCB
  6
CONTINUOUS
 10
43.27000000000001
 20
28.43899999999999
 30
0.0
  0
VERTEX
  5
1AF
  8
PCB
  6
CONTINUOUS
 10
43.11000000000001
 20
28.307
 30
0.0
  0
VERTEX
  5
1B0
  8
PCB
  6
CONTINUOUS
 10
42.952
 20
28.17100000000001
 30
0.0
  0
VERTEX
  5
1B1
  8
PCB
  6
CONTINUOUS
 10
42.79599999999999
 20
28.033
 30
0.0
  0
VERTEX
  5
1B2
  8
PCB
  6
CONTINUOUS
 10
42.642
 20
27.892
 30
0.0
  0
VERTEX
  5
1B3
  8
PCB
  6
CONTINUOUS
 10
42.49100000000001
 20
27.748
 30
0.0
  0
VERTEX
  5
1B4
  8
PCB
  6
CONTINUOUS
 10
42.34299999999999
 20
27.602
 30
0.0
  0
VERTEX
  5
1B5
  8
PCB
  6
CONTINUOUS
 10
42.197
 20
27.452
 30
0.0
  0
VERTEX
  5
1B6
  8
PCB
  6
CONTINUOUS
 10
42.179
 20
27.432
 30
0.0
  0
VERTEX
  5
1B7
  8
PCB
  6
CONTINUOUS
 10
42.16
 20
27.41200000000001
 30
0.0
  0
VERTEX
  5
1B8
  8
PCB
  6
CONTINUOUS
 10
42.143
 20
27.39
 30
0.0
  0
VERTEX
  5
1B9
  8
PCB
  6
CONTINUOUS
 10
42.125
 20
27.36799999999999
 30
0.0
  0
VERTEX
  5
1BA
  8
PCB
  6
CONTINUOUS
 10
42.10900000000001
 20
27.346
 30
0.0
  0
VERTEX
  5
1BB
  8
PCB
  6
CONTINUOUS
 10
42.09200000000001
 20
27.32299999999999
 30
0.0
  0
VERTEX
  5
1BC
  8
PCB
  6
CONTINUOUS
 10
42.06200000000001
 20
27.27500000000001
 30
0.0
  0
VERTEX
  5
1BD
  8
PCB
  6
CONTINUOUS
 10
42.048
 20
27.25
 30
0.0
  0
VERTEX
  5
1BE
  8
PCB
  6
CONTINUOUS
 10
42.03399999999999
 20
27.22499999999999
 30
0.0
  0
VERTEX
  5
1BF
  8
PCB
  6
CONTINUOUS
 10
42.02099999999999
 20
27.2
 30
0.0
  0
VERTEX
  5
1C0
  8
PCB
  6
CONTINUOUS
 10
41.99700000000001
 20
27.148
 30
0.0
  0
VERTEX
  5
1C1
  8
PCB
  6
CONTINUOUS
 10
41.96700000000001
 20
27.06699999999999
 30
0.0
  0
VERTEX
  5
1C2
  8
PCB
  6
CONTINUOUS
 10
41.95099999999999
 20
27.011
 30
0.0
  0
VERTEX
  5
1C3
  8
PCB
  6
CONTINUOUS
 10
41.93299999999999
 20
26.92700000000001
 30
0.0
  0
VERTEX
  5
1C4
  8
PCB
  6
CONTINUOUS
 10
41.929
 20
26.899
 30
0.0
  0
VERTEX
  5
1C5
  8
PCB
  6
CONTINUOUS
 10
41.92500000000001
 20
26.871
 30
0.0
  0
VERTEX
  5
1C6
  8
PCB
  6
CONTINUOUS
 10
41.923
 20
26.842
 30
0.0
  0
VERTEX
  5
1C7
  8
PCB
  6
CONTINUOUS
 10
41.92099999999999
 20
26.81399999999999
 30
0.0
  0
VERTEX
  5
1C8
  8
PCB
  6
CONTINUOUS
 10
41.91900000000001
 20
26.758
 30
0.0
  0
VERTEX
  5
1C9
  8
PCB
  6
CONTINUOUS
 10
41.92099999999999
 20
26.702
 30
0.0
  0
VERTEX
  5
1CA
  8
PCB
  6
CONTINUOUS
 10
41.923
 20
26.67400000000001
 30
0.0
  0
VERTEX
  5
1CB
  8
PCB
  6
CONTINUOUS
 10
41.92599999999999
 20
26.64700000000001
 30
0.0
  0
VERTEX
  5
1CC
  8
PCB
  6
CONTINUOUS
 10
41.929
 20
26.619
 30
0.0
  0
VERTEX
  5
1CD
  8
PCB
  6
CONTINUOUS
 10
41.934
 20
26.592
 30
0.0
  0
VERTEX
  5
1CE
  8
PCB
  6
CONTINUOUS
 10
41.93899999999999
 20
26.565
 30
0.0
  0
VERTEX
  5
1CF
  8
PCB
  6
CONTINUOUS
 10
41.94399999999999
 20
26.538
 30
0.0
  0
VERTEX
  5
1D0
  8
PCB
  6
CONTINUOUS
 10
41.958
 20
26.48399999999999
 30
0.0
  0
VERTEX
  5
1D1
  8
PCB
  6
CONTINUOUS
 10
41.96700000000001
 20
26.45699999999999
 30
0.0
  0
VERTEX
  5
1D2
  8
PCB
  6
CONTINUOUS
 10
41.97499999999999
 20
26.43000000000001
 30
0.0
  0
VERTEX
  5
1D3
  8
PCB
  6
CONTINUOUS
 10
41.98500000000001
 20
26.40300000000001
 30
0.0
  0
VERTEX
  5
1D4
  8
PCB
  6
CONTINUOUS
 10
42.00700000000001
 20
26.351
 30
0.0
  0
VERTEX
  5
1D5
  8
PCB
  6
CONTINUOUS
 10
42.01900000000001
 20
26.325
 30
0.0
  0
VERTEX
  5
1D6
  8
PCB
  6
CONTINUOUS
 10
42.03200000000001
 20
26.29900000000001
 30
0.0
  0
VERTEX
  5
1D7
  8
PCB
  6
CONTINUOUS
 10
42.04599999999999
 20
26.274
 30
0.0
  0
VERTEX
  5
1D8
  8
PCB
  6
CONTINUOUS
 10
42.06
 20
26.249
 30
0.0
  0
VERTEX
  5
1D9
  8
PCB
  6
CONTINUOUS
 10
42.07499999999999
 20
26.22499999999999
 30
0.0
  0
VERTEX
  5
1DA
  8
PCB
  6
CONTINUOUS
 10
42.09100000000001
 20
26.2
 30
0.0
  0
VERTEX
  5
1DB
  8
PCB
  6
CONTINUOUS
 10
42.107
 20
26.17700000000001
 30
0.0
  0
VERTEX
  5
1DC
  8
PCB
  6
CONTINUOUS
 10
42.124
 20
26.154
 30
0.0
  0
VERTEX
  5
1DD
  8
PCB
  6
CONTINUOUS
 10
42.142
 20
26.131
 30
0.0
  0
VERTEX
  5
1DE
  8
PCB
  6
CONTINUOUS
 10
42.161
 20
26.10899999999999
 30
0.0
  0
VERTEX
  5
1DF
  8
PCB
  6
CONTINUOUS
 10
42.18000000000001
 20
26.08799999999999
 30
0.0
  0
VERTEX
  5
1E0
  8
PCB
  6
CONTINUOUS
 10
42.19900000000001
 20
26.06699999999999
 30
0.0
  0
VERTEX
  5
1E1
  8
PCB
  6
CONTINUOUS
 10
42.21899999999999
 20
26.04600000000001
 30
0.0
  0
VERTEX
  5
1E2
  8
PCB
  6
CONTINUOUS
 10
42.261
 20
26.008
 30
0.0
  0
VERTEX
  5
1E3
  8
PCB
  6
CONTINUOUS
 10
42.28200000000001
 20
25.98999999999999
 30
0.0
  0
VERTEX
  5
1E4
  8
PCB
  6
CONTINUOUS
 10
42.304
 20
25.97199999999999
 30
0.0
  0
VERTEX
  5
1E5
  8
PCB
  6
CONTINUOUS
 10
42.327
 20
25.955
 30
0.0
  0
VERTEX
  5
1E6
  8
PCB
  6
CONTINUOUS
 10
42.34899999999999
 20
25.93899999999999
 30
0.0
  0
VERTEX
  5
1E7
  8
PCB
  6
CONTINUOUS
 10
42.37200000000001
 20
25.923
 30
0.0
  0
VERTEX
  5
1E8
  8
PCB
  6
CONTINUOUS
 10
42.39599999999999
 20
25.908
 30
0.0
  0
VERTEX
  5
1E9
  8
PCB
  6
CONTINUOUS
 10
42.41900000000001
 20
25.89400000000001
 30
0.0
  0
VERTEX
  5
1EA
  8
PCB
  6
CONTINUOUS
 10
47.00800000000001
 20
23.24497459621557
 30
0.0
 42
0.2818610149856034
  0
VERTEX
  5
1EB
  8
PCB
  6
CONTINUOUS
 10
48.05211636833555
 20
23.27199023980091
 30
0.0
  0
VERTEX
  5
1EC
  8
PCB
  6
CONTINUOUS
 10
48.45554512764215
 20
23.50427741303041
 30
0.0
 42
0.2818609723086993
  0
VERTEX
  5
1ED
  8
PCB
  6
CONTINUOUS
 10
49.00099899999999
 20
24.3949998418564
 30
0.0
  0
VERTEX
  5
1EE
  8
PCB
  6
CONTINUOUS
 10
49.001
 20
29.694
 30
0.0
 42
0.4865124848358511
  0
SEQEND
  5
1EF
  8
PCB
  6
CONTINUOUS
  0
POLYLINE
  5
1F0
  8
PCB
 66
     1
 10
0.0
 20
0.0
 30
0.0
 70
     1
  0
VERTEX
  5
1F1
  8
PCB
 10
30.54304670219491
 20
16.28259269410725
 30
0.0
 42
0.1425324885399628
  0
VERTEX
  5
1F2
  8
PCB
 10
30.54304694603865
 20
22.70940646798833
 30
0.0
 42
0.4865375004382508
  0
VERTEX
  5
1F3
  8
PCB
 10
29.083
 20
23.29602540378444
 30
0.0
  0
VERTEX
  5
1F4
  8
PCB
 10
24.494
 20
20.64702540378444
 30
0.0
 42
0.2818596019950979
  0
VERTEX
  5
1F5
  8
PCB
 10
23.99533777871802
 20
19.72929151148849
 30
0.0
  0
VERTEX
  5
1F6
  8
PCB
 10
24.001
 20
19.496
 30
0.0
  0
VERTEX
  5
1F7
  8
PCB
 10
23.99533777871801
 20
19.26370848851153
 30
0.0
 42
0.2818596019950897
  0
VERTEX
  5
1F8
  8
PCB
 10
24.494
 20
18.34597459621557
 30
0.0
  0
VERTEX
  5
1F9
  8
PCB
 10
29.083
 20
15.69597459621556
 30
0.0
 42
0.4865372306182493
  0
SEQEND
  5
1FA
  8
PCB
  0
POLYLINE
  5
1FB
  8
PCB
 66
     1
 10
0.0
 20
0.0
 30
0.0
 70
     1
  0
VERTEX
  5
1FC
  8
PCB
 10
22.994
 20
15.74802540378444
 30
0.0
 42
0.281859601995095
  0
VERTEX
  5
1FD
  8
PCB
 10
21.94988802471675
 20
15.72101260917424
 30
0.0
  0
VERTEX
  5
1FE
  8
PCB
 10
21.54645020855153
 20
15.48772020696464
 30
0.0
 42
0.2818596019950979
  0
VERTEX
  5
1FF
  8
PCB
 10
21.001001
 20
14.59699999999999
 30
0.0
  0
VERTEX
  5
200
  8
PCB
 10
21.001
 20
9.298000000000002
 30
0.0
 42
0.4865084929292877
  0
VERTEX
  5
201
  8
PCB
 10
22.23909915830706
 20
8.326739635319507
 30
0.0
 42
0.1425505522219143
  0
VERTEX
  5
202
  8
PCB
 10
27.80494913948553
 20
11.54013785899593
 30
0.0
 42
0.4865634906259533
  0
VERTEX
  5
203
  8
PCB
 10
27.58299949999997
 20
13.09802453775904
 30
0.0
  0
SEQEND
  5
204
  8
PCB
  0
POLYLINE
  5
205
  8
PCB
  6
CONTINUOUS
 66
     1
 10
0.0
 20
0.0
 30
0.0
 70
     1
  0
VERTEX
  5
206
  8
PCB
  6
CONTINUOUS
 10
16.76290725372311
 20
30.66524242296676
 30
0.0
  0
VERTEX
  5
207
  8
PCB
  6
CONTINUOUS
 10
16.387
 20
30.56699999999999
 30
0.0
  0
VERTEX
  5
208
  8
PCB
  6
CONTINUOUS
 10
16.012
 20
30.45399999999999
 30
0.0
  0
VERTEX
  5
209
  8
PCB
  6
CONTINUOUS
 10
15.637
 20
30.328
 30
0.0
  0
VERTEX
  5
20A
  8
PCB
  6
CONTINUOUS
 10
15.26400000000001
 20
30.187
 30
0.0
  0
VERTEX
  5
20B
  8
PCB
  6
CONTINUOUS
 10
14.89400000000001
 20
30.033
 30
0.0
  0
VERTEX
  5
20C
  8
PCB
  6
CONTINUOUS
 10
14.709
 20
29.95099999999999
 30
0.0
  0
VERTEX
  5
20D
  8
PCB
  6
CONTINUOUS
 10
14.52600000000001
 20
29.86499999999999
 30
0.0
  0
VERTEX
  5
20E
  8
PCB
  6
CONTINUOUS
 10
14.34399999999999
 20
29.77500000000001
 30
0.0
  0
VERTEX
  5
20F
  8
PCB
  6
CONTINUOUS
 10
14.163
 20
29.682
 30
0.0
  0
VERTEX
  5
210
  8
PCB
  6
CONTINUOUS
 10
13.983
 20
29.586
 30
0.0
  0
VERTEX
  5
211
  8
PCB
  6
CONTINUOUS
 10
13.804
 20
29.486
 30
0.0
  0
VERTEX
  5
212
  8
PCB
  6
CONTINUOUS
 10
13.627
 20
29.383
 30
0.0
  0
VERTEX
  5
213
  8
PCB
  6
CONTINUOUS
 10
13.45099999999999
 20
29.277
 30
0.0
  0
VERTEX
  5
214
  8
PCB
  6
CONTINUOUS
 10
13.277
 20
29.167
 30
0.0
  0
VERTEX
  5
215
  8
PCB
  6
CONTINUOUS
 10
13.105
 20
29.053
 30
0.0
  0
VERTEX
  5
216
  8
PCB
  6
CONTINUOUS
 10
12.934
 20
28.937
 30
0.0
  0
VERTEX
  5
217
  8
PCB
  6
CONTINUOUS
 10
12.765
 20
28.81699999999999
 30
0.0
  0
VERTEX
  5
218
  8
PCB
  6
CONTINUOUS
 10
12.598
 20
28.694
 30
0.0
  0
VERTEX
  5
219
  8
PCB
  6
CONTINUOUS
 10
12.43300000000001
 20
28.568
 30
0.0
  0
VERTEX
  5
21A
  8
PCB
  6
CONTINUOUS
 10
12.27
 20
28.43899999999999
 30
0.0
  0
VERTEX
  5
21B
  8
PCB
  6
CONTINUOUS
 10
12.11
 20
28.307
 30
0.0
  0
VERTEX
  5
21C
  8
PCB
  6
CONTINUOUS
 10
11.952
 20
28.17100000000001
 30
0.0
  0
VERTEX
  5
21D
  8
PCB
  6
CONTINUOUS
 10
11.79600000000001
 20
28.033
 30
0.0
  0
VERTEX
  5
21E
  8
PCB
  6
CONTINUOUS
 10
11.642
 20
27.892
 30
0.0
  0
VERTEX
  5
21F
  8
PCB
  6
CONTINUOUS
 10
11.491
 20
27.748
 30
0.0
  0
VERTEX
  5
220
  8
PCB
  6
CONTINUOUS
 10
11.343
 20
27.602
 30
0.0
  0
VERTEX
  5
221
  8
PCB
  6
CONTINUOUS
 10
11.197
 20
27.452
 30
0.0
  0
VERTEX
  5
222
  8
PCB
  6
CONTINUOUS
 10
11.179
 20
27.432
 30
0.0
  0
VERTEX
  5
223
  8
PCB
  6
CONTINUOUS
 10
11.16
 20
27.41200000000001
 30
0.0
  0
VERTEX
  5
224
  8
PCB
  6
CONTINUOUS
 10
11.143
 20
27.39
 30
0.0
  0
VERTEX
  5
225
  8
PCB
  6
CONTINUOUS
 10
11.125
 20
27.36799999999999
 30
0.0
  0
VERTEX
  5
226
  8
PCB
  6
CONTINUOUS
 10
11.10899999999999
 20
27.346
 30
0.0
  0
VERTEX
  5
227
  8
PCB
  6
CONTINUOUS
 10
11.092
 20
27.32299999999999
 30
0.0
  0
VERTEX
  5
228
  8
PCB
  6
CONTINUOUS
 10
11.062
 20
27.27500000000001
 30
0.0
  0
VERTEX
  5
229
  8
PCB
  6
CONTINUOUS
 10
11.03400000000001
 20
27.22499999999999
 30
0.0
  0
VERTEX
  5
22A
  8
PCB
  6
CONTINUOUS
 10
11.021
 20
27.2
 30
0.0
  0
VERTEX
  5
22B
  8
PCB
  6
CONTINUOUS
 10
10.997
 20
27.148
 30
0.0
  0
VERTEX
  5
22C
  8
PCB
  6
CONTINUOUS
 10
10.967
 20
27.06699999999999
 30
0.0
  0
VERTEX
  5
22D
  8
PCB
  6
CONTINUOUS
 10
10.95099999999999
 20
27.011
 30
0.0
  0
VERTEX
  5
22E
  8
PCB
  6
CONTINUOUS
 10
10.93300000000001
 20
26.92700000000001
 30
0.0
  0
VERTEX
  5
22F
  8
PCB
  6
CONTINUOUS
 10
10.925
 20
26.871
 30
0.0
  0
VERTEX
  5
230
  8
PCB
  6
CONTINUOUS
 10
10.923
 20
26.842
 30
0.0
  0
VERTEX
  5
231
  8
PCB
  6
CONTINUOUS
 10
10.92100000000001
 20
26.81399999999999
 30
0.0
  0
VERTEX
  5
232
  8
PCB
  6
CONTINUOUS
 10
10.92
 20
26.786
 30
0.0
  0
VERTEX
  5
233
  8
PCB
  6
CONTINUOUS
 10
10.919
 20
26.758
 30
0.0
  0
VERTEX
  5
234
  8
PCB
  6
CONTINUOUS
 10
10.92
 20
26.73
 30
0.0
  0
VERTEX
  5
235
  8
PCB
  6
CONTINUOUS
 10
10.92100000000001
 20
26.702
 30
0.0
  0
VERTEX
  5
236
  8
PCB
  6
CONTINUOUS
 10
10.923
 20
26.67400000000001
 30
0.0
  0
VERTEX
  5
237
  8
PCB
  6
CONTINUOUS
 10
10.926
 20
26.64700000000001
 30
0.0
  0
VERTEX
  5
238
  8
PCB
  6
CONTINUOUS
 10
10.929
 20
26.619
 30
0.0
  0
VERTEX
  5
239
  8
PCB
  6
CONTINUOUS
 10
10.934
 20
26.592
 30
0.0
  0
VERTEX
  5
23A
  8
PCB
  6
CONTINUOUS
 10
10.944
 20
26.538
 30
0.0
  0
VERTEX
  5
23B
  8
PCB
  6
CONTINUOUS
 10
10.958
 20
26.48399999999999
 30
0.0
  0
VERTEX
  5
23C
  8
PCB
  6
CONTINUOUS
 10
10.967
 20
26.45699999999999
 30
0.0
  0
VERTEX
  5
23D
  8
PCB
  6
CONTINUOUS
 10
10.97499999999999
 20
26.43000000000001
 30
0.0
  0
VERTEX
  5
23E
  8
PCB
  6
CONTINUOUS
 10
10.985
 20
26.40300000000001
 30
0.0
  0
VERTEX
  5
23F
  8
PCB
  6
CONTINUOUS
 10
11.00700000000001
 20
26.351
 30
0.0
  0
VERTEX
  5
240
  8
PCB
  6
CONTINUOUS
 10
11.01900000000001
 20
26.325
 30
0.0
  0
VERTEX
  5
241
  8
PCB
  6
CONTINUOUS
 10
11.032
 20
26.29900000000001
 30
0.0
  0
VERTEX
  5
242
  8
PCB
  6
CONTINUOUS
 10
11.04600000000001
 20
26.274
 30
0.0
  0
VERTEX
  5
243
  8
PCB
  6
CONTINUOUS
 10
11.06
 20
26.249
 30
0.0
  0
VERTEX
  5
244
  8
PCB
  6
CONTINUOUS
 10
11.075
 20
26.22499999999999
 30
0.0
  0
VERTEX
  5
245
  8
PCB
  6
CONTINUOUS
 10
11.09099999999999
 20
26.2
 30
0.0
  0
VERTEX
  5
246
  8
PCB
  6
CONTINUOUS
 10
11.107
 20
26.17700000000001
 30
0.0
  0
VERTEX
  5
247
  8
PCB
  6
CONTINUOUS
 10
11.124
 20
26.154
 30
0.0
  0
VERTEX
  5
248
  8
PCB
  6
CONTINUOUS
 10
11.142
 20
26.131
 30
0.0
  0
VERTEX
  5
249
  8
PCB
  6
CONTINUOUS
 10
11.161
 20
26.10899999999999
 30
0.0
  0
VERTEX
  5
24A
  8
PCB
  6
CONTINUOUS
 10
11.199
 20
26.06699999999999
 30
0.0
  0
VERTEX
  5
24B
  8
PCB
  6
CONTINUOUS
 10
11.21899999999999
 20
26.04600000000001
 30
0.0
  0
VERTEX
  5
24C
  8
PCB
  6
CONTINUOUS
 10
11.23999999999999
 20
26.027
 30
0.0
  0
VERTEX
  5
24D
  8
PCB
  6
CONTINUOUS
 10
11.261
 20
26.008
 30
0.0
  0
VERTEX
  5
24E
  8
PCB
  6
CONTINUOUS
 10
11.282
 20
25.98999999999999
 30
0.0
  0
VERTEX
  5
24F
  8
PCB
  6
CONTINUOUS
 10
11.304
 20
25.97199999999999
 30
0.0
  0
VERTEX
  5
250
  8
PCB
  6
CONTINUOUS
 10
11.327
 20
25.955
 30
0.0
  0
VERTEX
  5
251
  8
PCB
  6
CONTINUOUS
 10
11.349
 20
25.93899999999999
 30
0.0
  0
VERTEX
  5
252
  8
PCB
  6
CONTINUOUS
 10
11.372
 20
25.923
 30
0.0
  0
VERTEX
  5
253
  8
PCB
  6
CONTINUOUS
 10
11.396
 20
25.908
 30
0.0
  0
VERTEX
  5
254
  8
PCB
  6
CONTINUOUS
 10
11.419
 20
25.89400000000001
 30
0.0
  0
VERTEX
  5
255
  8
PCB
  6
CONTINUOUS
 10
16.00800000000001
 20
23.24497459621557
 30
0.0
 42
0.2818610149856037
  0
VERTEX
  5
256
  8
PCB
  6
CONTINUOUS
 10
17.05211636833556
 20
23.27199023980091
 30
0.0
  0
VERTEX
  5
257
  8
PCB
  6
CONTINUOUS
 10
17.45554512764215
 20
23.50427741303041
 30
0.0
 42
0.2818609723087001
  0
VERTEX
  5
258
  8
PCB
  6
CONTINUOUS
 10
18.00099899999999
 20
24.3949998418564
 30
0.0
  0
VERTEX
  5
259
  8
PCB
  6
CONTINUOUS
 10
18.001
 20
29.694
 30
0.0
 42
0.4865124848358502
  0
SEQEND
  5
25A
  8
PCB
  6
CONTINUOUS
  0
POLYLINE
  5
25B
  8
PCB
  6
CONTINUOUS
 66
     1
 10
0.0
 20
0.0
 30
0.0
 70
     1
  0
VERTEX
  5
25C
  8
PCB
  6
CONTINUOUS
 10
16.76290725372311
 20
61.66564242296676
 30
0.0
  0
VERTEX
  5
25D
  8
PCB
  6
CONTINUOUS
 10
16.387
 20
61.5668
 30
0.0
  0
VERTEX
  5
25E
  8
PCB
  6
CONTINUOUS
 10
16.012
 20
61.4542
 30
0.0
  0
VERTEX
  5
25F
  8
PCB
  6
CONTINUOUS
 10
15.637
 20
61.3278
 30
0.0
  0
VERTEX
  5
260
  8
PCB
  6
CONTINUOUS
 10
15.26400000000001
 20
61.1874
 30
0.0
  0
VERTEX
  5
261
  8
PCB
  6
CONTINUOUS
 10
14.89400000000001
 20
61.033
 30
0.0
  0
VERTEX
  5
262
  8
PCB
  6
CONTINUOUS
 10
14.709
 20
60.95059999999999
 30
0.0
  0
VERTEX
  5
263
  8
PCB
  6
CONTINUOUS
 10
14.52600000000001
 20
60.8647
 30
0.0
  0
VERTEX
  5
264
  8
PCB
  6
CONTINUOUS
 10
14.34399999999999
 20
60.7753
 30
0.0
  0
VERTEX
  5
265
  8
PCB
  6
CONTINUOUS
 10
14.163
 20
60.6824
 30
0.0
  0
VERTEX
  5
266
  8
PCB
  6
CONTINUOUS
 10
13.983
 20
60.5861
 30
0.0
  0
VERTEX
  5
267
  8
PCB
  6
CONTINUOUS
 10
13.804
 20
60.4863
 30
0.0
  0
VERTEX
  5
268
  8
PCB
  6
CONTINUOUS
 10
13.627
 20
60.3831
 30
0.0
  0
VERTEX
  5
269
  8
PCB
  6
CONTINUOUS
 10
13.45099999999999
 20
60.2766
 30
0.0
  0
VERTEX
  5
26A
  8
PCB
  6
CONTINUOUS
 10
13.277
 20
60.16670000000001
 30
0.0
  0
VERTEX
  5
26B
  8
PCB
  6
CONTINUOUS
 10
13.105
 20
60.0534
 30
0.0
  0
VERTEX
  5
26C
  8
PCB
  6
CONTINUOUS
 10
12.934
 20
59.93689999999999
 30
0.0
  0
VERTEX
  5
26D
  8
PCB
  6
CONTINUOUS
 10
12.765
 20
59.8171
 30
0.0
  0
VERTEX
  5
26E
  8
PCB
  6
CONTINUOUS
 10
12.598
 20
59.6942
 30
0.0
  0
VERTEX
  5
26F
  8
PCB
  6
CONTINUOUS
 10
12.43300000000001
 20
59.5681
 30
0.0
  0
VERTEX
  5
270
  8
PCB
  6
CONTINUOUS
 10
12.27
 20
59.4388
 30
0.0
  0
VERTEX
  5
271
  8
PCB
  6
CONTINUOUS
 10
12.11
 20
59.3066
 30
0.0
  0
VERTEX
  5
272
  8
PCB
  6
CONTINUOUS
 10
11.952
 20
59.1713
 30
0.0
  0
VERTEX
  5
273
  8
PCB
  6
CONTINUOUS
 10
11.79600000000001
 20
59.0331
 30
0.0
  0
VERTEX
  5
274
  8
PCB
  6
CONTINUOUS
 10
11.642
 20
58.892
 30
0.0
  0
VERTEX
  5
275
  8
PCB
  6
CONTINUOUS
 10
11.491
 20
58.7482
 30
0.0
  0
VERTEX
  5
276
  8
PCB
  6
CONTINUOUS
 10
11.343
 20
58.6016
 30
0.0
  0
VERTEX
  5
277
  8
PCB
  6
CONTINUOUS
 10
11.197
 20
58.45229999999999
 30
0.0
  0
VERTEX
  5
278
  8
PCB
  6
CONTINUOUS
 10
11.179
 20
58.43219999999999
 30
0.0
  0
VERTEX
  5
279
  8
PCB
  6
CONTINUOUS
 10
11.16
 20
58.4115
 30
0.0
  0
VERTEX
  5
27A
  8
PCB
  6
CONTINUOUS
 10
11.143
 20
58.39019999999999
 30
0.0
  0
VERTEX
  5
27B
  8
PCB
  6
CONTINUOUS
 10
11.125
 20
58.3683
 30
0.0
  0
VERTEX
  5
27C
  8
PCB
  6
CONTINUOUS
 10
11.10899999999999
 20
58.3458
 30
0.0
  0
VERTEX
  5
27D
  8
PCB
  6
CONTINUOUS
 10
11.092
 20
58.3228
 30
0.0
  0
VERTEX
  5
27E
  8
PCB
  6
CONTINUOUS
 10
11.077
 20
58.2992
 30
0.0
  0
VERTEX
  5
27F
  8
PCB
  6
CONTINUOUS
 10
11.062
 20
58.27509999999999
 30
0.0
  0
VERTEX
  5
280
  8
PCB
  6
CONTINUOUS
 10
11.048
 20
58.2505
 30
0.0
  0
VERTEX
  5
281
  8
PCB
  6
CONTINUOUS
 10
11.03400000000001
 20
58.22539999999999
 30
0.0
  0
VERTEX
  5
282
  8
PCB
  6
CONTINUOUS
 10
11.021
 20
58.1999
 30
0.0
  0
VERTEX
  5
283
  8
PCB
  6
CONTINUOUS
 10
11.009
 20
58.1739
 30
0.0
  0
VERTEX
  5
284
  8
PCB
  6
CONTINUOUS
 10
10.997
 20
58.1476
 30
0.0
  0
VERTEX
  5
285
  8
PCB
  6
CONTINUOUS
 10
10.98699999999999
 20
58.121
 30
0.0
  0
VERTEX
  5
286
  8
PCB
  6
CONTINUOUS
 10
10.977
 20
58.09399999999999
 30
0.0
  0
VERTEX
  5
287
  8
PCB
  6
CONTINUOUS
 10
10.967
 20
58.0667
 30
0.0
  0
VERTEX
  5
288
  8
PCB
  6
CONTINUOUS
 10
10.959
 20
58.03919999999999
 30
0.0
  0
VERTEX
  5
289
  8
PCB
  6
CONTINUOUS
 10
10.95099999999999
 20
58.01139999999999
 30
0.0
  0
VERTEX
  5
28A
  8
PCB
  6
CONTINUOUS
 10
10.94499999999999
 20
57.98350000000001
 30
0.0
  0
VERTEX
  5
28B
  8
PCB
  6
CONTINUOUS
 10
10.93899999999999
 20
57.9554
 30
0.0
  0
VERTEX
  5
28C
  8
PCB
  6
CONTINUOUS
 10
10.93300000000001
 20
57.9272
 30
0.0
  0
VERTEX
  5
28D
  8
PCB
  6
CONTINUOUS
 10
10.925
 20
57.8706
 30
0.0
  0
VERTEX
  5
28E
  8
PCB
  6
CONTINUOUS
 10
10.92100000000001
 20
57.81399999999999
 30
0.0
  0
VERTEX
  5
28F
  8
PCB
  6
CONTINUOUS
 10
10.92
 20
57.78570000000001
 30
0.0
  0
VERTEX
  5
290
  8
PCB
  6
CONTINUOUS
 10
10.919
 20
57.7576
 30
0.0
  0
VERTEX
  5
291
  8
PCB
  6
CONTINUOUS
 10
10.92
 20
57.7295
 30
0.0
  0
VERTEX
  5
292
  8
PCB
  6
CONTINUOUS
 10
10.92100000000001
 20
57.7017
 30
0.0
  0
VERTEX
  5
293
  8
PCB
  6
CONTINUOUS
 10
10.923
 20
57.67400000000001
 30
0.0
  0
VERTEX
  5
294
  8
PCB
  6
CONTINUOUS
 10
10.926
 20
57.64660000000001
 30
0.0
  0
VERTEX
  5
295
  8
PCB
  6
CONTINUOUS
 10
10.929
 20
57.6194
 30
0.0
  0
VERTEX
  5
296
  8
PCB
  6
CONTINUOUS
 10
10.934
 20
57.59229999999999
 30
0.0
  0
VERTEX
  5
297
  8
PCB
  6
CONTINUOUS
 10
10.93899999999999
 20
57.5651
 30
0.0
  0
VERTEX
  5
298
  8
PCB
  6
CONTINUOUS
 10
10.944
 20
57.538
 30
0.0
  0
VERTEX
  5
299
  8
PCB
  6
CONTINUOUS
 10
10.95099999999999
 20
57.51090000000001
 30
0.0
  0
VERTEX
  5
29A
  8
PCB
  6
CONTINUOUS
 10
10.958
 20
57.48390000000001
 30
0.0
  0
VERTEX
  5
29B
  8
PCB
  6
CONTINUOUS
 10
10.967
 20
57.4569
 30
0.0
  0
VERTEX
  5
29C
  8
PCB
  6
CONTINUOUS
 10
10.97499999999999
 20
57.4301
 30
0.0
  0
VERTEX
  5
29D
  8
PCB
  6
CONTINUOUS
 10
10.985
 20
57.40349999999999
 30
0.0
  0
VERTEX
  5
29E
  8
PCB
  6
CONTINUOUS
 10
10.996
 20
57.377
 30
0.0
  0
VERTEX
  5
29F
  8
PCB
  6
CONTINUOUS
 10
11.00700000000001
 20
57.35080000000001
 30
0.0
  0
VERTEX
  5
2A0
  8
PCB
  6
CONTINUOUS
 10
11.01900000000001
 20
57.3249
 30
0.0
  0
VERTEX
  5
2A1
  8
PCB
  6
CONTINUOUS
 10
11.032
 20
57.2993
 30
0.0
  0
VERTEX
  5
2A2
  8
PCB
  6
CONTINUOUS
 10
11.04600000000001
 20
57.274
 30
0.0
  0
VERTEX
  5
2A3
  8
PCB
  6
CONTINUOUS
 10
11.06
 20
57.2491
 30
0.0
  0
VERTEX
  5
2A4
  8
PCB
  6
CONTINUOUS
 10
11.075
 20
57.2246
 30
0.0
  0
VERTEX
  5
2A5
  8
PCB
  6
CONTINUOUS
 10
11.09099999999999
 20
57.20050000000001
 30
0.0
  0
VERTEX
  5
2A6
  8
PCB
  6
CONTINUOUS
 10
11.107
 20
57.1769
 30
0.0
  0
VERTEX
  5
2A7
  8
PCB
  6
CONTINUOUS
 10
11.124
 20
57.1537
 30
0.0
  0
VERTEX
  5
2A8
  8
PCB
  6
CONTINUOUS
 10
11.142
 20
57.1311
 30
0.0
  0
VERTEX
  5
2A9
  8
PCB
  6
CONTINUOUS
 10
11.161
 20
57.1091
 30
0.0
  0
VERTEX
  5
2AA
  8
PCB
  6
CONTINUOUS
 10
11.18000000000001
 20
57.08759999999999
 30
0.0
  0
VERTEX
  5
2AB
  8
PCB
  6
CONTINUOUS
 10
11.199
 20
57.0667
 30
0.0
  0
VERTEX
  5
2AC
  8
PCB
  6
CONTINUOUS
 10
11.21899999999999
 20
57.04640000000001
 30
0.0
  0
VERTEX
  5
2AD
  8
PCB
  6
CONTINUOUS
 10
11.23999999999999
 20
57.02679999999999
 30
0.0
  0
VERTEX
  5
2AE
  8
PCB
  6
CONTINUOUS
 10
11.261
 20
57.0078
 30
0.0
  0
VERTEX
  5
2AF
  8
PCB
  6
CONTINUOUS
 10
11.282
 20
56.98950000000001
 30
0.0
  0
VERTEX
  5
2B0
  8
PCB
  6
CONTINUOUS
 10
11.304
 20
56.97190000000001
 30
0.0
  0
VERTEX
  5
2B1
  8
PCB
  6
CONTINUOUS
 10
11.327
 20
56.955
 30
0.0
  0
VERTEX
  5
2B2
  8
PCB
  6
CONTINUOUS
 10
11.349
 20
56.9388
 30
0.0
  0
VERTEX
  5
2B3
  8
PCB
  6
CONTINUOUS
 10
11.372
 20
56.9233
 30
0.0
  0
VERTEX
  5
2B4
  8
PCB
  6
CONTINUOUS
 10
11.396
 20
56.9085
 30
0.0
  0
VERTEX
  5
2B5
  8
PCB
  6
CONTINUOUS
 10
11.419
 20
56.89449999999999
 30
0.0
  0
VERTEX
  5
2B6
  8
PCB
  6
CONTINUOUS
 10
16.00800000000001
 20
54.24497459621557
 30
0.0
 42
0.2818610149856037
  0
VERTEX
  5
2B7
  8
PCB
  6
CONTINUOUS
 10
17.05211636833556
 20
54.27199023980091
 30
0.0
  0
VERTEX
  5
2B8
  8
PCB
  6
CONTINUOUS
 10
17.45554512764215
 20
54.50467741303041
 30
0.0
 42
0.2818609723087039
  0
VERTEX
  5
2B9
  8
PCB
  6
CONTINUOUS
 10
18.00099899999999
 20
55.39539984185639
 30
0.0
  0
VERTEX
  5
2BA
  8
PCB
  6
CONTINUOUS
 10
18.001
 20
60.6944
 30
0.0
 42
0.4865124848358521
  0
SEQEND
  5
2BB
  8
PCB
  6
CONTINUOUS
  0
POLYLINE
  5
2BC
  8
PCB
 66
     1
 10
0.0
 20
0.0
 30
0.0
 70
     1
  0
VERTEX
  5
2BD
  8
PCB
 10
22.994
 20
46.74782540378443
 30
0.0
 42
0.2818596019950942
  0
VERTEX
  5
2BE
  8
PCB
 10
21.94988802471675
 20
46.72081260917423
 30
0.0
  0
VERTEX
  5
2BF
  8
PCB
 10
21.54645020855153
 20
46.48812020696464
 30
0.0
 42
0.2818596019950986
  0
VERTEX
  5
2C0
  8
PCB
 10
21.001001
 20
45.59739999999999
 30
0.0
  0
VERTEX
  5
2C1
  8
PCB
 10
21.001
 20
40.2984
 30
0.0
 42
0.4865084929292877
  0
VERTEX
  5
2C2
  8
PCB
 10
22.23909915830706
 20
39.3271396353195
 30
0.0
 42
0.1425471149721041
  0
VERTEX
  5
2C3
  8
PCB
 10
27.80494913948552
 20
42.54048785899592
 30
0.0
 42
0.4865607192909994
  0
VERTEX
  5
2C4
  8
PCB
 10
27.58299949999997
 20
44.09832453775904
 30
0.0
  0
SEQEND
  5
2C5
  8
PCB
  0
POLYLINE
  5
2C6
  8
PCB
  6
CONTINUOUS
 66
     1
 10
0.0
 20
0.0
 30
0.0
 70
     1
  0
VERTEX
  5
2C7
  8
PCB
  6
CONTINUOUS
 10
47.76290725372311
 20
61.66564242296676
 30
0.0
  0
VERTEX
  5
2C8
  8
PCB
  6
CONTINUOUS
 10
47.387
 20
61.5668
 30
0.0
  0
VERTEX
  5
2C9
  8
PCB
  6
CONTINUOUS
 10
47.012
 20
61.4542
 30
0.0
  0
VERTEX
  5
2CA
  8
PCB
  6
CONTINUOUS
 10
46.637
 20
61.3278
 30
0.0
  0
VERTEX
  5
2CB
  8
PCB
  6
CONTINUOUS
 10
46.26400000000001
 20
61.1874
 30
0.0
  0
VERTEX
  5
2CC
  8
PCB
  6
CONTINUOUS
 10
45.89400000000001
 20
61.033
 30
0.0
  0
VERTEX
  5
2CD
  8
PCB
  6
CONTINUOUS
 10
45.709
 20
60.95059999999999
 30
0.0
  0
VERTEX
  5
2CE
  8
PCB
  6
CONTINUOUS
 10
45.52600000000001
 20
60.8647
 30
0.0
  0
VERTEX
  5
2CF
  8
PCB
  6
CONTINUOUS
 10
45.34399999999999
 20
60.7753
 30
0.0
  0
VERTEX
  5
2D0
  8
PCB
  6
CONTINUOUS
 10
45.16300000000001
 20
60.6824
 30
0.0
  0
VERTEX
  5
2D1
  8
PCB
  6
CONTINUOUS
 10
44.983
 20
60.5861
 30
0.0
  0
VERTEX
  5
2D2
  8
PCB
  6
CONTINUOUS
 10
44.804
 20
60.4863
 30
0.0
  0
VERTEX
  5
2D3
  8
PCB
  6
CONTINUOUS
 10
44.62700000000001
 20
60.3831
 30
0.0
  0
VERTEX
  5
2D4
  8
PCB
  6
CONTINUOUS
 10
44.45099999999999
 20
60.2766
 30
0.0
  0
VERTEX
  5
2D5
  8
PCB
  6
CONTINUOUS
 10
44.27699999999999
 20
60.16670000000001
 30
0.0
  0
VERTEX
  5
2D6
  8
PCB
  6
CONTINUOUS
 10
44.10499999999999
 20
60.0534
 30
0.0
  0
VERTEX
  5
2D7
  8
PCB
  6
CONTINUOUS
 10
43.934
 20
59.93689999999999
 30
0.0
  0
VERTEX
  5
2D8
  8
PCB
  6
CONTINUOUS
 10
43.76499999999999
 20
59.8171
 30
0.0
  0
VERTEX
  5
2D9
  8
PCB
  6
CONTINUOUS
 10
43.59800000000001
 20
59.6942
 30
0.0
  0
VERTEX
  5
2DA
  8
PCB
  6
CONTINUOUS
 10
43.43299999999999
 20
59.5681
 30
0.0
  0
VERTEX
  5
2DB
  8
PCB
  6
CONTINUOUS
 10
43.27000000000001
 20
59.4388
 30
0.0
  0
VERTEX
  5
2DC
  8
PCB
  6
CONTINUOUS
 10
43.11000000000001
 20
59.3066
 30
0.0
  0
VERTEX
  5
2DD
  8
PCB
  6
CONTINUOUS
 10
42.952
 20
59.1713
 30
0.0
  0
VERTEX
  5
2DE
  8
PCB
  6
CONTINUOUS
 10
42.79599999999999
 20
59.0331
 30
0.0
  0
VERTEX
  5
2DF
  8
PCB
  6
CONTINUOUS
 10
42.642
 20
58.892
 30
0.0
  0
VERTEX
  5
2E0
  8
PCB
  6
CONTINUOUS
 10
42.49100000000001
 20
58.7482
 30
0.0
  0
VERTEX
  5
2E1
  8
PCB
  6
CONTINUOUS
 10
42.34299999999999
 20
58.6016
 30
0.0
  0
VERTEX
  5
2E2
  8
PCB
  6
CONTINUOUS
 10
42.197
 20
58.45229999999999
 30
0.0
  0
VERTEX
  5
2E3
  8
PCB
  6
CONTINUOUS
 10
42.179
 20
58.43219999999999
 30
0.0
  0
VERTEX
  5
2E4
  8
PCB
  6
CONTINUOUS
 10
42.16
 20
58.4115
 30
0.0
  0
VERTEX
  5
2E5
  8
PCB
  6
CONTINUOUS
 10
42.143
 20
58.39019999999999
 30
0.0
  0
VERTEX
  5
2E6
  8
PCB
  6
CONTINUOUS
 10
42.125
 20
58.3683
 30
0.0
  0
VERTEX
  5
2E7
  8
PCB
  6
CONTINUOUS
 10
42.10900000000001
 20
58.3458
 30
0.0
  0
VERTEX
  5
2E8
  8
PCB
  6
CONTINUOUS
 10
42.09200000000001
 20
58.3228
 30
0.0
  0
VERTEX
  5
2E9
  8
PCB
  6
CONTINUOUS
 10
42.077
 20
58.2992
 30
0.0
  0
VERTEX
  5
2EA
  8
PCB
  6
CONTINUOUS
 10
42.06200000000001
 20
58.27509999999999
 30
0.0
  0
VERTEX
  5
2EB
  8
PCB
  6
CONTINUOUS
 10
42.048
 20
58.2505
 30
0.0
  0
VERTEX
  5
2EC
  8
PCB
  6
CONTINUOUS
 10
42.03399999999999
 20
58.22539999999999
 30
0.0
  0
VERTEX
  5
2ED
  8
PCB
  6
CONTINUOUS
 10
42.02099999999999
 20
58.1999
 30
0.0
  0
VERTEX
  5
2EE
  8
PCB
  6
CONTINUOUS
 10
42.00899999999999
 20
58.1739
 30
0.0
  0
VERTEX
  5
2EF
  8
PCB
  6
CONTINUOUS
 10
41.99700000000001
 20
58.1476
 30
0.0
  0
VERTEX
  5
2F0
  8
PCB
  6
CONTINUOUS
 10
41.98699999999999
 20
58.121
 30
0.0
  0
VERTEX
  5
2F1
  8
PCB
  6
CONTINUOUS
 10
41.977
 20
58.09399999999999
 30
0.0
  0
VERTEX
  5
2F2
  8
PCB
  6
CONTINUOUS
 10
41.96700000000001
 20
58.0667
 30
0.0
  0
VERTEX
  5
2F3
  8
PCB
  6
CONTINUOUS
 10
41.959
 20
58.03919999999999
 30
0.0
  0
VERTEX
  5
2F4
  8
PCB
  6
CONTINUOUS
 10
41.95099999999999
 20
58.01139999999999
 30
0.0
  0
VERTEX
  5
2F5
  8
PCB
  6
CONTINUOUS
 10
41.94499999999999
 20
57.98350000000001
 30
0.0
  0
VERTEX
  5
2F6
  8
PCB
  6
CONTINUOUS
 10
41.93899999999999
 20
57.9554
 30
0.0
  0
VERTEX
  5
2F7
  8
PCB
  6
CONTINUOUS
 10
41.93299999999999
 20
57.9272
 30
0.0
  0
VERTEX
  5
2F8
  8
PCB
  6
CONTINUOUS
 10
41.92500000000001
 20
57.8706
 30
0.0
  0
VERTEX
  5
2F9
  8
PCB
  6
CONTINUOUS
 10
41.92099999999999
 20
57.81399999999999
 30
0.0
  0
VERTEX
  5
2FA
  8
PCB
  6
CONTINUOUS
 10
41.91999999999999
 20
57.78570000000001
 30
0.0
  0
VERTEX
  5
2FB
  8
PCB
  6
CONTINUOUS
 10
41.91900000000001
 20
57.7576
 30
0.0
  0
VERTEX
  5
2FC
  8
PCB
  6
CONTINUOUS
 10
41.91999999999999
 20
57.7295
 30
0.0
  0
VERTEX
  5
2FD
  8
PCB
  6
CONTINUOUS
 10
41.92099999999999
 20
57.7017
 30
0.0
  0
VERTEX
  5
2FE
  8
PCB
  6
CONTINUOUS
 10
41.923
 20
57.67400000000001
 30
0.0
  0
VERTEX
  5
2FF
  8
PCB
  6
CONTINUOUS
 10
41.92599999999999
 20
57.64660000000001
 30
0.0
  0
VERTEX
  5
300
  8
PCB
  6
CONTINUOUS
 10
41.929
 20
57.6194
 30
0.0
  0
VERTEX
  5
301
  8
PCB
  6
CONTINUOUS
 10
41.934
 20
57.59229999999999
 30
0.0
  0
VERTEX
  5
302
  8
PCB
  6
CONTINUOUS
 10
41.93899999999999
 20
57.5651
 30
0.0
  0
VERTEX
  5
303
  8
PCB
  6
CONTINUOUS
 10
41.94399999999999
 20
57.538
 30
0.0
  0
VERTEX
  5
304
  8
PCB
  6
CONTINUOUS
 10
41.95099999999999
 20
57.51090000000001
 30
0.0
  0
VERTEX
  5
305
  8
PCB
  6
CONTINUOUS
 10
41.958
 20
57.48390000000001
 30
0.0
  0
VERTEX
  5
306
  8
PCB
  6
CONTINUOUS
 10
41.96700000000001
 20
57.4569
 30
0.0
  0
VERTEX
  5
307
  8
PCB
  6
CONTINUOUS
 10
41.97499999999999
 20
57.4301
 30
0.0
  0
VERTEX
  5
308
  8
PCB
  6
CONTINUOUS
 10
41.98500000000001
 20
57.40349999999999
 30
0.0
  0
VERTEX
  5
309
  8
PCB
  6
CONTINUOUS
 10
41.99600000000001
 20
57.377
 30
0.0
  0
VERTEX
  5
30A
  8
PCB
  6
CONTINUOUS
 10
42.00700000000001
 20
57.35080000000001
 30
0.0
  0
VERTEX
  5
30B
  8
PCB
  6
CONTINUOUS
 10
42.01900000000001
 20
57.3249
 30
0.0
  0
VERTEX
  5
30C
  8
PCB
  6
CONTINUOUS
 10
42.03200000000001
 20
57.2993
 30
0.0
  0
VERTEX
  5
30D
  8
PCB
  6
CONTINUOUS
 10
42.04599999999999
 20
57.274
 30
0.0
  0
VERTEX
  5
30E
  8
PCB
  6
CONTINUOUS
 10
42.06
 20
57.2491
 30
0.0
  0
VERTEX
  5
30F
  8
PCB
  6
CONTINUOUS
 10
42.07499999999999
 20
57.2246
 30
0.0
  0
VERTEX
  5
310
  8
PCB
  6
CONTINUOUS
 10
42.09100000000001
 20
57.20050000000001
 30
0.0
  0
VERTEX
  5
311
  8
PCB
  6
CONTINUOUS
 10
42.107
 20
57.1769
 30
0.0
  0
VERTEX
  5
312
  8
PCB
  6
CONTINUOUS
 10
42.124
 20
57.1537
 30
0.0
  0
VERTEX
  5
313
  8
PCB
  6
CONTINUOUS
 10
42.142
 20
57.1311
 30
0.0
  0
VERTEX
  5
314
  8
PCB
  6
CONTINUOUS
 10
42.161
 20
57.1091
 30
0.0
  0
VERTEX
  5
315
  8
PCB
  6
CONTINUOUS
 10
42.18000000000001
 20
57.08759999999999
 30
0.0
  0
VERTEX
  5
316
  8
PCB
  6
CONTINUOUS
 10
42.19900000000001
 20
57.0667
 30
0.0
  0
VERTEX
  5
317
  8
PCB
  6
CONTINUOUS
 10
42.21899999999999
 20
57.04640000000001
 30
0.0
  0
VERTEX
  5
318
  8
PCB
  6
CONTINUOUS
 10
42.24000000000001
 20
57.02679999999999
 30
0.0
  0
VERTEX
  5
319
  8
PCB
  6
CONTINUOUS
 10
42.261
 20
57.0078
 30
0.0
  0
VERTEX
  5
31A
  8
PCB
  6
CONTINUOUS
 10
42.28200000000001
 20
56.98950000000001
 30
0.0
  0
VERTEX
  5
31B
  8
PCB
  6
CONTINUOUS
 10
42.304
 20
56.97190000000001
 30
0.0
  0
VERTEX
  5
31C
  8
PCB
  6
CONTINUOUS
 10
42.327
 20
56.955
 30
0.0
  0
VERTEX
  5
31D
  8
PCB
  6
CONTINUOUS
 10
42.34899999999999
 20
56.9388
 30
0.0
  0
VERTEX
  5
31E
  8
PCB
  6
CONTINUOUS
 10
42.37200000000001
 20
56.9233
 30
0.0
  0
VERTEX
  5
31F
  8
PCB
  6
CONTINUOUS
 10
42.39599999999999
 20
56.9085
 30
0.0
  0
VERTEX
  5
320
  8
PCB
  6
CONTINUOUS
 10
42.41900000000001
 20
56.89449999999999
 30
0.0
  0
VERTEX
  5
321
  8
PCB
  6
CONTINUOUS
 10
47.00800000000001
 20
54.24497459621558
 30
0.0
 42
0.2818610149856034
  0
VERTEX
  5
322
  8
PCB
  6
CONTINUOUS
 10
48.05211636833555
 20
54.27199023980091
 30
0.0
  0
VERTEX
  5
323
  8
PCB
  6
CONTINUOUS
 10
48.45554512764215
 20
54.50467741303041
 30
0.0
 42
0.2818609723087026
  0
VERTEX
  5
324
  8
PCB
  6
CONTINUOUS
 10
49.00099899999999
 20
55.39539984185639
 30
0.0
  0
VERTEX
  5
325
  8
PCB
  6
CONTINUOUS
 10
49.001
 20
60.6944
 30
0.0
 42
0.486512484835853
  0
SEQEND
  5
326
  8
PCB
  6
CONTINUOUS
  0
POLYLINE
  5
327
  8
PCB
  6
CONTINUOUS
 66
     1
 10
0.0
 20
0.0
 30
0.0
  0
VERTEX
  5
328
  8
PCB
  6
CONTINUOUS
 10
131.25
 20
34.0
 30
0.0
  0
VERTEX
  5
329
  8
PCB
  6
CONTINUOUS
 10
78.75
 20
34.0
 30
0.0
 42
-0.9999999999999999
  0
VERTEX
  5
32A
  8
PCB
  6
CONTINUOUS
 10
78.75
 20
36.0
 30
0.0
  0
SEQEND
  5
32B
  8
PCB
  6
CONTINUOUS
  0
POLYLINE
  5
32C
  8
PCB
 66
     1
 10
0.0
 20
0.0
 30
0.0
 70
     1
  0
VERTEX
  5
32D
  8
PCB
 10
53.994
 20
46.74782540378443
 30
0.0
 42
0.281859601995096
  0
VERTEX
  5
32E
  8
PCB
 10
52.94988802471674
 20
46.72081260917423
 30
0.0
  0
VERTEX
  5
32F
  8
PCB
 10
52.54645020855153
 20
46.48812020696464
 30
0.0
 42
0.2818596019950986
  0
VERTEX
  5
330
  8
PCB
 10
52.001001
 20
45.59739999999999
 30
0.0
  0
VERTEX
  5
331
  8
PCB
 10
52.001
 20
40.2984
 30
0.0
 42
0.4865084929292897
  0
VERTEX
  5
332
  8
PCB
 10
53.23909915830706
 20
39.3271396353195
 30
0.0
 42
0.1425471149721026
  0
VERTEX
  5
333
  8
PCB
 10
58.80494913948554
 20
42.54048785899592
 30
0.0
 42
0.4865607192909929
  0
VERTEX
  5
334
  8
PCB
 10
58.58299949999997
 20
44.09832453775904
 30
0.0
  0
SEQEND
  5
335
  8
PCB
  0
POLYLINE
  5
336
  8
PCB
 66
     1
 10
0.0
 20
0.0
 30
0.0
 70
     1
  0
VERTEX
  5
337
  8
PCB
 10
72.25
 20
36.0
 30
0.0
 42
-0.9999999999999999
  0
VERTEX
  5
338
  8
PCB
 10
72.25
 20
34.0
 30
0.0
  0
VERTEX
  5
339
  8
PCB
 10
68.001
 20
33.996
 30
0.0
 42
0.4142135623730965
  0
VERTEX
  5
33A
  8
PCB
 10
67.001
 20
32.996
 30
0.0
  0
VERTEX
  5
33B
  8
PCB
 10
67.0
 20
22.75
 30
0.0
 42
-0.9999999999999999
  0
VERTEX
  5
33C
  8
PCB
 10
65.0
 20
22.75
 30
0.0
  0
VERTEX
  5
33D
  8
PCB
 10
65.001
 20
24.595
 30
0.0
  0
VERTEX
  5
33E
  8
PCB
 10
65.001
 20
24.64400000000001
 30
0.0
  0
VERTEX
  5
33F
  8
PCB
 10
64.999
 20
24.69199999999999
 30
0.0
  0
VERTEX
  5
340
  8
PCB
 10
64.99600000000001
 20
24.73999999999999
 30
0.0
  0
VERTEX
  5
341
  8
PCB
 10
64.99199999999999
 20
24.788
 30
0.0
  0
VERTEX
  5
342
  8
PCB
 10
64.987
 20
24.837
 30
0.0
  0
VERTEX
  5
343
  8
PCB
 10
64.97999999999999
 20
24.88500000000001
 30
0.0
  0
VERTEX
  5
344
  8
PCB
 10
64.97200000000001
 20
24.93300000000001
 30
0.0
  0
VERTEX
  5
345
  8
PCB
 10
64.964
 20
24.98
 30
0.0
  0
VERTEX
  5
346
  8
PCB
 10
64.95400000000001
 20
25.02800000000001
 30
0.0
  0
VERTEX
  5
347
  8
PCB
 10
64.94300000000001
 20
25.075
 30
0.0
  0
VERTEX
  5
348
  8
PCB
 10
64.93100000000001
 20
25.122
 30
0.0
  0
VERTEX
  5
349
  8
PCB
 10
64.917
 20
25.169
 30
0.0
  0
VERTEX
  5
34A
  8
PCB
 10
64.90299999999999
 20
25.215
 30
0.0
  0
VERTEX
  5
34B
  8
PCB
 10
64.887
 20
25.261
 30
0.0
  0
VERTEX
  5
34C
  8
PCB
 10
64.87100000000001
 20
25.306
 30
0.0
  0
VERTEX
  5
34D
  8
PCB
 10
64.85300000000001
 20
25.351
 30
0.0
  0
VERTEX
  5
34E
  8
PCB
 10
64.707
 20
25.69799999999999
 30
0.0
  0
VERTEX
  5
34F
  8
PCB
 10
64.55099999999999
 20
26.042
 30
0.0
  0
VERTEX
  5
350
  8
PCB
 10
64.386
 20
26.38500000000001
 30
0.0
  0
VERTEX
  5
351
  8
PCB
 10
64.213
 20
26.724
 30
0.0
  0
VERTEX
  5
352
  8
PCB
 10
64.03
 20
27.06
 30
0.0
  0
VERTEX
  5
353
  8
PCB
 10
63.839
 20
27.393
 30
0.0
  0
VERTEX
  5
354
  8
PCB
 10
63.63800000000001
 20
27.72199999999999
 30
0.0
  0
VERTEX
  5
355
  8
PCB
 10
63.429
 20
28.047
 30
0.0
  0
VERTEX
  5
356
  8
PCB
 10
63.21100000000001
 20
28.36799999999999
 30
0.0
  0
VERTEX
  5
357
  8
PCB
 10
62.98500000000001
 20
28.68300000000001
 30
0.0
  0
VERTEX
  5
358
  8
PCB
 10
62.751
 20
28.994
 30
0.0
  0
VERTEX
  5
359
  8
PCB
 10
62.50800000000001
 20
29.298
 30
0.0
  0
VERTEX
  5
35A
  8
PCB
 10
62.25800000000001
 20
29.59699999999999
 30
0.0
  0
VERTEX
  5
35B
  8
PCB
 10
62.0
 20
29.89
 30
0.0
  0
VERTEX
  5
35C
  8
PCB
 10
61.73400000000001
 20
30.17700000000001
 30
0.0
  0
VERTEX
  5
35D
  8
PCB
 10
61.46100000000001
 20
30.45699999999999
 30
0.0
  0
VERTEX
  5
35E
  8
PCB
 10
61.18100000000001
 20
30.729
 30
0.0
  0
VERTEX
  5
35F
  8
PCB
 10
60.89500000000001
 20
30.995
 30
0.0
  0
VERTEX
  5
360
  8
PCB
 10
60.602
 20
31.253
 30
0.0
  0
VERTEX
  5
361
  8
PCB
 10
60.303
 20
31.504
 30
0.0
  0
VERTEX
  5
362
  8
PCB
 10
59.99799999999999
 20
31.746
 30
0.0
  0
VERTEX
  5
363
  8
PCB
 10
59.68799999999999
 20
31.98099999999999
 30
0.0
  0
VERTEX
  5
364
  8
PCB
 10
59.37200000000001
 20
32.20699999999999
 30
0.0
  0
VERTEX
  5
365
  8
PCB
 10
59.05199999999999
 20
32.42400000000001
 30
0.0
  0
VERTEX
  5
366
  8
PCB
 10
58.727
 20
32.633
 30
0.0
  0
VERTEX
  5
367
  8
PCB
 10
58.398
 20
32.834
 30
0.0
  0
VERTEX
  5
368
  8
PCB
 10
58.065
 20
33.02500000000001
 30
0.0
  0
VERTEX
  5
369
  8
PCB
 10
57.72900000000001
 20
33.208
 30
0.0
  0
VERTEX
  5
36A
  8
PCB
 10
57.38900000000001
 20
33.38200000000001
 30
0.0
  0
VERTEX
  5
36B
  8
PCB
 10
57.047
 20
33.54600000000001
 30
0.0
  0
VERTEX
  5
36C
  8
PCB
 10
56.702
 20
33.702
 30
0.0
  0
VERTEX
  5
36D
  8
PCB
 10
56.35599999999999
 20
33.848
 30
0.0
  0
VERTEX
  5
36E
  8
PCB
 10
56.31100000000001
 20
33.866
 30
0.0
  0
VERTEX
  5
36F
  8
PCB
 10
56.26499999999999
 20
33.883
 30
0.0
  0
VERTEX
  5
370
  8
PCB
 10
56.22
 20
33.898
 30
0.0
  0
VERTEX
  5
371
  8
PCB
 10
56.173
 20
33.91200000000001
 30
0.0
  0
VERTEX
  5
372
  8
PCB
 10
56.12700000000001
 20
33.926
 30
0.0
  0
VERTEX
  5
373
  8
PCB
 10
56.08000000000001
 20
33.938
 30
0.0
  0
VERTEX
  5
374
  8
PCB
 10
56.03299999999999
 20
33.949
 30
0.0
  0
VERTEX
  5
375
  8
PCB
 10
55.98500000000001
 20
33.959
 30
0.0
  0
VERTEX
  5
376
  8
PCB
 10
55.93700000000001
 20
33.968
 30
0.0
  0
VERTEX
  5
377
  8
PCB
 10
55.88900000000001
 20
33.97499999999999
 30
0.0
  0
VERTEX
  5
378
  8
PCB
 10
55.84100000000001
 20
33.982
 30
0.0
  0
VERTEX
  5
379
  8
PCB
 10
55.79300000000001
 20
33.98699999999999
 30
0.0
  0
VERTEX
  5
37A
  8
PCB
 10
55.745
 20
33.991
 30
0.0
  0
VERTEX
  5
37B
  8
PCB
 10
55.697
 20
33.994
 30
0.0
  0
VERTEX
  5
37C
  8
PCB
 10
55.648
 20
33.996
 30
0.0
  0
VERTEX
  5
37D
  8
PCB
 10
55.59999999999999
 20
33.996
 30
0.0
  0
VERTEX
  5
37E
  8
PCB
 10
53.75
 20
34.0
 30
0.0
 42
-0.9999999999999999
  0
VERTEX
  5
37F
  8
PCB
 10
53.75
 20
36.0
 30
0.0
  0
VERTEX
  5
380
  8
PCB
 10
55.59999999999999
 20
35.996
 30
0.0
  0
VERTEX
  5
381
  8
PCB
 10
55.648
 20
35.997
 30
0.0
  0
VERTEX
  5
382
  8
PCB
 10
55.697
 20
35.999
 30
0.0
  0
VERTEX
  5
383
  8
PCB
 10
55.745
 20
36.002
 30
0.0
  0
VERTEX
  5
384
  8
PCB
 10
55.79300000000001
 20
36.006
 30
0.0
  0
VERTEX
  5
385
  8
PCB
 10
55.84100000000001
 20
36.011
 30
0.0
  0
VERTEX
  5
386
  8
PCB
 10
55.88900000000001
 20
36.017
 30
0.0
  0
VERTEX
  5
387
  8
PCB
 10
55.93700000000001
 20
36.02500000000001
 30
0.0
  0
VERTEX
  5
388
  8
PCB
 10
55.98500000000001
 20
36.03400000000001
 30
0.0
  0
VERTEX
  5
389
  8
PCB
 10
56.03299999999999
 20
36.044
 30
0.0
  0
VERTEX
  5
38A
  8
PCB
 10
56.08000000000001
 20
36.05500000000001
 30
0.0
  0
VERTEX
  5
38B
  8
PCB
 10
56.12700000000001
 20
36.06699999999999
 30
0.0
  0
VERTEX
  5
38C
  8
PCB
 10
56.173
 20
36.08
 30
0.0
  0
VERTEX
  5
38D
  8
PCB
 10
56.22
 20
36.095
 30
0.0
  0
VERTEX
  5
38E
  8
PCB
 10
56.26499999999999
 20
36.11
 30
0.0
  0
VERTEX
  5
38F
  8
PCB
 10
56.31100000000001
 20
36.127
 30
0.0
  0
VERTEX
  5
390
  8
PCB
 10
56.35599999999999
 20
36.145
 30
0.0
  0
VERTEX
  5
391
  8
PCB
 10
56.702
 20
36.291
 30
0.0
  0
VERTEX
  5
392
  8
PCB
 10
57.047
 20
36.446
 30
0.0
  0
VERTEX
  5
393
  8
PCB
 10
57.38900000000001
 20
36.611
 30
0.0
  0
VERTEX
  5
394
  8
PCB
 10
57.72900000000001
 20
36.785
 30
0.0
  0
VERTEX
  5
395
  8
PCB
 10
58.065
 20
36.967
 30
0.0
  0
VERTEX
  5
396
  8
PCB
 10
58.398
 20
37.15900000000001
 30
0.0
  0
VERTEX
  5
397
  8
PCB
 10
58.727
 20
37.35899999999999
 30
0.0
  0
VERTEX
  5
398
  8
PCB
 10
59.05199999999999
 20
37.568
 30
0.0
  0
VERTEX
  5
399
  8
PCB
 10
59.37200000000001
 20
37.786
 30
0.0
  0
VERTEX
  5
39A
  8
PCB
 10
59.68799999999999
 20
38.012
 30
0.0
  0
VERTEX
  5
39B
  8
PCB
 10
59.99799999999999
 20
38.247
 30
0.0
  0
VERTEX
  5
39C
  8
PCB
 10
60.303
 20
38.489
 30
0.0
  0
VERTEX
  5
39D
  8
PCB
 10
60.602
 20
38.73999999999999
 30
0.0
  0
VERTEX
  5
39E
  8
PCB
 10
60.89500000000001
 20
38.998
 30
0.0
  0
VERTEX
  5
39F
  8
PCB
 10
61.18100000000001
 20
39.26300000000001
 30
0.0
  0
VERTEX
  5
3A0
  8
PCB
 10
61.46100000000001
 20
39.536
 30
0.0
  0
VERTEX
  5
3A1
  8
PCB
 10
61.73400000000001
 20
39.816
 30
0.0
  0
VERTEX
  5
3A2
  8
PCB
 10
62.0
 20
40.10250000000001
 30
0.0
  0
VERTEX
  5
3A3
  8
PCB
 10
62.25800000000001
 20
40.3954
 30
0.0
  0
VERTEX
  5
3A4
  8
PCB
 10
62.50800000000001
 20
40.6944
 30
0.0
  0
VERTEX
  5
3A5
  8
PCB
 10
62.751
 20
40.99930000000001
 30
0.0
  0
VERTEX
  5
3A6
  8
PCB
 10
62.98500000000001
 20
41.3096
 30
0.0
  0
VERTEX
  5
3A7
  8
PCB
 10
63.21100000000001
 20
41.6251
 30
0.0
  0
VERTEX
  5
3A8
  8
PCB
 10
63.429
 20
41.9455
 30
0.0
  0
VERTEX
  5
3A9
  8
PCB
 10
63.63800000000001
 20
42.2704
 30
0.0
  0
VERTEX
  5
3AA
  8
PCB
 10
63.839
 20
42.5994
 30
0.0
  0
VERTEX
  5
3AB
  8
PCB
 10
64.03
 20
42.9323
 30
0.0
  0
VERTEX
  5
3AC
  8
PCB
 10
64.213
 20
43.2687
 30
0.0
  0
VERTEX
  5
3AD
  8
PCB
 10
64.386
 20
43.6082
 30
0.0
  0
VERTEX
  5
3AE
  8
PCB
 10
64.55099999999999
 20
43.95050000000001
 30
0.0
  0
VERTEX
  5
3AF
  8
PCB
 10
64.707
 20
44.29519999999999
 30
0.0
  0
VERTEX
  5
3B0
  8
PCB
 10
64.85300000000001
 20
44.642
 30
0.0
  0
VERTEX
  5
3B1
  8
PCB
 10
64.87100000000001
 20
44.68680000000001
 30
0.0
  0
VERTEX
  5
3B2
  8
PCB
 10
64.887
 20
44.7321
 30
0.0
  0
VERTEX
  5
3B3
  8
PCB
 10
64.90299999999999
 20
44.7779
 30
0.0
  0
VERTEX
  5
3B4
  8
PCB
 10
64.917
 20
44.8241
 30
0.0
  0
VERTEX
  5
3B5
  8
PCB
 10
64.93100000000001
 20
44.8707
 30
0.0
  0
VERTEX
  5
3B6
  8
PCB
 10
64.94300000000001
 20
44.9177
 30
0.0
  0
VERTEX
  5
3B7
  8
PCB
 10
64.95400000000001
 20
44.9649
 30
0.0
  0
VERTEX
  5
3B8
  8
PCB
 10
64.964
 20
45.0125
 30
0.0
  0
VERTEX
  5
3B9
  8
PCB
 10
64.97200000000001
 20
45.06019999999999
 30
0.0
  0
VERTEX
  5
3BA
  8
PCB
 10
64.97999999999999
 20
45.1082
 30
0.0
  0
VERTEX
  5
3BB
  8
PCB
 10
64.987
 20
45.1563
 30
0.0
  0
VERTEX
  5
3BC
  8
PCB
 10
64.99199999999999
 20
45.2045
 30
0.0
  0
VERTEX
  5
3BD
  8
PCB
 10
64.99600000000001
 20
45.2527
 30
0.0
  0
VERTEX
  5
3BE
  8
PCB
 10
64.999
 20
45.301
 30
0.0
  0
VERTEX
  5
3BF
  8
PCB
 10
65.001
 20
45.3492
 30
0.0
  0
VERTEX
  5
3C0
  8
PCB
 10
65.001
 20
45.3974
 30
0.0
  0
VERTEX
  5
3C1
  8
PCB
 10
65.0
 20
47.25
 30
0.0
 42
-0.9999999999999999
  0
VERTEX
  5
3C2
  8
PCB
 10
67.0
 20
47.25
 30
0.0
  0
VERTEX
  5
3C3
  8
PCB
 10
67.001
 20
36.996
 30
0.0
 42
0.4142135623730914
  0
VERTEX
  5
3C4
  8
PCB
 10
68.001
 20
35.996
 30
0.0
  0
SEQEND
  5
3C5
  8
PCB
  0
POLYLINE
  5
3C6
  8
PCB
  6
CONTINUOUS
 66
     1
 10
0.0
 20
0.0
 30
0.0
 70
     1
  0
VERTEX
  5
3C7
  8
PCB
  6
CONTINUOUS
 10
143.001
 20
36.996
 30
0.0
  0
VERTEX
  5
3C8
  8
PCB
  6
CONTINUOUS
 10
143.001
 20
43.3283
 30
0.0
 42
-0.9999999999999999
  0
VERTEX
  5
3C9
  8
PCB
  6
CONTINUOUS
 10
145.001
 20
43.3283
 30
0.0
 42
0.4142135623730914
  0
VERTEX
  5
3CA
  8
PCB
  6
CONTINUOUS
 10
146.001
 20
42.3283
 30
0.0
  0
VERTEX
  5
3CB
  8
PCB
  6
CONTINUOUS
 10
149.579947692302
 20
42.32791135959609
 30
0.0
 42
-0.8075728165955658
  0
VERTEX
  5
3CC
  8
PCB
  6
CONTINUOUS
 10
149.579947692302
 20
27.6640886404039
 30
0.0
  0
VERTEX
  5
3CD
  8
PCB
  6
CONTINUOUS
 10
146.001
 20
27.664
 30
0.0
 42
0.414213562373098
  0
VERTEX
  5
3CE
  8
PCB
  6
CONTINUOUS
 10
145.001
 20
26.664
 30
0.0
 42
-0.9999999999999999
  0
VERTEX
  5
3CF
  8
PCB
  6
CONTINUOUS
 10
143.001
 20
26.664
 30
0.0
  0
VERTEX
  5
3D0
  8
PCB
  6
CONTINUOUS
 10
143.001
 20
32.996
 30
0.0
 42
0.4142135623731082
  0
VERTEX
  5
3D1
  8
PCB
  6
CONTINUOUS
 10
142.001
 20
33.996
 30
0.0
  0
VERTEX
  5
3D2
  8
PCB
  6
CONTINUOUS
 10
137.75
 20
34.0
 30
0.0
 42
-0.9999999999999999
  0
VERTEX
  5
3D3
  8
PCB
  6
CONTINUOUS
 10
137.75
 20
36.0
 30
0.0
  0
VERTEX
  5
3D4
  8
PCB
  6
CONTINUOUS
 10
142.001
 20
35.99599999999998
 30
0.0
 42
0.414213562373098
  0
SEQEND
  5
3D5
  8
PCB
  6
CONTINUOUS
  0
POLYLINE
  5
3D6
  8
PCB
 66
     1
 10
0.0
 20
0.0
 30
0.0
 70
     1
  0
VERTEX
  5
3D7
  8
PCB
 10
44.6465243118725
 20
36.14437084227973
 30
0.0
 42
-0.2017040519107504
  0
VERTEX
  5
3D8
  8
PCB
 10
36.14917084227972
 20
44.64192431187254
 30
0.0
 42
-0.0971392589070337
  0
VERTEX
  5
3D9
  8
PCB
 10
36.001
 20
45.3974
 30
0.0
  0
VERTEX
  5
3DA
  8
PCB
 10
36.0
 20
47.25
 30
0.0
 42
0.9999999999999999
  0
VERTEX
  5
3DB
  8
PCB
 10
34.0
 20
47.25
 30
0.0
  0
VERTEX
  5
3DC
  8
PCB
 10
34.00099999999998
 20
45.39740033229953
 30
0.0
 42
-0.097131593423624
  0
VERTEX
  5
3DD
  8
PCB
 10
33.85285223060581
 20
44.64198087339076
 30
0.0
 42
-0.2017061026581486
  0
VERTEX
  5
3DE
  8
PCB
 10
25.35541912660926
 20
36.14434776939419
 30
0.0
 42
-0.097260223443051
  0
VERTEX
  5
3DF
  8
PCB
 10
24.59999999999999
 20
35.996
 30
0.0
  0
VERTEX
  5
3E0
  8
PCB
 10
22.75
 20
36.0
 30
0.0
 42
0.9999999999999999
  0
VERTEX
  5
3E1
  8
PCB
 10
22.75
 20
34.0
 30
0.0
  0
VERTEX
  5
3E2
  8
PCB
 10
24.60000000000002
 20
33.996
 30
0.0
 42
-0.0971315514932419
  0
VERTEX
  5
3E3
  8
PCB
 10
25.35541912660925
 20
33.84785223060578
 30
0.0
 42
-0.2017122261211376
  0
VERTEX
  5
3E4
  8
PCB
 10
33.85285223060584
 20
25.35041912660924
 30
0.0
 42
-0.0971315514932258
  0
VERTEX
  5
3E5
  8
PCB
 10
34.001
 20
24.595
 30
0.0
  0
VERTEX
  5
3E6
  8
PCB
 10
34.0
 20
22.75
 30
0.0
 42
0.9999999999999999
  0
VERTEX
  5
3E7
  8
PCB
 10
36.0
 20
22.75
 30
0.0
  0
VERTEX
  5
3E8
  8
PCB
 10
36.001
 20
24.595
 30
0.0
 42
-0.0971392589070289
  0
VERTEX
  5
3E9
  8
PCB
 10
36.14917084227971
 20
25.35047568812748
 30
0.0
 42
-0.2017101754262358
  0
VERTEX
  5
3EA
  8
PCB
 10
44.64652431187252
 20
33.84782915772028
 30
0.0
 42
-0.0971392589070265
  0
VERTEX
  5
3EB
  8
PCB
 10
45.40199999999999
 20
33.996
 30
0.0
  0
VERTEX
  5
3EC
  8
PCB
 10
47.25
 20
34.0
 30
0.0
 42
0.9999999999999999
  0
VERTEX
  5
3ED
  8
PCB
 10
47.25
 20
36.0
 30
0.0
  0
VERTEX
  5
3EE
  8
PCB
 10
45.40199999999999
 20
35.996
 30
0.0
 42
-0.0972679206435552
  0
SEQEND
  5
3EF
  8
PCB
  0
POLYLINE
  5
3F0
  8
PCB
 66
     1
 10
0.0
 20
0.0
 30
0.0
 70
     1
  0
VERTEX
  5
3F1
  8
PCB
 10
153.9835576804606
 20
15.0585826058792
 30
0.0
 42
-0.3470254375121934
  0
VERTEX
  5
3F2
  8
PCB
 10
154.751
 20
14.086
 30
0.0
  0
VERTEX
  5
3F3
  8
PCB
 10
154.751
 20
12.496
 30
0.0
 42
0.9999999999999999
  0
VERTEX
  5
3F4
  8
PCB
 10
162.751
 20
12.496
 30
0.0
  0
VERTEX
  5
3F5
  8
PCB
 10
162.7510009999999
 20
14.08600000000001
 30
0.0
 42
-0.3470964603579503
  0
VERTEX
  5
3F6
  8
PCB
 10
163.5184349545587
 20
15.05831849754594
 30
0.0
 42
0.285345596385849
  0
VERTEX
  5
3F7
  8
PCB
 10
178.7378135648117
 20
30.43708849130122
 30
0.0
 42
-0.2687151538914408
  0
VERTEX
  5
3F8
  8
PCB
 10
179.4204640884212
 20
31.17101429314295
 30
0.0
 42
0.7399656745749932
  0
VERTEX
  5
3F9
  8
PCB
 10
179.4204640884211
 20
38.82148570685703
 30
0.0
 42
-0.2683509241534429
  0
VERTEX
  5
3FA
  8
PCB
 10
178.7378135648117
 20
39.55541150869875
 30
0.0
 42
0.2853289070102398
  0
VERTEX
  5
3FB
  8
PCB
 10
163.5184348382773
 20
54.93413101616345
 30
0.0
 42
-0.3469705833093382
  0
VERTEX
  5
3FC
  8
PCB
 10
162.751
 20
55.90689999999999
 30
0.0
  0
VERTEX
  5
3FD
  8
PCB
 10
162.751
 20
57.49639999999999
 30
0.0
 42
0.9999999999999999
  0
VERTEX
  5
3FE
  8
PCB
 10
154.751
 20
57.49639999999999
 30
0.0
  0
VERTEX
  5
3FF
  8
PCB
 10
154.7509999999999
 20
55.90689974090238
 30
0.0
 42
-0.3470253649372316
  0
VERTEX
  5
400
  8
PCB
 10
153.9835576804606
 20
54.93431739412079
 30
0.0
  0
VERTEX
  5
401
  8
PCB
 10
152.7058726321925
 20
54.58486343304727
 30
0.0
 42
-0.2686936393998587
  0
VERTEX
  5
402
  8
PCB
 10
151.7290690192933
 20
54.80911389264847
 30
0.0
 42
0.6556496208996174
  0
VERTEX
  5
403
  8
PCB
 10
145.001
 20
51.8839
 30
0.0
  0
VERTEX
  5
404
  8
PCB
 10
145.0
 20
49.75
 30
0.0
 42
-0.9999999999999999
  0
VERTEX
  5
405
  8
PCB
 10
143.0
 20
49.75
 30
0.0
  0
VERTEX
  5
406
  8
PCB
 10
143.001
 20
60.99639999999999
 30
0.0
 42
0.4142135623731082
  0
VERTEX
  5
407
  8
PCB
 10
142.001
 20
61.99639999999999
 30
0.0
  0
VERTEX
  5
408
  8
PCB
 10
68.001
 20
61.99639999999999
 30
0.0
 42
0.4142135623730965
  0
VERTEX
  5
409
  8
PCB
 10
67.001
 20
60.99639999999999
 30
0.0
  0
VERTEX
  5
40A
  8
PCB
 10
67.0
 20
53.75
 30
0.0
 42
-0.9999999999999999
  0
VERTEX
  5
40B
  8
PCB
 10
65.0
 20
53.75
 30
0.0
  0
VERTEX
  5
40C
  8
PCB
 10
65.001
 20
55.5954
 30
0.0
 42
0.097132880192767
  0
VERTEX
  5
40D
  8
PCB
 10
64.8528519384242
 20
56.35081008608211
 30
0.0
  0
VERTEX
  5
40E
  8
PCB
 10
64.74199999999999
 20
56.6157
 30
0.0
  0
VERTEX
  5
40F
  8
PCB
 10
64.626
 20
56.87949999999999
 30
0.0
  0
VERTEX
  5
410
  8
PCB
 10
64.50399999999999
 20
57.14190000000001
 30
0.0
  0
VERTEX
  5
411
  8
PCB
 10
64.37700000000001
 20
57.4028
 30
0.0
  0
VERTEX
  5
412
  8
PCB
 10
64.245
 20
57.6622
 30
0.0
  0
VERTEX
  5
413
  8
PCB
 10
64.108
 20
57.91970000000001
 30
0.0
  0
VERTEX
  5
414
  8
PCB
 10
63.965
 20
58.17529999999999
 30
0.0
  0
VERTEX
  5
415
  8
PCB
 10
63.81800000000001
 20
58.4288
 30
0.0
  0
VERTEX
  5
416
  8
PCB
 10
63.66499999999999
 20
58.68000000000001
 30
0.0
  0
VERTEX
  5
417
  8
PCB
 10
63.50700000000001
 20
58.9288
 30
0.0
  0
VERTEX
  5
418
  8
PCB
 10
63.34399999999999
 20
59.1751
 30
0.0
  0
VERTEX
  5
419
  8
PCB
 10
63.17599999999999
 20
59.4186
 30
0.0
  0
VERTEX
  5
41A
  8
PCB
 10
63.00299999999999
 20
59.6593
 30
0.0
  0
VERTEX
  5
41B
  8
PCB
 10
62.82499999999999
 20
59.89700000000001
 30
0.0
  0
VERTEX
  5
41C
  8
PCB
 10
62.642
 20
60.13160000000001
 30
0.0
  0
VERTEX
  5
41D
  8
PCB
 10
62.45500000000001
 20
60.36279999999999
 30
0.0
  0
VERTEX
  5
41E
  8
PCB
 10
62.26400000000001
 20
60.5907
 30
0.0
  0
VERTEX
  5
41F
  8
PCB
 10
62.06700000000001
 20
60.81489999999999
 30
0.0
  0
VERTEX
  5
420
  8
PCB
 10
61.86699999999999
 20
61.0355
 30
0.0
  0
VERTEX
  5
421
  8
PCB
 10
61.66200000000001
 20
61.25230000000001
 30
0.0
  0
VERTEX
  5
422
  8
PCB
 10
61.453
 20
61.46510000000001
 30
0.0
  0
VERTEX
  5
423
  8
PCB
 10
61.24000000000001
 20
61.6738
 30
0.0
  0
VERTEX
  5
424
  8
PCB
 10
61.023
 20
61.8784
 30
0.0
  0
VERTEX
  5
425
  8
PCB
 10
60.80199999999999
 20
62.0787
 30
0.0
  0
VERTEX
  5
426
  8
PCB
 10
60.577
 20
62.2745
 30
0.0
  0
VERTEX
  5
427
  8
PCB
 10
60.34899999999999
 20
62.4659
 30
0.0
  0
VERTEX
  5
428
  8
PCB
 10
60.11699999999999
 20
62.6527
 30
0.0
  0
VERTEX
  5
429
  8
PCB
 10
59.88300000000001
 20
62.8348
 30
0.0
  0
VERTEX
  5
42A
  8
PCB
 10
59.64500000000001
 20
63.01220000000001
 30
0.0
  0
VERTEX
  5
42B
  8
PCB
 10
59.404
 20
63.18470000000001
 30
0.0
  0
VERTEX
  5
42C
  8
PCB
 10
59.16
 20
63.3523
 30
0.0
  0
VERTEX
  5
42D
  8
PCB
 10
58.91300000000001
 20
63.5149
 30
0.0
  0
VERTEX
  5
42E
  8
PCB
 10
58.66399999999999
 20
63.6725
 30
0.0
  0
VERTEX
  5
42F
  8
PCB
 10
58.41300000000001
 20
63.825
 30
0.0
  0
VERTEX
  5
430
  8
PCB
 10
58.15899999999999
 20
63.9723
 30
0.0
  0
VERTEX
  5
431
  8
PCB
 10
57.904
 20
64.1145
 30
0.0
  0
VERTEX
  5
432
  8
PCB
 10
57.64599999999999
 20
64.2514
 30
0.0
  0
VERTEX
  5
433
  8
PCB
 10
57.387
 20
64.3831
 30
0.0
  0
VERTEX
  5
434
  8
PCB
 10
57.125
 20
64.5095
 30
0.0
  0
VERTEX
  5
435
  8
PCB
 10
56.863
 20
64.6307
 30
0.0
  0
VERTEX
  5
436
  8
PCB
 10
56.59899999999999
 20
64.7465
 30
0.0
  0
VERTEX
  5
437
  8
PCB
 10
56.334
 20
64.857
 30
0.0
  0
VERTEX
  5
438
  8
PCB
 10
56.06800000000001
 20
64.9622
 30
0.0
  0
VERTEX
  5
439
  8
PCB
 10
55.80099999999999
 20
65.0621
 30
0.0
  0
VERTEX
  5
43A
  8
PCB
 10
55.53399999999999
 20
65.1567
 30
0.0
  0
VERTEX
  5
43B
  8
PCB
 10
55.26599999999999
 20
65.246
 30
0.0
  0
VERTEX
  5
43C
  8
PCB
 10
54.99700000000001
 20
65.33
 30
0.0
  0
VERTEX
  5
43D
  8
PCB
 10
54.72800000000001
 20
65.4088
 30
0.0
  0
VERTEX
  5
43E
  8
PCB
 10
54.46000000000001
 20
65.4824
 30
0.0
  0
VERTEX
  5
43F
  8
PCB
 10
54.191
 20
65.5509
 30
0.0
  0
VERTEX
  5
440
  8
PCB
 10
53.922
 20
65.6142
 30
0.0
  0
VERTEX
  5
441
  8
PCB
 10
53.654
 20
65.6724
 30
0.0
  0
VERTEX
  5
442
  8
PCB
 10
53.386
 20
65.7256
 30
0.0
  0
VERTEX
  5
443
  8
PCB
 10
53.11799999999999
 20
65.7738
 30
0.0
  0
VERTEX
  5
444
  8
PCB
 10
52.58600000000001
 20
65.8556
 30
0.0
  0
VERTEX
  5
445
  8
PCB
 10
52.05699999999999
 20
65.9181
 30
0.0
  0
VERTEX
  5
446
  8
PCB
 10
51.53299999999999
 20
65.962
 30
0.0
  0
VERTEX
  5
447
  8
PCB
 10
51.01400000000001
 20
65.9879
 30
0.0
  0
VERTEX
  5
448
  8
PCB
 10
50.501
 20
65.9964
 30
0.0
  0
VERTEX
  5
449
  8
PCB
 10
49.988
 20
65.9879
 30
0.0
  0
VERTEX
  5
44A
  8
PCB
 10
49.47
 20
65.962
 30
0.0
  0
VERTEX
  5
44B
  8
PCB
 10
48.94499999999999
 20
65.9181
 30
0.0
  0
VERTEX
  5
44C
  8
PCB
 10
48.416
 20
65.8556
 30
0.0
  0
VERTEX
  5
44D
  8
PCB
 10
47.88399999999999
 20
65.7738
 30
0.0
  0
VERTEX
  5
44E
  8
PCB
 10
47.61600000000001
 20
65.7256
 30
0.0
  0
VERTEX
  5
44F
  8
PCB
 10
47.34899999999999
 20
65.6724
 30
0.0
  0
VERTEX
  5
450
  8
PCB
 10
47.08000000000001
 20
65.6142
 30
0.0
  0
VERTEX
  5
451
  8
PCB
 10
46.81200000000001
 20
65.5509
 30
0.0
  0
VERTEX
  5
452
  8
PCB
 10
46.54300000000001
 20
65.4824
 30
0.0
  0
VERTEX
  5
453
  8
PCB
 10
46.274
 20
65.4088
 30
0.0
  0
VERTEX
  5
454
  8
PCB
 10
46.005
 20
65.33
 30
0.0
  0
VERTEX
  5
455
  8
PCB
 10
45.73699999999999
 20
65.246
 30
0.0
  0
VERTEX
  5
456
  8
PCB
 10
45.46899999999999
 20
65.1567
 30
0.0
  0
VERTEX
  5
457
  8
PCB
 10
45.20099999999999
 20
65.0621
 30
0.0
  0
VERTEX
  5
458
  8
PCB
 10
44.934
 20
64.9622
 30
0.0
  0
VERTEX
  5
459
  8
PCB
 10
44.66800000000001
 20
64.857
 30
0.0
  0
VERTEX
  5
45A
  8
PCB
 10
44.40299999999999
 20
64.7465
 30
0.0
  0
VERTEX
  5
45B
  8
PCB
 10
44.13900000000001
 20
64.6307
 30
0.0
  0
VERTEX
  5
45C
  8
PCB
 10
43.87700000000001
 20
64.5095
 30
0.0
  0
VERTEX
  5
45D
  8
PCB
 10
43.61600000000001
 20
64.3831
 30
0.0
  0
VERTEX
  5
45E
  8
PCB
 10
43.35599999999999
 20
64.2514
 30
0.0
  0
VERTEX
  5
45F
  8
PCB
 10
43.09899999999999
 20
64.1145
 30
0.0
  0
VERTEX
  5
460
  8
PCB
 10
42.84299999999999
 20
63.9723
 30
0.0
  0
VERTEX
  5
461
  8
PCB
 10
42.589
 20
63.825
 30
0.0
  0
VERTEX
  5
462
  8
PCB
 10
42.33799999999999
 20
63.6725
 30
0.0
  0
VERTEX
  5
463
  8
PCB
 10
42.089
 20
63.5149
 30
0.0
  0
VERTEX
  5
464
  8
PCB
 10
41.84200000000001
 20
63.3523
 30
0.0
  0
VERTEX
  5
465
  8
PCB
 10
41.59800000000001
 20
63.18470000000001
 30
0.0
  0
VERTEX
  5
466
  8
PCB
 10
41.357
 20
63.01220000000001
 30
0.0
  0
VERTEX
  5
467
  8
PCB
 10
41.12
 20
62.8348
 30
0.0
  0
VERTEX
  5
468
  8
PCB
 10
40.88499999999999
 20
62.6527
 30
0.0
  0
VERTEX
  5
469
  8
PCB
 10
40.65299999999999
 20
62.4659
 30
0.0
  0
VERTEX
  5
46A
  8
PCB
 10
40.42500000000001
 20
62.2745
 30
0.0
  0
VERTEX
  5
46B
  8
PCB
 10
40.20099999999999
 20
62.0787
 30
0.0
  0
VERTEX
  5
46C
  8
PCB
 10
39.97999999999999
 20
61.8784
 30
0.0
  0
VERTEX
  5
46D
  8
PCB
 10
39.76300000000001
 20
61.6738
 30
0.0
  0
VERTEX
  5
46E
  8
PCB
 10
39.54900000000001
 20
61.46510000000001
 30
0.0
  0
VERTEX
  5
46F
  8
PCB
 10
39.34
 20
61.25230000000001
 30
0.0
  0
VERTEX
  5
470
  8
PCB
 10
39.13499999999999
 20
61.0355
 30
0.0
  0
VERTEX
  5
471
  8
PCB
 10
38.935
 20
60.81489999999999
 30
0.0
  0
VERTEX
  5
472
  8
PCB
 10
38.739
 20
60.5907
 30
0.0
  0
VERTEX
  5
473
  8
PCB
 10
38.547
 20
60.36279999999999
 30
0.0
  0
VERTEX
  5
474
  8
PCB
 10
38.36000000000001
 20
60.13160000000001
 30
0.0
  0
VERTEX
  5
475
  8
PCB
 10
38.17699999999999
 20
59.89700000000001
 30
0.0
  0
VERTEX
  5
476
  8
PCB
 10
37.999
 20
59.6593
 30
0.0
  0
VERTEX
  5
477
  8
PCB
 10
37.827
 20
59.4186
 30
0.0
  0
VERTEX
  5
478
  8
PCB
 10
37.65899999999999
 20
59.1751
 30
0.0
  0
VERTEX
  5
479
  8
PCB
 10
37.49600000000001
 20
58.9288
 30
0.0
  0
VERTEX
  5
47A
  8
PCB
 10
37.33799999999999
 20
58.68000000000001
 30
0.0
  0
VERTEX
  5
47B
  8
PCB
 10
37.185
 20
58.4288
 30
0.0
  0
VERTEX
  5
47C
  8
PCB
 10
37.03700000000001
 20
58.17529999999999
 30
0.0
  0
VERTEX
  5
47D
  8
PCB
 10
36.89400000000001
 20
57.91970000000001
 30
0.0
  0
VERTEX
  5
47E
  8
PCB
 10
36.75700000000001
 20
57.6622
 30
0.0
  0
VERTEX
  5
47F
  8
PCB
 10
36.625
 20
57.4028
 30
0.0
  0
VERTEX
  5
480
  8
PCB
 10
36.49799999999999
 20
57.14190000000001
 30
0.0
  0
VERTEX
  5
481
  8
PCB
 10
36.376
 20
56.87949999999999
 30
0.0
  0
VERTEX
  5
482
  8
PCB
 10
36.25999999999999
 20
56.6157
 30
0.0
  0
VERTEX
  5
483
  8
PCB
 10
36.149
 20
56.35080000000001
 30
0.0
  0
VERTEX
  5
484
  8
PCB
 10
36.13200000000001
 20
56.306
 30
0.0
  0
VERTEX
  5
485
  8
PCB
 10
36.11500000000001
 20
56.2607
 30
0.0
  0
VERTEX
  5
486
  8
PCB
 10
36.09899999999999
 20
56.2149
 30
0.0
  0
VERTEX
  5
487
  8
PCB
 10
36.08500000000001
 20
56.1687
 30
0.0
  0
VERTEX
  5
488
  8
PCB
 10
36.072
 20
56.1221
 30
0.0
  0
VERTEX
  5
489
  8
PCB
 10
36.059
 20
56.07510000000001
 30
0.0
  0
VERTEX
  5
48A
  8
PCB
 10
36.048
 20
56.0279
 30
0.0
  0
VERTEX
  5
48B
  8
PCB
 10
36.03800000000001
 20
55.9803
 30
0.0
  0
VERTEX
  5
48C
  8
PCB
 10
36.03
 20
55.93259999999999
 30
0.0
  0
VERTEX
  5
48D
  8
PCB
 10
36.02199999999999
 20
55.88460000000001
 30
0.0
  0
VERTEX
  5
48E
  8
PCB
 10
36.01599999999999
 20
55.8365
 30
0.0
  0
VERTEX
  5
48F
  8
PCB
 10
36.00999999999999
 20
55.78830000000001
 30
0.0
  0
VERTEX
  5
490
  8
PCB
 10
36.006
 20
55.7401
 30
0.0
  0
VERTEX
  5
491
  8
PCB
 10
36.00299999999999
 20
55.6918
 30
0.0
  0
VERTEX
  5
492
  8
PCB
 10
36.001
 20
55.5954
 30
0.0
  0
VERTEX
  5
493
  8
PCB
 10
36.0
 20
53.75
 30
0.0
 42
-0.9999999999999999
  0
VERTEX
  5
494
  8
PCB
 10
34.0
 20
53.75
 30
0.0
  0
VERTEX
  5
495
  8
PCB
 10
34.001
 20
55.5954
 30
0.0
  0
VERTEX
  5
496
  8
PCB
 10
34.001
 20
55.64360000000001
 30
0.0
  0
VERTEX
  5
497
  8
PCB
 10
33.999
 20
55.6918
 30
0.0
  0
VERTEX
  5
498
  8
PCB
 10
33.99600000000001
 20
55.7401
 30
0.0
  0
VERTEX
  5
499
  8
PCB
 10
33.99199999999999
 20
55.78830000000001
 30
0.0
  0
VERTEX
  5
49A
  8
PCB
 10
33.98699999999999
 20
55.8365
 30
0.0
  0
VERTEX
  5
49B
  8
PCB
 10
33.97999999999999
 20
55.88460000000001
 30
0.0
  0
VERTEX
  5
49C
  8
PCB
 10
33.97200000000001
 20
55.93259999999999
 30
0.0
  0
VERTEX
  5
49D
  8
PCB
 10
33.964
 20
55.9803
 30
0.0
  0
VERTEX
  5
49E
  8
PCB
 10
33.95400000000001
 20
56.0279
 30
0.0
  0
VERTEX
  5
49F
  8
PCB
 10
33.94300000000001
 20
56.07510000000001
 30
0.0
  0
VERTEX
  5
4A0
  8
PCB
 10
33.93100000000001
 20
56.1221
 30
0.0
  0
VERTEX
  5
4A1
  8
PCB
 10
33.917
 20
56.1687
 30
0.0
  0
VERTEX
  5
4A2
  8
PCB
 10
33.90299999999999
 20
56.2149
 30
0.0
  0
VERTEX
  5
4A3
  8
PCB
 10
33.887
 20
56.2607
 30
0.0
  0
VERTEX
  5
4A4
  8
PCB
 10
33.87100000000001
 20
56.306
 30
0.0
  0
VERTEX
  5
4A5
  8
PCB
 10
33.85300000000001
 20
56.35080000000001
 30
0.0
  0
VERTEX
  5
4A6
  8
PCB
 10
33.74199999999999
 20
56.6157
 30
0.0
  0
VERTEX
  5
4A7
  8
PCB
 10
33.626
 20
56.87949999999999
 30
0.0
  0
VERTEX
  5
4A8
  8
PCB
 10
33.50399999999999
 20
57.14190000000001
 30
0.0
  0
VERTEX
  5
4A9
  8
PCB
 10
33.37700000000001
 20
57.4028
 30
0.0
  0
VERTEX
  5
4AA
  8
PCB
 10
33.245
 20
57.6622
 30
0.0
  0
VERTEX
  5
4AB
  8
PCB
 10
33.108
 20
57.91970000000001
 30
0.0
  0
VERTEX
  5
4AC
  8
PCB
 10
32.965
 20
58.17529999999999
 30
0.0
  0
VERTEX
  5
4AD
  8
PCB
 10
32.81800000000001
 20
58.4288
 30
0.0
  0
VERTEX
  5
4AE
  8
PCB
 10
32.66499999999999
 20
58.68000000000001
 30
0.0
  0
VERTEX
  5
4AF
  8
PCB
 10
32.50700000000001
 20
58.9288
 30
0.0
  0
VERTEX
  5
4B0
  8
PCB
 10
32.34399999999999
 20
59.1751
 30
0.0
  0
VERTEX
  5
4B1
  8
PCB
 10
32.17599999999999
 20
59.4186
 30
0.0
  0
VERTEX
  5
4B2
  8
PCB
 10
32.00299999999999
 20
59.6593
 30
0.0
  0
VERTEX
  5
4B3
  8
PCB
 10
31.82499999999999
 20
59.89700000000001
 30
0.0
  0
VERTEX
  5
4B4
  8
PCB
 10
31.642
 20
60.13160000000001
 30
0.0
  0
VERTEX
  5
4B5
  8
PCB
 10
31.45500000000001
 20
60.36279999999999
 30
0.0
  0
VERTEX
  5
4B6
  8
PCB
 10
31.26400000000001
 20
60.5907
 30
0.0
  0
VERTEX
  5
4B7
  8
PCB
 10
31.06700000000001
 20
60.81489999999999
 30
0.0
  0
VERTEX
  5
4B8
  8
PCB
 10
30.86699999999999
 20
61.0355
 30
0.0
  0
VERTEX
  5
4B9
  8
PCB
 10
30.66200000000001
 20
61.25230000000001
 30
0.0
  0
VERTEX
  5
4BA
  8
PCB
 10
30.453
 20
61.46510000000001
 30
0.0
  0
VERTEX
  5
4BB
  8
PCB
 10
30.24000000000001
 20
61.6738
 30
0.0
  0
VERTEX
  5
4BC
  8
PCB
 10
30.023
 20
61.8784
 30
0.0
  0
VERTEX
  5
4BD
  8
PCB
 10
29.80199999999999
 20
62.0787
 30
0.0
  0
VERTEX
  5
4BE
  8
PCB
 10
29.577
 20
62.2745
 30
0.0
  0
VERTEX
  5
4BF
  8
PCB
 10
29.34899999999999
 20
62.4659
 30
0.0
  0
VERTEX
  5
4C0
  8
PCB
 10
29.11699999999999
 20
62.6527
 30
0.0
  0
VERTEX
  5
4C1
  8
PCB
 10
28.88300000000001
 20
62.8348
 30
0.0
  0
VERTEX
  5
4C2
  8
PCB
 10
28.64500000000001
 20
63.01220000000001
 30
0.0
  0
VERTEX
  5
4C3
  8
PCB
 10
28.404
 20
63.18470000000001
 30
0.0
  0
VERTEX
  5
4C4
  8
PCB
 10
28.16
 20
63.3523
 30
0.0
  0
VERTEX
  5
4C5
  8
PCB
 10
27.91300000000001
 20
63.5149
 30
0.0
  0
VERTEX
  5
4C6
  8
PCB
 10
27.66399999999999
 20
63.6725
 30
0.0
  0
VERTEX
  5
4C7
  8
PCB
 10
27.41300000000001
 20
63.825
 30
0.0
  0
VERTEX
  5
4C8
  8
PCB
 10
27.15899999999999
 20
63.9723
 30
0.0
  0
VERTEX
  5
4C9
  8
PCB
 10
26.904
 20
64.1145
 30
0.0
  0
VERTEX
  5
4CA
  8
PCB
 10
26.64599999999999
 20
64.2514
 30
0.0
  0
VERTEX
  5
4CB
  8
PCB
 10
26.387
 20
64.3831
 30
0.0
  0
VERTEX
  5
4CC
  8
PCB
 10
26.125
 20
64.5095
 30
0.0
  0
VERTEX
  5
4CD
  8
PCB
 10
25.863
 20
64.6307
 30
0.0
  0
VERTEX
  5
4CE
  8
PCB
 10
25.59899999999999
 20
64.7465
 30
0.0
  0
VERTEX
  5
4CF
  8
PCB
 10
25.334
 20
64.857
 30
0.0
  0
VERTEX
  5
4D0
  8
PCB
 10
25.06800000000001
 20
64.9622
 30
0.0
  0
VERTEX
  5
4D1
  8
PCB
 10
24.80099999999999
 20
65.0621
 30
0.0
  0
VERTEX
  5
4D2
  8
PCB
 10
24.53399999999999
 20
65.1567
 30
0.0
  0
VERTEX
  5
4D3
  8
PCB
 10
24.26599999999999
 20
65.246
 30
0.0
  0
VERTEX
  5
4D4
  8
PCB
 10
23.99700000000001
 20
65.33
 30
0.0
  0
VERTEX
  5
4D5
  8
PCB
 10
23.72800000000001
 20
65.4088
 30
0.0
  0
VERTEX
  5
4D6
  8
PCB
 10
23.46000000000001
 20
65.4824
 30
0.0
  0
VERTEX
  5
4D7
  8
PCB
 10
23.191
 20
65.5509
 30
0.0
  0
VERTEX
  5
4D8
  8
PCB
 10
22.922
 20
65.6142
 30
0.0
  0
VERTEX
  5
4D9
  8
PCB
 10
22.654
 20
65.6724
 30
0.0
  0
VERTEX
  5
4DA
  8
PCB
 10
22.386
 20
65.7256
 30
0.0
  0
VERTEX
  5
4DB
  8
PCB
 10
22.11799999999999
 20
65.7738
 30
0.0
  0
VERTEX
  5
4DC
  8
PCB
 10
21.58600000000001
 20
65.8556
 30
0.0
  0
VERTEX
  5
4DD
  8
PCB
 10
21.05699999999999
 20
65.9181
 30
0.0
  0
VERTEX
  5
4DE
  8
PCB
 10
20.53299999999999
 20
65.962
 30
0.0
  0
VERTEX
  5
4DF
  8
PCB
 10
20.01400000000001
 20
65.9879
 30
0.0
  0
VERTEX
  5
4E0
  8
PCB
 10
19.501
 20
65.9964
 30
0.0
  0
VERTEX
  5
4E1
  8
PCB
 10
19.15700000000001
 20
65.9926
 30
0.0
  0
VERTEX
  5
4E2
  8
PCB
 10
18.81
 20
65.981
 30
0.0
  0
VERTEX
  5
4E3
  8
PCB
 10
18.46000000000001
 20
65.9614
 30
0.0
  0
VERTEX
  5
4E4
  8
PCB
 10
18.108
 20
65.9337
 30
0.0
  0
VERTEX
  5
4E5
  8
PCB
 10
17.75399999999999
 20
65.8976
 30
0.0
  0
VERTEX
  5
4E6
  8
PCB
 10
17.398
 20
65.853
 30
0.0
  0
VERTEX
  5
4E7
  8
PCB
 10
17.03999999999999
 20
65.7998
 30
0.0
  0
VERTEX
  5
4E8
  8
PCB
 10
16.68100000000001
 20
65.7376
 30
0.0
  0
VERTEX
  5
4E9
  8
PCB
 10
16.31999999999999
 20
65.6665
 30
0.0
  0
VERTEX
  5
4EA
  8
PCB
 10
15.959
 20
65.5863
 30
0.0
  0
VERTEX
  5
4EB
  8
PCB
 10
15.59800000000001
 20
65.4969
 30
0.0
  0
VERTEX
  5
4EC
  8
PCB
 10
15.23599999999999
 20
65.3981
 30
0.0
  0
VERTEX
  5
4ED
  8
PCB
 10
14.875
 20
65.2899
 30
0.0
  0
VERTEX
  5
4EE
  8
PCB
 10
14.51400000000001
 20
65.1722
 30
0.0
  0
VERTEX
  5
4EF
  8
PCB
 10
14.154
 20
65.0449
 30
0.0
  0
VERTEX
  5
4F0
  8
PCB
 10
13.79600000000001
 20
64.9081
 30
0.0
  0
VERTEX
  5
4F1
  8
PCB
 10
13.43899999999999
 20
64.7617
 30
0.0
  0
VERTEX
  5
4F2
  8
PCB
 10
13.084
 20
64.6056
 30
0.0
  0
VERTEX
  5
4F3
  8
PCB
 10
12.732
 20
64.44
 30
0.0
  0
VERTEX
  5
4F4
  8
PCB
 10
12.38200000000001
 20
64.2648
 30
0.0
  0
VERTEX
  5
4F5
  8
PCB
 10
12.036
 20
64.0801
 30
0.0
  0
VERTEX
  5
4F6
  8
PCB
 10
11.693
 20
63.886
 30
0.0
  0
VERTEX
  5
4F7
  8
PCB
 10
11.354
 20
63.6825
 30
0.0
  0
VERTEX
  5
4F8
  8
PCB
 10
11.01900000000001
 20
63.46980000000001
 30
0.0
  0
VERTEX
  5
4F9
  8
PCB
 10
10.68899999999999
 20
63.24809999999999
 30
0.0
  0
VERTEX
  5
4FA
  8
PCB
 10
10.36499999999999
 20
63.01739999999999
 30
0.0
  0
VERTEX
  5
4FB
  8
PCB
 10
10.045
 20
62.7779
 30
0.0
  0
VERTEX
  5
4FC
  8
PCB
 10
9.730999999999995
 20
62.5299
 30
0.0
  0
VERTEX
  5
4FD
  8
PCB
 10
9.424000000000007
 20
62.2735
 30
0.0
  0
VERTEX
  5
4FE
  8
PCB
 10
9.123000000000005
 20
62.009
 30
0.0
  0
VERTEX
  5
4FF
  8
PCB
 10
8.828000000000003
 20
61.7366
 30
0.0
  0
VERTEX
  5
500
  8
PCB
 10
8.540999999999997
 20
61.45659999999999
 30
0.0
  0
VERTEX
  5
501
  8
PCB
 10
8.260999999999996
 20
61.1692
 30
0.0
  0
VERTEX
  5
502
  8
PCB
 10
7.989000000000004
 20
60.87479999999999
 30
0.0
  0
VERTEX
  5
503
  8
PCB
 10
7.724000000000004
 20
60.5736
 30
0.0
  0
VERTEX
  5
504
  8
PCB
 10
7.468000000000004
 20
60.26600000000001
 30
0.0
  0
VERTEX
  5
505
  8
PCB
 10
7.219999999999999
 20
59.95229999999999
 30
0.0
  0
VERTEX
  5
506
  8
PCB
 10
6.980000000000004
 20
59.63290000000001
 30
0.0
  0
VERTEX
  5
507
  8
PCB
 10
6.748999999999995
 20
59.30800000000001
 30
0.0
  0
VERTEX
  5
508
  8
PCB
 10
6.528000000000006
 20
58.9782
 30
0.0
  0
VERTEX
  5
509
  8
PCB
 10
6.314999999999998
 20
58.64360000000001
 30
0.0
  0
VERTEX
  5
50A
  8
PCB
 10
6.111999999999995
 20
58.3047
 30
0.0
  0
VERTEX
  5
50B
  8
PCB
 10
5.917000000000002
 20
57.9619
 30
0.0
  0
VERTEX
  5
50C
  8
PCB
 10
5.733000000000004
 20
57.6155
 30
0.0
  0
VERTEX
  5
50D
  8
PCB
 10
5.558000000000007
 20
57.2659
 30
0.0
  0
VERTEX
  5
50E
  8
PCB
 10
5.391999999999996
 20
56.9135
 30
0.0
  0
VERTEX
  5
50F
  8
PCB
 10
5.236000000000004
 20
56.5587
 30
0.0
  0
VERTEX
  5
510
  8
PCB
 10
5.088999999999999
 20
56.20189999999999
 30
0.0
  0
VERTEX
  5
511
  8
PCB
 10
4.953000000000003
 20
55.8433
 30
0.0
  0
VERTEX
  5
512
  8
PCB
 10
4.825000000000003
 20
55.48350000000001
 30
0.0
  0
VERTEX
  5
513
  8
PCB
 10
4.707999999999998
 20
55.12269999999999
 30
0.0
  0
VERTEX
  5
514
  8
PCB
 10
4.599000000000004
 20
54.76139999999999
 30
0.0
  0
VERTEX
  5
515
  8
PCB
 10
4.501000000000005
 20
54.3997
 30
0.0
  0
VERTEX
  5
516
  8
PCB
 10
4.411000000000001
 20
54.0382
 30
0.0
  0
VERTEX
  5
517
  8
PCB
 10
4.331000000000003
 20
53.6772
 30
0.0
  0
VERTEX
  5
518
  8
PCB
 10
4.260000000000005
 20
53.3168
 30
0.0
  0
VERTEX
  5
519
  8
PCB
 10
4.197999999999993
 20
52.9576
 30
0.0
  0
VERTEX
  5
51A
  8
PCB
 10
4.144000000000005
 20
52.5997
 30
0.0
  0
VERTEX
  5
51B
  8
PCB
 10
4.099999999999994
 20
52.24339999999999
 30
0.0
  0
VERTEX
  5
51C
  8
PCB
 10
4.063999999999993
 20
51.8891
 30
0.0
  0
VERTEX
  5
51D
  8
PCB
 10
4.036000000000001
 20
51.53700000000001
 30
0.0
  0
VERTEX
  5
51E
  8
PCB
 10
4.016999999999996
 20
51.1874
 30
0.0
  0
VERTEX
  5
51F
  8
PCB
 10
4.004999999999995
 20
50.8404
 30
0.0
  0
VERTEX
  5
520
  8
PCB
 10
4.001000000000005
 20
50.49639999999999
 30
0.0
  0
VERTEX
  5
521
  8
PCB
 10
4.010000000000005
 20
49.9838
 30
0.0
  0
VERTEX
  5
522
  8
PCB
 10
4.034999999999997
 20
49.4649
 30
0.0
  0
VERTEX
  5
523
  8
PCB
 10
4.078999999999994
 20
48.9406
 30
0.0
  0
VERTEX
  5
524
  8
PCB
 10
4.141999999999996
 20
48.4117
 30
0.0
  0
VERTEX
  5
525
  8
PCB
 10
4.224000000000004
 20
47.87909999999999
 30
0.0
  0
VERTEX
  5
526
  8
PCB
 10
4.272000000000006
 20
47.6118
 30
0.0
  0
VERTEX
  5
527
  8
PCB
 10
4.325000000000003
 20
47.3438
 30
0.0
  0
VERTEX
  5
528
  8
PCB
 10
4.382999999999996
 20
47.07550000000001
 30
0.0
  0
VERTEX
  5
529
  8
PCB
 10
4.447000000000003
 20
46.8068
 30
0.0
  0
VERTEX
  5
52A
  8
PCB
 10
4.515000000000001
 20
46.538
 30
0.0
  0
VERTEX
  5
52B
  8
PCB
 10
4.588999999999999
 20
46.26909999999999
 30
0.0
  0
VERTEX
  5
52C
  8
PCB
 10
4.667000000000002
 20
46.0004
 30
0.0
  0
VERTEX
  5
52D
  8
PCB
 10
4.751999999999995
 20
45.7319
 30
0.0
  0
VERTEX
  5
52E
  8
PCB
 10
4.840999999999994
 20
45.46380000000001
 30
0.0
  0
VERTEX
  5
52F
  8
PCB
 10
4.935000000000002
 20
45.19629999999999
 30
0.0
  0
VERTEX
  5
530
  8
PCB
 10
5.034999999999997
 20
44.9294
 30
0.0
  0
VERTEX
  5
531
  8
PCB
 10
5.141000000000005
 20
44.6634
 30
0.0
  0
VERTEX
  5
532
  8
PCB
 10
5.251000000000005
 20
44.3984
 30
0.0
  0
VERTEX
  5
533
  8
PCB
 10
5.367000000000004
 20
44.13460000000001
 30
0.0
  0
VERTEX
  5
534
  8
PCB
 10
5.488
 20
43.8721
 30
0.0
  0
VERTEX
  5
535
  8
PCB
 10
5.614000000000004
 20
43.611
 30
0.0
  0
VERTEX
  5
536
  8
PCB
 10
5.745999999999995
 20
43.3515
 30
0.0
  0
VERTEX
  5
537
  8
PCB
 10
5.882999999999996
 20
43.0939
 30
0.0
  0
VERTEX
  5
538
  8
PCB
 10
6.025000000000006
 20
42.8381
 30
0.0
  0
VERTEX
  5
539
  8
PCB
 10
6.173000000000002
 20
42.5844
 30
0.0
  0
VERTEX
  5
53A
  8
PCB
 10
6.325000000000003
 20
42.333
 30
0.0
  0
VERTEX
  5
53B
  8
PCB
 10
6.483000000000004
 20
42.084
 30
0.0
  0
VERTEX
  5
53C
  8
PCB
 10
6.644999999999996
 20
41.83750000000001
 30
0.0
  0
VERTEX
  5
53D
  8
PCB
 10
6.813000000000002
 20
41.5937
 30
0.0
  0
VERTEX
  5
53E
  8
PCB
 10
6.984999999999999
 20
41.3528
 30
0.0
  0
VERTEX
  5
53F
  8
PCB
 10
7.162999999999997
 20
41.11490000000001
 30
0.0
  0
VERTEX
  5
540
  8
PCB
 10
7.344999999999999
 20
40.88
 30
0.0
  0
VERTEX
  5
541
  8
PCB
 10
7.531999999999996
 20
40.6485
 30
0.0
  0
VERTEX
  5
542
  8
PCB
 10
7.722999999999999
 20
40.4204
 30
0.0
  0
VERTEX
  5
543
  8
PCB
 10
7.918999999999997
 20
40.19580000000001
 30
0.0
  0
VERTEX
  5
544
  8
PCB
 10
8.119
 20
39.97499999999999
 30
0.0
  0
VERTEX
  5
545
  8
PCB
 10
8.323999999999998
 20
39.758
 30
0.0
  0
VERTEX
  5
546
  8
PCB
 10
8.531999999999996
 20
39.545
 30
0.0
  0
VERTEX
  5
547
  8
PCB
 10
8.745000000000005
 20
39.336
 30
0.0
  0
VERTEX
  5
548
  8
PCB
 10
8.962000000000003
 20
39.131
 30
0.0
  0
VERTEX
  5
549
  8
PCB
 10
9.183000000000007
 20
38.93000000000001
 30
0.0
  0
VERTEX
  5
54A
  8
PCB
 10
9.406999999999996
 20
38.73399999999999
 30
0.0
  0
VERTEX
  5
54B
  8
PCB
 10
9.635000000000005
 20
38.542
 30
0.0
  0
VERTEX
  5
54C
  8
PCB
 10
9.866
 20
38.355
 30
0.0
  0
VERTEX
  5
54D
  8
PCB
 10
10.09999999999999
 20
38.173
 30
0.0
  0
VERTEX
  5
54E
  8
PCB
 10
10.33799999999999
 20
37.995
 30
0.0
  0
VERTEX
  5
54F
  8
PCB
 10
10.57899999999999
 20
37.822
 30
0.0
  0
VERTEX
  5
550
  8
PCB
 10
10.822
 20
37.654
 30
0.0
  0
VERTEX
  5
551
  8
PCB
 10
11.069
 20
37.491
 30
0.0
  0
VERTEX
  5
552
  8
PCB
 10
11.318
 20
37.333
 30
0.0
  0
VERTEX
  5
553
  8
PCB
 10
11.569
 20
37.18000000000001
 30
0.0
  0
VERTEX
  5
554
  8
PCB
 10
11.822
 20
37.032
 30
0.0
  0
VERTEX
  5
555
  8
PCB
 10
12.078
 20
36.89
 30
0.0
  0
VERTEX
  5
556
  8
PCB
 10
12.33499999999999
 20
36.752
 30
0.0
  0
VERTEX
  5
557
  8
PCB
 10
12.595
 20
36.62
 30
0.0
  0
VERTEX
  5
558
  8
PCB
 10
12.85599999999999
 20
36.49299999999999
 30
0.0
  0
VERTEX
  5
559
  8
PCB
 10
13.11799999999999
 20
36.372
 30
0.0
  0
VERTEX
  5
55A
  8
PCB
 10
13.38200000000001
 20
36.255
 30
0.0
  0
VERTEX
  5
55B
  8
PCB
 10
13.64700000000001
 20
36.145
 30
0.0
  0
VERTEX
  5
55C
  8
PCB
 10
13.691
 20
36.127
 30
0.0
  0
VERTEX
  5
55D
  8
PCB
 10
13.73699999999999
 20
36.11
 30
0.0
  0
VERTEX
  5
55E
  8
PCB
 10
13.783
 20
36.095
 30
0.0
  0
VERTEX
  5
55F
  8
PCB
 10
13.82899999999999
 20
36.08
 30
0.0
  0
VERTEX
  5
560
  8
PCB
 10
13.875
 20
36.06699999999999
 30
0.0
  0
VERTEX
  5
561
  8
PCB
 10
13.922
 20
36.05500000000001
 30
0.0
  0
VERTEX
  5
562
  8
PCB
 10
13.97
 20
36.044
 30
0.0
  0
VERTEX
  5
563
  8
PCB
 10
14.017
 20
36.03400000000001
 30
0.0
  0
VERTEX
  5
564
  8
PCB
 10
14.065
 20
36.02500000000001
 30
0.0
  0
VERTEX
  5
565
  8
PCB
 10
14.113
 20
36.017
 30
0.0
  0
VERTEX
  5
566
  8
PCB
 10
14.161
 20
36.011
 30
0.0
  0
VERTEX
  5
567
  8
PCB
 10
14.209
 20
36.006
 30
0.0
  0
VERTEX
  5
568
  8
PCB
 10
14.25700000000001
 20
36.002
 30
0.0
  0
VERTEX
  5
569
  8
PCB
 10
14.306
 20
35.999
 30
0.0
  0
VERTEX
  5
56A
  8
PCB
 10
14.354
 20
35.997
 30
0.0
  0
VERTEX
  5
56B
  8
PCB
 10
14.402
 20
35.996
 30
0.0
  0
VERTEX
  5
56C
  8
PCB
 10
16.25
 20
36.0
 30
0.0
 42
-0.9999999999999999
  0
VERTEX
  5
56D
  8
PCB
 10
16.25
 20
34.0
 30
0.0
  0
VERTEX
  5
56E
  8
PCB
 10
14.402
 20
33.996
 30
0.0
  0
VERTEX
  5
56F
  8
PCB
 10
14.354
 20
33.996
 30
0.0
  0
VERTEX
  5
570
  8
PCB
 10
14.306
 20
33.994
 30
0.0
  0
VERTEX
  5
571
  8
PCB
 10
14.25700000000001
 20
33.991
 30
0.0
  0
VERTEX
  5
572
  8
PCB
 10
14.209
 20
33.98699999999999
 30
0.0
  0
VERTEX
  5
573
  8
PCB
 10
14.161
 20
33.982
 30
0.0
  0
VERTEX
  5
574
  8
PCB
 10
14.113
 20
33.97499999999999
 30
0.0
  0
VERTEX
  5
575
  8
PCB
 10
14.065
 20
33.968
 30
0.0
  0
VERTEX
  5
576
  8
PCB
 10
14.017
 20
33.959
 30
0.0
  0
VERTEX
  5
577
  8
PCB
 10
13.97
 20
33.949
 30
0.0
  0
VERTEX
  5
578
  8
PCB
 10
13.922
 20
33.938
 30
0.0
  0
VERTEX
  5
579
  8
PCB
 10
13.875
 20
33.926
 30
0.0
  0
VERTEX
  5
57A
  8
PCB
 10
13.783
 20
33.898
 30
0.0
  0
VERTEX
  5
57B
  8
PCB
 10
13.73699999999999
 20
33.883
 30
0.0
  0
VERTEX
  5
57C
  8
PCB
 10
13.691
 20
33.866
 30
0.0
  0
VERTEX
  5
57D
  8
PCB
 10
13.64700000000001
 20
33.848
 30
0.0
  0
VERTEX
  5
57E
  8
PCB
 10
13.38200000000001
 20
33.73699999999999
 30
0.0
  0
VERTEX
  5
57F
  8
PCB
 10
13.11799999999999
 20
33.621
 30
0.0
  0
VERTEX
  5
580
  8
PCB
 10
12.85599999999999
 20
33.5
 30
0.0
  0
VERTEX
  5
581
  8
PCB
 10
12.595
 20
33.373
 30
0.0
  0
VERTEX
  5
582
  8
PCB
 10
12.33499999999999
 20
33.241
 30
0.0
  0
VERTEX
  5
583
  8
PCB
 10
12.078
 20
33.10299999999999
 30
0.0
  0
VERTEX
  5
584
  8
PCB
 10
11.822
 20
32.961
 30
0.0
  0
VERTEX
  5
585
  8
PCB
 10
11.569
 20
32.813
 30
0.0
  0
VERTEX
  5
586
  8
PCB
 10
11.318
 20
32.66
 30
0.0
  0
VERTEX
  5
587
  8
PCB
 10
11.069
 20
32.502
 30
0.0
  0
VERTEX
  5
588
  8
PCB
 10
10.822
 20
32.339
 30
0.0
  0
VERTEX
  5
589
  8
PCB
 10
10.57899999999999
 20
32.17100000000001
 30
0.0
  0
VERTEX
  5
58A
  8
PCB
 10
10.33799999999999
 20
31.998
 30
0.0
  0
VERTEX
  5
58B
  8
PCB
 10
10.09999999999999
 20
31.81999999999999
 30
0.0
  0
VERTEX
  5
58C
  8
PCB
 10
9.866
 20
31.63800000000001
 30
0.0
  0
VERTEX
  5
58D
  8
PCB
 10
9.635000000000005
 20
31.45099999999999
 30
0.0
  0
VERTEX
  5
58E
  8
PCB
 10
9.406999999999996
 20
31.259
 30
0.0
  0
VERTEX
  5
58F
  8
PCB
 10
9.183000000000007
 20
31.063
 30
0.0
  0
VERTEX
  5
590
  8
PCB
 10
8.962000000000003
 20
30.86199999999999
 30
0.0
  0
VERTEX
  5
591
  8
PCB
 10
8.745000000000005
 20
30.657
 30
0.0
  0
VERTEX
  5
592
  8
PCB
 10
8.531999999999996
 20
30.44799999999999
 30
0.0
  0
VERTEX
  5
593
  8
PCB
 10
8.323999999999998
 20
30.235
 30
0.0
  0
VERTEX
  5
594
  8
PCB
 10
8.119
 20
30.018
 30
0.0
  0
VERTEX
  5
595
  8
PCB
 10
7.918999999999997
 20
29.797
 30
0.0
  0
VERTEX
  5
596
  8
PCB
 10
7.722999999999999
 20
29.572
 30
0.0
  0
VERTEX
  5
597
  8
PCB
 10
7.531999999999996
 20
29.34399999999999
 30
0.0
  0
VERTEX
  5
598
  8
PCB
 10
7.344999999999999
 20
29.113
 30
0.0
  0
VERTEX
  5
599
  8
PCB
 10
7.162999999999997
 20
28.878
 30
0.0
  0
VERTEX
  5
59A
  8
PCB
 10
6.984999999999999
 20
28.64
 30
0.0
  0
VERTEX
  5
59B
  8
PCB
 10
6.813000000000002
 20
28.399
 30
0.0
  0
VERTEX
  5
59C
  8
PCB
 10
6.644999999999996
 20
28.155
 30
0.0
  0
VERTEX
  5
59D
  8
PCB
 10
6.483000000000004
 20
27.90900000000001
 30
0.0
  0
VERTEX
  5
59E
  8
PCB
 10
6.325000000000003
 20
27.66
 30
0.0
  0
VERTEX
  5
59F
  8
PCB
 10
6.173000000000002
 20
27.408
 30
0.0
  0
VERTEX
  5
5A0
  8
PCB
 10
6.025000000000006
 20
27.155
 30
0.0
  0
VERTEX
  5
5A1
  8
PCB
 10
5.882999999999996
 20
26.899
 30
0.0
  0
VERTEX
  5
5A2
  8
PCB
 10
5.745999999999995
 20
26.64100000000001
 30
0.0
  0
VERTEX
  5
5A3
  8
PCB
 10
5.614000000000004
 20
26.38200000000001
 30
0.0
  0
VERTEX
  5
5A4
  8
PCB
 10
5.488
 20
26.121
 30
0.0
  0
VERTEX
  5
5A5
  8
PCB
 10
5.367000000000004
 20
25.858
 30
0.0
  0
VERTEX
  5
5A6
  8
PCB
 10
5.251000000000005
 20
25.59399999999999
 30
0.0
  0
VERTEX
  5
5A7
  8
PCB
 10
5.141000000000005
 20
25.32899999999999
 30
0.0
  0
VERTEX
  5
5A8
  8
PCB
 10
5.034999999999997
 20
25.063
 30
0.0
  0
VERTEX
  5
5A9
  8
PCB
 10
4.935000000000002
 20
24.797
 30
0.0
  0
VERTEX
  5
5AA
  8
PCB
 10
4.840999999999994
 20
24.529
 30
0.0
  0
VERTEX
  5
5AB
  8
PCB
 10
4.751999999999995
 20
24.261
 30
0.0
  0
VERTEX
  5
5AC
  8
PCB
 10
4.667000000000002
 20
23.992
 30
0.0
  0
VERTEX
  5
5AD
  8
PCB
 10
4.588999999999999
 20
23.724
 30
0.0
  0
VERTEX
  5
5AE
  8
PCB
 10
4.515000000000001
 20
23.455
 30
0.0
  0
VERTEX
  5
5AF
  8
PCB
 10
4.447000000000003
 20
23.18600000000001
 30
0.0
  0
VERTEX
  5
5B0
  8
PCB
 10
4.382999999999996
 20
22.917
 30
0.0
  0
VERTEX
  5
5B1
  8
PCB
 10
4.325000000000003
 20
22.649
 30
0.0
  0
VERTEX
  5
5B2
  8
PCB
 10
4.272000000000006
 20
22.381
 30
0.0
  0
VERTEX
  5
5B3
  8
PCB
 10
4.224000000000004
 20
22.114
 30
0.0
  0
VERTEX
  5
5B4
  8
PCB
 10
4.141999999999996
 20
21.581
 30
0.0
  0
VERTEX
  5
5B5
  8
PCB
 10
4.078999999999994
 20
21.05200000000001
 30
0.0
  0
VERTEX
  5
5B6
  8
PCB
 10
4.034999999999997
 20
20.52800000000001
 30
0.0
  0
VERTEX
  5
5B7
  8
PCB
 10
4.010000000000005
 20
20.009
 30
0.0
  0
VERTEX
  5
5B8
  8
PCB
 10
4.001000000000005
 20
19.496
 30
0.0
  0
VERTEX
  5
5B9
  8
PCB
 10
4.004999999999995
 20
19.152
 30
0.0
  0
VERTEX
  5
5BA
  8
PCB
 10
4.016999999999996
 20
18.80500000000001
 30
0.0
  0
VERTEX
  5
5BB
  8
PCB
 10
4.036000000000001
 20
18.456
 30
0.0
  0
VERTEX
  5
5BC
  8
PCB
 10
4.063999999999993
 20
18.104
 30
0.0
  0
VERTEX
  5
5BD
  8
PCB
 10
4.099999999999994
 20
17.749
 30
0.0
  0
VERTEX
  5
5BE
  8
PCB
 10
4.144000000000005
 20
17.393
 30
0.0
  0
VERTEX
  5
5BF
  8
PCB
 10
4.197999999999993
 20
17.035
 30
0.0
  0
VERTEX
  5
5C0
  8
PCB
 10
4.260000000000005
 20
16.676
 30
0.0
  0
VERTEX
  5
5C1
  8
PCB
 10
4.331000000000003
 20
16.316
 30
0.0
  0
VERTEX
  5
5C2
  8
PCB
 10
4.411000000000001
 20
15.955
 30
0.0
  0
VERTEX
  5
5C3
  8
PCB
 10
4.501000000000005
 20
15.593
 30
0.0
  0
VERTEX
  5
5C4
  8
PCB
 10
4.599000000000004
 20
15.23099999999999
 30
0.0
  0
VERTEX
  5
5C5
  8
PCB
 10
4.707999999999998
 20
14.87
 30
0.0
  0
VERTEX
  5
5C6
  8
PCB
 10
4.825000000000003
 20
14.509
 30
0.0
  0
VERTEX
  5
5C7
  8
PCB
 10
4.953000000000003
 20
14.149
 30
0.0
  0
VERTEX
  5
5C8
  8
PCB
 10
5.088999999999999
 20
13.791
 30
0.0
  0
VERTEX
  5
5C9
  8
PCB
 10
5.236000000000004
 20
13.434
 30
0.0
  0
VERTEX
  5
5CA
  8
PCB
 10
5.391999999999996
 20
13.07899999999999
 30
0.0
  0
VERTEX
  5
5CB
  8
PCB
 10
5.558000000000007
 20
12.727
 30
0.0
  0
VERTEX
  5
5CC
  8
PCB
 10
5.733000000000004
 20
12.377
 30
0.0
  0
VERTEX
  5
5CD
  8
PCB
 10
5.917000000000002
 20
12.03100000000001
 30
0.0
  0
VERTEX
  5
5CE
  8
PCB
 10
6.111999999999995
 20
11.68799999999999
 30
0.0
  0
VERTEX
  5
5CF
  8
PCB
 10
6.314999999999998
 20
11.34899999999999
 30
0.0
  0
VERTEX
  5
5D0
  8
PCB
 10
6.528000000000006
 20
11.01499999999999
 30
0.0
  0
VERTEX
  5
5D1
  8
PCB
 10
6.748999999999995
 20
10.685
 30
0.0
  0
VERTEX
  5
5D2
  8
PCB
 10
6.980000000000004
 20
10.36000000000001
 30
0.0
  0
VERTEX
  5
5D3
  8
PCB
 10
7.219999999999999
 20
10.03999999999999
 30
0.0
  0
VERTEX
  5
5D4
  8
PCB
 10
7.468000000000004
 20
9.727000000000004
 30
0.0
  0
VERTEX
  5
5D5
  8
PCB
 10
7.724000000000004
 20
9.419000000000011
 30
0.0
  0
VERTEX
  5
5D6
  8
PCB
 10
7.989000000000004
 20
9.117999999999995
 30
0.0
  0
VERTEX
  5
5D7
  8
PCB
 10
8.260999999999996
 20
8.824000000000012
 30
0.0
  0
VERTEX
  5
5D8
  8
PCB
 10
8.540999999999997
 20
8.536000000000001
 30
0.0
  0
VERTEX
  5
5D9
  8
PCB
 10
8.828000000000003
 20
8.256
 30
0.0
  0
VERTEX
  5
5DA
  8
PCB
 10
9.123000000000005
 20
7.984000000000009
 30
0.0
  0
VERTEX
  5
5DB
  8
PCB
 10
9.424000000000007
 20
7.718999999999994
 30
0.0
  0
VERTEX
  5
5DC
  8
PCB
 10
9.730999999999995
 20
7.462999999999994
 30
0.0
  0
VERTEX
  5
5DD
  8
PCB
 10
10.045
 20
7.215000000000003
 30
0.0
  0
VERTEX
  5
5DE
  8
PCB
 10
10.36499999999999
 20
6.974999999999994
 30
0.0
  0
VERTEX
  5
5DF
  8
PCB
 10
10.68899999999999
 20
6.745000000000005
 30
0.0
  0
VERTEX
  5
5E0
  8
PCB
 10
11.01900000000001
 20
6.522999999999996
 30
0.0
  0
VERTEX
  5
5E1
  8
PCB
 10
11.354
 20
6.310000000000002
 30
0.0
  0
VERTEX
  5
5E2
  8
PCB
 10
11.693
 20
6.106999999999999
 30
0.0
  0
VERTEX
  5
5E3
  8
PCB
 10
12.036
 20
5.913000000000011
 30
0.0
  0
VERTEX
  5
5E4
  8
PCB
 10
12.38200000000001
 20
5.728000000000009
 30
0.0
  0
VERTEX
  5
5E5
  8
PCB
 10
12.732
 20
5.552999999999997
 30
0.0
  0
VERTEX
  5
5E6
  8
PCB
 10
13.084
 20
5.387
 30
0.0
  0
VERTEX
  5
5E7
  8
PCB
 10
13.43899999999999
 20
5.230999999999995
 30
0.0
  0
VERTEX
  5
5E8
  8
PCB
 10
13.79600000000001
 20
5.085000000000008
 30
0.0
  0
VERTEX
  5
5E9
  8
PCB
 10
14.154
 20
4.948000000000008
 30
0.0
  0
VERTEX
  5
5EA
  8
PCB
 10
14.51400000000001
 20
4.820999999999998
 30
0.0
  0
VERTEX
  5
5EB
  8
PCB
 10
14.875
 20
4.703000000000003
 30
0.0
  0
VERTEX
  5
5EC
  8
PCB
 10
15.23599999999999
 20
4.594999999999999
 30
0.0
  0
VERTEX
  5
5ED
  8
PCB
 10
15.59800000000001
 20
4.496000000000009
 30
0.0
  0
VERTEX
  5
5EE
  8
PCB
 10
15.959
 20
4.406000000000006
 30
0.0
  0
VERTEX
  5
5EF
  8
PCB
 10
16.31999999999999
 20
4.325999999999993
 30
0.0
  0
VERTEX
  5
5F0
  8
PCB
 10
16.68100000000001
 20
4.254999999999995
 30
0.0
  0
VERTEX
  5
5F1
  8
PCB
 10
17.03999999999999
 20
4.193000000000012
 30
0.0
  0
VERTEX
  5
5F2
  8
PCB
 10
17.398
 20
4.139999999999986
 30
0.0
  0
VERTEX
  5
5F3
  8
PCB
 10
17.75399999999999
 20
4.094999999999999
 30
0.0
  0
VERTEX
  5
5F4
  8
PCB
 10
18.108
 20
4.058999999999997
 30
0.0
  0
VERTEX
  5
5F5
  8
PCB
 10
18.46000000000001
 20
4.031000000000006
 30
0.0
  0
VERTEX
  5
5F6
  8
PCB
 10
18.81
 20
4.012
 30
0.0
  0
VERTEX
  5
5F7
  8
PCB
 10
19.15700000000001
 20
4.0
 30
0.0
  0
VERTEX
  5
5F8
  8
PCB
 10
19.501
 20
3.996000000000009
 30
0.0
  0
VERTEX
  5
5F9
  8
PCB
 10
20.01400000000001
 20
4.004999999999995
 30
0.0
  0
VERTEX
  5
5FA
  8
PCB
 10
20.53299999999999
 20
4.031000000000006
 30
0.0
  0
VERTEX
  5
5FB
  8
PCB
 10
21.05699999999999
 20
4.074999999999989
 30
0.0
  0
VERTEX
  5
5FC
  8
PCB
 10
21.58600000000001
 20
4.137
 30
0.0
  0
VERTEX
  5
5FD
  8
PCB
 10
22.11799999999999
 20
4.218999999999994
 30
0.0
  0
VERTEX
  5
5FE
  8
PCB
 10
22.386
 20
4.266999999999996
 30
0.0
  0
VERTEX
  5
5FF
  8
PCB
 10
22.654
 20
4.319999999999993
 30
0.0
  0
VERTEX
  5
600
  8
PCB
 10
22.922
 20
4.378999999999991
 30
0.0
  0
VERTEX
  5
601
  8
PCB
 10
23.191
 20
4.442000000000007
 30
0.0
  0
VERTEX
  5
602
  8
PCB
 10
23.46000000000001
 20
4.509999999999991
 30
0.0
  0
VERTEX
  5
603
  8
PCB
 10
23.72800000000001
 20
4.584000000000003
 30
0.0
  0
VERTEX
  5
604
  8
PCB
 10
23.99700000000001
 20
4.663000000000011
 30
0.0
  0
VERTEX
  5
605
  8
PCB
 10
24.26599999999999
 20
4.747000000000014
 30
0.0
  0
VERTEX
  5
606
  8
PCB
 10
24.53399999999999
 20
4.836000000000013
 30
0.0
  0
VERTEX
  5
607
  8
PCB
 10
24.80099999999999
 20
4.931000000000012
 30
0.0
  0
VERTEX
  5
608
  8
PCB
 10
25.06800000000001
 20
5.031000000000006
 30
0.0
  0
VERTEX
  5
609
  8
PCB
 10
25.334
 20
5.135999999999996
 30
0.0
  0
VERTEX
  5
60A
  8
PCB
 10
25.59899999999999
 20
5.246000000000009
 30
0.0
  0
VERTEX
  5
60B
  8
PCB
 10
25.863
 20
5.361999999999995
 30
0.0
  0
VERTEX
  5
60C
  8
PCB
 10
26.125
 20
5.483000000000004
 30
0.0
  0
VERTEX
  5
60D
  8
PCB
 10
26.387
 20
5.610000000000014
 30
0.0
  0
VERTEX
  5
60E
  8
PCB
 10
26.64599999999999
 20
5.741000000000014
 30
0.0
  0
VERTEX
  5
60F
  8
PCB
 10
26.904
 20
5.877999999999986
 30
0.0
  0
VERTEX
  5
610
  8
PCB
 10
27.15899999999999
 20
6.02000000000001
 30
0.0
  0
VERTEX
  5
611
  8
PCB
 10
27.41300000000001
 20
6.168000000000006
 30
0.0
  0
VERTEX
  5
612
  8
PCB
 10
27.66399999999999
 20
6.319999999999993
 30
0.0
  0
VERTEX
  5
613
  8
PCB
 10
27.91300000000001
 20
6.478000000000009
 30
0.0
  0
VERTEX
  5
614
  8
PCB
 10
28.16
 20
6.640999999999991
 30
0.0
  0
VERTEX
  5
615
  8
PCB
 10
28.404
 20
6.807999999999993
 30
0.0
  0
VERTEX
  5
616
  8
PCB
 10
28.64500000000001
 20
6.980999999999995
 30
0.0
  0
VERTEX
  5
617
  8
PCB
 10
28.88300000000001
 20
7.157999999999987
 30
0.0
  0
VERTEX
  5
618
  8
PCB
 10
29.11699999999999
 20
7.340000000000003
 30
0.0
  0
VERTEX
  5
619
  8
PCB
 10
29.34899999999999
 20
7.526999999999987
 30
0.0
  0
VERTEX
  5
61A
  8
PCB
 10
29.577
 20
7.717999999999989
 30
0.0
  0
VERTEX
  5
61B
  8
PCB
 10
29.80199999999999
 20
7.913999999999987
 30
0.0
  0
VERTEX
  5
61C
  8
PCB
 10
30.023
 20
8.114000000000004
 30
0.0
  0
VERTEX
  5
61D
  8
PCB
 10
30.24000000000001
 20
8.318999999999988
 30
0.0
  0
VERTEX
  5
61E
  8
PCB
 10
30.453
 20
8.527999999999992
 30
0.0
  0
VERTEX
  5
61F
  8
PCB
 10
30.66200000000001
 20
8.741000000000014
 30
0.0
  0
VERTEX
  5
620
  8
PCB
 10
30.86699999999999
 20
8.956999999999994
 30
0.0
  0
VERTEX
  5
621
  8
PCB
 10
31.06700000000001
 20
9.177999999999997
 30
0.0
  0
VERTEX
  5
622
  8
PCB
 10
31.26400000000001
 20
9.401999999999987
 30
0.0
  0
VERTEX
  5
623
  8
PCB
 10
31.45500000000001
 20
9.629999999999995
 30
0.0
  0
VERTEX
  5
624
  8
PCB
 10
31.642
 20
9.86099999999999
 30
0.0
  0
VERTEX
  5
625
  8
PCB
 10
31.82499999999999
 20
10.096
 30
0.0
  0
VERTEX
  5
626
  8
PCB
 10
32.00299999999999
 20
10.333
 30
0.0
  0
VERTEX
  5
627
  8
PCB
 10
32.17599999999999
 20
10.57400000000001
 30
0.0
  0
VERTEX
  5
628
  8
PCB
 10
32.34399999999999
 20
10.81800000000001
 30
0.0
  0
VERTEX
  5
629
  8
PCB
 10
32.50700000000001
 20
11.06399999999999
 30
0.0
  0
VERTEX
  5
62A
  8
PCB
 10
32.66499999999999
 20
11.31299999999999
 30
0.0
  0
VERTEX
  5
62B
  8
PCB
 10
32.81800000000001
 20
11.56399999999999
 30
0.0
  0
VERTEX
  5
62C
  8
PCB
 10
32.965
 20
11.81800000000001
 30
0.0
  0
VERTEX
  5
62D
  8
PCB
 10
33.108
 20
12.07299999999999
 30
0.0
  0
VERTEX
  5
62E
  8
PCB
 10
33.245
 20
12.331
 30
0.0
  0
VERTEX
  5
62F
  8
PCB
 10
33.37700000000001
 20
12.59
 30
0.0
  0
VERTEX
  5
630
  8
PCB
 10
33.50399999999999
 20
12.851
 30
0.0
  0
VERTEX
  5
631
  8
PCB
 10
33.626
 20
13.113
 30
0.0
  0
VERTEX
  5
632
  8
PCB
 10
33.74199999999999
 20
13.377
 30
0.0
  0
VERTEX
  5
633
  8
PCB
 10
33.85300000000001
 20
13.642
 30
0.0
  0
VERTEX
  5
634
  8
PCB
 10
33.87100000000001
 20
13.687
 30
0.0
  0
VERTEX
  5
635
  8
PCB
 10
33.887
 20
13.732
 30
0.0
  0
VERTEX
  5
636
  8
PCB
 10
33.90299999999999
 20
13.77800000000001
 30
0.0
  0
VERTEX
  5
637
  8
PCB
 10
33.917
 20
13.824
 30
0.0
  0
VERTEX
  5
638
  8
PCB
 10
33.93100000000001
 20
13.871
 30
0.0
  0
VERTEX
  5
639
  8
PCB
 10
33.94300000000001
 20
13.91800000000001
 30
0.0
  0
VERTEX
  5
63A
  8
PCB
 10
33.95400000000001
 20
13.965
 30
0.0
  0
VERTEX
  5
63B
  8
PCB
 10
33.964
 20
14.012
 30
0.0
  0
VERTEX
  5
63C
  8
PCB
 10
33.97999999999999
 20
14.108
 30
0.0
  0
VERTEX
  5
63D
  8
PCB
 10
33.98699999999999
 20
14.15600000000001
 30
0.0
  0
VERTEX
  5
63E
  8
PCB
 10
33.99199999999999
 20
14.20399999999999
 30
0.0
  0
VERTEX
  5
63F
  8
PCB
 10
33.99600000000001
 20
14.253
 30
0.0
  0
VERTEX
  5
640
  8
PCB
 10
33.999
 20
14.301
 30
0.0
  0
VERTEX
  5
641
  8
PCB
 10
34.001
 20
14.349
 30
0.0
  0
VERTEX
  5
642
  8
PCB
 10
34.001
 20
14.39700000000001
 30
0.0
  0
VERTEX
  5
643
  8
PCB
 10
34.0
 20
16.25
 30
0.0
 42
-0.9999999999999999
  0
VERTEX
  5
644
  8
PCB
 10
36.0
 20
16.25
 30
0.0
  0
VERTEX
  5
645
  8
PCB
 10
36.001
 20
14.39700000000001
 30
0.0
  0
VERTEX
  5
646
  8
PCB
 10
36.00299999999999
 20
14.301
 30
0.0
  0
VERTEX
  5
647
  8
PCB
 10
36.006
 20
14.253
 30
0.0
  0
VERTEX
  5
648
  8
PCB
 10
36.00999999999999
 20
14.20399999999999
 30
0.0
  0
VERTEX
  5
649
  8
PCB
 10
36.02199999999999
 20
14.108
 30
0.0
  0
VERTEX
  5
64A
  8
PCB
 10
36.03
 20
14.06
 30
0.0
  0
VERTEX
  5
64B
  8
PCB
 10
36.03800000000001
 20
14.012
 30
0.0
  0
VERTEX
  5
64C
  8
PCB
 10
36.048
 20
13.965
 30
0.0
  0
VERTEX
  5
64D
  8
PCB
 10
36.059
 20
13.91800000000001
 30
0.0
  0
VERTEX
  5
64E
  8
PCB
 10
36.08500000000001
 20
13.824
 30
0.0
  0
VERTEX
  5
64F
  8
PCB
 10
36.09899999999999
 20
13.77800000000001
 30
0.0
  0
VERTEX
  5
650
  8
PCB
 10
36.11500000000001
 20
13.732
 30
0.0
  0
VERTEX
  5
651
  8
PCB
 10
36.149
 20
13.642
 30
0.0
  0
VERTEX
  5
652
  8
PCB
 10
36.25999999999999
 20
13.377
 30
0.0
  0
VERTEX
  5
653
  8
PCB
 10
36.376
 20
13.113
 30
0.0
  0
VERTEX
  5
654
  8
PCB
 10
36.49799999999999
 20
12.851
 30
0.0
  0
VERTEX
  5
655
  8
PCB
 10
36.625
 20
12.59
 30
0.0
  0
VERTEX
  5
656
  8
PCB
 10
36.75700000000001
 20
12.331
 30
0.0
  0
VERTEX
  5
657
  8
PCB
 10
36.89400000000001
 20
12.07299999999999
 30
0.0
  0
VERTEX
  5
658
  8
PCB
 10
37.03700000000001
 20
11.81800000000001
 30
0.0
  0
VERTEX
  5
659
  8
PCB
 10
37.185
 20
11.56399999999999
 30
0.0
  0
VERTEX
  5
65A
  8
PCB
 10
37.33799999999999
 20
11.31299999999999
 30
0.0
  0
VERTEX
  5
65B
  8
PCB
 10
37.49600000000001
 20
11.06399999999999
 30
0.0
  0
VERTEX
  5
65C
  8
PCB
 10
37.65899999999999
 20
10.81800000000001
 30
0.0
  0
VERTEX
  5
65D
  8
PCB
 10
37.827
 20
10.57400000000001
 30
0.0
  0
VERTEX
  5
65E
  8
PCB
 10
37.999
 20
10.333
 30
0.0
  0
VERTEX
  5
65F
  8
PCB
 10
38.17699999999999
 20
10.096
 30
0.0
  0
VERTEX
  5
660
  8
PCB
 10
38.36000000000001
 20
9.86099999999999
 30
0.0
  0
VERTEX
  5
661
  8
PCB
 10
38.547
 20
9.629999999999995
 30
0.0
  0
VERTEX
  5
662
  8
PCB
 10
38.739
 20
9.401999999999987
 30
0.0
  0
VERTEX
  5
663
  8
PCB
 10
38.935
 20
9.177999999999997
 30
0.0
  0
VERTEX
  5
664
  8
PCB
 10
39.13499999999999
 20
8.956999999999994
 30
0.0
  0
VERTEX
  5
665
  8
PCB
 10
39.34
 20
8.741000000000014
 30
0.0
  0
VERTEX
  5
666
  8
PCB
 10
39.54900000000001
 20
8.527999999999992
 30
0.0
  0
VERTEX
  5
667
  8
PCB
 10
39.76300000000001
 20
8.318999999999988
 30
0.0
  0
VERTEX
  5
668
  8
PCB
 10
39.97999999999999
 20
8.114000000000004
 30
0.0
  0
VERTEX
  5
669
  8
PCB
 10
40.20099999999999
 20
7.913999999999987
 30
0.0
  0
VERTEX
  5
66A
  8
PCB
 10
40.42500000000001
 20
7.717999999999989
 30
0.0
  0
VERTEX
  5
66B
  8
PCB
 10
40.65299999999999
 20
7.526999999999987
 30
0.0
  0
VERTEX
  5
66C
  8
PCB
 10
40.88499999999999
 20
7.340000000000003
 30
0.0
  0
VERTEX
  5
66D
  8
PCB
 10
41.12
 20
7.157999999999987
 30
0.0
  0
VERTEX
  5
66E
  8
PCB
 10
41.358
 20
6.980999999999995
 30
0.0
  0
VERTEX
  5
66F
  8
PCB
 10
41.59800000000001
 20
6.807999999999993
 30
0.0
  0
VERTEX
  5
670
  8
PCB
 10
41.84200000000001
 20
6.640999999999991
 30
0.0
  0
VERTEX
  5
671
  8
PCB
 10
42.089
 20
6.478000000000009
 30
0.0
  0
VERTEX
  5
672
  8
PCB
 10
42.33799999999999
 20
6.319999999999993
 30
0.0
  0
VERTEX
  5
673
  8
PCB
 10
42.589
 20
6.168000000000006
 30
0.0
  0
VERTEX
  5
674
  8
PCB
 10
42.84299999999999
 20
6.02000000000001
 30
0.0
  0
VERTEX
  5
675
  8
PCB
 10
43.09899999999999
 20
5.877999999999986
 30
0.0
  0
VERTEX
  5
676
  8
PCB
 10
43.35599999999999
 20
5.741000000000014
 30
0.0
  0
VERTEX
  5
677
  8
PCB
 10
43.61600000000001
 20
5.610000000000014
 30
0.0
  0
VERTEX
  5
678
  8
PCB
 10
43.87700000000001
 20
5.483000000000004
 30
0.0
  0
VERTEX
  5
679
  8
PCB
 10
44.13900000000001
 20
5.361999999999995
 30
0.0
  0
VERTEX
  5
67A
  8
PCB
 10
44.40299999999999
 20
5.246000000000009
 30
0.0
  0
VERTEX
  5
67B
  8
PCB
 10
44.66800000000001
 20
5.135999999999996
 30
0.0
  0
VERTEX
  5
67C
  8
PCB
 10
44.934
 20
5.031000000000006
 30
0.0
  0
VERTEX
  5
67D
  8
PCB
 10
45.20099999999999
 20
4.931000000000012
 30
0.0
  0
VERTEX
  5
67E
  8
PCB
 10
45.46899999999999
 20
4.836000000000013
 30
0.0
  0
VERTEX
  5
67F
  8
PCB
 10
45.73699999999999
 20
4.747000000000014
 30
0.0
  0
VERTEX
  5
680
  8
PCB
 10
46.005
 20
4.663000000000011
 30
0.0
  0
VERTEX
  5
681
  8
PCB
 10
46.274
 20
4.584000000000003
 30
0.0
  0
VERTEX
  5
682
  8
PCB
 10
46.54300000000001
 20
4.509999999999991
 30
0.0
  0
VERTEX
  5
683
  8
PCB
 10
46.81200000000001
 20
4.442000000000007
 30
0.0
  0
VERTEX
  5
684
  8
PCB
 10
47.08000000000001
 20
4.378999999999991
 30
0.0
  0
VERTEX
  5
685
  8
PCB
 10
47.34899999999999
 20
4.319999999999993
 30
0.0
  0
VERTEX
  5
686
  8
PCB
 10
47.61600000000001
 20
4.266999999999996
 30
0.0
  0
VERTEX
  5
687
  8
PCB
 10
47.88399999999999
 20
4.218999999999994
 30
0.0
  0
VERTEX
  5
688
  8
PCB
 10
48.416
 20
4.137
 30
0.0
  0
VERTEX
  5
689
  8
PCB
 10
48.94499999999999
 20
4.074999999999989
 30
0.0
  0
VERTEX
  5
68A
  8
PCB
 10
49.47
 20
4.031000000000006
 30
0.0
  0
VERTEX
  5
68B
  8
PCB
 10
49.988
 20
4.004999999999995
 30
0.0
  0
VERTEX
  5
68C
  8
PCB
 10
50.501
 20
3.996000000000009
 30
0.0
  0
VERTEX
  5
68D
  8
PCB
 10
51.01400000000001
 20
4.004999999999995
 30
0.0
  0
VERTEX
  5
68E
  8
PCB
 10
51.53299999999999
 20
4.031000000000006
 30
0.0
  0
VERTEX
  5
68F
  8
PCB
 10
52.05699999999999
 20
4.074999999999989
 30
0.0
  0
VERTEX
  5
690
  8
PCB
 10
52.58600000000001
 20
4.137
 30
0.0
  0
VERTEX
  5
691
  8
PCB
 10
53.11799999999999
 20
4.218999999999994
 30
0.0
  0
VERTEX
  5
692
  8
PCB
 10
53.386
 20
4.266999999999996
 30
0.0
  0
VERTEX
  5
693
  8
PCB
 10
53.654
 20
4.319999999999993
 30
0.0
  0
VERTEX
  5
694
  8
PCB
 10
53.922
 20
4.378999999999991
 30
0.0
  0
VERTEX
  5
695
  8
PCB
 10
54.191
 20
4.442000000000007
 30
0.0
  0
VERTEX
  5
696
  8
PCB
 10
54.46000000000001
 20
4.509999999999991
 30
0.0
  0
VERTEX
  5
697
  8
PCB
 10
54.72800000000001
 20
4.584000000000003
 30
0.0
  0
VERTEX
  5
698
  8
PCB
 10
54.99700000000001
 20
4.663000000000011
 30
0.0
  0
VERTEX
  5
699
  8
PCB
 10
55.26599999999999
 20
4.747000000000014
 30
0.0
  0
VERTEX
  5
69A
  8
PCB
 10
55.53399999999999
 20
4.836000000000013
 30
0.0
  0
VERTEX
  5
69B
  8
PCB
 10
55.80099999999999
 20
4.931000000000012
 30
0.0
  0
VERTEX
  5
69C
  8
PCB
 10
56.06800000000001
 20
5.031000000000006
 30
0.0
  0
VERTEX
  5
69D
  8
PCB
 10
56.334
 20
5.135999999999996
 30
0.0
  0
VERTEX
  5
69E
  8
PCB
 10
56.59899999999999
 20
5.246000000000009
 30
0.0
  0
VERTEX
  5
69F
  8
PCB
 10
56.863
 20
5.361999999999995
 30
0.0
  0
VERTEX
  5
6A0
  8
PCB
 10
57.125
 20
5.483000000000004
 30
0.0
  0
VERTEX
  5
6A1
  8
PCB
 10
57.387
 20
5.610000000000014
 30
0.0
  0
VERTEX
  5
6A2
  8
PCB
 10
57.64599999999999
 20
5.741000000000014
 30
0.0
  0
VERTEX
  5
6A3
  8
PCB
 10
57.904
 20
5.877999999999986
 30
0.0
  0
VERTEX
  5
6A4
  8
PCB
 10
58.15899999999999
 20
6.02000000000001
 30
0.0
  0
VERTEX
  5
6A5
  8
PCB
 10
58.41300000000001
 20
6.168000000000006
 30
0.0
  0
VERTEX
  5
6A6
  8
PCB
 10
58.66399999999999
 20
6.319999999999993
 30
0.0
  0
VERTEX
  5
6A7
  8
PCB
 10
58.91300000000001
 20
6.478000000000009
 30
0.0
  0
VERTEX
  5
6A8
  8
PCB
 10
59.16
 20
6.640999999999991
 30
0.0
  0
VERTEX
  5
6A9
  8
PCB
 10
59.404
 20
6.807999999999993
 30
0.0
  0
VERTEX
  5
6AA
  8
PCB
 10
59.64500000000001
 20
6.980999999999995
 30
0.0
  0
VERTEX
  5
6AB
  8
PCB
 10
59.88300000000001
 20
7.157999999999987
 30
0.0
  0
VERTEX
  5
6AC
  8
PCB
 10
60.11699999999999
 20
7.340000000000003
 30
0.0
  0
VERTEX
  5
6AD
  8
PCB
 10
60.34899999999999
 20
7.526999999999987
 30
0.0
  0
VERTEX
  5
6AE
  8
PCB
 10
60.577
 20
7.717999999999989
 30
0.0
  0
VERTEX
  5
6AF
  8
PCB
 10
60.80199999999999
 20
7.913999999999987
 30
0.0
  0
VERTEX
  5
6B0
  8
PCB
 10
61.023
 20
8.114000000000004
 30
0.0
  0
VERTEX
  5
6B1
  8
PCB
 10
61.24000000000001
 20
8.318999999999988
 30
0.0
  0
VERTEX
  5
6B2
  8
PCB
 10
61.453
 20
8.527999999999992
 30
0.0
  0
VERTEX
  5
6B3
  8
PCB
 10
61.66200000000001
 20
8.741000000000014
 30
0.0
  0
VERTEX
  5
6B4
  8
PCB
 10
61.86699999999999
 20
8.956999999999994
 30
0.0
  0
VERTEX
  5
6B5
  8
PCB
 10
62.06700000000001
 20
9.177999999999997
 30
0.0
  0
VERTEX
  5
6B6
  8
PCB
 10
62.26400000000001
 20
9.401999999999987
 30
0.0
  0
VERTEX
  5
6B7
  8
PCB
 10
62.45500000000001
 20
9.629999999999995
 30
0.0
  0
VERTEX
  5
6B8
  8
PCB
 10
62.642
 20
9.86099999999999
 30
0.0
  0
VERTEX
  5
6B9
  8
PCB
 10
62.82499999999999
 20
10.096
 30
0.0
  0
VERTEX
  5
6BA
  8
PCB
 10
63.00299999999999
 20
10.333
 30
0.0
  0
VERTEX
  5
6BB
  8
PCB
 10
63.17599999999999
 20
10.57400000000001
 30
0.0
  0
VERTEX
  5
6BC
  8
PCB
 10
63.34399999999999
 20
10.81800000000001
 30
0.0
  0
VERTEX
  5
6BD
  8
PCB
 10
63.50700000000001
 20
11.06399999999999
 30
0.0
  0
VERTEX
  5
6BE
  8
PCB
 10
63.66499999999999
 20
11.31299999999999
 30
0.0
  0
VERTEX
  5
6BF
  8
PCB
 10
63.81800000000001
 20
11.56399999999999
 30
0.0
  0
VERTEX
  5
6C0
  8
PCB
 10
63.965
 20
11.81800000000001
 30
0.0
  0
VERTEX
  5
6C1
  8
PCB
 10
64.108
 20
12.07299999999999
 30
0.0
  0
VERTEX
  5
6C2
  8
PCB
 10
64.245
 20
12.331
 30
0.0
  0
VERTEX
  5
6C3
  8
PCB
 10
64.37700000000001
 20
12.59
 30
0.0
  0
VERTEX
  5
6C4
  8
PCB
 10
64.50399999999999
 20
12.851
 30
0.0
  0
VERTEX
  5
6C5
  8
PCB
 10
64.626
 20
13.113
 30
0.0
  0
VERTEX
  5
6C6
  8
PCB
 10
64.74199999999999
 20
13.377
 30
0.0
  0
VERTEX
  5
6C7
  8
PCB
 10
64.85300000000001
 20
13.642
 30
0.0
  0
VERTEX
  5
6C8
  8
PCB
 10
64.87100000000001
 20
13.687
 30
0.0
  0
VERTEX
  5
6C9
  8
PCB
 10
64.887
 20
13.732
 30
0.0
  0
VERTEX
  5
6CA
  8
PCB
 10
64.90299999999999
 20
13.77800000000001
 30
0.0
  0
VERTEX
  5
6CB
  8
PCB
 10
64.917
 20
13.824
 30
0.0
  0
VERTEX
  5
6CC
  8
PCB
 10
64.93100000000001
 20
13.871
 30
0.0
  0
VERTEX
  5
6CD
  8
PCB
 10
64.94300000000001
 20
13.91800000000001
 30
0.0
  0
VERTEX
  5
6CE
  8
PCB
 10
64.95400000000001
 20
13.965
 30
0.0
  0
VERTEX
  5
6CF
  8
PCB
 10
64.964
 20
14.012
 30
0.0
  0
VERTEX
  5
6D0
  8
PCB
 10
64.97999999999999
 20
14.108
 30
0.0
  0
VERTEX
  5
6D1
  8
PCB
 10
64.987
 20
14.15600000000001
 30
0.0
  0
VERTEX
  5
6D2
  8
PCB
 10
64.99199999999999
 20
14.20399999999999
 30
0.0
  0
VERTEX
  5
6D3
  8
PCB
 10
64.99600000000001
 20
14.253
 30
0.0
  0
VERTEX
  5
6D4
  8
PCB
 10
64.999
 20
14.301
 30
0.0
  0
VERTEX
  5
6D5
  8
PCB
 10
65.001
 20
14.349
 30
0.0
  0
VERTEX
  5
6D6
  8
PCB
 10
65.001
 20
14.39700000000001
 30
0.0
  0
VERTEX
  5
6D7
  8
PCB
 10
65.0
 20
16.25
 30
0.0
 42
-0.9999999999999999
  0
VERTEX
  5
6D8
  8
PCB
 10
67.0
 20
16.25
 30
0.0
  0
VERTEX
  5
6D9
  8
PCB
 10
67.001
 20
8.99600000000001
 30
0.0
 42
0.4142135623730929
  0
VERTEX
  5
6DA
  8
PCB
 10
68.001
 20
7.996000000000009
 30
0.0
  0
VERTEX
  5
6DB
  8
PCB
 10
142.001
 20
7.996000000000009
 30
0.0
 42
0.4142135623730976
  0
VERTEX
  5
6DC
  8
PCB
 10
143.001
 20
8.99600000000001
 30
0.0
  0
VERTEX
  5
6DD
  8
PCB
 10
143.0
 20
20.25
 30
0.0
 42
-0.9999999999999999
  0
VERTEX
  5
6DE
  8
PCB
 10
145.0
 20
20.25
 30
0.0
  0
VERTEX
  5
6DF
  8
PCB
 10
145.0009999999999
 20
18.10899999999999
 30
0.0
 42
0.6556278837708575
  0
VERTEX
  5
6E0
  8
PCB
 10
151.729074465806
 20
15.18354050329278
 30
0.0
 42
-0.268561194904837
  0
VERTEX
  5
6E1
  8
PCB
 10
152.7058723373199
 20
15.40753561141619
 30
0.0
  0
SEQEND
  5
6E2
  8
PCB
  0
POLYLINE
  5
6E4
  8
HOLDINGBLOCK
 66
     1
 10
0.0
 20
0.0
 30
0.0
 70
     1
  0
VERTEX
  5
6E5
  8
HOLDINGBLOCK
 10
0.0
 20
0.0
 30
0.0
  0
VERTEX
  5
6E6
  8
HOLDINGBLOCK
 10
70.0
 20
0.0
 30
0.0
  0
VERTEX
  5
6E7
  8
HOLDINGBLOCK
 10
70.0
 20
70.0
 30
0.0
  0
VERTEX
  5
6E8
  8
HOLDINGBLOCK
 10
0.0
 20
70.0
 30
0.0
  0
SEQEND
  5
6E9
  8
HOLDINGBLOCK
  0
CIRCLE
  5
6EA
  8
PCB
 10
158.75
 20
12.5
 30
0.0
 40
1.6
  0
CIRCLE
  5
6EB
  8
PCB
 10
149.0
 20
18.0
 30
0.0
 40
1.6
  0
CIRCLE
  5
6EC
  8
PCB
 10
178.25
 20
35.0
 30
0.0
 40
1.6
  0
CIRCLE
  5
6ED
  8
PCB
 10
158.75
 20
57.5
 30
0.0
 40
1.6
  0
CIRCLE
  5
6EE
  8
PCB
 10
149.0
 20
51.75
 30
0.0
 40
1.6
  0
CIRCLE
  5
6EF
  8
PCB
 10
19.5
 20
19.5
 30
0.0
 40
1.6
  0
CIRCLE
  5
6F0
  8
PCB
 10
50.5
 20
19.25
 30
0.0
 40
1.6
  0
CIRCLE
  5
6F1
  8
PCB
 10
50.5
 20
50.5
 30
0.0
 40
1.6
  0
CIRCLE
  5
6F2
  8
PCB
 10
19.5
 20
50.5
 30
0.0
 40
1.6
  0
CIRCLE
  5
6F3
  8
PCB
 10
97.5
 20
21.0
 30
0.0
 40
8.65
  0
CIRCLE
  5
6F4
  8
PCB
 10
158.75
 20
57.5
 30
0.0
 40
3.45
  0
CIRCLE
  5
6F5
  8
PCB
 10
158.75
 20
12.5
 30
0.0
 40
3.45
  0
CIRCLE
  5
6F6
  8
PCB
 10
149.0
 20
18.0
 30
0.0
 40
3.45
  0
CIRCLE
  5
6F7
  8
PCB
 10
149.0
 20
51.75
 30
0.0
 40
3.45
  0
CIRCLE
  5
6F8
  8
PCB
 10
178.25
 20
35.0
 30
0.0
 40
3.45
  0
ARC
  5
6F9
  8
PCB
 10
131.25
 20
34.996
 30
0.0
 40
1.0
 50
270.0
 51
90.0
  0
LINE
  5
6FA
  8
PCB
  6
CONTINUOUS
 10
78.75
 20
36.004
 30
0.0
 11
131.25
 21
36.0
 31
0.0
  0
ENDSEC
  0
EOF
